<svg xmlns="http://www.w3.org/2000/svg" viewBox="0 0 24 24" width="24" height="24">
  <path transform="matrix(0.6676446617766911, 0, 0, 0.6676446617766911, 0.0068459657701711585, 17.615428812473304)" d="M6.27-21.21L7.96-21.21C7.90-21.87 8.11-22.52 8.53-23.03L6.27-23.03C5.77-23.03 5.37-22.62 5.37-22.13C5.37-21.62 5.77-21.21 6.27-21.21ZM14.03-21.21L24.74-21.21L25.68-22.61C25.77-22.76 25.89-22.90 26.02-23.03L12.75-23.03C12.88-22.90 13.00-22.76 13.10-22.61ZM30.81-21.21L32.03-21.21C32.53-21.21 32.94-21.62 32.94-22.13C32.94-22.62 32.53-23.03 32.03-23.03L30.23-23.03C30.66-22.52 30.86-21.87 30.81-21.21ZM12.96-3.73C14.48-1.90 16.95-2.16 18.19-4.02L29.30-20.67C29.74-21.32 29.54-22.20 28.92-22.61C28.28-23.04 27.41-22.86 26.98-22.22L21.95-14.66C21.39-13.82 20.46-13.38 19.46-13.38C18.40-13.38 17.33-13.88 16.64-14.91L11.79-22.22C11.36-22.86 10.50-23.04 9.86-22.61C9.22-22.20 9.02-21.32 9.46-20.67L15.41-11.74C15.67-11.37 15.68-10.91 15.41-10.51L13.85-8.14L10.35-11.18C9.79-11.67 8.92-11.72 8.31-11.10L3.40-6.16C2.85-5.61 2.85-4.76 3.40-4.21C4.00-3.63 4.84-3.70 5.33-4.21L9.29-8.13ZM19.46-14.67C20.99-14.67 22.23-15.91 22.23-17.44C22.23-18.96 20.99-20.19 19.46-20.19C17.94-20.19 16.71-18.96 16.71-17.44C16.71-15.91 17.94-14.67 19.46-14.67ZM16.15 5.59C16.58 4.93 16.41 4.11 15.76 3.68L11.47 0.81L13.64-1.58C13.03-1.86 12.46-2.31 11.96-2.89L11.06-3.97L8.21 0.29C7.79 0.93 7.95 1.80 8.60 2.24L14.24 5.98C14.89 6.41 15.75 6.20 16.15 5.59Z" fill="currentColor"/>
</svg>
