<svg viewBox="0 0 23 24" xmlns="http://www.w3.org/2000/svg"><path d="m17.498047 0c-1.38 0-2.498047 1.12-2.498047 2.5s1.118047 2.5 2.498047 2.5c1.383 0 2.501953-1.12 2.501953-2.5s-1.118953-2.5-2.501953-2.5zm-9.498047 5c-.26519889 0-.51951934.10543258-.707031.2929688l-3.0000002 3.0000002c-.18754553.18750544-.2929688.44182992-.2929688.707031 0 .55228475.44771525 1 1 1 .26520118-.00004014.51952575-.10542335.7070312-.292969.00327767-.00323248.00653298-.00648756.0097657-.009765l2.4960941-2.496094 2.320312.386719-2.140625 3.566406.001953.007812c-.247.388-.394531.844891-.394531 1.337891 0 .665.2645 1.264891.6875 1.712891v.009765l3.738281 3.863282.574219 4.914062c0 .5522847.4477153 1 1 1s1-.4477153 1-1v-6c-.0001069-.2055233-.0635305-.4060234-.181641-.574219l-2.03125-2.902343 2.853516-4.730469-.005859-.009766c.227-.377.365234-.812203.365234-1.283203 0-1.38-1.118-2.499-2.5-2.5h-.001953zm9.292969 3.875-1.292969 2.125.216797.109375 1.275391.751953c.1538502.090742.3291951.1386247.507812.138672h4c.5522847 0 1-.4477153 1-1s-.4477153-1-1-1h-3.345703zm-10.4218752 5.734375-1.5019532 1.792969-4.3691406.597656c-.55228475 0-1 .4477153-1 1s.44771525 1 1 1h5c.27222126-.000492.53247942-.1119306.7207031-.308594l.0683594-.072265 2.1093755-1.919922z"/></svg>