<svg height="24" viewBox="0 0 24 24" width="24" xmlns="http://www.w3.org/2000/svg"><path d="m18.8121942 13.7257427c.3902229.3482242.8348955.373704 1.2069685.0254798l2.7315603-2.5394885c.3539231-.3312376.3266983-.7728878-.0544497-1.121112l-.6533965-.62000885c-.3539231-.32274436-.5807969-.37370399-.9619448-.34822418l-1.0617693.11890582-.6806214-.63699544.3085484-1.19755143c.1542742-.58603581-.0816746-1.20604471-.744146-1.8260536l-1.8240652-1.69016124c-2.5228365-2.3526365-7.1692115-2.61592795-9.77372251-.186852-.43559765.40767708-.35392309.8663138-.07259961 1.15508507.21779883.19534527.55357203.29726454.87119532.20383854 1.76054055-.49260981 3.2942073-.58603581 4.6191502.15287891l-.6987713 1.71564105c-.2994733.72192817-.1361242 1.23152452.3539231 1.69865452l2.0237142 1.89399973c.372073.3482242.7622959.4501435 1.3521677.3397309l1.4610672-.2802779.6715463.6369954-.0998244.9937129c-.0272249.373704.0090749.5945291.372073.9087801zm-15.77561644 7.7232017c.79071684.7925294 1.71470056.7301956 2.51430186-.1870013l8.44912038-9.6439247-2.6120309-2.6180184-9.64852233 8.4417735c-.92398372.810339-.97729048 1.7275359-.18657364 2.5289701z"/></svg>