<?xml version="1.0" encoding="UTF-8"?>
<svg width="24px" height="24px" viewBox="0 0 24 24" version="1.1" xmlns="http://www.w3.org/2000/svg" xmlns:xlink="http://www.w3.org/1999/xlink">
    <title>icon</title>
    <g id="Page-1" stroke="none" stroke-width="1" fill="none" fill-rule="evenodd">
        <path d="M18.8121942,13.7257427 C19.2024171,14.0739669 19.6470897,14.0994467 20.0191627,13.7512225 L22.750723,11.211734 C23.1046461,10.8804964 23.0774213,10.4388462 22.6962733,10.090622 L22.0428768,9.47061315 C21.6889537,9.14786879 21.4620799,9.09690916 21.080932,9.12238897 L20.0191627,9.24129479 L19.3385413,8.60429935 L19.6470897,7.40674792 C19.8013639,6.82071211 19.5654151,6.20070321 18.9029437,5.58069432 L17.0788785,3.89053308 C14.556042,1.53789658 9.909667,1.27460513 7.30515599,3.70368108 C6.86955834,4.11135816 6.9512329,4.56999488 7.23255638,4.85876615 C7.45035521,5.05411142 7.78612841,5.15603069 8.1037517,5.06260469 C9.86429225,4.56999488 11.397959,4.47656888 12.7229019,5.2154836 L12.0241306,6.93112465 C11.7246573,7.65305282 11.8880064,8.16264917 12.3780537,8.62977917 L14.4017679,10.5237789 C14.7738409,10.8720031 15.1640638,10.9739224 15.7539356,10.8635098 L17.2150028,10.5832319 L17.8865491,11.2202273 L17.7867247,12.2139402 C17.7594998,12.5876442 17.7957996,12.8084693 18.1587977,13.1227203 L18.8121942,13.7257427 Z M3.03657776,21.4489444 C3.8272946,22.2414738 4.75127832,22.17914 5.55087962,21.2619431 L14,11.6180184 L11.3879691,9 L1.73944677,17.4417735 C0.815463047,18.2521125 0.762156294,19.1693094 1.55287313,19.9707436 L3.03657776,21.4489444 Z" id="Shape" fill="#000000" fill-rule="nonzero"></path>
    </g>
</svg>