<?xml version="1.0" encoding="UTF-8"?>
<svg width="24px" height="24px" viewBox="0 0 24 24" version="1.1" xmlns="http://www.w3.org/2000/svg" xmlns:xlink="http://www.w3.org/1999/xlink">
    <title>icon</title>
    <g id="Page-1" stroke="none" stroke-width="1" fill="none" fill-rule="evenodd">
        <path d="M15.3815428,2.46503822 L21.487436,8.42959486 C23.4377758,6.53522569 23.5153461,4.13208309 21.6425767,2.31348869 C19.7808887,0.516544219 17.3318826,0.559844085 15.3815428,2.46503822 Z M14.2733952,3.55835985 C13.0987587,4.68415639 12.6111738,5.97232742 12.7773959,7.21719859 L2.48270481,18.0529902 C2.06160872,18.4968139 1.99511987,19.113837 2.51594923,19.6226104 L1.09752032,21.4087299 C0.964542605,21.5819294 0.953461129,21.8309036 1.1529277,22.025753 L1.4742905,22.350502 C1.66267559,22.5345264 1.91754953,22.5453514 2.1170161,22.3938019 L3.94545963,20.9973812 C4.44412605,21.5061546 5.08685165,21.4412048 5.53011069,21.0298561 L11.2813967,15.8338721 L11.2813967,22.014928 C11.2813967,22.5670013 11.7246557,23 12.289811,23 C12.8549663,23 13.2982253,22.5670013 13.2982253,22.014928 L13.2982253,15.6173727 L13.220655,14.0694025 L16.6005051,11.0059369 C17.8748749,11.1683114 19.2157335,10.659538 20.368207,9.52291649 L14.2733952,3.55835985 Z M3.62409683,18.9406375 L13.3868771,8.83011862 C13.5752622,9.13321769 13.8079732,9.42549179 14.0850101,9.70694092 C14.362047,9.97756509 14.6501654,10.2157144 14.9493652,10.4105638 L4.64359261,19.9365344 L3.62409683,18.9406375 Z" id="Shape" fill="#000000" fill-rule="nonzero"></path>
    </g>
</svg>