<?xml version="1.0" encoding="UTF-8"?>
<svg width="24px" height="24px" viewBox="0 0 24 24" version="1.1" xmlns="http://www.w3.org/2000/svg" xmlns:xlink="http://www.w3.org/1999/xlink">
    <title>icon</title>
    <g id="Page-1" stroke="none" stroke-width="1" fill="none" fill-rule="evenodd">
        <path d="M10.9486913,1.05115438 C14.5428422,0.692700816 18.2776042,2.23996702 20.492505,5.00507045 C20.7156579,5.28370642 20.8133779,5.41269507 20.9839188,5.65402591 C24.0603074,10.0064324 23.5712812,15.9318857 19.8225348,19.7275325 L19.6280462,19.9211782 C19.4326142,20.1127164 19.2451684,20.2876642 19.1630529,20.3536098 C19.0536509,20.4414518 18.944931,20.5317695 18.9214816,20.5542208 C18.6394069,20.8248324 17.7024548,21.4380193 17.0793833,21.7598507 C10.7882122,25.0093231 3.1184732,21.5949227 1.35465322,14.7592927 C-0.335407788,8.20989627 4.20405175,1.72375633 10.9486913,1.05115438 Z M11.8102771,11.1157578 L11.7480665,11.1227603 C11.7094674,11.1293734 11.64365,11.1940697 11.5705902,11.2971696 C11.3780722,11.5688624 11.0039394,12.0976675 10.6559904,12.5898219 C10.475251,12.8454203 10.2299676,13.192008 10.1109073,13.3600432 C9.80609375,13.7901306 8.72929807,15.3118495 8.61692294,15.4714391 C7.87319377,16.5269777 7.27128647,17.3775914 6.67757651,18.2123497 C6.58191439,18.3468417 6.41414756,18.5847521 6.3047171,18.7410751 C6.19528665,18.8973981 6.04900797,19.1027214 5.97968875,19.1973757 C5.84144824,19.3862062 5.83094292,19.4236536 5.90010297,19.4807808 C6.68267,20.1271069 7.53399915,20.6437217 8.43817326,21.020825 C8.89865662,21.2128425 8.88584331,21.2139579 8.95619715,20.9756491 C8.98755394,20.8697606 9.07072109,20.5978287 9.1412341,20.3714711 C9.21166752,20.1450339 9.33136454,19.7566167 9.40728938,19.5082688 C9.48321422,19.2600005 9.59749941,18.8895102 9.66124762,18.6849837 C9.72499584,18.4804572 9.91632007,17.8589897 10.0863949,17.3039714 C10.2564697,16.7488735 10.6459626,15.4820359 10.9518903,14.4887238 C10.9794116,14.3993743 11.0062051,14.3123741 11.0322888,14.227663 L11.3123784,13.3171647 C11.8504221,11.5658299 11.9573977,11.1995262 11.9500552,11.1624386 C11.9418579,11.1207684 11.8574174,11.104196 11.7480665,11.1227603 Z M12.629877,11.2021169 C12.582046,11.1131196 12.3001531,11.0875438 12.3001531,11.1722387 C12.3001531,11.1781745 12.3088031,11.2119419 12.3244206,11.2678416 L12.364447,11.4074621 C12.4208195,11.6008404 12.5090194,11.8940307 12.6076726,12.2146309 C12.6264637,12.2757064 12.6457372,12.3383499 12.665271,12.4018397 L12.7838195,12.78716 C12.9019366,13.1710888 13.0134275,13.5335229 13.0703048,13.7185821 C13.1556207,13.9960913 13.2863802,14.4203623 13.3607929,14.6613802 C13.4352852,14.902398 13.6279624,15.5298411 13.7891236,16.0556982 C14.1713665,17.3033037 14.2780232,17.6510611 14.3627972,17.9234521 L14.3922219,18.0178032 L14.4223081,18.1139507 C14.4795303,18.2965665 14.5930992,18.6670568 14.6747542,18.9373154 C14.7563296,19.2074944 14.8867707,19.6317655 14.9646056,19.8801135 C15.085974,20.2672558 15.3001393,20.9727808 15.3416035,21.1216939 C15.4051925,21.3504418 17.515728,20.2321987 18.1762104,19.6198142 C18.2054184,19.5927246 18.2626406,19.5507357 18.3033089,19.5264347 C18.4441758,19.4424569 18.4297708,19.4007071 18.1036282,18.9467171 C17.7677762,18.479262 16.9074538,17.2674005 16.5037947,16.6931008 C15.9476493,15.9020045 15.7793253,15.663377 15.3517905,15.0597568 C15.1086559,14.7165155 14.8746737,14.3857036 14.8318565,14.3245926 C14.741845,14.1962357 13.5790967,12.556438 12.8892471,11.5850365 C12.7681971,11.414611 12.6515244,11.2422733 12.629877,11.2021169 Z M11.1019095,11.1305248 L10.9074019,11.1320823 L10.4165963,11.5165954 C10.1467209,11.7280537 9.83036742,11.976083 9.71361507,12.0677892 C9.42798168,12.2922346 8.47478273,13.0338525 8.33781559,13.1383068 C8.27740998,13.1842795 7.99328872,13.4053785 7.70646155,13.6295848 C7.41963438,13.8537912 7.01541817,14.1687477 6.80817678,14.3293731 C6.6009354,14.4900782 6.33185585,14.699226 6.21032836,14.7941989 C6.08872128,14.8890922 5.83038582,15.089874 5.63627609,15.240301 C5.44216635,15.390728 5.14602764,15.6209897 4.97826081,15.7518962 C4.81049397,15.8828028 4.56576768,16.0723504 4.43445113,16.17306 C4.30313459,16.2737696 4.08825296,16.4386178 3.95693642,16.5392477 C3.67440688,16.7558849 3.66740333,16.7776363 3.80803141,17.002002 C4.15208076,17.5511243 4.46477332,17.996828 4.68124665,18.2467695 L4.76178747,18.3397505 L4.9850256,18.1007246 C5.10782647,17.9692603 5.31952466,17.73621 5.45545718,17.582835 C5.59146929,17.42946 5.78144056,17.2200733 5.87765977,17.1175312 C5.97395858,17.014989 6.10049997,16.8775491 6.15899553,16.8121357 C6.46500287,16.4696115 7.05775781,15.8150788 7.44542017,15.3915248 C7.92301447,14.8697311 8.19909756,14.5652917 8.60140371,14.1169587 C8.74553357,13.9562536 9.01206637,13.6634468 9.19360154,13.4662504 C9.37513672,13.269054 9.56685888,13.0599063 9.61954467,13.0015043 C10.108281,12.4597918 10.5732211,11.9476389 10.894111,11.5976252 C11.1057296,11.3668855 11.282808,11.1670598 11.2876627,11.1535947 C11.2925175,11.1399702 11.2099074,11.1297717 11.1019095,11.1305248 Z M13.4559775,11.2162195 C13.3579278,11.1343132 12.9633415,11.0776641 12.9633415,11.1455474 C12.9633415,11.1595703 13.4239044,11.6753883 13.4703825,11.7133934 C13.4792961,11.7207236 13.670302,11.9309867 13.8948135,12.1807688 C14.2848634,12.6146009 14.6846228,13.0544087 15.0040802,13.401076 C15.0854169,13.4893563 15.2534225,13.6743623 15.3774967,13.8122006 C15.4270946,13.867336 15.4931317,13.9404843 15.5643208,14.0191831 L15.7820574,14.2594686 L15.8813543,14.3687327 C15.9833833,14.4809156 16.091673,14.6005348 16.1676922,14.6849552 L16.2527016,14.7798574 C16.408451,14.9559398 16.5719998,15.1356873 16.9310112,15.5250606 L17.0575278,15.6628205 C17.2412653,15.8634289 17.4747254,16.1202512 17.6322416,16.2952819 C17.8290572,16.5140703 18.0123433,16.7170034 18.0394025,16.7462442 C18.0665412,16.7754054 18.3547214,17.0921148 18.6798293,17.4500163 C19.0050168,17.8079178 19.3202561,18.1545054 19.3803434,18.2202376 L19.4896147,18.3397505 L19.5624357,18.2575256 C19.8929554,17.8846451 20.5843172,16.8475115 20.5569396,16.7655256 C20.5508911,16.74728 20.2643823,16.514389 19.9201738,16.2479548 C19.5760448,15.9815205 19.2254694,15.709748 19.1411085,15.6440159 C19.0567476,15.5782837 18.9185867,15.470722 18.8340666,15.4049899 C18.7494669,15.3392578 18.4579441,15.1121831 18.1861587,14.9004061 C17.4915339,14.3590123 17.4228514,14.3056299 17.0749023,14.0372834 C16.7458151,13.7834379 16.6452187,13.7050373 15.8244505,13.063651 C15.5377029,12.8395244 15.0791296,12.4828976 14.8055137,12.2711207 C14.5318181,12.0593437 14.2948117,11.8737798 14.2789741,11.8587212 C14.2381466,11.8203177 13.6861396,11.3895929 13.6172979,11.3424252 C13.5859411,11.3209128 13.5133588,11.264184 13.4559775,11.2162195 Z M10.4404895,11.1324096 L10.3768034,11.1324807 C10.1865138,11.1335165 9.88368989,11.2444245 8.61270489,11.7782491 C8.45950226,11.8426268 8.15508662,11.9666016 7.93622571,12.0538461 C7.46499827,12.2415611 6.69922384,12.5515778 5.69453288,12.9613479 C4.01200978,13.6475914 2.940228,14.0790333 2.76975525,14.1388694 C2.66637331,14.175042 2.78296649,14.6713396 3.10027502,15.5464136 C3.17031051,15.7396262 3.13210933,15.7500637 3.7358471,15.3730401 C4.49796059,14.8971394 5.8640506,14.048916 6.46388867,13.6793022 C7.06858147,13.3066608 7.71585267,12.9057346 7.88314199,12.8001648 C7.97068636,12.7449498 8.10797184,12.6592988 8.18819431,12.6098204 C8.26849637,12.5603421 8.46547119,12.4384388 8.62591613,12.3389244 C8.78644066,12.2394099 9.1624835,12.0086702 9.46156689,11.826134 C10.0921251,11.4413819 10.4345031,11.2274537 10.5094729,11.1712029 C10.558259,11.1347116 10.5475945,11.1315246 10.3768034,11.1324807 Z M14.5020531,11.3167697 C13.9825966,11.114235 13.9485339,11.1050724 13.7989922,11.1270628 L13.6929044,11.1426791 L13.7591993,11.1857835 C13.9424854,11.3049778 14.1331729,11.421224 14.1455087,11.421224 C14.1530694,11.421224 14.1916685,11.4438518 14.231143,11.4714992 C14.2706972,11.4991465 14.4642498,11.6208107 14.6612246,11.7418375 C15.143992,12.0387078 15.7533008,12.4149346 15.9478084,12.5363598 C16.2143412,12.7028015 17.3202653,13.388567 18.5800287,14.1685087 C19.495577,14.7353388 20.095634,15.1079298 20.4597324,15.3360326 L20.6750803,15.4714775 C20.7549049,15.5219592 20.8141277,15.5598485 20.8550658,15.5865947 L20.9030488,15.6185378 C20.914665,15.6265205 20.9219996,15.6318986 20.9253422,15.6348532 C21.0830813,15.774046 21.1894875,15.5735829 21.4409786,14.6635314 C21.5445992,14.28842 21.5553433,14.1629314 21.4857058,14.1394272 C21.4412173,14.1244482 20.2823687,13.6608175 20.0066835,13.5477583 C19.6820531,13.4146208 18.0337519,12.7452685 17.1018023,12.3680855 C16.5400859,12.1406922 15.8297827,11.8519488 15.5233774,11.7263008 C15.2169722,11.6006529 14.7573643,11.4163639 14.5020531,11.3167697 Z M15.5366683,11.168972 C15.0965589,11.1057098 14.5260084,11.1045943 14.7192427,11.1673785 L14.7766937,11.1863113 C14.874032,11.2184454 15.0813182,11.2869711 15.3111222,11.3629814 C15.5766734,11.4508845 16.3921801,11.7198188 17.2317972,11.9964492 L17.6191099,12.12404 C18.582098,12.4413071 19.8882599,12.8731474 20.5216831,13.0837292 C21.1550268,13.2943111 21.6782238,13.4615496 21.6843519,13.4554942 C21.724304,13.4154176 21.8019797,12.240366 21.7669619,12.2052292 C21.7653702,12.2036357 21.7581012,12.2012272 21.7445528,12.1979012 L21.6391671,12.1763941 C21.4367195,12.1385362 20.9757013,12.0621042 20.1260622,11.9249314 C19.8561868,11.8812693 19.5398333,11.8282852 19.423081,11.8070119 C19.3063286,11.7857386 19.0556334,11.7436701 18.8659805,11.7134731 C18.5128583,11.6573455 17.6140789,11.5102793 17.0194257,11.4116135 L16.6773713,11.3545358 C16.4658323,11.3189209 16.1793235,11.270797 16.0406851,11.2475319 C15.9020466,11.2242667 15.6752271,11.1889705 15.5366683,11.168972 Z M9.59200799,11.1400499 C9.6697633,11.0630835 8.80355161,11.1479377 7.80355621,11.3151762 C6.59098717,11.5180296 5.76194204,11.6553101 4.19569377,11.9125021 C3.61201162,12.0083515 2.99187918,12.1104952 2.81750672,12.139497 C2.46327039,12.1982974 2.45467512,12.2045121 2.47146772,12.3906336 C2.47807334,12.4636959 2.49629849,12.7027218 2.51197689,12.921829 C2.54826801,13.4278469 2.55081475,13.4397185 2.62451119,13.4397185 C2.65714136,13.4397185 3.32247853,13.2264277 4.10297633,12.9657301 C4.88347414,12.7050324 6.20252895,12.2679336 7.03420042,11.9944083 C8.88862881,11.3844937 9.57760296,11.1543914 9.59200799,11.1400499 Z M13.0164252,2.51161136 C8.31250731,2.04997257 3.91029915,5.19053456 2.77986264,9.8144916 C2.66279195,10.2931809 2.529247,11.1007699 2.56139966,11.1355084 C2.5706142,11.1454802 3.74704095,11.1525985 4.99791853,11.1551644 L5.49965003,11.155944 C5.58307031,11.1560321 5.66617393,11.156099 5.74863709,11.1561441 L6.23314041,11.15615 C6.31174665,11.1561062 6.38906487,11.1560396 6.4647713,11.1559497 L6.89707809,11.1551276 C7.50875522,11.1534638 7.93742447,11.149835 7.94704938,11.1438743 C7.95843015,11.1367832 7.97538192,11.0021319 7.98461387,10.8446138 C8.13725941,8.25253668 10.7265034,6.42470522 13.2418917,7.13325782 C14.904598,7.60166901 16.1622921,9.10466419 16.2672658,10.748844 C16.2755427,10.877679 16.2881173,11.0218914 16.29528,11.0693778 L16.3084116,11.1556662 L19.6927081,11.1552339 C21.1099045,11.1532918 21.6905077,11.1446676 21.6965285,11.1265847 C21.7018608,11.11057 21.6907983,10.9821334 21.6720161,10.8411081 C21.0763961,6.37793581 17.5177177,2.95333132 13.0164252,2.51161136 Z" id="pekinexpress" fill="#000000"></path>
    </g>
</svg>