<svg height="24" viewBox="0 0 24 24" width="24" xmlns="http://www.w3.org/2000/svg"><path d="m10.9486913 1.05115438c3.5941509-.35845356 7.3289129 1.18881264 9.5438137 3.95391607.2231529.27863597.3208729.40762462.4914138.64895546 3.0763886 4.35240649 2.5873624 10.27785979-1.161384 14.07350659l-.1944886.1936457c-.195432.1915382-.3828778.366486-.4649933.4324316-.109402.087842-.2181219.1781597-.2415713.200611-.2820747.2706116-1.2190268.8837985-1.8420983 1.2056299-6.2911711 3.2494724-13.9609101-.164928-15.72473008-7.000558-1.69006101-6.54939643 2.84939853-13.03553637 9.59403808-13.70813832zm.8615858 10.06460342-.0622106.0070025c-.0385991.0066131-.1044165.0713094-.1774763.1744093-.192518.2716928-.5666508.8004979-.9145998 1.2926523-.1807394.2555984-.4260228.6021861-.5450831.7702213-.30481355.4300874-1.38160923 1.9518063-1.49398436 2.1113959-.74372917 1.0555386-1.34563647 1.9061523-1.93934643 2.7409106-.09566212.134492-.26342895.3724024-.37285941.5287254-.10943045.156323-.25570913.3616463-.32502835.4563006-.13824051.1888305-.14874583.2262779-.07958578.2834051.78256703.6463261 1.63389618 1.1629409 2.53807029 1.5400442.46048336.1920175.44767005.1931329.51802389-.0451759.03135679-.1058885.11452394-.3778204.18503695-.604178.07043342-.2264372.19013044-.6148544.26605528-.8632023.07592484-.2482683.19021003-.6187586.25395824-.8232851.06374822-.2045265.25507245-.825994.42514728-1.3810123.1700748-.5550979.5595677-1.8219355.8654954-2.8152476.0275213-.0893495.0543148-.1763497.0803985-.2610608l.2800896-.9104983c.5380437-1.7513348.6450193-2.1176385.6376768-2.1547261-.0081973-.0416702-.0926378-.0582426-.2019887-.0396783zm.8195999.0863591c-.047831-.0889973-.3297239-.1145731-.3297239-.0298782 0 .0059358.00865.0397032.0242675.0956029l.0400264.1396205c.0563725.1933783.1445724.4865686.2432256.8071688.0187911.0610755.0380646.123719.0575984.1872088l.1185485.3853203c.1181171.3839288.229608.7463629.2864853.9314221.0853159.2775092.2160754.7017802.2904881.9427981.0744923.2410178.2671695.8684609.4283307 1.394318.3822429 1.2476055.4888996 1.5953629.5736736 1.8677539l.0294247.0943511.0300862.0961475c.0572222.1826158.1707911.5531061.2524461.8233647.0815754.270179.2120165.6944501.2898514.9427981.1213684.3871423.3355337 1.0926673.3769979 1.2415804.063589.2287479 2.1741245-.8894952 2.8346069-1.5018797.029208-.0270896.0864302-.0690785.1270985-.0933795.1408669-.0839778.1264619-.1257276-.1996807-.5797176-.335852-.4674551-1.1961744-1.6793166-1.5998335-2.2536163-.5561454-.7910963-.7244694-1.0297238-1.1520042-1.633344-.2431346-.3432413-.4771168-.6740532-.519934-.7351642-.0900115-.1283569-1.2527598-1.7681546-1.9426094-2.7395561-.12105-.1704255-.2377227-.3427632-.2593701-.3829196zm-1.5279675-.0715921-.1945076.0015575-.4908056.3845131c-.2698754.2114583-.58622888.4594876-.70298123.5511938-.28563339.2244454-1.23883234.9660633-1.37579948 1.0705176-.06040561.0459727-.34452687.2670717-.63135404.491278-.28682717.2242064-.69104338.5391629-.89828477.6997883-.20724138.1607051-.47632093.3698529-.59784842.4648258-.12160708.0948933-.37994254.2956751-.57405227.4461021-.19410974.150427-.49024845.3806887-.65801528.5115952-.16776684.1309066-.41249313.3204542-.54380968.4211638-.13131654.1007096-.34619817.2655578-.47751471.3661877-.28252954.2166372-.28953309.2383886-.14890501.4627543.34404935.5491223.65674191.994826.87321524 1.2447675l.08054082.092981.22323813-.2390259c.12280087-.1314643.33449906-.3645146.47043158-.5178896.13601211-.153375.32598338-.3627617.42220259-.4653038.09629881-.1025422.2228402-.2399821.28133576-.3053955.30600734-.3425242.89876228-.9970569 1.28642464-1.4206109.4775943-.5217937.75367739-.8262331 1.15598354-1.2745661.14412986-.1607051.41066266-.4535119.59219783-.6507083.18153518-.1971964.37325734-.4063441.42594313-.4647461.48873633-.5417125.95367643-1.0538654 1.27456633-1.4038791.2116186-.2307397.388697-.4305654.3935517-.4440305.0048548-.0136245-.0777553-.023823-.1857532-.0230699zm2.354068.0856947c-.0980497-.0819063-.492636-.1385554-.492636-.0706721 0 .0140229.4605629.5298409.507041.567846.0089136.0073302.1999195.2175933.424431.4673754.3900499.4338321.7898093.8736399 1.1092667 1.2203072.0813367.0882803.2493423.2732863.3734165.4111246.0495979.0551354.115635.1282837.1868241.2069825l.2177366.2402855.0992969.1092641c.102029.1121829.2103187.2318021.2863379.3162225l.0850094.0949022c.1557494.1760824.3192982.3558299.6783096.7452032l.1265166.1377599c.1837375.2006084.4171976.4574307.5747138.6324614.1968156.2187884.3801017.4217215.4071609.4509623.0271387.0291612.3153189.3458706.6404268.7037721.3251875.3579015.6404268.7044891.7005141.7702213l.1092713.1195129.072821-.0822249c.3305197-.3728805 1.0218815-1.4100141.9945039-1.492-.0060485-.0182456-.2925573-.2511366-.6367658-.5175708-.344129-.2664343-.6947044-.5382068-.7790653-.6039389-.0843609-.0657322-.2225218-.1732939-.3070419-.239026-.0845997-.0657321-.3761225-.2928068-.6479079-.5045838-.6946248-.5413938-.7633073-.5947762-1.1112564-.8631227-.3290872-.2538455-.4296836-.3322461-1.2504518-.9736324-.2867476-.2241266-.7453209-.5807534-1.0189368-.7925303-.2736956-.211777-.510702-.3973409-.5265396-.4123995-.0408275-.0384035-.5928345-.4691283-.6616762-.516296-.0313568-.0215124-.1039391-.0782412-.1613204-.1262057zm-3.015488-.0838099-.0636861.0000711c-.1902896.0010358-.49311351.1119438-1.76409851.6457684-.15320263.0643777-.45761827.1883525-.67647918.275597-.47122744.187715-1.23700187.4977317-2.24169283.9075018-1.6825231.6862435-2.75430488 1.1176854-2.92477763 1.1775215-.10338194.0361726.01321124.5324702.33051977 1.4075442.07003549.1932126.03183431.2036501.63557208-.1733735.76211349-.4759007 2.1282035-1.3241241 2.72804157-1.6937379.6046928-.3726414 1.251964-.7735676 1.41925332-.8791374.08754437-.055215.22482985-.140866.30505232-.1903444.08030206-.0494783.27727688-.1713816.43772182-.270896.16052453-.0995145.53656737-.3302542.83565076-.5127904.63055821-.3847521.97293621-.5986803 1.04790601-.6549311.0487861-.0364913.0381216-.0396783-.1326695-.0387222zm4.0615636.1843601c-.5194565-.2025347-.5535192-.2116973-.7030609-.1897069l-.1060878.0156163.0662949.0431044c.1832861.1191943.3739736.2354405.3863094.2354405.0075607 0 .0461598.0226278.0856343.0502752.0395542.0276473.2331068.1493115.4300816.2703383.4827674.2968703 1.0920762.6730971 1.2865838.7945223.2665328.1664417 1.3724569.8522072 2.6322203 1.6321489.9155483.5668301 1.5156053.9394211 1.8797037 1.1675239l.2153479.1354449c.0798246.0504817.1390474.088371.1799855.1151172l.047983.0319431c.0116162.0079827.0189508.0133608.0222934.0163154.1577391.1391928.2641453-.0612703.5156364-.9713218.1036206-.3751114.1143647-.5006.0447272-.5241042-.0444885-.014979-1.2033371-.4786097-1.4790223-.5916689-.3246304-.1331375-1.9729316-.8024898-2.9048812-1.1796728-.5617164-.2273933-1.2720196-.5161367-1.5784249-.6417847-.3064052-.1256479-.7660131-.3099369-1.0213243-.4095311zm1.0346152-.1477977c-.4401094-.0632622-1.0106599-.0643777-.8174256-.0015935l.057451.0189328c.0973383.0321341.3046245.1006598.5344285.1766701.2655512.0879031 1.0810579.3568374 1.920675.6334678l.3873127.1275908c.9629881.3172671 2.26915.7491074 2.9025732.9596892.6333437.2105819 1.1565407.3778204 1.1626688.371765.0399521-.0400766.1176278-1.2151282.08261-1.250265-.0015917-.0015935-.0088607-.004002-.0224091-.007328l-.1053857-.0215071c-.2024476-.0378579-.6634658-.1142899-1.5131049-.2514627-.2698754-.0436621-.5862289-.0966462-.7029812-.1179195-.1167524-.0212733-.3674476-.0633418-.5571005-.0935388-.3531222-.0561276-1.2519016-.2031938-1.8465548-.3018596l-.3420544-.0570777c-.211539-.0356149-.4980478-.0837388-.6366862-.1070039-.1386385-.0232652-.365458-.0585614-.5040168-.0785599zm-5.94466031-.0289221c.07775531-.0769664-.78845638.0078878-1.78845178.1751263-1.21256904.2028534-2.04161417.3401339-3.60786244.5973259-.58368215.0958494-1.20381459.1979931-1.37818705.2269949-.35423633.0588004-.3628316.0650151-.346039.2511366.00660562.0730623.02483077.3120882.04050917.5311954.03629112.5060179.03883786.5178895.1125343.5178895.03263017 0 .69796734-.2132908 1.47846514-.4739884.78049781-.2606977 2.09955262-.6977965 2.93122409-.9713218 1.85442839-.6099146 2.54340254-.8400169 2.55780757-.8543584zm3.42441721-8.62843854c-4.70391789-.46163879-9.10612605 2.6789232-10.23656256 7.30288024-.11707069.4786893-.25061564 1.2862783-.21846298 1.3210168.00921454.0099718 1.18564129.0170901 2.43651887.019656l.5017315.0007796c.08342028.0000881.1665239.000155.24898706.0002001l.48450332.0000059c.07860624-.0000438.15592446-.0001104.23163089-.0002003l.43230679-.0008221c.61167713-.0016638 1.04034638-.0052926 1.04997129-.0112533.01138077-.0070911.02833254-.1417424.03756449-.2992605.15264554-2.59207712 2.74188953-4.41990858 5.25727783-3.71135598 1.6627063.46841119 2.9204004 1.97140637 3.0253741 3.61558618.0082769.128835.0208515.2730474.0280142.3205338l.0131316.0862884 3.3842965-.0004323c1.4171964-.0019421 1.9977996-.0105663 2.0038204-.0286492.0053323-.0160147-.0057302-.1444513-.0245124-.2854766-.59562-4.46317229-4.1542984-7.88777678-8.6555909-8.32949674z" fill-rule="evenodd"/></svg>