<?xml version="1.0" encoding="UTF-8"?>
<svg width="24px" height="24px" viewBox="0 0 24 24" version="1.1" xmlns="http://www.w3.org/2000/svg" xmlns:xlink="http://www.w3.org/1999/xlink">
    <title>icon</title>
    <g id="Page-1" stroke="none" stroke-width="1" fill="none" fill-rule="evenodd">
        <path d="M12,23 C18.0176471,23 23,18.0068627 23,12 C23,5.98235294 18.0068627,1 11.9892157,1 C5.98235294,1 1,5.98235294 1,12 C1,18.0068627 5.99313725,23 12,23 Z M2.84411765,12 C2.84411765,6.90980392 6.89901961,2.83333333 11.9892157,2.83333333 C12.8196078,2.83333333 13.6284314,2.94117647 14.3941176,3.14607843 L13.0892157,7.17941176 C12.7441176,7.10392157 12.3882353,7.06078431 12.0215686,7.06078431 C9.29313725,7.06078431 7.03921569,9.29313725 7.03921569,12 C7.03921569,12.3882353 7.08235294,12.7764706 7.16862745,13.1431373 L3.16764706,14.4372549 C2.95196078,13.6607843 2.84411765,12.8411765 2.84411765,12 Z M13.9735294,7.47058824 L15.2892157,3.4372549 C16.8205882,4.01960784 18.1470588,5.00098039 19.15,6.25196078 L15.7529412,8.76470588 C15.2676471,8.21470588 14.6637255,7.76176471 13.9735294,7.47058824 Z M16.2921569,9.51960784 L19.7,7.00686275 C20.0666667,7.56764706 20.3686275,8.18235294 20.6058824,8.82941176 L16.604902,10.1343137 C16.5186275,9.91862745 16.4107843,9.71372549 16.2921569,9.51960784 Z M12.0107843,15.8823529 C9.8754902,15.8823529 8.13921569,14.1568627 8.13921569,12 C8.13921569,9.90784314 9.88627451,8.16078431 12.0107843,8.16078431 C14.1352941,8.16078431 15.8715686,9.89705882 15.8715686,12 C15.8715686,14.1352941 14.1460784,15.8823529 12.0107843,15.8823529 Z M12.0107843,14.6421569 C13.445098,14.6421569 14.6313725,13.4558824 14.6313725,12.0107843 C14.6313725,10.5872549 13.445098,9.40098039 12.0107843,9.40098039 C10.5656863,9.40098039 9.37941176,10.5872549 9.37941176,12.0215686 C9.37941176,13.4558824 10.5656863,14.6421569 12.0107843,14.6421569 Z M12,21.1666667 C11.1911765,21.1666667 10.4039216,21.0588235 9.65980392,20.8647059 L10.9647059,16.8745098 C11.2990196,16.95 11.654902,16.9823529 12.0107843,16.9823529 C14.75,16.9715686 16.9715686,14.75 16.9715686,12 C16.9715686,11.654902 16.9392157,11.3313725 16.8745098,11.0078431 L20.8754902,9.71372549 C21.0696078,10.4470588 21.166688,11.2127451 21.166688,12 C21.177451,17.0901961 17.0901961,21.1666667 12,21.1666667 Z M12.0107843,13.445098 C11.2127451,13.4343137 10.5872549,12.8088235 10.5872549,12.0107843 C10.5872549,11.2558824 11.2127451,10.5980392 12.0215686,10.5980392 C12.7872549,10.5980392 13.4235294,11.245098 13.4235294,12.0107843 C13.4235294,12.8088235 12.7872549,13.4558824 12.0107843,13.445098 Z M3.45882353,15.3215686 L7.45980392,14.0166667 C7.55686275,14.2215686 7.65392157,14.4156863 7.77254902,14.5990196 L4.3754902,17.1009804 C4.00882353,16.5509804 3.69607843,15.9578431 3.45882353,15.3215686 Z M4.93627451,17.8558824 L8.33333333,15.3539216 C8.81862745,15.8823529 9.41176471,16.3137255 10.0803922,16.5941176 L8.7754902,20.5843137 C7.26568627,20.0235294 5.95,19.0745098 4.93627451,17.8558824 Z" id="Shape" fill="#000000" fill-rule="nonzero"></path>
    </g>
</svg>