<svg height="24" viewBox="0 0 24 24" width="24" xmlns="http://www.w3.org/2000/svg"><path d="m15.3815428 2.46503822 6.1058932 5.96455664c1.9503398-1.89436917 2.0279101-4.29751177.1551407-6.11610617-1.861688-1.79694447-4.3106941-1.7536446-6.2610339.15154953zm-1.1081476 1.09332163c-1.1746365 1.12579654-1.6622214 2.41396757-1.4959993 3.65883874l-10.29469109 10.83579161c-.42109609.4438237-.48758494 1.0608468.03324442 1.5696202l-1.41842891 1.7861195c-.13297771.1731995-.14405919.4221737.05540738.6170231l.3213628.324749c.18838509.1840244.44325903.1948494.6427256.0432999l1.82844353-1.3964207c.49866642.5087734 1.14139202.4438236 1.58465106.0324749l5.75128601-5.195984v6.1810559c0 .5520733.443259.985072 1.0084143.985072s1.0084143-.4329987 1.0084143-.985072v-6.3975553l-.0775703-1.5479702 3.3798501-3.0634656c1.2743698.1623745 2.6152284-.3463989 3.7677019-1.48302041zm-10.64929837 15.38227765 9.76278027-10.11051888c.1883851.30309907.4210961.59537317.698133.8768223.2770369.27062417.5651553.50877348.8643551.70362288l-10.30577259 9.5259706z"/></svg>