<svg height="24" viewBox="0 0 24 24" width="24" xmlns="http://www.w3.org/2000/svg"><path d="m10.4444444 5.71428571c-.4235135 0-.81254768-.10660666-1.16710234-.31981998-.35455466-.21321333-.63756515-.49738039-.84903147-.85250118s-.31719948-.75006135-.31719948-1.18482169c0-.42713091.10573316-.81995871.31719948-1.1784834s.49447681-.64459911.84903147-.85822325.74358884-.32043621 1.16710234-.32043621c.4303689 0 .8211458.10681207 1.172331.32043621.3511851.21362414.6324818.49969856.84389.85822325.2114083.35852469.3171124.75135249.3171124 1.1784834 0 .43476034-.1057041.8297009-.3171124 1.18482169-.2114082.35512079-.4927049.63928785-.84389.85250118-.3511852.21321332-.7419621.31981998-1.172331.31981998zm-4.994273 4.05611719 2.08750477-3.09567596c.43557551-.64029415.99968233-.96044123 1.69232046-.96044123h8.81903407c.2667037 0 .4918745.0995652.6755124.2986956s.2754569.4379677.2754569.71651191c0 .28461129-.0932905.52339442-.2798715.71634939s-.4102802.28943246-.6710978.28943246h-6.9283603c-.1163023 0-.2084511.01492394-.2764463.04477183-.0679953.0298479-.1436019.10614691-.22682.22889704l-1.73768446 2.47520816h3.31918286c.3795555 0 .6595285.1442558.8399188.4327674.1803904.2885115.2174072.6073043.1110505.9563784l-1.7524506 5.6623779c-.1064582.3345564-.2782477.5550029-.5153685.6613394-.2371207.1063365-.4773621.1170622-.7207242.0321772-.24336206-.084885-.4302475-.2449044-.56065629-.4800581-.1304088-.2351537-.13883209-.5304095-.02526988-.8857673l1.29987627-4.1235594-3.36759138.5388872c-.54660058.0845058-1.01107407.0281957-1.39342047-.1689304s-.66942334-.4791643-.86123082-.8461146-.27456886-.772172-.24828413-1.2156651c.02628473-.443493.17475793-.8693537.4454196-1.2775818zm1.10538416 12.4003908v-3.0558731c0-.247879.06531338-.4480499.19594014-.6005124.13062676-.1524626.30099939-.2286939.51111788-.2286939h6.36380122c.2101185 0 .3804678.0762313.5110481.2286939.1305803.1524625.1958704.3526334.1958704.6005124v3.0558731c0 .2485582-.0652901.4488987-.1958704.6010218-.1305803.152123-.3009296.2281845-.5110481.2281845h-6.36380122c-.21011849 0-.38049112-.0760615-.51111788-.2281845-.13062676-.1521231-.19594014-.3524636-.19594014-.6010218z"/></svg>