<?xml version="1.0" encoding="UTF-8"?>
<svg width="24px" height="24px" viewBox="0 0 24 24" version="1.1" xmlns="http://www.w3.org/2000/svg" xmlns:xlink="http://www.w3.org/1999/xlink">
    <title>icon</title>
    <g id="Page-1" stroke="none" stroke-width="1" fill="none" fill-rule="evenodd">
        <path d="M10.4444444,5.71428571 C10.0209309,5.71428571 9.63189672,5.60767905 9.27734206,5.39446573 C8.9227874,5.1812524 8.63977691,4.89708534 8.42831059,4.54196455 C8.21684427,4.18684376 8.11111111,3.7919032 8.11111111,3.35714286 C8.11111111,2.93001195 8.21684427,2.53718415 8.42831059,2.17865946 C8.63977691,1.82013477 8.9227874,1.53406035 9.27734206,1.32043621 C9.63189672,1.10681207 10.0209309,1 10.4444444,1 C10.8748133,1 11.2655902,1.10681207 11.6167754,1.32043621 C11.9679605,1.53406035 12.2492572,1.82013477 12.4606654,2.17865946 C12.6720737,2.53718415 12.7777778,2.93001195 12.7777778,3.35714286 C12.7777778,3.7919032 12.6720737,4.18684376 12.4606654,4.54196455 C12.2492572,4.89708534 11.9679605,5.1812524 11.6167754,5.39446573 C11.2655902,5.60767905 10.8748133,5.71428571 10.4444444,5.71428571 Z M5.4501714,9.7704029 L7.53767617,6.67472694 C7.97325168,6.03443279 8.5373585,5.71428571 9.22999663,5.71428571 L18.0490307,5.71428571 C18.3157344,5.71428571 18.5409052,5.81385091 18.7245431,6.01298131 C18.908181,6.21211171 19,6.45094901 19,6.72949322 C19,7.01410451 18.9067095,7.25288764 18.7201285,7.44584261 C18.5335475,7.63879758 18.3098483,7.73527507 18.0490307,7.73527507 L11.1206704,7.73527507 C11.0043681,7.73527507 10.9122193,7.75019901 10.8442241,7.7800469 C10.7762288,7.8098948 10.7006222,7.88619381 10.6174041,8.00894394 L8.87971964,10.4841521 L12.1989025,10.4841521 C12.578458,10.4841521 12.858431,10.6284079 13.0388213,10.9169195 C13.2192117,11.205431 13.2562285,11.5242238 13.1498718,11.8732979 L11.3974212,17.5356758 C11.290963,17.8702322 11.1191735,18.0906787 10.8820527,18.1970152 C10.644932,18.3033517 10.4046906,18.3140774 10.1613285,18.2291924 C9.91796644,18.1443074 9.731081,17.984288 9.60067221,17.7491343 C9.47026341,17.5139806 9.46184012,17.2187248 9.57540233,16.863367 L10.8752786,12.7398076 L7.50768722,13.2786948 C6.96108664,13.3632006 6.49661315,13.3068905 6.11426675,13.1097644 C5.73192035,12.9126383 5.44484341,12.6306001 5.25303593,12.2636498 C5.06122845,11.8966995 4.97846707,11.4914778 5.0047518,11.0479847 C5.03103653,10.6044917 5.17950973,10.178631 5.4501714,9.7704029 Z M6.55555556,22.1707937 L6.55555556,19.1149206 C6.55555556,18.8670416 6.62086894,18.6668707 6.7514957,18.5144082 C6.88212246,18.3619456 7.05249509,18.2857143 7.26261358,18.2857143 L13.6264148,18.2857143 C13.8365333,18.2857143 14.0068826,18.3619456 14.1374629,18.5144082 C14.2680432,18.6668707 14.3333333,18.8670416 14.3333333,19.1149206 L14.3333333,22.1707937 C14.3333333,22.4193519 14.2680432,22.6196924 14.1374629,22.7718155 C14.0068826,22.9239385 13.8365333,23 13.6264148,23 L7.26261358,23 C7.05249509,23 6.88212246,22.9239385 6.7514957,22.7718155 C6.62086894,22.6196924 6.55555556,22.4193519 6.55555556,22.1707937 Z" id="Shape" fill="#000000" fill-rule="nonzero"></path>
    </g>
</svg>