<svg viewBox="0 0 30 30" xmlns="http://www.w3.org/2000/svg"><path d="m16.5 2a2.5 2.5 0 0 0 -2.5 2.5 2.5 2.5 0 0 0 2.5 2.5 2.5 2.5 0 0 0 2.5-2.5 2.5 2.5 0 0 0 -2.5-2.5zm-8.9550781 3.0078125c-.80325.03075-1.6022344.3608281-2.2402344.9863281l-2.7441406 2.7539063c-.681.775-.8003907 1.9693911-.0253907 2.6503911.5060001.531 1.1545782.69725 1.7675782.53125.225-.598001.5653437-1.151329 1.0273437-1.611329.029-.034.06175-.067609.09375-.099609l4.3886719-4.3964844c-.657-.5765-1.4643281-.8452031-2.2675781-.8144531zm4.9550781 1.9921875c-.639875-.000125-1.279578.2439219-1.767578.7324219h-.001953l-3.8925784 3.9003901v.001954a2.5 2.5 0 0 0 -.8378906 1.865234 2.5 2.5 0 0 0 1.8007812 2.398438v.001953l4.8515628 1.691406 2.626953 5.001953a1.0001 1.0001 0 1 0 1.867187-.714844l-2.039062-6a1.0001 1.0001 0 0 0 -.5-.574218l-3.179688-1.589844-.257812-.142578 2.458984-2.541016 2.375.837891.021485.011718a1.0001 1.0001 0 0 0 .474609.119141h4.5a1.0001 1.0001 0 1 0 0-2h-3.630859l-3.490235-2.5839844c-.41712-.2765645-.897264-.4159215-1.378906-.4160156zm10 6c-2.473437 0-4.5 2.026563-4.5 4.5s2.026563 4.5 4.5 4.5 4.5-2.026563 4.5-4.5-2.026563-4.5-4.5-4.5zm0 2c1.392557 0 2.5 1.107443 2.5 2.5s-1.107443 2.5-2.5 2.5-2.5-1.107443-2.5-2.5 1.107443-2.5 2.5-2.5zm-15 3c-2.4734367 0-4.5 2.026563-4.5 4.5s2.0265633 4.5 4.5 4.5 4.5-2.026563 4.5-4.5-2.0265633-4.5-4.5-4.5zm0 2c1.3925565 0 2.5 1.107443 2.5 2.5s-1.1074435 2.5-2.5 2.5-2.5-1.107443-2.5-2.5 1.1074435-2.5 2.5-2.5z"/></svg>