<svg height="24" viewBox="0 0 24 24" width="24" xmlns="http://www.w3.org/2000/svg"><path d="m12 23c6.0176471 0 11-4.9931373 11-11 0-6.01764706-4.9931373-11-11.0107843-11-6.00686276 0-10.9892157 4.98235294-10.9892157 11 0 6.0068627 4.99313725 11 11 11zm-9.15588235-11c0-5.09019608 4.05490196-9.16666667 9.14509805-9.16666667.8303921 0 1.6392157.10784314 2.4049019.3127451l-1.3049019 4.03333333c-.3450981-.07549019-.7009804-.11862745-1.0676471-.11862745-2.72843135 0-4.98235291 2.23235294-4.98235291 4.93921569 0 .3882353.04313725.7764706.12941176 1.1431373l-4.00098039 1.2941176c-.21568628-.7764706-.32352941-1.5960784-.32352941-2.4372549zm11.12941175-4.52941176 1.3156863-4.03333334c1.5313725.58235294 2.8578431 1.56372549 3.8607843 2.81470588l-3.3970588 2.5127451c-.4852941-.55-1.0892157-1.00294117-1.7794118-1.29411764zm2.3186275 2.0490196 3.4078431-2.51274509c.3666667.56078431.6686275 1.17549019.9058824 1.82254901l-4.0009804 1.30490194c-.0862745-.21568625-.1941177-.42058821-.3127451-.61470586zm-4.2813726 6.36274506c-2.1352941 0-3.87156861-1.7254902-3.87156861-3.8823529 0-2.09215686 1.74705882-3.83921569 3.87156861-3.83921569 2.1245098 0 3.8607843 1.73627451 3.8607843 3.83921569 0 2.1352941-1.7254902 3.8823529-3.8607843 3.8823529zm0-1.240196c1.4343137 0 2.6205882-1.1862745 2.6205882-2.6313726 0-1.4235294-1.1862745-2.60980391-2.6205882-2.60980391-1.445098 0-2.63137254 1.18627451-2.63137254 2.62058821 0 1.4343138 1.18627454 2.6205883 2.63137254 2.6205883zm-.0107843 6.5245098c-.8088235 0-1.5960784-.1078432-2.34019608-.3019608l1.30490198-3.9901961c.3343137.0754902.6901961.1078431 1.0460784.1078431 2.7392157-.0107843 4.9607843-2.2323529 4.9607843-4.9823529 0-.345098-.0323529-.6686275-.0970588-.9921569l4.0009804-1.29411761c.1941176.73333331.2911978 1.49901961.2911978 2.28627451.010763 5.0901961-4.0764919 9.1666667-9.166688 9.1666667zm.0107843-7.7215687c-.7980392-.0107843-1.4235294-.6362745-1.4235294-1.4343137 0-.7549019.6254902-1.4127451 1.4343137-1.4127451.7656863 0 1.4019608.6470588 1.4019608 1.4127451 0 .7980392-.6362745 1.4450981-1.4127451 1.4343137zm-8.55196077 1.8764706 4.00098039-1.3049019c.09705883.2049019.19411765.3990196.3127451.5823529l-3.39705882 2.5019608c-.36666667-.55-.67941177-1.1431373-.91666667-1.7794118zm1.47745098 2.5343138 3.39705882-2.5019608c.48529412.5284313 1.07843138.9598039 1.74705887 1.240196l-1.304902 3.9901961c-1.50980393-.5607843-2.8254902-1.5098039-3.83921569-2.7284313z"/></svg>