<svg viewBox="0 0 30 30" xmlns="http://www.w3.org/2000/svg"><path d="m18.2730547 20.1307953h2.8061719l-4.4796172-11.62585936h-3.1026328l-4.47961723 11.62585936h2.80637503l.7320625-1.9692969h4.2326172l-.7661875-2.179125h-2.786875l1.8128906-5.0023593zm9.2535625-8.6074828c-.0997344-.359125-.4706406-.5700703-.8312891-.4699297-.3592265.0997344-.5697656.4718594-.4700312.8310859.2816328 1.0141016.4243281 2.0623282.4243281 3.1155313 0 6.423625-5.226 11.6494219-11.649625 11.6494219s-11.64952344-5.2257969-11.64952344-11.6494219c0-6.42372656 5.22589844-11.649625 11.64952344-11.649625 2.7211641 0 5.3541719.96667187 7.4322422 2.6869375-.0808438.19296875-.1257344.40472656-.1257344.62694531 0 .89730469.7273906 1.62469531 1.6246953 1.62469531s1.6246953-.72739062 1.6246953-1.62469531c0-.89730468-.7273906-1.62469531-1.6246953-1.62469531-.1727578 0-.3390156.02752344-.4952187.07749219-2.34-1.99417969-5.3370078-3.11705469-8.4359844-3.11705469-7.16817969 0-13 5.83171875-13 13 0 7.1681797 5.83182031 12.9998984 13 12.9998984 7.1681797 0 13-5.8317187 13-12.9998984 0-1.1752812-.1591484-2.3450781-.4733828-3.4766875z" fill="#1d137d"/></svg>