<svg viewBox="0 0 24 27" xmlns="http://www.w3.org/2000/svg" xmlns:xlink="http://www.w3.org/1999/xlink"><linearGradient id="a" x1="61.030165%" x2="26.462582%" y1="4.949585%" y2="71.925868%"><stop offset="0" stop-color="#00a0ff"/><stop offset=".006569999" stop-color="#00a1ff"/><stop offset=".2601" stop-color="#00beff"/><stop offset=".5122" stop-color="#00d2ff"/><stop offset=".7604" stop-color="#00dfff"/><stop offset="1" stop-color="#00e3ff"/></linearGradient><linearGradient id="b" x1="107.630451%" x2="-130.551706%" y1="50.000432%" y2="50.000432%"><stop offset="0" stop-color="#ffe000"/><stop offset=".4087" stop-color="#ffbd00"/><stop offset=".7754" stop-color="#ffa500"/><stop offset="1" stop-color="#ff9c00"/></linearGradient><linearGradient id="c" x1="86.243474%" x2="-50.129238%" y1="30.90425%" y2="136.019454%"><stop offset="0" stop-color="#ff3a44"/><stop offset="1" stop-color="#c31162"/></linearGradient><linearGradient id="d" x1="-18.810563%" x2="42.084854%" y1="-11.82508%" y2="35.086648%"><stop offset="0" stop-color="#32a071"/><stop offset=".0685" stop-color="#2da771"/><stop offset=".4762" stop-color="#15cf74"/><stop offset=".8009" stop-color="#06e775"/><stop offset="1" stop-color="#00f076"/></linearGradient><g fill="none" fill-rule="evenodd"><path d="m.47429806.40935267c-.30064795.32397408-.47429806.81900648-.47429806 1.46695464v22.98142549c0 .6479482.17365011 1.1429806.48466523 1.4539957l.08034557.0699784 12.8760259-12.8760259v-.287689l-12.88639307-12.87861773s-.08034557.0699784-.08034557.0699784z" fill="url(#a)"/><path d="m17.72527 17.8106486-4.2946005-4.2946005v-.3006479l4.2946005-4.29460045.0933045.05701944 5.0799136 2.88725701c1.4539957.8190065 1.4539957 2.1719223 0 3.0012959l-5.0799136 2.887257s-.0933045.0570195-.0933045.0570195z" fill="url(#b)"/><path d="m17.8185745 17.7536291-4.387905-4.3879049-12.95637144 12.9563714c.47429805.5079914 1.2699784.5650108 2.15896328.0699785z" fill="url(#c)"/><path d="m17.8185745 8.97781919-15.18531316-8.62548596c-.88898488-.50799136-1.68725702-.43801296-2.15896328.0699784l12.95637144 12.94341257z" fill="url(#d)"/><path d="m17.72527 17.6603246-15.08164149 8.5684665c-.84233261.4846652-1.59395248.4509719-2.07861771.0103672l-.08034557.0803456.08034557.0699784c.48466523.4380129 1.2362851.474298 2.07861771-.0103672l15.18531319-8.625486s-.1036717-.0933045-.1036717-.0933045z" fill="#000" fill-rule="nonzero" opacity=".2"/><path d="m22.8984881 14.7160481-5.1861771 2.9442765.0933046.0933045 5.0799136-2.887257c.7282937-.4146868 1.0859611-.9589633 1.0859611-1.5006479-.0440605.4976241-.4146868.9693304-1.0730022 1.3503239z" fill="#000" fill-rule="nonzero" opacity=".12"/><path d="m2.63326134.50265721 20.26522676 11.51274299c.6583154.3706263 1.0289417.8552916 1.0859611 1.350324 0-.5416847-.3576673-1.0859612-1.0859611-1.500648l-20.26522676-11.51274297c-1.45399568-.83196544-2.63326134-.13736501-2.63326134 1.52397408v.15032398c0-1.66393089 1.17926566-2.34557236 2.63326134-1.52397408z" fill="#fff" opacity=".25"/></g></svg>