<svg viewBox="0 0 50 50" xmlns="http://www.w3.org/2000/svg"><path d="m24.375 2c-5.679687 0-9.964844 1.980469-13.0625 4.34375-7.859375 5.992188-8.625 16.125-8.625 16.125-.042969.460938.234375.894531.675781 1.042969.4375.148437.921875-.023438 1.167969-.417969 0 0 2.886719-4.46875 7.90625-7.59375 1.699219-1.058594 3.867188-1.832031 6.0625-2.375-.867187.386719-3.863281 1.835938-6.6875 5.125-2.550781 2.96875-4 7.011719-4 11.25 0 1.066406-.019531 3.113281.59375 5.28125.570313 2.019531 1.671875 3.980469 2.6875 5.46875 2.941406 4.304688 7.265625 6.105469 9.34375 6.78125 2.394531.777344 4.855469.96875 7.125.96875 8.128906 0 13.5625-3.34375 13.5625-3.34375.300781-.1875.476563-.519531.46875-.875v-9.25c.007813-.375-.195312-.71875-.523437-.898437-.328125-.175782-.730469-.15625-1.039063.054687 0 0-2.132812 1.453125-4.1875 2.0625-1.546875.460938-2.808594 1.0625-7.125 1.0625-6.109375 0-8.691406-2.117187-9.9375-4.15625-.792969-1.300781-1-2.363281-1.0625-3.125h26.59375c.550781 0 1-.449219 1-1v-4.59375c0-.011719 0-.019531 0-.03125 0 0-.089844-3.566406-.84375-6.65625-.402344-1.648437-1.019531-3.339844-1.84375-4.71875-1.773437-2.976562-3.523437-5.203125-7.5-7.65625-4.109375-2.535156-8.585937-2.875-10.75-2.875zm0 2c1.929688 0 6.066406.359375 9.6875 2.59375 3.757813 2.316406 5.132813 4.101563 6.84375 6.96875.679688 1.144531 1.261719 2.675781 1.625 4.15625.675781 2.769531.78125 6.21875.78125 6.21875v3.59375h-26.625c-.527344 0-.96875.410156-1 .9375 0 0-.21875 2.613281 1.375 5.21875s5.058594 5.125 11.65625 5.125c4.523438 0 6.328125-.753906 7.6875-1.15625 1.199219-.355469 2.320313-.902344 3.1875-1.375v6.875c-.65625.382813-4.996094 2.84375-12.03125 2.84375-2.15625 0-4.394531-.191406-6.5-.875-1.851562-.601562-5.746094-2.242187-8.3125-6-.929687-1.363281-1.960937-3.1875-2.4375-4.875-.519531-1.839844-.5-3.671875-.5-4.75 0-3.78125 1.296875-7.402344 3.5-9.96875 1.078125-1.257812 2.214844-2.179687 3.28125-2.9375-.015625.03125-.015625.027344-.03125.0625-.847656 2-1.0625 3.96875-1.0625 3.96875-.027344.28125.066406.558594.257813.769531.191406.207032.460937.324219.742187.324219h15.59375c.507813.003906.9375-.371094 1-.875 0 0 .261719-2.554687-.84375-5.15625-1.105469-2.601562-3.808594-5.28125-9-5.28125-3.902344 0-8.511719 1.3125-11.875 3.40625-2.453125 1.527344-4.351562 3.3125-5.78125 4.84375.925781-3.1875 2.789063-7.558594 6.9375-10.71875 2.828125-2.15625 6.625-3.9375 11.84375-3.9375zm-1.125 8.40625c4.550781 0 6.28125 2.003906 7.15625 4.0625.574219 1.347656.675781 2.464844.6875 3.25h-13.3125c.113281-.636719.148438-1.15625.625-2.28125.703125-1.660156 1.875-3.0625 1.875-3.0625.195313-.214844.285156-.503906.25-.792969-.039062-.289062-.195312-.546875-.4375-.707031 1.078125-.1875 2.179688-.46875 3.15625-.46875z"/></svg>