<svg viewBox="0 0 50 50" xmlns="http://www.w3.org/2000/svg"><path d="m25 2c-12.690705 0-23 10.309295-23 23s10.309295 23 23 23 23-10.309295 23-23-10.309295-23-23-23zm0 2c7.987976 0 14.925645 4.44503 18.476562 11h-18.476562a1.0001 1.0001 0 0 0 -.113281.005859c-5.147851.058235-9.375053 4.029514-9.839844 9.072266l-7.0117188-11.427734c3.8164368-5.2366992 9.9796498-8.650391 16.9648438-8.650391zm-18.1757812 10.501953 9.6523432 15.728516a1.0001 1.0001 0 0 0 .115235.158203 1.0001 1.0001 0 0 0 .001953.003906c1.78145 2.765955 4.881175 4.607422 8.40625 4.607422 1.413063 0 2.756327-.298266 3.976562-.830078l-6.65625 11.654297c-10.340345-1.314415-18.320312-10.123111-18.320312-20.824219 0-3.830262 1.0375742-7.408467 2.8242188-10.498047zm18.1757812 2.498047c4.430123 0 8 3.569877 8 8 0 1.42117-.370322 2.751591-1.015625 3.90625a1.0001 1.0001 0 0 0 -.001953.001953 1.0001 1.0001 0 0 0 -.035156.058594c-1.375546 2.410543-3.96378 4.033203-6.947266 4.033203-4.430123 0-8-3.569877-8-8s3.569877-8 8-8zm5.972656 0h13.449219c1.014915 2.465341 1.578125 5.165771 1.578125 8 0 11.609824-9.390176 21-21 21-.157826 0-.313715-.008266-.470703-.011719l9.154297-16.029297a1.0001 1.0001 0 0 0 .058594-.117187c.799078-1.436123 1.257812-3.086133 1.257812-4.841797 0-3.271388-1.588938-6.174066-4.027344-8z"/></svg>