<svg viewBox="0 0 50 50" xmlns="http://www.w3.org/2000/svg"><path d="m25 2c-12.691406 0-23 10.308594-23 23s10.308594 23 23 23 23-10.308594 23-23-10.308594-23-23-23zm0 2c11.609375 0 21 9.390625 21 21s-9.390625 21-21 21-21-9.390625-21-21c0-.363281.007813-.722656.027344-1.082031.5625-11.105469 9.726562-19.917969 20.972656-19.917969zm0 2c-10.480469 0-19 8.519531-19 19s8.519531 19 19 19 19-8.519531 19-19-8.519531-19-19-19zm-1 2.050781v1.949219c0 .550781.449219 1 1 1s1-.449219 1-1v-1.949219c3.945313.230469 7.515625 1.789063 10.285156 4.25l-.992187.996094c-.390625.386719-.390625 1.019531 0 1.410156s1.023437.390625 1.410156 0l.996094-.992187c2.460937 2.769531 4.019531 6.339844 4.25 10.285156h-1.949219c-.550781 0-1 .449219-1 1s.449219 1 1 1h1.949219c-.230469 3.945313-1.792969 7.523438-4.257813 10.292969-.011718-.015625-.015625-.03125-.027343-.042969l-.960938-.957031c-.386719-.390625-1.019531-.390625-1.410156 0s-.390625 1.023437 0 1.410156l.957031.960938c.011719.011718.027344.015625.042969.027343-2.769531 2.464844-6.347656 4.027344-10.292969 4.257813v-1.949219c0-.550781-.449219-1-1-1s-1 .449219-1 1v1.949219c-3.945312-.230469-7.523437-1.792969-10.292969-4.257813.015625-.011718.03125-.015625.042969-.027343l.957031-.960938c.390625-.386719.390625-1.019531 0-1.410156s-1.023437-.390625-1.410156 0l-.960937.957031c-.011719.011719-.015625.027344-.027344.042969-2.464844-2.769531-4.027344-6.347656-4.257813-10.292969h1.949219c.550781 0 1-.449219 1-1s-.449219-1-1-1h-1.949219c.230469-3.945312 1.789063-7.515625 4.25-10.285156l.996094.992187c.386719.390625 1.019531.390625 1.410156 0s.390625-1.023437 0-1.410156l-.992187-.996094c2.769531-2.460937 6.339844-4.019531 10.285156-4.25zm8.996094 7.949219c-.140625 0-.28125.03125-.410156.089844l-11 5c-.21875.101562-.394532.277344-.496094.496094l-5 11c-.171875.378906-.089844.824218.203125 1.121093.296875.292969.742187.375 1.121094.203125l11-5c.21875-.101562.394531-.277343.496093-.496093l5-11c.140625-.308594.113282-.671875-.070312-.957032-.183594-.285156-.503906-.457031-.84375-.457031zm-2.011719 3.015625-3.738281 8.230469-8.230469 3.738281 3.738281-8.230469zm-5.984375 3.984375c-1.105469 0-2 .894531-2 2s.894531 2 2 2 2-.894531 2-2-.894531-2-2-2z"/></svg>