<svg height="12" viewBox="0 0 32 12" width="32" xmlns="http://www.w3.org/2000/svg"><g fill="none" transform="translate(2 2)"><path d="m11.9823468 5.10058238c0 1.3944431-1.0373832 2.42198496-2.31048802 2.42198496-1.27310489 0-2.31048807-1.02754186-2.31048807-2.42198496 0-1.4042708 1.03738318-2.42198495 2.31048807-2.42198495 1.27310482 0 2.31048802 1.01771415 2.31048802 2.42198495zm-1.0114226 0c0-.87139044-.6012461-1.46760495-1.29906542-1.46760495s-1.29906542.59621451-1.29906542 1.46760495c0 .8626547.6012461 1.46760496 1.29906542 1.46760496s1.29906542-.60604223 1.29906542-1.46760496z" fill="#ea4335"/><path d="m16.9667705 5.10058238c0 1.3944431-1.0373831 2.42198496-2.3104881 2.42198496-1.2731048 0-2.310488-1.02754186-2.310488-2.42198496 0-1.40317884 1.0373832-2.42198495 2.310488-2.42198495 1.273105 0 2.3104881 1.01771415 2.3104881 2.42198495zm-1.0114226 0c0-.87139044-.6012461-1.46760495-1.2990655-1.46760495-.6978192 0-1.2990654.59621451-1.2990654 1.46760495 0 .8626547.6012462 1.46760496 1.2990654 1.46760496.6978194 0 1.2990655-.60604223 1.2990655-1.46760496z" fill="#fbbc05"/><path d="m21.7435098 2.82492113v4.34821646c0 1.78864353-1.0031152 2.5191701-2.1889927 2.5191701-1.1163032 0-1.7881619-.78512496-2.0415368-1.42720214l.8805814-.38546469c.1568018.39420044.5410178.8593788 1.1599171.8593788.7590861 0 1.229491-.49247756 1.229491-1.41955837v-.34833778h-.0353062c-.2263759.29373939-.662513.55035186-1.2128765.55035186-1.1516095 0-2.2066458-1.05484106-2.2066458-2.41215725 0-1.36714389 1.0550363-2.43072069 2.2066458-2.43072069.549325 0 .9854621.25661247 1.2128765.54161611h.0353062v-.39420044h.96054zm-.8888888 2.28439699c0-.85282698-.5410176-1.47634069-1.2294912-1.47634069-.6978194 0-1.2824506.62351371-1.2824506 1.47634069 0 .84409125.5846312 1.45886922 1.2824506 1.45886922.6884736 0 1.2294912-.61477797 1.2294912-1.45886922z" fill="#4285f4"/><path d="m23.3271028.2762679v7.09779179h-.9865005v-7.09779179z" fill="#34a853"/><path d="m27.1713396 5.897719.7850467.55035186c-.2533749.39420043-.8639668 1.07340451-1.9190031 1.07340451-1.3084113 0-2.2855659-1.0635768-2.2855659-2.42198495 0-1.44030576.985462-2.42198496 2.1723779-2.42198496 1.1952233 0 1.7798546 1.00024266 1.9709242 1.5407668l.1048806.27517594-3.0789201 1.34093666c.2357218.48592575.6022846.73380248 1.1163033.73380248.5150571 0 .8722741-.26644019 1.1339564-.67046834zm-2.4164071-.87139044 2.0581516-.89868964c-.113188-.30247512-.4537902-.51322494-.854621-.51322494-.5140187 0-1.2294912.47719-1.2035306 1.41191458z" fill="#ea4335"/><path d="m3.62720665 4.47051686v-1.02754185h3.29283489c.03219106.17908274.04880581.39092453.04880581.62023781 0 .77092938-.20041536 1.72421741-.8463136 2.40342149-.62824507.68793982-1.43094497 1.05484106-2.49428868 1.05484106-1.9709242 0-3.62824507-1.68818248-3.62824507-3.76073769 0-2.0725552 1.65732087-3.76073768 3.62824507-3.76073768 1.09034267 0 1.86708203.44989081 2.45067497 1.0362776l-.68951194.72506673c-.41848391-.41276389-.9854621-.73380247-1.76220145-.73380247-1.43925234 0-2.56490135 1.21972822-2.56490135 2.73319582 0 1.51346761 1.12564901 2.73319583 2.56490135 2.73319583.93354101 0 1.46521287-.39420044 1.80581516-.75236593.27622015-.29046348.45794393-.70541131.52959501-1.27214268z" fill="#4285f4"/></g></svg>