<svg height="12" viewBox="0 0 32 12" width="32" xmlns="http://www.w3.org/2000/svg"><g transform="translate(2 2.6)"><path d="m5.18585501 1.29420396c0 .08424672-.02411325.15033682-.07233976.1982703-.04822649.04793348-.11604499.07190022-.2034555.07190022h-3.20555466v1.13297316h2.81672857c.18386349 0 .27579524.08860433.27579524.26581294v.91945131c0 .08424672-.02411325.15033681-.07233974.1982703-.04822649.04793348-.11604499.07190021-.2034555.07190021h-2.81672857v2.22237044c0 .17720863-.09193175.26581294-.27579526.26581294h-1.14839334c-.08741052 0-.15598256-.02324048-.20571613-.06972143s-.07460036-.11184478-.07460036-.19609151v-6.00040018c0-.08424672.02486679-.14961056.07460036-.19609151s.11830561-.06972142.20571613-.06972142h4.62974326c.18386349 0 .27579526.08860431.27579526.26581293z"/><path d="m12.1485548 6.309789c.0843964.08424672.1107702.16050454.0791216.22877344s-.1077561.10240334-.2283223.10240334h-1.6231229c-.1386511 0-.251682-.04793348-.3390925-.14380044l-2.18827707-2.30080704v2.17879454c0 .17720863-.09193177.26581294-.27579526.26581294h-1.14839335c-.18386351 0-.27579525-.08860431-.27579525-.26581294v-6.00040018c0-.17720862.09193174-.26581293.27579525-.26581293h1.14839335c.18386349 0 .27579526.08860431.27579526.26581293v2.43589231l2.0571613-2.54047445c.09042468-.10748719.20496257-.16123079.34361377-.16123079h1.4784434c.1145379 0 .1883847.03268191.2215404.09804575.0331558.06536384.0120567.14307418-.0632972.23313102l-2.53641212 3.03288201z"/><path d="m14.7347005 5.18553102h3.1015662c.0874106 0 .1559826.02396673.2057162.07190022.0497336.04793348.0746003.11402359.0746003.19827031v.91945129c0 .08424673-.0248667.14961056-.0746003.19609151s-.1183056.06972143-.2057162.06972143h-4.5347973c-.0874105 0-.1559826-.02324048-.2057161-.06972143-.0497336-.04648095-.0746004-.11184478-.0746004-.19609151v-6.00040018c0-.08424672.0248668-.14961056.0746004-.19609151.0497335-.04648095.1183056-.06972142.2057161-.06972142h1.1574358c.1838635 0 .2757953.08860431.2757953.26581293z"/><path d="m25.2420474 2.89343916c.1838635 0 .2757953.08569924.2757953.25709776 0 .31665146-.0090425.56358152-.0271273.74079013-.0572689.54615118-.2381183 1.03565368-.5425481 1.46850753-.3044297.43285385-.7105872.77419833-1.2184725 1.02403344-.5078853.2498351-1.0753001.37475267-1.7022445.37475267-.4792508 0-.9381559-.08933059-1.3767156-.26799174-.4385597-.17866114-.8168361-.41905481-1.1348297-.72118099-.3179934-.30212619-.5711825-.66162729-.7595672-1.0785033-.1883847-.41687603-.2825771-.85336119-.2825771-1.30945552s.0941924-.8925795.2825771-1.30945552c.1883847-.41687603.4415738-.77637713.7595672-1.07850331.3179936-.30212617.69627-.5432461 1.1348297-.72335979.4385597-.18011368.8974648-.27017052 1.3767156-.27017052.6088594 0 1.158943.12346502 1.6502504.37039507s.8982183.58246441 1.220733 1.00660308c.1024813.14234791.0753539.26726547-.0813822.37475266l-.8364282.53598346c-.1446795.08424673-.2742882.06245878-.3888261-.06536384-.4099252-.48223985-.9313741-.72335978-1.5643469-.72335978-.5214489 0-.9600086.17648236-1.3156789.52944707-.3556704.35296472-.5335057.8039752-.5335057 1.35303142 0 .56358152.1770817 1.01894958.5312451 1.36610417.3541633.34715461.7934765.5207319 1.3179395.5207319.2592175 0 .5078853-.04865974.7460036-.14597922.2381184-.09731951.434792-.2294997.5900211-.39654063.155229-.16704091.2433929-.34642833.2644921-.53816224h-1.7587599c-.0874106 0-.155229-.02396673-.2034555-.07190022-.0482264-.04793348-.0723399-.11402359-.0723399-.19827031v-.75822049c0-.17720863.0919319-.26581294.2757954-.26581294z"/><path d="m28 5.86531492c0 .23530981-.0851499.43358012-.2554498.59481091-.1702997.1612308-.37903.24184619-.6261907.24184619-.2471608 0-.4566447-.08061539-.6284516-.24184619-.1718069-.16123079-.2577103-.3595011-.2577103-.59481091 0-.22949969.086657-.42704373.259971-.59263212.1733139-.16558839.3820442-.24838258.6261909-.24838258.2441466 0 .4521233.08279419.6239302.24838258s.2577103.36313243.2577103.59263212z"/></g></svg>