<svg height="12" viewBox="0 0 32 12" width="32" xmlns="http://www.w3.org/2000/svg"><path d="m6.71072104 3.30801886s-.37390673-.03662014-.30153768-.43944162v-.02441342s.49452179-2.41692891.50658329-2.50237589c.01206151-.08544698-.02412301-.13427383-.02412301-.13427383-.09649206-.13427383-.22916864-.2075141-.41009124-.2075141-.19298412.01220671-.37390673.01220671-.51864482.39061478-.14473808.36620134-.48246028 2.36810206-.5186448 2.55120273-.03618451.17089395 0 .36620135 0 .36620135.1688611.54930202.59101385.83015197 1.24233524.83015197 0 0 .48246028.01211113.5065833-.4395372 0-.28075437-.1688611-.40282148-.48246028-.39061477zm-2.53291651-3.30801886h-2.05045621c-.61513686.07324027-1.08553564.32958121-1.41119633.75681612 0 0-.12061508.13427383-.19298411.42723491l-.4824603 2.33148193c-.03618452.14648054-.04824602.26854766-.03618452.36620135.06030754.21972081.37390673.30516779.69956742.17089395.01206151-.01220671.14473809-.07324026.20504562-.20751409.03618453-.07324027.07236905-.24413424.07236905-.24413424l.22916862-1.12301747h2.8706387l-.24123013 1.15963761c-.03618453.17089396-.02412302.21972081-.01206151.24413424.09649205.20751409.28947617.29296107.55482932.24413423.1567996-.06103356.27741466-.14648054.34978371-.25634095 0 0 .02412302-.02441342.06030753-.17089396l.51864481-2.68547656c.09649207-1.11081076-1.09759715-1.00095036-1.13378167-1.01315707zm.04824603 1.66011278h-2.84651568c.02412302-.47606175.1688611-.79343626.54276782-.83005638h1.688611c.25329165.01220671.38596823 0 .51864481.02441341.39802973.19530739.12061507.76902284.09649205.80564297zm4.63161875 1.64790608s-.37390673-.03662014-.30153768-.43944162v-.02441342s.49452179-2.41692891.50658329-2.50237589c.02412301-.08544698-.0120615-.13427383-.0120615-.13427383-.09649206-.13427383-.22916864-.2075141-.41009125-.2075141-.19298411.01220671-.37390671.01220671-.51864481.39061478-.14473808.36620134-.48246028 2.36810206-.5186448 2.55120273-.03618452.17089395 0 .36620135 0 .36620135.1688611.54930202.59101385.83015197 1.24233524.83015197 0 0 .48246028.01211113.50658329-.4395372-.02412301-.28075437-.1809226-.40282148-.49452178-.39061477zm2.36405539.01220671c-.2050457-.02441342-.4100912-.08544699-.4945218-.24413423 0 0-.0361845-.06103357.0120615-.24413424l.1447381-.7324027h.6030754s.3618452-.0122067.4221527-.40282148c.0603076-.2075141-.072369-.45164833-.3256607-.43944162h-.5186448s.1447381-.69578256.1809226-.89108995c.0361845-.19530738-.2412302-.35399464-.4342142-.35399464-.2291687 0-.4342143-.02441342-.5186448.39061477-.0844306.4150282-.48246034 2.36810207-.51864486 2.55120274-.03618451.18310067 0 .36620135 0 .36620135.19298411.61033558.65132136.87888324 1.37501186.80564297.1326765-.03662014.2050455-.08544699.2894762-.20751411.0844305-.14648053.0964919-.28075436.048246-.40282147 0-.02441343-.0603075-.17089397-.2653532-.19530739zm2.7862081-2.44134233s-.1688611-.0976537-.3980297-.04882684c-.6271984.1098604-1.0855356.39061476-1.3750117.85446981 0 0-.0603077.08544698-.1326767.32958121l-.3256606 1.58687251c-.0241231.10986041-.0361846.2075141-.0241231.28075438.1447381.25634093.3739068.30516779.6995674.17089395.0964921-.07324026.1688611-.15868724.2171072-.24413423 0 0 .2291686-1.30611814.3497837-1.69673292.120615-.39061477.4703987-.39061477.8443055-.5248886.3980297-.12206711.4100912-.48826846.144738-.70798927zm.9407976.36620135c-.2171071.01220671-.3739067 0-.5065833.41502819l-.4342143 2.12396784c.0241231.19530738.1447382.3173745.3497837.34178792.2532918 0 .4462758-.0976537.5789524-.29296108l.4100912-1.97748729c.0361846-.14648054.0361846-.23192752.0361846-.36620135s-.2291687-.24413423-.4342143-.24413423zm4.0044204 2.0995544s-.0844306-.03662013-.1809227-.03662013h-1.9901486c-.0603076-.01220671-.072369-.01220671-.1447381-.03662014-.5186448-.18310067 0-1.2572913.0361845-1.35494499.0603075-.10986041.2050457-.25634095.4703988-.26854766h1.9901487c.4703988-.0122067.5065832-.35399463.5186448-.40282148.0120615-.04882685.0482461-.29296108-.2050456-.39061478-.0723691-.0122067-.1326766-.02441341-.1929841-.02441341h-2.0866408c-1.0011051.08544698-1.4111964.68357585-1.5921189 1.59907922 0 0-.1085536.58592215-.1085536.634749-.096492.8422631.5668908 1.1474309 1.6162419 1.07419062l1.6041805-.0122067c.1085536 0 .2171072-.03662014.3015377-.14648054.2171071-.28075437.1688611-.5126819-.0361845-.63474901zm3.3892835-.87888324c.120615-.08544698 1.3026428-.96433021 1.4232578-1.06198391.1206151-.0976537.096492-.29296108.0361845-.39061477s-.2774146-.19530739-.4703988-.17089396c-.0241229.0122067-.1085535 0-.192984.07324027-.0844306.07324026-2.4364245 1.79438661-2.4846705 1.81880003l.4342142-2.13617454.0241231-.13427383c.0120614-.1098604.0361845-.15868725-.0241231-.26854766-.1085535-.12206711-.2412301-.18310067-.4221527-.18310067-.4221528-.01220671-.4945218.36620136-.4945218.36620136s-.6633829 3.23477858-.6875059 3.38125912c-.0120615.1098604.024123.17089396.024123.17089396.1085536.18310068.3497837.25634095.6151369.17089397.0120615-.01220672 1.3870733-1.01315707 1.4111963-1.02536378l.8925516.9399168c.0482459.04882684.072369.07324026.1567995.1098604.2774147.04882684.4945218-.02441342.6633829-.23192752.096492-.18310068.0844305-.34178793-.024123-.47606176 0-.02441342-.88049-.95212351-.88049-.95212351zm2.8706387-.81784968h2.2193173s.5910138.01220671.5668908-.51268189c.0120615-.24413423-.2291686-.28075437-.2774146-.29296107-.0844306-.01220671-1.7730416-.03662014-2.424363-.01220671-.6513214.02441341-1.1940891.36620134-1.2664583 1.11081075-.0120614.4150282.1688612.70798928.5548294.86667653 0 0 .2532916.06103356.4100912.07324027.3256608.01220671 1.5197499 0 1.5197499 0 .1085536.02441342.1447382.07324027.1447382.15868725 0 .12206712-.0241231.21972081-.2291687.25634095h-2.0745792s-.0603076 0-.2532916.01220671c-.1929842.01220671-.2532918.07324027-.3377223.17089396-.1567996.21972081-.1567996.40282149-.0120614.56150873 0 0 .072369.06103357.217107.08544699.1567996.02441342 2.2555018 0 2.2555018 0 .2894762-.01220671.3015377-.03662014.4221529-.07324028.7236903-.3173745 1.0372895-.78122954.9166744-1.3671517-.096492-.24413424-.2653531-.41502819-.4945217-.5248886 0 0-.1085536-.07324026-.4100912-.08544698h-1.4835655c-.0361845 0-.0603075 0-.0844305-.01220671-.120615-.06103356-.1567996-.14648054-.120615-.26854766.0844305-.09765369.1326765-.12206712.2412301-.14648054zm-9.6250828-1.40377183-.0120614-.02441343c-.1085536-.2075141-.3859682-.28075436-.6151368-.15868726-.2291687.12206712-.3256608.39061478-.2171072.61033559.1085536.2075141.3859683.28075437.6151368.15868726.2171072-.12206712.3135992-.37840807.2291686-.58592216z" transform="translate(2 4)"/></svg>