<svg height="12" viewBox="0 0 32 12" width="32" xmlns="http://www.w3.org/2000/svg"><g transform="translate(2)"><path d="m24.9209327 0c1.0249885 1.02037851 2.0500334 2.04092637 3.0790673 3.06535034-.0828661.08226401-.1640012.16227009-.2444964.24280302-.2291614.22895435-.4574572.45856727-.6878415.68620449-.0176496.01757424-.048508.0308396-.0733076.03087723-.8897947.00154292-1.7795895.00121663-2.6694219.00111015-.0152786 0-.0305009-.00127949-.0445754-.00191925.3178041-.31697609.6343097-.63272912.9540706-.95177499-.5723482-.56969518-1.1357964-1.13049035-1.6969115-1.68885824.468935-.46912312.9290075-.92925213 1.3834164-1.38379275z"/><path d="m20.7160226 6.08789405c-.0066609.29300437-.0559967.57477554-.1947654.83573608-.1847554.34743937-.4759158.5663271-.8444103.68786033-.3234865.10681902-.6546312.12636895-.9910067.07880184-.2394348-.03381254-.4662254-.10360147-.6737482-.23002687-.3239945-.19734331-.5227302-.4834798-.5964517-.85468391-.0728371-.36636836-.0474542-.72714834.0905432-1.0748135.1599368-.40296568.4576264-.66979686.8611001-.81353307.4938852-.17609993.9926248-.18372044 1.4822387.0148459.4774586.19354245.7591921.55125541.8387842 1.06245132.0151093.09688412.0187973.19553695.0277161.29336188zm-.8194601-.00131712c-.0027472-.03253305-.0053626-.0816619-.0111955-.13043324-.0244798-.20522724-.095266-.39131852-.2414859-.54124524-.3502054-.35927469-.9621616-.30058726-1.2538864.12113808-.1786025.25819459-.222858.54845181-.1802583.85359257.0542845.38885361.3285856.69395673.7404701.72882298.2764086.02348249.509653-.0668348.6919435-.27576882.1841344-.21098499.2479398-.46581148.2544125-.75610633z"/><path d="m6.96613571 7.6748819c.03230725-.50995405.06442634-1.01740556.09701584-1.53112283-.06913037.03317279-.12973704.07029696-.19548051.09219891-.18469888.06152865-.37316098.11212516-.55695668.17609991-.11895541.04139543-.23644317.09125811-.34721357.15098042-.11300952.06096418-.19122807.15739672-.20391012.29223292-.01685923.17901642.0712754.30480207.24761992.35485291.19369299.05490539.38638871.03580704.5777673-.01371694.05018255-.01294549.09917969-.03027512.15786712-.04839503-.02267341.07957331-.04307007.15169543-.06384305.22379875-.02771611.09584924-.05449144.19194308-.08452193.28702086-.00506154.01573025-.02284276.03616455-.03759459.03881761-.34145584.06250711-.68377722.0862154-1.02273051-.0109886-.45079623-.12932309-.6386374-.49557856-.59976332-.89969202.02978588-.30961899.20947968-.51104539.47055312-.65316342.21632875-.11767592.45248967-.17914813.68898929-.2398677.21610296-.05545106.43267632-.10999894.64635199-.1739737.07409782-.02224064.14454532-.06512254.20887757-.10981078.17600585-.12219178.14725484-.38951218-.07816209-.47753392-.15331361-.05991047-.31304353-.06261998-.47382714-.05298614-.35784467.02146918-.69879247.11568141-1.03176225.24321696-.01017951.00393257-.02081061.00651037-.03849775.0119106.01096979-.07125659.02094232-.1377527.03155461-.20423.01802583-.11259556.03782037-.22502179.05402103-.33784315.00479811-.0334174.0174049-.04813159.05134915-.05594028.35114613-.0807399.70455021-.14339752 1.0655748-.16099058.24999076-.01217403.49806228-.00792158.74253991.05025781.16862993.04011593.32553742.1058594.45250849.22893554.13906983.1347233.20343972.30245005.19899912.4928314-.00572009.24577596-.01968164.49138256-.03255186.73695154-.00931397.17905404-.02626728.35773177-.03334214.53672937-.01334061.33774907-.02235352.67566748-.03217553 1.01354827-.00084673.02831823-.00547549.04338993-.03911868.0432394-.26690644-.00116659-.53379406-.00062093-.80068168-.00080909-.00765816.00005645-.01525986-.00193805-.01945586-.002559z"/><path d="m9.50139878 6.02094635c.15579733.0146013.30412468.01433788.44857591-.0323637.15720851-.05080348.28470651-.1364732.32756961-.30692829.0340947-.13568293.0259285-.2663984-.0864224-.36856985-.0592143-.05394576-.1336884-.08301665-.21207632-.08691158-.22927424-.01145901-.45873662-.01712265-.6928654-.02521358-.00611524.09242471-.0126068.17273183-.01650173.25309542-.01189178.24568186-.02506305.49125084-.0334174.73706442-.01192941.34890703-.02039666.69796458-.02957892 1.04694686-.00340571.12697107-.00500508.25397977-.00675498.38095085-.00031988.0224476-.00052685.03999329-.03159223.03994659-.27324747-.00088437-.5464573-.00073384-.81968596-.00107253-.00438414 0-.00878712-.00270951-.01949348-.00613404.11274609-.9965197.13709413-1.99825145.14465821-3.00741556h.05838637c.53375643.00045158 1.06758812-.00223912 1.60132574.0026907.2414294.00223911.4776844.04152714.6883307.17190393.1979643.12251166.2998911.30372955.3151698.53486657.0173108.26261636-.0454786.49721556-.2434617.6826859-.1200278.11250148-.2638581.18515046-.4167014.24182457-.0235577.00867422-.0469273.0176495-.082057.03095249.2001657.44908395.3989391.89500681.599895 1.34601001-.0182892.00139239-.0316486.00333044-.0450457.00333044-.2795697.00030107-.5591582.00015053-.8387655.00040422-.0260603 0-.0464381.00115753-.0565612-.03382162-.15519522-.53563803-.35163534-1.0571828-.54450041-1.57978128-.00227675-.00579536-.00410191-.01164717-.00842961-.02446094z"/><path d="m22.2008014 6.02060766c.1742371.0168216.3389533.01219283.4984574-.04931701.2159901-.08335534.3212286-.26152502.2853651-.4880521-.0211681-.13380133-.1252964-.23038438-.2836904-.25375399-.0844091-.01249389-.170361-.01770595-.2558049-.0193994-.150717-.00297295-.3015845-.00084672-.458605-.00084672-.0035374.03663495-.0085989.07214094-.0101795.10779746-.0176495.39160076-.0363151.78314507-.0513491 1.17480228-.0094457.24581358-.0135664.4918906-.0193242.73779826-.0029729.12855161-.0043465.25714088-.0064351.3856925-.0003763.0226734.001844.04384153-.033154.04372863-.2732286-.00111016-.5465137-.00084673-.8197423-.00114779-.0043654-.00007527-.0087119-.00297294-.0180824-.00641628.1129343-.99678313.1373012-1.99870304.1448276-3.00414157.0175743-.00114778.0313853-.00282241.0451023-.00278478.5401538.00030106 1.0803454-.00270952 1.620424.00274715.2446846.00242728.4841384.04355928.6954621.17991959.1875024.12094991.2848758.29682404.3014528.51836485.0178188.23858821-.0300306.45813451-.1937118.64091414-.1259738.14065038-.2886391.22539811-.4627821.29076526-.0235954.00882475-.0474166.01727319-.0764123.02779138.1743877.45918821.3973021.89581591.5922746 1.3509022-.0215444.0011666-.0366162.00257781-.051782.00263425-.277989.00018818-.5560722-.00028224-.834099.00064647-.0309337.00016264-.047172-.00585852-.056994-.03985922-.1549694-.53257101-.3496032-1.0514439-.5422425-1.57095654-.0026907-.0072442-.0047605-.01463892-.0089753-.02782902z"/><path d="m12.4770904 5.84892952h1.3034104c-.0127762.18992976-.0256465.38224916-.0387988.57900917-.4341252 0-.863791 0-1.3006257 0-.0129454.21693086-.025684.42975981-.0387988.64915559.5207358.00658564 1.0370496-.00031987 1.5602502-.03153579-.0120046.20502028-.0236707.40518599-.0356.609209-.8134014 0-1.6241309 0-2.4421986 0 .1054454-.99921039.1486283-2.00011424.1535959-3.00666292h2.4364973c-.0092576.199319-.0184587.39773482-.0274527.59122081-.5119862-.00824145-1.0164836-.0162383-1.5318191-.02457383-.0131336.21612177-.0257781.42479237-.0384601.63417797z"/><path d="m0 4.64249738h.31898941c.17320224.00001882.34636685.00122305.51951263-.0009102.03815907-.00042575.05522527.01052523.06672191.04774348.21527505.69713666.43194249 1.3937841.6483465 2.09060089.0073571.02363302.01492118.04719079.0251195.07934751.05027663-.12979349.0976744-.25196646.14494046-.37419586.23188966-.5994999.46377933-1.19903743.69542439-1.7986314.00937042-.02421633.01537276-.04486462.05038952-.04468825.28120668.00154292.56245098.00099726.84365766.0011666.00619051.00003763.01241864.00154292.02466792.0031611-.04338994.09392999-.08672342.1849623-.12772371.27699187-.36473137.81897094-.72921813 1.63805477-1.09332855 2.45732676-.03921277.0882099-.07447414.17828258-.11457126.26615379-.00639748.01407445-.02867575.02969182-.04369099.02980472-.28756653.00173107-.57511423.00062093-.86268075.0022418-.03511085.00018547-.04075569-.01927038-.0491853-.04425816-.13536305-.39867562-.2681483-.79831086-.40761327-1.19544356-.19145386-.54525306-.38810095-1.08856806-.58239605-1.63269217-.01855268-.0519889-.03607047-.10427885-.05658002-.16371892z"/><path d="m15.5757264 5.97283357c.0545668 0 .1034886.0006962.1524669-.00011289.1399542-.00223912.2713282-.03068906.3762092-.13175037.1173561-.11319767.1509051-.32760718.0757159-.47235947-.0402851-.07746591-.1068754-.1270087-.1894216-.13741401-.115719-.01450721-.2334702-.01700976-.3503371-.01763069-.0787078-.00039514-.1574719.01130848-.2385505.01768713-.051368.8080576-.0785196 1.61442175-.079404 2.42453029-.2761828 0-.5469277 0-.8239384 0 .0724609-1.00165649.1143643-2.00254151.1279495-3.00794241.0149212-.00124186.0286194-.00336808.0423362-.00336808.536974.00031987 1.0738916-.0028036 1.6107715.00287886.2443083.00259663.4627632.08010016.617394.2836904.1239229.16338024.1689122.35372395.1684856.55454823-.0006459.2904642-.0922616.54581754-.3133508.7435748-.1764763.15786712-.3878187.24052626-.62159.25621889-.1321079.00886239-.2656646-.0028036-.3983745-.00797802-.013623-.00047041-.0349416-.01764951-.0384037-.03076434-.0406428-.15624893-.0784444-.3131376-.1179582-.47380832z"/><path d="m24.250816 4.64691916h2.8111636c-.007978.19873569-.0158055.39457371-.023746.59329058-.3214919-.00679261-.6392394-.01350996-.9605433-.02032139-.0585369.81422928-.0902985 1.62238095-.1058029 2.43499204-.3022242 0-.6012686 0-.9062965 0 .0807023-.80941235.1237347-1.61792153.1305461-2.43557534-.3229596.00795922-.6409141.01574908-.9653979.02376474.006755-.19930017.0133407-.3953828.0200769-.59615063z"/><path d="m3.56074073 7.67776078c.0973169-1.01243813.13445988-2.01990879.14034933-3.03182006h.90035058c-.00944568.12495775-.01932415.24630281-.02773494.36772313-.0121552.17721006-.0273398.35438251-.03407597.53181837-.01644527.43435094-.03059498.86877716-.04205399 1.30329745-.00681143.25858972-.00780868.51731115-.00895646.77599495-.0002258.04130135-.01033004.05417157-.05306141.05388061-.27311576-.00192934-.54628796-.00093209-.81942252-.00089445-.01550447 0-.03106539 0-.05539462 0z"/><path d="m3.72901315 3.56770269h.89267361c.00101607.01516579.00308585.02890154.00261544.04254322-.00637865.16968362-.01330298.33925436-.01966283.50891916-.00090317.02400935-.00752644.03881763-.03567533.03872355-.27798911-.00094081-.55597824-.00122306-.83398618-.0018628-.0029165 0-.00585181-.00206977-.00600234-.00212622.00003763-.19517944.00003763-.38909822.00003763-.58619691z"/></g></svg>