<svg height="12" viewBox="0 0 32 12" width="32" xmlns="http://www.w3.org/2000/svg"><g fill="none" transform="translate(2 3)"><path d="m11.6445498 1.29230769v3.87692308h-.6220379v-3.04230769h-.0082938l-1.1113745 3.04230769h-.41469194l-1.13625593-3.04230769h-.00829384v3.04230769h-.57227487v-3.87692308h.89573459l1.02843603 2.87179488h.01658767l1.08649289-2.87179488zm.514218.29615385c0-.10769231.0331753-.1974359.1078198-.26923077.0746446-.07179488.1575831-.10769231.2571091-.10769231.1078199 0 .1990521.03589743.2654028.10769231.0663507.07179487.1078199.16153846.1078199.26923077s-.0331753.19743589-.1078199.26923077c-.0746445.07179487-.1575829.10769231-.2654028.10769231-.10782 0-.1907583-.03589744-.2571091-.10769231-.0663506-.08076923-.1078198-.17051282-.1078198-.26923077zm.6718009.79871795v2.78205128h-.6054503v-2.78205128zm1.8329384 2.30641025c.0912323 0 .1907583-.01794871.2985782-.07179486.1078199-.0448718.207346-.10769231.2985782-.17948719v.61025642c-.099526.06282051-.2073459.1076923-.3317536.13461538-.1244075.02692308-.2571089.04487179-.406398.04487179-.3815166 0-.6883886-.12564102-.9206161-.38589743-.2405214-.26025642-.3566352-.5923077-.3566352-.98717949 0-.44871795.1244076-.81666667.364929-1.10384616.2405213-.28717948.5805687-.43076923 1.028436-.43076923.1161138 0 .2322275.01794872.3400474.0448718.1161138.02692308.2073459.07179487.2736967.10769231v.62820512c-.0912322-.07179486-.1907583-.13461538-.2819905-.17051282-.0995261-.03589743-.1990522-.0628205-.2985782-.0628205-.2405214 0-.4312797.08076923-.5805688.25128204-.1492891.17051282-.2156398.3948718-.2156398.68205128 0 .27820514.0746446.50256411.2156398.65512821.1409953.1525641.3317536.23333333.5722749.23333333zm2.313981-2.35128205c.0497631 0 .0912323 0 .1327015.00897436s.0746446.01794872.099526.02692307v.66410257c-.0331754-.02692307-.0746446-.05384615-.1409952-.07179487-.0663507-.01794871-.1327015-.03589744-.2239336-.03589744-.1492892 0-.2736967.07179488-.3732228.20641026-.0995261.13461539-.1575829.34102564-.1575829.62820513v1.4h-.6054503v-2.78205128h.6054503v.43974359h.0082938c.0580569-.15256411.1409953-.26923077.2488152-.35897436.1161137-.08076923.2488151-.12564103.406398-.12564103zm.2654029 1.48076923c0-.4576923.1244076-.82564103.3566351-1.0948718.2405213-.26923076.5722749-.40384615.9952607-.40384615.3981042 0 .7132701.12564103.9372037.38589744s.3400474.61025641.3400474 1.05c0 .44871795-.1244076.80769231-.3566351 1.07692308-.2405212.26923077-.563981.40384615-.978673.40384615-.3981042 0-.71327-.12564102-.9454976-.37692307-.2322275-.26025642-.3483412-.61025642-.3483412-1.04102565zm.6303318-.02692307c0 .28717949.0580568.51153846.1824644.66410256s.2985782.23333333.5225118.23333333c.2156399 0 .3898105-.07179486.5059243-.23333333.1161137-.1525641.1741705-.37692307.1741705-.68205129 0-.29615384-.0580568-.52051281-.1741705-.68205127-.1161138-.15256411-.2902844-.23333334-.4976304-.23333334-.2239336 0-.3898105.08076923-.514218.24230769-.1409953.17051283-.1990521.3948718-.1990521.69102565zm2.9028435-.67307693c0 .08974359.0248816.17051282.0829384.22435897.0580569.05384616.1741707.11666668.364929.19743591.2405213.10769231.4146919.22435897.5059241.35.0995261.13461538.1492891.28717948.1492891.47564102 0 .26025641-.0912322.46666667-.2819905.62820513-.1824644.16153846-.4395735.23333333-.7547393.23333333-.1078199 0-.2239337-.01794871-.3566352-.04487179-.1327013-.02692308-.2405213-.06282052-.3317534-.10769231v-.64615384c.1078199.08076923.2322274.15256409.356635.19743589.1244075.0448718.2405213.07179488.3483412.07179488.1327015 0 .2405214-.01794873.2985782-.06282052.0663508-.04487179.0995261-.10769231.0995261-.20641025 0-.0897436-.0331753-.16153846-.0995261-.23333334-.0663507-.06282051-.1990521-.13461538-.3815166-.21538462-.2239336-.09871795-.3815165-.21538461-.4727487-.34102564-.0912323-.12564102-.1409953-.28717948-.1409953-.48461538 0-.25128205.0912322-.45769231.2736966-.61923077.1824645-.16153847.4229858-.2423077.7132702-.2423077.0912322 0 .1907583.00897437.2985782.03589745.1078199.02692307.2073459.05384615.2819905.08076923v.63717948c-.0829384-.05384616-.1741706-.10769231-.2819905-.1525641-.1078199-.0448718-.2156398-.06282052-.3151659-.06282052-.1161138 0-.207346.02692308-.2654028.07179488-.0580569.06282051-.0912323.12564103-.0912323.21538461zm1.3601896.7c0-.4576923.1244076-.82564103.3566351-1.0948718.2405214-.26923076.5722748-.40384615.9952606-.40384615.3981043 0 .7132702.12564103.9372038.38589744.2239337.26025641.3400474.61025641.3400474 1.05 0 .44871795-.1244075.80769231-.356635 1.07692308-.2405214.26923077-.563981.40384615-.978673.40384615-.3981043 0-.7132702-.12564102-.9454976-.37692307-.2239337-.26025642-.3483413-.61025642-.3483413-1.04102565zm.6303317-.02692307c0 .28717949.058057.51153846.1824645.66410256.1244077.1525641.2985782.23333333.5225119.23333333.2156398 0 .3898104-.07179486.5059241-.23333333.1161138-.1525641.1741707-.37692307.1741707-.68205129 0-.29615384-.0580569-.52051281-.1741707-.68205127-.1161137-.15256411-.2902843-.23333334-.4976303-.23333334-.2239337 0-.3898104.08076923-.514218.24230769-.1327014.17051283-.1990522.3948718-.1990522.69102565zm4.0142181-.87051282h-.9040285v2.24358974h-.613744v-2.24358974h-.4312796v-.53846154h.4312796v-.38589744c0-.28717948.0912322-.52948717.2654028-.71794871.1741707-.18846154.3981042-.27820514.671801-.27820514.0746446 0 .1409952.00897437.1990521.00897437.0580568 0 .1078199.01794871.1492891.03589743v.56538462c-.0165877-.00897436-.0580569-.02692308-.1078199-.0448718-.049763-.01794871-.1078199-.02692308-.1741707-.02692308-.1244075 0-.2239335.0448718-.2902843.12564103-.0663507.08076923-.0995261.21538461-.0995261.37692308v.33205127h.9040285v-.62820512l.6054502-.19743589v.82564101h.6137441v.53846154h-.6137441v1.30128206c0 .17051282.0331754.28717948.0829384.35897436.0580569.07179487.1492891.1076923.2736967.1076923.0331753 0 .0746445-.00897435.1244076-.02692307.049763-.01794872.0912322-.03589743.1244076-.06282051v.53846154c-.0414692.02692307-.0995261.04487178-.1907583.06282051-.0912323.01794872-.1741707.02692307-.2654029.02692307-.257109 0-.4478673-.07179487-.5722748-.21538461-.1244077-.14358974-.1907583-.36794872-.1907583-.66410257z" fill="#737373"/><path d="m0 0h2.8364929v3.06923077h-2.8364929z" fill="#f25022"/><path d="m3.13507109 0h2.83649289v3.06923077h-2.83649289z" fill="#7fba00"/><path d="m0 3.39230769h2.8364929v3.06923077h-2.8364929z" fill="#00a4ef"/><path d="m3.13507109 3.39230769h2.83649289v3.06923077h-2.83649289z" fill="#ffb900"/></g></svg>