<svg height="12" viewBox="0 0 32 12" width="32" xmlns="http://www.w3.org/2000/svg"><g fill="none" transform="translate(2 4)"><g fill="#000" transform="translate(7.0771)"><path d="m1.38880519.85664619v3.77703095h1.01888979v-3.77703095h1.3888052v-.85664619h-3.79650018v.85664619z"/><path d="m7.34639008 4.63367714 1.05782825-3.3551976h-.94750261l-.61652567 2.27141036h-.01297949l-.57109745-2.27141036h-.89558467l-.55811797 2.2779001h-.01297948l-.61652567-2.2779001h-.97346159l1.064318 3.3551976h.95399235l.57109747-2.25194114h.01297949l.59705643 2.25194114z"/><path d="m9.82450527.75930003v-.75930003h-1.00494333v.75930003zm-1.00494333.51917951v3.3551976h1.00494333v-3.3551976z"/><path d="m11.6361108 1.27847954v-1.00591029h-.9215437v1.00591029h-.5581179v.61652568h.5581179v1.97937187c0 .16873335.0281223.30501797.0843667.40885387.0562445.1038359.1330398.18387608.2303859.24012053.0973462.05624444.2098351.09410129.3374667.11357052s.2628346.02920384.405609.02920384c.0908565 0 .1838761-.00216325.279059-.00648974s.1817129-.01297949.2595897-.02595897v-.71387183c-.0432649.00865299-.0886931.01514273-.1362846.01946923s-.0973461.00648974-.1492641.00648974c-.1557539 0-.2595897-.02595897-.3115077-.07787693-.0519179-.05191795-.0778769-.15575385-.0778769-.31150771v-1.66137442h.6749333v-.61652568z"/><path d="m13.9205006 1.27847954v-1.00591029h-.9215436v1.00591029h-.558118v.61652568h.558118v1.97937187c0 .16873335.0281222.30501797.0843667.40885387.0562444.1038359.1330398.18387608.2303859.24012053.0973462.05624444.2098351.09410129.3374667.11357052.1276315.01946923.2628346.02920384.405609.02920384.0908563 0 .183876-.00216325.279059-.00648974.0951829-.00432649.1817127-.01297949.2595897-.02595897v-.71387183c-.0432649.00865299-.0886932.01514273-.1362846.01946923-.0475915.0043265-.0973462.00648974-.1492642.00648974-.1557538 0-.2595897-.02595897-.3115076-.07787693-.051918-.05191795-.077877-.15575385-.077877-.31150771v-1.66137442h.6749334v-.61652568z"/><path d="m17.2951674 2.59589755h-1.4991308c.0043266-.06489743.0183876-.13844786.0421833-.22065129.0237958-.08220342.0648975-.16008034.1233052-.23363078.0584077-.07355043.1362847-.135203.2336308-.1849577s.2195696-.07463205.3666705-.07463205c.2249778 0 .3926295.06057094.5029552.18171282.1103256.12114189.1871209.29852822.2303858.532159zm-1.4991308.58407695h2.4206745c.017306-.25958976-.0043265-.50836326-.0648974-.74632054-.060571-.23795728-.1589988-.44995558-.2952834-.6359949-.1362846-.18603933-.310426-.33422181-.5224244-.44454746-.2119983-.11032564-.4607718-.16548847-.7463206-.16548847-.2552632 0-.4878123.04542821-.6976474.13628463-.209835.0908564-.3904663.21524317-.5418937.37316027-.1514272.1579171-.2682427.34503805-.3504461.56136284-.0822034.2163248-.1233051.44995558-.1233051.70089234 0 .25958975.0400201.49754703.1200603.71387183.0800402.21632479.1936107.40236412.3407115.55811797.1471009.15575385.3266504.27581411.5386488.36018079.2119982.08436667.4499556.12655.7138717.12655.3807317 0 .7052189-.08652991.9734616-.25958975.2682428-.17305984.4672616-.46077181.5970564-.86313594h-.8112179c-.0302855.10383591-.1124889.20226369-.2466103.29528335s-.2942016.13952949-.4802411.13952949c-.2595897 0-.4586084-.06706068-.5970564-.20118206-.1384478-.13412138-.2141615-.35044617-.227141-.64897439z"/><path d="m18.7618495 1.27847954v3.3551976h.9215437v-1.51211034c0-.15142735.0151428-.29203846.0454283-.42183335.0302853-.12979487.0811217-.24336539.1525088-.34071155.0713872-.09734616.1654886-.17414146.282304-.23038591.1168153-.05624444.2595897-.08436667.4283231-.08436667.0562444 0 .1146521.00324487.1752231.00973462.0605709.00648974.1124889.01406111.1557538.02271411v-.85664619c-.0735504-.02163249-.1406112-.03244873-.2011821-.03244873-.1168154 0-.2293043.01730599-.3374667.05191796-.1081623.03461196-.209835.08328504-.3050179.14601923-.095183.06273419-.1795496.13844787-.2531.22714103-.0735504.08869317-.1319582.18495771-.1752231.28879361h-.0129795v-.62301542z"/></g><path d="m5.89755476.56727754c-.21706703.09639871-.4502383.16126934-.69497741.19052911.24995597-.14970141.44161913-.38672861.5318936-.66934675-.23362491.13858723-.49265369.23929541-.76846719.29373232-.22069615-.23521265-.5350691-.38219222-.88301145-.38219222-.6682126 0-1.20985951.5418737-1.20985951 1.20985953 0 .09481086.01088739.18735352.03130122.2755866-1.00549442-.05035403-1.89689822-.53212044-2.49388926-1.26429632-.10388371.17873436-.16353745.3865018-.16353745.60855889 0 .4196175.21343791.79001508.53801777 1.00685531-.19824095-.00635095-.38491406-.06078786-.54799786-.15128914v.01519693c0 .58633053.41689572 1.07535507.97056409 1.18627026-.10138867.02767204-.20844786.04241533-.31890935.04241533-.07779937 0-.15378417-.00771188-.22750077-.02154789.15401099.48063219.60084699.83061597 1.13024558.84036923-.41394705.32457983-.93563375.51805761-1.50268452.51805761-.09753273 0-.19393137-.0056705-.28874225-.0170115.53552274.34317906 1.17130006.54346132 1.85470963.54346132 2.22556084 0 3.44222496-1.84359543 3.44222496-3.44245166 0-.05239553-.0011341-.10456423-.0034023-.156506.23657357-.17079579.44184594-.38377996.60402247-.62625096z" fill="#1d9bf0"/></g></svg>