<svg height="12" viewBox="0 0 32 12" width="32" xmlns="http://www.w3.org/2000/svg"><g transform="translate(2 1.5)"><path d="m22.0392282 7.736897c-1.7386225-1.01250283-6.4950455-1.19110735-11.1566232-.78709162-1.43006796.12440728-2.72833801.30670706-4.16025351.58200436 0 .00184764-.00061588.0030794-.00092383.00492703.07328944-.00246351.54689935-.06097189.76861529-.09546104-.19708084.05327341-.75968506.16012819-.78401222.16628697 0 .00215557-.00400321.00492702-.00246351.00492702.01016198 0 .46067647-.06466715.72519591-.09669279-.30793882.06928623-.73597377.15858849-.73658965.16012818 0 .00184763 0 .00184763-.00061588.00307939 0 .00092381.41079039-.0563528.70210051-.08529906-.26852266.05696869-.70456544.16443933-.70456544.16536316v.00523496c-.00061445.00092381.39970601-.05635281.69286376-.08745463-.26113212.05358136-.67130663.16875047-.67130663.16936635v.0055429c.00061588.00092382.43019054-.06312746.68855121-.09607691-.26421151.06281951-.6528303.16844253-.65221442.17152192l.00246351.01077786c1.33091157-.2340335 2.92541877-.41510153 4.3912075-.47853692 6.6003606-.28946249 10.1379617.7061037 11.007581 1.65301556.2124777-.27221791.5582931-.98540421-.1093183-1.37494681zm-16.96558115.28453547c0-.0030794 0-.00615878.00061588-.00923817 0-.00184763-.36521543.04619082-.65283029.12625492.21247778-.07698471.64051274-.19030619.64051274-.19184588 0-.00369528 0-.00677466-.00061588-.01016199 0-.00123175-.41633327.07082593-.65652556.13703277.24635106-.08529905.63558572-.1841474.63496985-.18691886 0-.00184763-.00092382-.00492702-.00184764-.0080064-1.1208973.25250982-2.11246029.52226423-2.95097769.79971711-.40401572.13364544-.01170167.3110182.34858675.21401748.87947326-.23649702 1.75217187-.44527954 2.61193705-.62634756 0-.00246351.00092381-.00431115.00123175-.0055429-.01539694-.00061588-.50347996.0634354-.72458004.13025812.17952834-.06466715.71749745-.19708085.74274843-.19892847l.00246351-.00985405c0-.00215557-.4323461.05388929-.68670357.12409935.2934657-.10346745.69347823-.19892848.6940941-.20108405l.0015397-.01139374c0-.00123176-.37568536.04988608-.66607166.12440728.23711289-.09022607.66083669-.19400145.66083669-.19708084z"/><path d="m27.2895851 6.47989074-.5188769 1.37125156-.5327342-1.37125156h-2.3757479v.68793533h.624192v1.97511957h.7452119v-1.97481164h.9607691l-.3781488.15027414.7704628 1.82484544h.3689107l1.0463762-2.50292671v-.16012818h-.7104149zm-3.8584734 1.88766495c-.2401922 0-.4141777.16443933-.4141777.39108231 0 .22325563.1742934.38492351.4144856.38492351.2358812 0 .4070952-.16166788.4070952-.38492351 0-.22263977-.1749093-.39108231-.4064793-.39108231zm-17.04749292-1.08794784c.02956213-.56660742.16259171-1.81499139.33873271-2.8114814.10377537-.58569963.31194202-1.56617682.42495556-2.11707937.01293343-.06035601.04311144-.27098616-.06251158-.39816489-.05296548-.06466715-.21617305-.17860452-.38492352-.25097013-.00307939-.00215557-.00769847-.00369528-.01231756-.00492702-.22171594-.08776256-.39108229-.05481312-.55952482.02401922-.30485944.14288361-.56352804.43019053-.75075484.66422403-.53673736.6719225-.96692789 1.73184791-1.23791405 2.50169495.10161981-.53088652.46313998-2.07920289.52441981-2.47798366.0070826-.04619083.05604487-.17860451.02001603-.25374159-.0498861-.1031595-.24203991-.25312571-.37814888-.3094785-.03541296-.01447313-.07174974-.03017801-.10931828-.04495908l-.00307938-.00092381c-.20416344-.0689783-.33380568-.03849236-.50317203.0468067-.30239592.15273766-.56260422.44527953-.74151667.68855119-.49793707.67530983-.97062315 1.98312599-1.21820597 2.78746218.03079389-.19400145.17336955-1.11165913.18999826-1.21019956.0880705-.52164835.43326992-2.48568213.50317202-2.97160958.0070826-.04619083.03695266-.18476329.00862229-.23033824-.05296548-.08622287-.22017626-.13118193-.32949454-.14165185-.14319155-.01416519-.40832687-.02525098-.53458179.03294945l-.0024635.00092382-.00307939.00092381s-.00061588.00092383-.00123175.00092383h-.0015397c-.00061588.00092381-.00153969.00153969-.00246351.00184762-.00800641.00400321-.01539694.00862229-.02247953.01293343-.29685302.18568711-.78893926.8868638-.93613401 1.13752599-.3014721.51210226-.42526351.729815-.56999475 1.00788375-.09669279.18476329.06620684.68608769.2626718.37568536.25343365-.39816489.63065871-.93921339.9502992-1.29334303-.16012819 1.0463761-.60509978 4.46295728-.67007487 4.89622719-.03387327.22571915-.20477932 1.24715222.20724283 1.20034552.00923816 0 .02093984-.00184764.03387327-.00523496.13333751-.03387328.63681747-.24019228.68177654-.43173022.23280175-.99341063.99587414-3.66755133 2.07304412-4.76381351-.15920437.84375236-.39724108 2.41177681-.43265404 2.72402678-.05604486.498245-.19615702 1.51013196.13426133 1.49504296.01077786 0 .02278746-.00123176.03849234-.00461909.1339534-.02925419.64420802-.2174048.69101471-.40832687.2204842-.89794959 1.02235688-2.99162561 1.99975468-3.94100098-.06158776.33072628-.08468317.44035251-.14965826.76799941-.20539519 1.03467443-.60171245 3.09663275-.61279825 4.00843959-.00923816.73905315.32857072 1.3272163.99772178 1.51690661.13118193.03695266.60971885.00461908.51487369-.15089002-.31101821-.5093308-.39416168-1.08178907-.36429162-1.67149191zm2.1506447-.850527c.42557145-.08745463.82004108-.34550736 1.19880582-.87454626.3254913-.45513356.4936259-.91673385.6146459-1.48796035.0258668-.12163584.0455749-.23341763.0609719-.33688507.2297223-.10315951.4434318-.27098616.6112585-.51733721-.1308739.76984704-.1976967 1.29211127-.221716 1.62345344-.0329494.48038456.0123176.81480611.1277947 1.07624617.1314899.30024035.3686028.45051449.6374333.48654333.3833838.0523496.6405128-.13333751.9472199-.42711114.0440352-.04187969.0877625-.08930226.1314898-.14165185.1961571.41017449.6127982.65283028 1.1812533.53981674.4258794-.0840673.8228126-.3387327 1.2061963-.86530807.3294946-.45267006.5019403-.91242272.6275794-1.48272541.0258669-.11855645.0461908-.22787473.0628195-.32949454.2488145-.09546103.4856195-.25558921.6700749-.4942418-.1530456.71257042-.2432717 1.18741208-.2740656 1.50890021-.0461908.47792104-.0092382.81511404.0994643 1.08456051.1247151.30917057.3593645.47638135.6294269.53273415.3839997.0800641.674386-.09730866.9638485-.35813284.0508099-.04526701.1016198-.09669279.1527377-.15212178.1770648.45328594.6078712.73289439 1.2120471.61587763.4268032-.08160378.8243522-.33349773 1.2095837-.85453021.3316501-.44835892.5050196-.90472425.6337381-1.47071579.0261748-.11547705.0461908-.22171595.0628195-.32025637.3100944-.12995018.5154896-.3633678.649135-.71688157.065591-.17367749.0215557-.61710939-.0779085-.39416169-.2087825.46806701-.468067.66976693-.744596.7368976.0751371-.04495908.15089-.10285157.2241794-.17706483 0-.2974689-.0566608-.47946074-.1117818-.60571565-.1822998-.41879679-.6087951-.39600932-.7128784-.35289789.0030795-.25558921-.1185564-.41202213-.5358134-.33750093-.2432717.04311143-.488391.13857246-.6903989.2903863-.3756854.2823799-.7076434.75876125-.8730066 1.16031347-.1755251.42557144-.2999324.84436823-.3525899 1.28010165-.0277145.22664298-.0277145.49270211.0070826.73905317-.0363368.03695265-.0739053.0714418-.1133215.10377538-.1145533.09546103-.3027039.21093809-.4372731.19092207-.2762212-.04187968-.2383447-.53581355-.2294145-.72765943.0190923-.40493954.1585886-.97462635.2161731-1.28102548.0492702-.26390357.2217159-1.11165913.5000926-2.17250835 1.1800216-.06959418 2.1709688.07482913 2.778532.20416343.2355732.05050196.5173372.13148987.8120347.24481136.7258118.30732293.7011766 1.29426685.6201888 1.87719503-.1807601 1.30689234-.6605289 2.25503596-.6703828 2.42501819-.0030795.05758455-.0184764.24142403.100696.38738703.060356.07390531.2001601.19492528.3726059.30054829.2321859.13734071.39293.13980422.5475152.09854042.3655234-.10100394 1.7152192-1.30319708 2.4844504-2.55897158.4203365-.69286234.6959417-1.46424908.6947181-1.72291768-.0018558-.29346569-1.1286039-.21247778-1.1584739.23156999-.0505021.71749744-.4403525 1.59974216-.9958742 2.28429015-.3766092.46252411-.7892472.83820945-1.097186.99063918.2940815-.82589192.6660717-2.05641542.7470595-3.22719881.0277145-.38738704.0070827-.96200087-.2355731-1.3247528-.418181-.6251158-1.6619458-.92474027-3.2635356-.91827355-.5308865 0-1.0716271.0357209-1.585885.09546103.0985405-.4197206.1647474-.67654157.1749094-.72889117.0194001-.09761661-.1478107-.13857247-.4763814-.12933431-.3378089.00923817-.5647598.06097189-.6220364.29377364-.0671307.27652906-.1231756.48808302-.1822999.73720552-.1527375.03079389-.2996244.06251158-.4388127.09607691-.377533.09053401-.6266555.16567109-.8591494.2657512-.2170968.07636883-.3713741.61341413-.1786045.54443583.4477431-.15920437.8283555-.25250983 1.2717873-.33134217l.080988-.01293343c-.0215557.09854042-.0400321.18383948-.05081.23095411-.2217158.98232483-.7276593 1.34754027-1.1362942 1.42452498.0782165-.04619082.1570488-.10654683.2346494-.18476329-.0052349-.28114815-.060356-.45513358-.1139374-.57769322-.1838394-.42064443-.6103347-.39600932-.714418-.35258995.0024635-.25682097-.1200962-.41448565-.5373532-.33811683-.2426558.04434319-.4874672.14072804-.6888592.29438951-.3747615.28545928-.7042561.76676766-.8683875 1.17109133-.1739854.42865084-.2962371.85083495-.3473549 1.29026365-.0298701.25651303-.0246351.56352803.025251.83605388-.0270987.02894626-.055429.05696869-.0840673.0840673-.110858.10346744-.2950054.23280174-.4289588.22233183-.2746815-.02155572-.2503542-.51826104-.2463511-.71041486.0086223-.40647924.1324137-.96508025.181684-1.2748667.0945372-.62326817.6651477-3.47816894.6971734-3.64907499.0169367-.09977218-.1502742-.12871842-.4757655-.09546103-.3347295.03448915-.557985.10223569-.6084871.3387327-.1518138.71503394-.2432717 1.26870792-.3464312 1.80914056-.2324937.74213254-.618957 1.06854769-.9527626 1.17139925.0646671-.04157174.1293343-.09238165.1921538-.15612497-.0055429-.29192601-.0634354-.4711464-.1191723-.59586162-.1878427-.41941266-.61403004-.3910823-.71749748-.34704705 0-.25682097-.12317552-.41356183-.54043262-.33380567-.24234785.04619082-.48654333.14473124-.68670357.29962447-.37199008.28823073-.69717348.77200261-.85791754 1.17786597-.16998222.43019053-.28884661.8536064-.33565331 1.29272716-.03941617.3633678-.00831434.82773954.12009614 1.14922767.18291566.45636532.61772527.73443408 1.22190123.61033473zm10.41017972-2.38098294c.1370327-.42249206.2617479-.66206847.4914703-.93059111.1746014-.20477931.4486669-.29993241.5626043-.28946249-.070826.1087024-.0184764.1776807.0923815.20016023.1231756.0261748.2291066.10562301.2672909.31009439-.170906-.10839446-.3701424.5204166-.1370327.55644544.2155572.0332574.4634479.01755252.7008687-.05388929-.1890744.09854043-.397857.1515059-.6004807.16413139-.0849911.48407983-.2525098.93089904-.4711463 1.24499664-.3005484.43111435-.6260397.61218237-.8252761.46375586-.3079388-.22787473-.3439677-.85237465-.0800641-1.66533313zm-5.360599-.07544501c.1354931-.42587939.2592845-.66699548.4874672-.93859752.1739854-.20631901.447743-.30393561.5616803-.29315775-.0708258.10901033-.0184762.17860451.0923817.20139198.1154771.02340335.2155572.09422928.2602083.2697544-.15089-.05019403-.3233357.54505171-.1062388.5758456.1933855.02833036.4101744.02093984.6263474-.03017801-.1746013.08683875-.3593645.13148988-.5419722.14165186-.0812959.49701325-.2488147.95768972-.4702226 1.28010166-.2987007.43480961-.6232681.61803321-.8234284.4696067-.3085547-.22849061-.347047-.85699374-.0862229-1.67641892zm-5.30978902.06158776c.13148988-.4268032.25312572-.66915106.4791528-.94229279.17244574-.20816664.44497159-.30793881.55921689-.29777683-.06928623.10962622-.01632075.17860451.09453722.20016023.11701676.02340335.21802068.09484515.26328769.27498937-.13549307-.0110858-.37876474.53427385-.10962621.57461383.2134016.03233358.44835893.01940015.67592573-.05050197-.1869189.10161981-.38738707.15242972-.58446791.1625917-.07790851.4957815-.24080815.95461033-.45882883 1.27733021-.29438951.43727312-.61772527.62296023-.81911725.47607341-.31040233-.22602709-.35412965-.85422228-.10100394-1.67518716z"/></g></svg>