<svg height="12" viewBox="0 0 32 12" width="32" xmlns="http://www.w3.org/2000/svg"><path d="m13.3546013 3.189593c-.6488804 0-1.1160875.39144891-1.3533178 1.15056852l-.1580621-.03261624.2400879-1.32961584v-1.43455842h-.7786784v5.59359725h.7786784v-1.99770887c0-.76698564.4017769-1.24643718 1.0415901-1.24643718.5660851 0 .8611989.33557647.8611989.99076327v2.25338278h.7786611v-2.33328536c.0005121-1.05473576-.4752493-1.61408991-1.4101581-1.61408991zm8.6975143 3.00424024-.0703394.65014678-.1633923.00151206-.0776664-.60512853-.9798051-2.93916971h-.8448047l1.3532995 3.83561244h1.2384487l1.3534828-3.83561244h-.844988zm-4.4493113-3.00425827c-.4120895-.00005397-.8149288.11896292-1.157595.34198457-.3426661.22302165-.6097358.540022-.7674681.91095074-.157714.3709107-.1990017.77906372-.1186243 1.17283463.0803956.39377102.2788295.75546561.5702066 1.03936376.2913953.28388003.6626551.47721957 1.0668316.5555201.404158.07831853.8230985.03810631 1.2038102-.11556087.3806384-.15366718.7061409-.41387702.934927-.74770758.2289691-.33384844.3511471-.72632328.3511471-1.12781634 0-.53827588-.219444-1.05450176-.6101571-1.43511457-.390713-.38063082-.9205844-.59445444-1.473078-.59445444zm0 3.35387488c-.7345332 0-1.3320329-.5940044-1.3320329-1.32430587 0-.73030135.5969685-1.32430575 1.3320329-1.32430575s1.3320329.5942564 1.3320329 1.32430575c0 .73004948-.597518 1.32430587-1.3320329 1.32430587zm9.8332016-2.83802702c-.3429043-.33026645-.820992-.5123378-1.3457894-.5123378-.5876266 0-1.1210332.20786554-1.5018548.58514833-.3755095.37173876-.5823145.88506653-.5823145 1.44544667 0 .56036214.2022256 1.07673198.5691259 1.44542875.3815543.38259278.902505.5848963 1.5069837.5848963.4039016 0 .7664057-.08420464 1.0781702-.25084987.2985758-.16030914.5486102-.39440088.7250081-.67871302l.0119063-.01872016-.5782846-.38941485-.0130054.02149217c-.2668866.44429729-.6643771.66024484-1.2157349.66024484-.7488209 0-1.3113525-.51156369-1.3465221-1.220121h3.2462338l.0020149-.0209882c.0062279-.0672484.0087925-.1347669.0078765-.2023034 0-.59297843-.1950817-1.09392213-.5638137-1.44920876zm-2.6404729 1.086092c.1263911-.56997418.6447773-.96547311 1.2717866-.96547311.6055777 0 1.0781701.38664286 1.1845951.96547311zm-16.43372418-2.96478391.46902053.77431173-1.80986422.7839058-.01480057-.02883621c-.06031965-.11725286-.12972479-.2298617-.20764759-.3368185l-.018171-.02655019zm-1.87425035-1.46479504.80384676.44177187-1.16799939 1.56453918-.02776938-.01821613c-.1115538-.07268454-.22851127-.13717902-.34988325-.19294343l-.03011404-.01364411zm-.3033384 6.26699656 1.17785422 1.51724931-.79371717.45669936-.79188541-1.73397082.02958282-.01441811c.12241609-.05977848.23990477-.12868304.35144025-.20608361zm.87435096-1.05205371 1.80909489.74396349-.45473284.78264579-1.5853645-1.12302831.018171-.02680219c.07502862-.11057484.14115493-.22665769.19779275-.34718659zm-4.55412419-1.50662921-2.50444684.30445426.00311464.33658448 2.51039937.25767194zm-1.67964665-2.17337208 1.58848027 1.12502633-.0192151.0270542c-.07675048.1094588-.14487339.22442565-.20374596.34391054l-.01428768.02908822-1.80467298-.7424335zm1.84437625-1.4996091.80410321 1.75848701-.03037048.01441811c-.12203142.05704242-.23942852.12306692-.35116549.19749747l-.02725649.01947613-1.18979725-1.53192292zm.41747497 6.27175044.02776939.01819807c.11453955.07488056.23481249.14106711.35975641.19800147l.03009571.01391413-.75270421 1.73926284-.80461609-.44201126zm-.90397042-1.03869767.01454412.02957419c.05989835.1205469.12932182.23637776.20762928.34644851l.01921509.02680219-1.54720352 1.14047052-.46901502-.77405978zm2.30778976 3.36967889.34546874-.00302399.2644869-2.44555213-.9224528.00858611zm2.23406169-4.96895477.00882904.89871071 2.50444682-.30445436-.00311395-.33658444zm-1.97668198-4.03104523-.34546874.00303464-.2644869 2.44554688.92247112-.00858606z" transform="translate(2 1.5)"/></svg>