<svg height="12" viewBox="0 0 32 12" width="32" xmlns="http://www.w3.org/2000/svg"><g fill="#1877f2" transform="translate(2 3)"><path d="m2.19076667.84329102c-.32965692 0-.42496705.1452363-.42496705.46557056v.53140198h.87931287l-.08813626.858523h-.79083499v2.60543066h-1.05524377v-2.60543066h-.71089747v-.858523h.71089747v-.51681048c0-.86598841.35152017-1.32345308 1.33229222-1.32345308.20551462-.00043688.41089259.01167745.6149041.03634727v.80796175z"/><path d="m2.71821775 3.46297382c0-.96778955.46151969-1.69668576 1.42862721-1.69668576.52745107 0 .8495925.2694337 1.00366014.60402014v-.53004464h1.01083402v3.46395366h-1.01083402v-.52393657c-.14655215.33492577-.47620907.59689406-1.00366014.59689406-.96710752 0-1.42862721-.7278782-1.42862721-1.69668577zm1.05490215.23312463c0 .51647115.19027867.85852299.68117711.85852299.43248255 0 .65213996-.31286885.65213996-.80762241v-.34782059c0-.49475357-.21965741-.80762242-.65213996-.80762242-.49089844 0-.68117711.34205185-.68117711.858523z"/><path d="m8.35927969 1.76730608c.40993606 0 .79835049.08754898 1.01083402.23278528l-.23434679.74246969c-.21979406-.1039729-.45994827-.15867405-.70338197-.16016713-.5715192 0-.81987213.32746034-.81987213.88804533v.20360229c0 .56058497.24903615.88804533.81987213.88804533.2434337-.00152702.48358791-.05619423.70338197-.16016714l.23434679.74213035c-.21248353.14557564-.60055635.23312463-1.01083402.23312463-1.23834855 0-1.80235226-.66238613-1.80235226-1.72485076v-.16016713c0-1.06246463.56400371-1.72485074 1.80235226-1.72485074z"/><path d="m9.50915036 3.70458188v-.30540344c0-.98238105.56400374-1.62881834 1.71455754-1.62881834 1.084281 0 1.56049.65492072 1.56049 1.6155842v.55311956h-2.220487c.0222049.47303598.2346884.6841037.8198722.6841037.3959299 0 .8133815-.08008358 1.1211751-.21106772l.1930116.71769808c-.2784149.14591498-.8499341.2548422-1.3551803.2548422-1.3353668-.00033934-1.83343914-.66204678-1.83343914-1.68005824zm1.05490214-.45131842h1.2749011v-.08720964c0-.37836093-.153726-.6786743-.614904-.6786743-.4765507.00033934-.6599971.29895603-.6599971.7645266z"/><path d="m16.6946464 3.68150695c0 .96778956-.4686936 1.69668576-1.4347762 1.69668576-.527451 0-.8936607-.26196828-1.0402128-.59689405v.52393656h-.9961447v-5.2044139l1.0549022-.09501441v2.31427939c.153726-.30540344.4908985-.55311956.9817969-.55311956.9671075 0 1.4347762.72787819 1.4347762 1.69668576zm-1.0549021-.2402507c0-.48762749-.1902786-.85139692-.6958665-.85139692-.4324826 0-.6668293.30540345-.6668293.80049634v.36376943c0 .49475358.2343467.80049634.6668293.80049634.5055879 0 .6958665-.36376942.6958665-.85139691z"/><path d="m17.047533 3.65945004v-.1744193c0-.99731188.5715192-1.71772466 1.7364209-1.71772466s1.7367626.72041278 1.7367626 1.71772466v.1744193c0 .99697256-.5715192 1.71772467-1.736421 1.71772467-1.1649017 0-1.7367625-.72075211-1.7367625-1.71772467zm2.4179396-.24737679c0-.45844449-.1906202-.82221392-.6832267-.82221392-.4926066 0-.6815187.36376943-.6815187.82221392v.32033428c0 .45844449.1906202.82221391.6815187.82221391.4908984 0 .6832267-.36376942.6832267-.82221391z"/><path d="m20.8715533 3.65945004v-.1744193c0-.99731188.5715192-1.71772466 1.7364209-1.71772466s1.7364209.72041278 1.7364209 1.71772466v.1744193c0 .99697256-.5715192 1.71772467-1.7364209 1.71772467s-1.7364209-.72075211-1.7364209-1.71772467zm2.4179396-.24737679c0-.45844449-.1906202-.82221392-.6815187-.82221392-.4908984 0-.6811771.36376943-.6811771.82221392v.32033428c0 .45844449.1902787.82221391.6811771.82221391.4908985 0 .6815187-.36376942.6815187-.82221391z"/><path d="m25.7948855 3.49215682 1.0402128-1.65189326h1.1208336l-1.0914548 1.71025925 1.1355229 1.75369441h-1.1208335l-1.084281-1.69668577v1.69668577h-1.0552437v-5.2033959l1.0552437-.09501441z"/></g></svg>