<svg height="12" viewBox="0 0 32 12" width="32" xmlns="http://www.w3.org/2000/svg"><path d="m2.1920339 5.31232985c-.5233747-.1003702-.97404854-.33274847-1.36932859-.7061466-.57000469-.5384771-.88387519-1.3661593-.81274518-2.14324301.08479933-.92606817.59161102-1.70238023 1.40292313-2.14894775.46718172-.25715389 1.16751337-.37565799 1.66795892-.28231534.02885437.00537402.10723242.01890554.17414589.03006697.19059868.03174807.48688648.14099231.71083166.2620594 1.22199769.66067411 1.7263842 2.12555008 1.17939134 3.42540221-.25676806.61024097-.84430034 1.18151338-1.45401768 1.41397432-.43138247.1644451-1.08183216.22915385-1.49915949.1491498zm.65896545-.25064993c.12908678-.02254334.33426423-.07636625.45596517-.11952378.85152082-.30204765 1.48992719-1.13797002 1.56585248-2.05031376l.01829924-.21981131h.23246094.23935071l-.01162993-.07854341c-.00779923-.04177959-.02667721-.13528759-.04183471-.21093729-.07024812-.35060677-.36507529-.7865916-.71559937-.97173359-.26950036-.1423427-.45147305-.18301993-.75470573-.16871675-.68481588.03227169-1.19722207.4410557-1.364616 1.08863924-.0241142.09334265-.04387406.20831918-.04387406.25550034l-.00242521.0857639h-.24816963l-.23722865.00121259.00884647-.14622853c.09813792-.77140654.56600863-1.31393482 1.278108-1.49695476.23058692-.05925205.64951267-.05999614.86802871-.00148819.31489019.08430326.61550476.26916965.84868223.52188653.07609065.08245679.09576785.0945828.07209458.04437013-.0179134-.03797643-.1338545-.16879943-.25764994-.29066574-.24874836-.24491765-.54387868-.4157289-.86979249-.50344949-.2429334-.06539773-.74685139-.06360639-.99204464.0035-.53277236.14581516-.99402888.52307157-1.24233629 1.01613128-.10475212.20801602-.19059868.52604794-.19059868.70614662v.14556712h-.25120113-.24271292l.00923229-.18643726c.0871143-.91520989.69572928-1.65103764 1.58693519-1.91863642.25853184-.07763397.75222542-.09651194 1.02784389-.03935438.46158723.09574028.83870584.30411457 1.17539527.64937489.17166558.17607503.19148057.1902404.12051591.08637018-.13065766-.19131521-.5019613-.53169756-.72463877-.66431191-.65965442-.39279974-1.49769884-.45128013-2.20180608-.15364193-.86706414.36653592-1.43326569 1.19487954-1.48885238 2.17829818-.00118503.02094491.02461027-.42237065-.00151575.04839376-.03585438.00077165-.12848048-.00005511-.22565384-.00005511l-.24651607.00121259.02284648.17020496c.00912206.0949135.0533544.23596095.07903947.31194135.05561426.16458291.24726018.46858725.35846111.56876454.36515797.32889021.83512317.46594157 1.27821824.37292964.63151659-.13261435 1.11881645-.67043003 1.16597006-1.28695448l.00950789-.1242915.25274442-.00796458.25274444-.00793701-.00049606.0908072c-.0006063.11530724-.05941741.37954381-.10246471.48944947-.06900796.1761026-.07584262.16642936-.14953563.27597675-.24431135.36306347-.54407159.63504415-.94406425.76622542-.18767742.06156702-.2723665.07308672-.53952434.07358279-.27206336.0004685-.34550833-.00967325-.51902037-.07137805-.33809495-.12024033-.6201347-.32166972-.84093813-.60059529-.0421103-.05318905-.02325988-.01744491.04186225.07939773.51736683.76933962 1.57252178 1.05559591 2.40734179.65309537.22198849-.10703951.56126847-.36573671.71372536-.54429207.21181918-.24803182.37527216-.65441819.41729977-1.03751713l.01896066-.1726577h.23477591.23477589l-.01639766.22788613c-.04996463.69462691-.53114637 1.4122381-1.14364719 1.7054944-.60492207.28964605-1.17740708.33597288-1.7533921.14198443-.39172493-.13198048-.78163096-.41096117-1.04752108-.74949706l-.07589774-.09670485.0509292.09359067c.07135049.13112617.4347998.51450069.61250082.64609535.27644525.20470894.76796165.39930368 1.11939519.44320532.19864593.0248583.49237074.01554333.7095915-.02240554zm18.88299365-.60550081c-.6615561-.12903167-.9509816-.47341008-.9505416-1.13105269.0000836-.13892538.011686-.32095318.0257963-.40451235.0141102-.08355916.0704961-.40671708.1253111-.71818993.1637286-.9302847.2340869-1.3384073.234335-1.36031678.0001378-.01140946.2649806-.02072443.5884968-.02072443h.5883591l-.0488899.28311455c-.051067.29576417-.1628741.93204849-.2875515 1.63654155-.0774962.43761082-.0776616.60274489-.0009921.72009151.1519057.23237827.6899418.19911444.8829932-.054567.1377404-.18100811.1298034-.14507106.4894771-2.21225098l.0625316-.35906741.5851621-.00746852c.3218903-.0041063.5851623.00212206.5850797.01380711-.0000827.01168505-.0361025.22014202-.0799765.46321322-.0438742.24307119-.1187798.66566231-.1663468.93910361-.1220868.70162692-.1622128.88122952-.2529373 1.1324582-.0913584.25293735-.2841894.55253223-.4435912.68930801-.1595947.13694113-.4565163.28471297-.7021781.34944928-.2799177.07374813-.9522769.09612611-1.234537.04106305zm3.8303554-.00170866c-.5970126-.13228364-.9370918-.46641007-.9719815-.95483986l-.0137245-.19230734h.5686267c.5469102 0 .5686268.00206693.5686268.05431897 0 .08066546.1540278.24152788.26702.27887045.1376852.04555518.4498747.01920869.5640245-.04762212.211571-.12382299.2095592-.30601615-.0044646-.4139651-.0681812-.03433864-.2727248-.10114188-.4545598-.14846083-.4111264-.10695684-.5305676-.14672461-.7025087-.23408694-.3232131-.16414195-.4679259-.38734303-.4683668-.72224111-.000937-.68004815.5028984-1.19132443 1.2884151-1.30743088.3317012-.04902763.4846818-.0547048.7229301-.02681499.4580045.05360243.7624223.21534673.9287965.49355578.0947207.15829941.1548821.38632334.1407719.5332133l-.0086812.0904765-.5434928.00038583-.5434929.00038583-.0165905-.07556704c-.0236733-.10811432-.1524018-.2050672-.3022131-.22758298-.3691815-.05550401-.6342448.1409372-.4639021.34382723.0708268.08438595.2482247.15083092.7808593.29253976.4874652.12969308.7786546.30943349.8969657.55360704.1526774.3152209.0344489.84333577-.2683153 1.19843467-.1611655.18900025-.5035321.37582333-.8625444.47065416-.2780161.07347254-.8576941.09483084-1.1021984.04064967zm-18.44306777-.3734257c.0921576-.17491755.20140185-.38012255.24279559-.45610296.08278752-.15190572.41338638-.77060734.61983154-1.16007242.07248041-.13672065.202642-.37910287.28923268-.53861489.08659066-.15951202.23237825-.43306357.32392955-.60789845.09152375-.17480731.18930341-.35807528.21724833-.40721314l.05076384-.08937414.59935513-.00016631c.35283906-.00008172.59935511.0104183.59935511.02560335 0 .02100003.0706615.42551239.1522916.87191456.0083504.04558273.1073702.59246535.2200869 1.21532839.1127167.62286303.2176341 1.19978506.2331499 1.28207651.0155158.08229144.0211103.15678367.0122913.16560258-.0087362.00873623-.2686184.01620474-.5775007.01648034l-.56162676.00052362-.01750002-.15229155c-.00964568-.08369695-.02642917-.18952387-.03731501-.23505149l-.01987011-.08289775-.57039052-.0074685-.57039053-.00746852-.11800803.24205151-.11798047.2420515-.5686543.00055118-.5686543.00052362zm2.26632191-.99524148c-.00165354-.14909469-.11541747-1.13356057-.13300018-1.15122594-.00435433-.0043819-.04343312.06964182-.08683869.16450022-.04337801.09483084-.13997263.30295709-.21465777.46246912-.17497268.3737564-.26707516.58237873-.26707516.60472914 0 .00975593.15807895.01733468.35135087.01670082l.3513233-.00107481zm1.62124626 1.28011982c-.0069173-.01802366.0061732-.12994112.0290748-.24872081.0228741-.11883481.0805828-.43973286.1281774-.71320173.1080041-.62018981.228327-1.30354505.3306815-1.87817968.0432953-.24307119.0871969-.50096917.0975867-.57314643l.0188505-.13120883h.5923275.5923275l-.0154882.06214575c-.0144685.05798432-.0764213.40746117-.2509254 1.41557275-.0394647.22788613-.0890986.50752823-.1103467.62148508-.021248.11395685-.0774411.4308864-.1247324.70432771-.0473741.27346887-.0980828.55942201-.1127167.63551266l-.0266497.13829152h-.5678275c-.4125044-.00011024-.5712448-.0090945-.5803393-.03287799zm1.8932545.00790945c0-.01386222.0426889-.26261058.0948032-.55278026.0521694-.29016968.1274608-.71397339.1673388-.94188708.039878-.22788613.1087482-.61941815.1530632-.87004053.0442874-.25064994.1086656-.61732366.1430593-.81481211l.0625315-.35906741h1.1156196c.9891234 0 1.1403402.00578741 1.333364.05114968.4523825.10626785.646123.30047677.6610599.66265836.0202009.49024868-.2294018.94249338-.6068511 1.09927705l-.1487089.06178749.1581617.08452373c.2976932.15907108.3507169.34294534.2579806.89459568-.0681261.40531157-.0731694.5727055-.0179961.59395355.0218544.00846064.0334016.04649219.0260709.07440955-.0120984.04651975-.0561103.04103549-.6040953.04103549h-.590922l.0001102-.13829153c.0000551-.07606309.018437-.25012631.040815-.38684696.101197-.6174339.0395749-.70033165-.5396896-.7253553l-.3196029-.01380711-.0159291.09339776c-.1544411.90614294-.1892207 1.09406839-.2090633 1.12904087-.0195669.03444887-.116823.04133864-.5923.04172447-.3245635.00033744-.5688196-.0103071-.5688196-.02466539zm2.3077157-2.04753029c.3143665-.09359067.4042643-.42592576.1636183-.60472914-.0698624-.05189378-.1154726-.05770875-.4525755-.05770875h-.3749138l-.0596104.35215009-.0596102.35217763h.3212011c.2067759 0 .3712485-.01490947.4618905-.04188983zm1.5641989 2.01787671c.0066417-.03094886.043378-.23651213.08163-.45681951.0381969-.2202247.1013347-.58069762.1403033-.80094988.0738584-.41743756.1509411-.85896177.2724217-1.5605887.0395196-.22788612.0847717-.47983134.1006733-.55991806l.028937-.14559469 1.0519582.00369292c1.1157573.00394095 1.3183443.02127561 1.5834627.13564585.1742285.0751812.3548784.26787438.3807564.40619345.0317756.16995692-.0055945.44050453-.0827324.59855592-.0752639.15424824-.2371184.34076817-.4018391.46313054l-.0958781.07121269.1096576.05635835c.2317996.11911039.3448745.34470912.3259139.65028432-.0327954.52858339-.3617683.93108393-.8839579 1.08163925-.3342918.09634658-.4676503.10585446-1.542758.10965762-1.074088.00380316-1.080592.00347245-1.0685486-.05250007zm2.2024674-.83986333c.1418191-.06286228.2084846-.16929549.2084846-.33263823 0-.1406616-.0706339-.21035855-.2529373-.24954758-.1544963-.0332087-.7114105-.03976777-.7117963-.00840552-.0001378.01135435-.0235906.15741753-.0522245.32448075-.0315826.184453-.0417795.31028782-.0259331.3201264.0143583.00895671.1804845.01262208.3692367.0081575.2679296-.00636615.370036-.01998034.4651699-.06217332zm.0908348-1.30084424c.1830475-.08325602.2793389-.29502008.2009334-.44182736-.0434883-.08146468-.1813664-.11158677-.510918-.11158677h-.309213l-.0302323.15882304c-.0166457.08733477-.0384451.22405543-.0484765.30381144l-.0182442.14501594.2997603-.0006063c.2358783-.00046851.3247012-.01190553.4163903-.05362999z" transform="translate(2 3.5)"/></svg>