<svg height="24" viewBox="0 0 24 24" width="24" xmlns="http://www.w3.org/2000/svg"><path d="m12 23c6.0176471 0 11-4.9931373 11-11 0-6.01764706-4.9931373-11-11.0107843-11-6.00686276 0-10.9892157 4.98235294-10.9892157 11 0 6.0068627 4.99313725 11 11 11zm0-7.322549c-3.23529412 0-5.7372549 1.1539215-6.82647059 2.4480392-1.45588235-1.6176471-2.32941176-3.7637255-2.32941176-6.1254902 0-5.09019608 4.05490196-9.16666667 9.14509805-9.16666667 5.0901961 0 9.1666667 4.07647059 9.1775485 9.16666667.0106868 2.3617647-.8736269 4.5078431-2.3295093 6.1362745-1.0892157-1.2941176-3.5911765-2.4588235-6.8372549-2.4588235zm0-1.8333334c2.0705882.0215687 3.6990196-1.7470588 3.6990196-4.06568623 0-2.17843137-1.6284314-3.99019608-3.6990196-3.99019608-2.07058824 0-3.70980392 1.81176471-3.69907251 3.99019608.01083722 2.31862743 1.62848427 4.04411763 3.69907251 4.06568623z"/></svg>