<svg viewBox="0 0 390 789" xmlns="http://www.w3.org/2000/svg"><g fill="none" fill-rule="evenodd"><path d="m308.206339 3.00065719c23.209178.04249655 33.391372 2.14583668 42.150946 6.26360694l.597768.28504505c.876584.42385154 1.741521.86748562 2.607147 1.33042712 9.516044 5.0892362 16.984291 12.5574835 22.073528 22.0735278 5.212911 9.7472968 7.879736 19.4465927 7.879736 46.0778364v630.5151185c0 26.631244-2.666825 36.33054-7.879736 46.077837-5.089237 9.516044-12.557484 16.984291-22.073528 22.073527-.481519.257519-.962834.509065-1.446055.754557l-.593093.297716c-9.134754 4.529026-19.264584 6.827464-44.038689 6.827464h-225.7728501c-24.7741048 0-34.9039342-2.298438-44.0386888-6.827464l-.5930926-.297716c-.4832212-.245492-.964536-.497038-1.4460551-.754557-9.5160443-5.089236-16.9842915-12.557483-22.0735277-22.073527-.1543785-.288663-.3066106-.577254-.4566793-.866227l-.3040962-.592073c-4.71915002-9.293656-7.11896083-19.317497-7.11896083-44.619537v-630.5151185c0-26.6312437 2.66682493-36.3305396 7.87973633-46.0778364 5.0892362-9.5160443 12.5574834-16.9842916 22.0735277-22.0735278.8656255-.4629415 1.7305631-.90657558 2.6071465-1.33042712l.597768-.28504504c8.7467644-4.11174803 18.9124175-6.21462036 42.0537454-6.26340609z" stroke="#363941" stroke-width="6"/><path d="m352.37106 13.271973c8.998243 4.8123133 16.060118 11.8741876 20.872431 20.8724312l.286037.5399332c4.627761 8.8216002 7.089029 17.8759422 7.089029 41.9969468v635.2147508c0 24.121005-2.461268 33.175347-7.089029 41.996947l-.286037.539933c-4.812313 8.998244-11.874188 16.060118-20.872431 20.872432-.539895.288738-1.079527.569379-1.622301.841853l-.543948.26975c-8.360456 4.094349-17.726423 6.263462-40.370631 6.263462h-230.4724834c-22.6442084 0-32.0101752-2.169113-40.3706313-6.263462l-.5439476-.26975c-.5427743-.272474-1.0824065-.553115-1.6223011-.841853-8.9982436-4.812314-16.0601179-11.874188-20.8724312-20.872432-4.7641902-8.908261-7.32358581-17.745095-7.3742973-41.803172l-.00076851-635.9484588c0-24.61327 2.56275241-33.5386364 7.37506581-42.53688 4.8123133-8.9982436 11.8741876-16.0601179 20.8724312-20.8724312 8.9082611-4.76419021 17.7450954-7.32358578 41.8031725-7.37429727l231.2061909-.00076851c24.61327 0 33.538636 2.56275244 42.53688 7.37506578zm-28.370006 6.080555c-9.44769-.4628487-18.909878-.2977846-28.36649-.2721327-.980347.0033459-1.96404.0702638-2.937695.1817936-2.396776.273248-4.095375 1.8324346-4.458962 4.2303254-.239789 1.5837231-.307822 3.1964441-.383662 4.7991273-.413776 8.6502515-5.937847 16.0312938-14.280276 18.2819652-3.396083.916775-6.86689.9613869-10.344389.9613869-45.7696.0044612-91.538085.0055765-137.307686.0044612-2.497152 0-4.984266-.1081839-7.476958-.3568954-8.408231-.8387041-15.228279-7.1981334-16.915725-15.1758601-.523074-2.4726158-.587762-4.9597303-.705983-7.4379226-.143874-2.9867681-2.2618246-5.3634681-5.691366-5.4125412-8.7439365-.1253078-17.4834118-.0925698-26.2251177.0546496-4.3797753.0736096-8.7327835.408199-13.045641 1.1476416-8.442806 1.4454263-16.0502538 4.655254-22.2725015 10.7347435-7.2327076 7.0642976-10.5730252 15.9153027-11.7898153 25.7232335-.969194 7.8104321-.89157 15.6677066-.89157 23.5171741v313.6920671h.0115998v188.697272c0 42.915553-.0115998 85.828875.0133836 128.743312.0033459 7.849468 0 15.707857 1.4041602 23.474793 1.2223666 6.758706 3.6236033 13.030027 7.8762346 18.500563 6.9170784 8.898963 16.3480384 13.210706 27.2333471 14.783276 6.9929186 1.009344 14.0427174 1.077391 21.0925162 1.077391h172.103868c21.144935 0 42.289871 0 63.434806-.02455 6.871351-.010038 13.739356-.258749 20.504754-1.600453 7.857274-1.55584 14.904843-4.769014 20.704392-10.430267 7.229362-7.058721 10.57191-15.914187 11.796508-25.721003.906737-7.276204.89114-14.595905.89114-21.911145 0-209.575651-.004479-419.150187-.012286-628.7258377 0-3.8366252-.005576-7.6743657-.091454-11.5087603-.138297-6.1553297-.422698-12.2983912-1.805668-18.33773-2.743633-11.9794161-9.250281-21.1058998-20.332998-26.6946582-6.814471-3.4373485-14.212242-4.6273715-21.730466-4.9954198z" fill="#18181d"/><path d="m84.9690722 782.680412v5.896908h-5.628866v-5.896908zm301.5463918-80.14433v5.360825h-5.896907v-5.360825zm-377.93814441-.268041v5.628866h-5.89690722v-5.628866zm.26804123-622.9278348v5.628866h-6.16494845v-5.628866zm377.67010318 0v5.3608247h-5.896907v-5.3608247zm-76.927835-79.07216496v5.89690721h-5.896907v-5.89690721z" fill="#4e505e"/><g fill="#363941"><path d="m1.68142525 125.71134h.65776806c.55343888 0 .77740242.062203.99580639.179007.21840397.116803.38980868.288208.50661241.506612.11680372.218404.17900645.442368.17900645.995806v26.389727c0 .553439-.06220273.777403-.17900645.995807-.11680373.218404-.28820844.389808-.50661241.506612s-.44236751.179007-.99580639.179007h-.65776806c-.55343888 0-.77740242-.062203-.99580639-.179007s-.38980869-.288208-.50661241-.506612-.17900645-.442368-.17900645-.995807v-26.389727c0-.553438.06220273-.777402.17900645-.995806s.28820844-.389809.50661241-.506612c.21840397-.116804.44236751-.179007.99580639-.179007z"/><path d="m2.21750772 182.536082h.65776806c.55343888 0 .77740242.062203.99580639.179007s.38980869.288208.50661241.506612.17900645.442368.17900645.995807v55.33818c0 .553439-.06220273.777403-.17900645.995807s-.28820844.389808-.50661241.506612-.44236751.179006-.99580639.179006h-.65776806c-.55343888 0-.77740242-.062202-.99580639-.179006s-.38980868-.288208-.5066124-.506612c-.11680373-.218404-.17900646-.442368-.17900646-.995807v-55.33818c0-.553439.06220273-.777403.17900646-.995807.11680372-.218404.28820843-.389808.5066124-.506612s.44236751-.179007.99580639-.179007z"/><path d="m2.21750772 257.587629h.65776806c.55343888 0 .77740242.062203.99580639.179006.21840397.116804.38980869.288209.50661241.506613s.17900645.442367.17900645.995806v55.338181c0 .553438-.06220273.777402-.17900645.995806s-.28820844.389809-.50661241.506612c-.21840397.116804-.44236751.179007-.99580639.179007h-.65776806c-.55343888 0-.77740242-.062203-.99580639-.179007-.21840397-.116803-.38980868-.288208-.5066124-.506612-.11680373-.218404-.17900646-.442368-.17900646-.995806v-55.338181c0-.553439.06220273-.777402.17900646-.995806.11680372-.218404.28820843-.389809.5066124-.506613.21840397-.116803.44236751-.179006.99580639-.179006z"/><path d="m386.856683 202.639175h.657768c.553439 0 .777402.062203.995806.179007.218404.116803.389809.288208.506613.506612s.179006.442368.179006.995807v90.451582c0 .553439-.062202.777402-.179006.995806s-.288209.389809-.506613.506613-.442367.179006-.995806.179006h-.657768c-.553439 0-.777402-.062202-.995806-.179006s-.389809-.288209-.506613-.506613-.179006-.442367-.179006-.995806v-90.451582c0-.553439.062202-.777403.179006-.995807s.288209-.389809.506613-.506612c.218404-.116804.442367-.179007.995806-.179007z"/></g><circle cx="234" cy="26.804124" fill="#2d2e35" r="7.237113"/><circle cx="234" cy="26.804124" fill="#212227" fill-opacity=".230392" r="3.752577"/><rect fill="#2d2e35" height="6.43299" rx="3.216495" width="40.474227" x="175.030928" y="23.85567"/></g></svg>