<?xml version="1.0" encoding="UTF-8"?>
<svg width="188px" height="388px" viewBox="0 0 188 388" version="1.1" xmlns="http://www.w3.org/2000/svg" xmlns:xlink="http://www.w3.org/1999/xlink">
    <title>iPhone-Pro</title>
    <defs>
        <linearGradient x1="100%" y1="0.252154173%" x2="100%" y2="99.687101%" id="linearGradient-1">
            <stop stop-color="#7C6655" offset="0%"></stop>
            <stop stop-color="#F8EADD" offset="12.410501%"></stop>
            <stop stop-color="#AA998B" offset="76.491648%"></stop>
            <stop stop-color="#817469" offset="98.531687%"></stop>
            <stop stop-color="#BCAD9A" offset="100%"></stop>
        </linearGradient>
        <linearGradient x1="100%" y1="0.427405502%" x2="100%" y2="99.4785103%" id="linearGradient-2">
            <stop stop-color="#7C6655" offset="0%"></stop>
            <stop stop-color="#F8EADD" offset="12.410501%"></stop>
            <stop stop-color="#AA998B" offset="76.491648%"></stop>
            <stop stop-color="#817469" offset="98.531687%"></stop>
            <stop stop-color="#BCAD9A" offset="100%"></stop>
        </linearGradient>
        <linearGradient x1="100%" y1="0.252154173%" x2="100%" y2="99.687101%" id="linearGradient-3">
            <stop stop-color="#7C6655" offset="0%"></stop>
            <stop stop-color="#F8EADD" offset="12.410501%"></stop>
            <stop stop-color="#AA998B" offset="76.491648%"></stop>
            <stop stop-color="#817469" offset="98.531687%"></stop>
            <stop stop-color="#BCAD9A" offset="100%"></stop>
        </linearGradient>
        <linearGradient x1="9.85080462%" y1="8.10992253%" x2="9.85080462%" y2="91.890281%" id="linearGradient-4">
            <stop stop-color="#111111" offset="0%"></stop>
            <stop stop-color="#545454" offset="100%"></stop>
        </linearGradient>
    </defs>
    <g id="Page-1" stroke="none" stroke-width="1" fill="none" fill-rule="evenodd">
        <g id="iPhone-Pro">
            <g id="buttons" transform="translate(0, 76)" fill-rule="nonzero">
                <path d="M187.880484,49 L187.119516,49 C187.053307,49 187,49.2006372 187,49.4498773 L187,95.5501227 C187,95.7993547 187.053291,96 187.119516,96 L187.880484,96 C187.946693,96 188,95.7993628 188,95.5501227 L188,49.4498773 C188,49.2006453 187.946709,49 187.880484,49 L187.880484,49 Z" id="Path" fill="#6A5F56"></path>
                <path d="M0.887250636,29 L0.112754768,29 C0.0502861837,29 0,29.1967533 0,29.441181 L0,57.5588147 C0,57.8032319 0.0502645646,58 0.112754768,58 L0.887250636,58 C0.949713816,58 1,57.8032467 1,57.5588147 L1,29.441181 C1,29.196766 0.949735435,29 0.887250636,29 Z" id="Path" fill="url(#linearGradient-1)"></path>
                <path d="M0.887250636,0 L0.112754768,0 C0.0502861837,0 0,0.195500064 0,0.438370894 L0,16.5616249 C0,16.8044853 0.0502645646,17 0.112754768,17 L0.887250636,17 C0.949713816,17 1,16.8044999 1,16.5616249 L1,0.438370894 C1,0.195512643 0.949735435,0 0.887250636,0 Z" id="Path" fill="url(#linearGradient-2)"></path>
                <path d="M0.887250636,66 L0.112754768,66 C0.0502861837,66 0,66.2035379 0,66.4563942 L0,95.5436015 C0,95.7964468 0.0502645646,96 0.112754768,96 L0.887250636,96 C0.949713816,96 1,95.7964621 1,95.5436015 L1,66.4563942 C1,66.203551 0.949735435,66 0.887250636,66 Z" id="Path" fill="url(#linearGradient-3)"></path>
            </g>
            <g id="frame" transform="translate(1, 0)" fill-rule="nonzero">
                <rect id="Rectangle" stroke="#73675D" stroke-width="2" x="1" y="1" width="184" height="386" rx="31"></rect>
                <rect id="Rectangle" stroke="#E3CEBC" x="2" y="1.5" width="182" height="385" rx="30"></rect>
                <rect id="Rectangle" stroke="#111111" stroke-width="3" x="4" y="3.5" width="178" height="381" rx="29"></rect>
                <rect id="Rectangle" stroke="#000000" stroke-width="3" x="6" y="5.5" width="174" height="377" rx="27"></rect>
            </g>
            <path d="M43.359,384 L43.3596794,388 L40.7663027,388 L40.766,384 L43.359,384 Z M187,344 L187,346.628753 L182,346.628 L182,344 L187,344 Z M6,346.628 L1,346.628753 L1,344 L6,344 L6,346.628 Z M6,41.371 L6,44 L1,44 L1,41.371257 L6,41.371 Z M182,41.371 L187,41.371257 L187,44 L182,44 L182,41.371 Z M147.232677,0 L147.232,4 L144.639,4 L144.6393,0 L147.232677,0 Z" id="antenna" fill-opacity="0.295364" fill="#3D332C" fill-rule="nonzero"></path>
            <g id="island" transform="translate(67, 12)">
                <rect id="Rectangle" fill="#000000" fill-rule="nonzero" x="0" y="0" width="54" height="16" rx="8"></rect>
                <g id="lens" transform="translate(42, 4.5)">
                    <ellipse id="Oval" fill="#0A0A0A" fill-rule="nonzero" cx="4" cy="3.5" rx="4" ry="3.5"></ellipse>
                    <ellipse id="Oval" fill="#0C0E11" fill-rule="nonzero" cx="4" cy="3.5" rx="2.46725801" ry="2.15885076"></ellipse>
                    <ellipse id="Oval" fill="#12171E" fill-rule="nonzero" cx="4" cy="3.5" rx="1.879857" ry="1.64487487"></ellipse>
                    <g id="Group" transform="translate(1.4393, 2.051)" fill="#425A72" fill-opacity="0.299338">
                        <path d="M1.26665388,0.348529726 C1.04372763,0.369059666 0.726961671,0.666773243 0.703492013,1.25193102 C0.680042965,1.8370884 0.973343845,2.15533171 1.13759939,2.15533171 C1.30185723,2.15533171 1.98233533,1.30326048 1.26663785,0.348529726 L1.26665388,0.348529726 Z" id="Path"></path>
                        <path d="M2.86756209,0.143616044 C2.51593399,0.238284993 2.44831188,0.735297076 2.46183402,1.01930392 C2.4753447,1.30331117 2.93517962,2.0488297 3.48966947,1.88315893 C4.0441616,1.71748878 4.13883026,1.1021392 3.90892196,0.687962401 C3.67900908,0.273785599 3.25976116,-0.0220547169 2.86756209,0.143616044 L2.86756209,0.143616044 Z" id="Path"></path>
                    </g>
                </g>
            </g>
            <path d="M73,2.1621964 C75.1508153,2.1621964 75.0951912,2.6816184 75.5405008,3.2709996 C75.8652979,3.7008704 76.2836842,3.8378036 77.1072818,3.8378036 L110.892718,3.8378036 C111.716316,3.8378036 112.133655,3.7008696 112.458452,3.2709996 C112.903762,2.6816184 112.849185,2.1621964 115,2.1621964 L73,2.1621964 Z" id="speaker" fill="url(#linearGradient-4)" fill-rule="nonzero"></path>
        </g>
    </g>
</svg>