<svg height="24" viewBox="0 0 24 24" width="24" xmlns="http://www.w3.org/2000/svg"><path d="m8.99492958 0c-.43605634 0-.80112676.3599813-.80112676.79195886v10.46002804l.06084507 1.542777-.56788733-.6068256-1.57183098-1.6970547c-.14197183-.1645629-.36507043-.2468443-.55774648-.2468443-.42591549 0-.73014085.2982702-.73014085.7199626 0 .2262739.09126761.3908368.24338029.5451145l3.33633802 3.2706872c.21295775.2057036.38535212.2674147.58816902.2674147.21295774 0 .38535211-.0617111.58816901-.2674147l3.34647891-3.2706872c.1521126-.1542777.2332394-.3188406.2332394-.5451145 0-.4216924-.3143662-.7199626-.7402817-.7199626-.192676 0-.4056338.0822814-.5476056.2468443l-1.5616902 1.6970547-.56788729.6068256.06084507-1.542777v-10.46002804c0-.43197756-.37521126-.79195886-.8112676-.79195886zm-5.81070423 22h11.63154925c2.1194367 0 3.1842254-1.0696587 3.1842254-3.1884058v-10.15147265c0-2.11874708-1.0647887-3.18840579-3.1842254-3.18840579h-3.1132394v1.65591397h3.0828169c1.0039437 0 1.5819718.54511454 1.5819718 1.61477326v9.98690981c0 1.0696587-.5780281 1.6147732-1.5819718 1.6147732h-11.58084506c-1.0140845 0-1.57183098-.5451145-1.57183098-1.6147732v-9.98690981c0-1.06965872.55774648-1.61477326 1.57183098-1.61477326h3.0828169v-1.65591397h-3.10309859c-2.11943662 0-3.18422535 1.05937353-3.18422535 3.18840579v10.15147265c0 2.1290323 1.06478873 3.1884058 3.18422535 3.1884058z" transform="translate(3 1)"/></svg>