<svg height="24" viewBox="0 0 24 24" width="24" xmlns="http://www.w3.org/2000/svg"><path d="m12.0044444 12.791901c.2577778 0 .5155556-.1079865.7911112-.359955l8.9333333-8.01799774c-.4888889-.27896513-1.0311111-.41394826-1.7422222-.41394826h-15.97333337c-.71111111 0-1.25333333.13498313-1.74222222.41394826l8.93333329 8.01799774c.2755556.2519685.5333334.359955.8.359955zm-10.78222218 5.5253093 6.61333334-6.6861642-6.62222223-5.94825645c-.11555555.26096738-.21333333.73790776-.21333333 1.3408324v9.95275595c0 .5579302.08888889.9808773.22222222 1.3408323zm21.55555558 0c.1422222-.359955.2222222-.7829021.2222222-1.3408323v-9.95275595c0-.60292464-.0977778-1.07986502-.2133333-1.3408324l-6.6222223 5.94825645zm-18.96000002 1.6827897h16.36444442c.6488889 0 1.1733334-.143982 1.5466667-.3779528l-6.8088889-6.8841394-1.1466667 1.0348706c-.5777777.5219348-1.1466666.7649044-1.7688889.7649044-.6311111 0-1.2-.2429696-1.7688888-.7649044l-1.1555556-1.0348706-6.80888889 6.8841394c.37333333.2339708.89777778.3779528 1.54666667.3779528z"/></svg>