<svg fill="#e10098" viewBox="0 0 30 30" xmlns="http://www.w3.org/2000/svg"><g fill-rule="evenodd" transform="translate(3 1)"><path d="m2.31914286 21.3328571-1.02685715-.5928571 11.43928569-19.81285714 1.0268572.59285714z"/><path d="m1.05714286 19.1571429h22.87857144v1.1857142h-22.87857144z"/><path d="m12.9534286 26.4304286-11.44357146-6.6071429.59285715-1.0268571 11.44357141 6.6071428zm9.941-17.2199286-11.4435715-6.60714286.5928572-1.02685714 11.4435714 6.60714286z" fill-rule="nonzero"/><path d="m2.10585714 9.20592857-.59285714-1.02678571 11.4435714-6.60714286.5928572 1.02685714z"/><path d="m22.6834286 21.3330714-11.4392857-19.81285711 1.0268571-.59285715 11.4392857 19.81285716zm-20.71914289-13.94021426h1.18571429v13.21428576h-1.18571429zm19.88571429 0h1.1857143v13.21428576h-1.1857143z" fill-rule="nonzero"/><path d="m12.7515714 25.9285714-.5178571-.897 9.9528571-5.7464285.5178572.8969285z"/><path d="m24.6071429 20.9928571c-.6857143 1.1928572-2.2142858 1.6-3.4071429.9142858-1.1928571-.6857143-1.6-2.2142858-.9142857-3.4071429s2.2142857-1.6 3.4071428-.9142857c1.2.6928571 1.6071429 2.2142857.9142858 3.4071428m-19.90000004-11.4928571c-.68571429 1.1928571-2.21428572 1.6-3.40714286.9142857-1.19285714-.68571427-1.6-2.2142857-.91428571-3.40714284.68571428-1.19285715 2.21428571-1.6 3.40714285-.91428572 1.19285715.69285715 1.6 2.21428572.91428572 3.40714286m-4.31428572 11.4928571c-.68571428-1.1928571-.27857143-2.7142857.91428572-3.4071428 1.19285714-.6857143 2.71428571-.2785714 3.40714285.9142857.68571429 1.1928571.27857143 2.7142857-.91428571 3.4071429-1.2.6857142-2.72142857.2785714-3.40714286-.9142858m19.89999996-11.4928571c-.6857142-1.19285714-.2785714-2.71428571.9142858-3.40714286 1.1928571-.68571428 2.7142857-.27857143 3.4071428.91428572.6857143 1.19285714.2785714 2.71428571-.9142857 3.40714284-1.1928571.6857143-2.7214286.2785714-3.4071429-.9142857m-7.7928571 18.4857143c-1.3785714 0-2.4928571-1.1142857-2.4928571-2.4928572 0-1.3785714 1.1142857-2.4928571 2.4928571-2.4928571s2.4928571 1.1142857 2.4928571 2.4928571c0 1.3714286-1.1142857 2.4928572-2.4928571 2.4928572m0-22.9857143c-1.3785714 0-2.4928571-1.11428571-2.4928571-2.49285714s1.1142857-2.49285715 2.4928571-2.49285715 2.4928571 1.11428572 2.4928571 2.49285715-1.1142857 2.49285714-2.4928571 2.49285714" fill-rule="nonzero"/></g></svg>