<svg viewBox="0 0 375 44" xmlns="http://www.w3.org/2000/svg"><path d="m339.751814 17.3333333 15.396501.0015108c.896037.0122853 1.348079.1018631 1.820779.3546662.434568.2324094.77562.5734609 1.008029 1.0080289.231736.433309.326318.8492581.349935 1.6057512l.006242.4485566v4.496306l-.006242.4485566c-.023617.7564931-.118199 1.1724422-.349935 1.6057514-.232409.4345679-.573461.7756194-1.008029 1.0080287-.512092.2738701-.999938.356177-2.054308.356177l-15.396501-.0015108c-.896037-.0122853-1.348078-.101863-1.820779-.3546662-.434568-.2324093-.77562-.5734608-1.008029-1.0080288-.27387-.5120925-.356177-.9999385-.356177-2.0543079l.001511-4.7298342c.012285-.8960379.101863-1.348079.354666-1.8207797.232409-.4345679.573461-.7756193 1.008029-1.0080288.512092-.2738701.999938-.356177 2.054308-.356177zm15.297758 1.0004623-.134786-.0004623-15.361955.0010501c-.063161.0007099-.123241.0017898-.180495.0032695l-.31165.0139138c-.422732.0287827-.657898.0947816-.891581.2197568-.2603.1392097-.458605.337515-.597815.5978145-.124975.2336831-.190974.4688495-.219757.891581l-.013913.3116504c-.00296.1145073-.00432.2403192-.00432.3794776v4.496306l.00432.3794776.013913.3116504c.028783.4227315.094782.6578979.219757.891581.13921.2602995.337515.4586049.597815.5978145.233683.1249752.468849.1909741.891581.2197569l.31165.0139138c.114507.0029593.240319.0043195.379478.0043195h15.162972l.379478-.0043195.31165-.0139138c.422732-.0287828.657898-.0947818.891581-.2197569.2603-.1392096.458605-.337515.597815-.5978144.138861-.259648.204912-.5211271.228002-1.0396937l.008938-.3440325v-4.8942718l-.008938-.3440325c-.02309-.5185666-.089141-.7800457-.228002-1.0396936-.13921-.2602995-.337515-.4586049-.597815-.5978145-.233683-.1249752-.468849-.1909741-.891581-.2197568l-.31165-.0139138c-.114507-.0029593-.240319-.0043196-.379478-.0043196zm-.425529.9995377c.594346 0 .80987.0618838 1.027154.1780885s.38781.2867305.504015.5040144c.116204.217284.178088.4328081.178088 1.027154v3.9148196c0 .5943459-.061884.80987-.178088 1.027154-.116205.2172839-.286731.3878097-.504015.5040144s-.432808.1780885-1.027154.1780885h-14.581486c-.594346 0-.80987-.0618838-1.027154-.1780885s-.38781-.2867305-.504015-.5040144c-.116204-.217284-.178088-.4328081-.178088-1.027154v-3.9148196c0-.5943459.061884-.80987.178088-1.027154.116205-.2172839.286731-.3878097.504015-.5040144s.432808-.1780885 1.027154-.1780885zm4.709257 1.6666667c.804731.3387765 1.328038 1.1268667 1.328038 2s-.523307 1.6612235-1.328038 2z" opacity=".4"/><path d="m323.667069 19.6151501c2.224733.0000974 4.364394.8542082 5.976748 2.3858005.121414.1182447.315482.1167531.435062-.0033438l1.160611-1.1703296c.060549-.0609128.094307-.1434227.09381-.2292718-.000508-.085849-.03523-.1679588-.096487-.2281599-4.231913-4.0522304-10.908244-4.0522304-15.140156 0-.061303.0601564-.096085.1422413-.096657.2280904-.000558.0858492.03314.1683842.093645.2293413l1.160946 1.1703296c.119503.1202782.313721.1217709.435062.0033438 1.612559-1.5316929 3.752466-2.3858061 5.977416-2.3858005zm0 3.8075838c1.222346-.0000748 2.401072.4538785 3.307141 1.273653.12255.1163448.315598.1138224.435062-.0056844l1.159272-1.1703296c.06105-.0613872.094924-.1446641.094061-.2311997-.000898-.0865356-.036459-.1691072-.098746-.2292415-2.759162-2.5644085-7.032075-2.5644085-9.791237 0-.062325.0601335-.097885.1427465-.098716.2293101-.000804.0865635.033188.1698326.094366.2311311l1.158938 1.1703296c.119463.1195068.312512.1220292.435062.0056844.90547-.8192329 2.083259-1.2731473 3.304797-1.273653zm2.227852 2.7930753c.062-.0607963.096143-.1444603.09437-.2312387-.001774-.0867785-.039308-.1689798-.10374-.2271962-1.28066-1.0822712-3.156303-1.0822712-4.436963 0-.064477.0581696-.102072.140345-.103909.2271239-.001838.0867789.032246.1704693.094204.231311l2.005635 2.0219952c.058784.059425.138928.0928683.222551.0928683.083624 0 .163768-.0334433.222551-.0928683z"/><path d="m295 24.3333337h1c.552285 0 1 .4477152 1 1v2c0 .5522847-.447715 1-1 1h-1c-.552285 0-1-.4477153-1-1v-2c0-.5522848.447715-1 1-1zm4.666667-2h1c.552284 0 1 .4477152 1 1v4c0 .5522847-.447716 1-1 1h-1c-.552285 0-1-.4477153-1-1v-4c0-.5522848.447715-1 1-1zm4.666666-2.3333334h1c.552285 0 1 .4477153 1 1v6.3333334c0 .5522847-.447715 1-1 1h-1c-.552284 0-1-.4477153-1-1v-6.3333334c0-.5522847.447716-1 1-1zm4.666667-2.3333333h1c.552285 0 1 .4477152 1 1v8.6666667c0 .5522847-.447715 1-1 1h-1c-.552285 0-1-.4477153-1-1v-8.6666667c0-.5522848.447715-1 1-1z"/><path d="m37.284082 28.5863476c-1.9335937 0-3.4130859-1.1352539-3.7207031-2.8637696h1.8823242c.2270508.7910157.9521485 1.2817383 1.8603516 1.2817383 1.5454101 0 2.4316406-1.4135742 2.4536133-3.8598633h-.1245117c-.4980469 1.003418-1.5014649 1.5747071-2.7392579 1.5747071-2.0141601 0-3.4790039-1.4794922-3.4790039-3.5083008 0-2.1679688 1.6259766-3.7133789 3.9257813-3.7133789 2.5268555 0 4.2260742 1.9335937 4.2260742 5.4272461 0 3.5595703-1.5966797 5.6616211-4.284668 5.6616211zm.065918-5.3613282c1.2231445 0 2.0947266-.8569335 2.0947266-2.0361328 0-1.2011718-.8935547-2.1166992-2.0874024-2.1166992-1.1938476 0-2.0874023.9008789-2.0874023 2.0800781 0 1.2231446.8496094 2.0727539 2.0800781 2.0727539zm7.2366211 3.647461c-.6884766 0-1.171875-.4980469-1.171875-1.1572266 0-.6665039.4833984-1.1572265 1.171875-1.1572265.6958008 0 1.171875.4907226 1.171875 1.1572265 0 .6591797-.4760742 1.1572266-1.171875 1.1572266zm0-5.3466797c-.6884766 0-1.171875-.4907227-1.171875-1.1499023 0-.666504.4833984-1.1572266 1.171875-1.1572266.6958008 0 1.171875.4907226 1.171875 1.1572266 0 .6591796-.4760742 1.1499023-1.171875 1.1499023zm8.1741211 6.8041992v-2.0141601h-5.1635742v-1.5747071c1.3696289-2.3876953 2.8710937-4.7973633 4.3066406-6.9799804h2.6660156v6.9580078h1.4282227v1.5966797h-1.4282227v2.0141601zm-3.413086-3.6694336v.1025391h3.4423829v-5.4638672h-.1025391c-1.0839844 1.640625-2.3071289 3.581543-3.3398438 5.3613281zm10.679004 3.6694336v-8.6645508h-.1245118l-2.6293945 1.8457032v-1.8164063l2.7612305-1.9335937h1.8823242v10.5688476z"/></svg>