<svg viewBox="0 0 30 30" xmlns="http://www.w3.org/2000/svg"><path d="m16.7327667 12.68818c.3740913.3615911.6545076.8188649.8014888 1.3322029.5664496-.0131911 1.2251091-.0416558 2.1460733-.0418509.1669554-.5523678.489012-1.037769.9157297-1.405943l-1.8916469-3.8231858zm-2.6178496-.8047758-3.3654309-9.8834042h15.8611733l-3.3672005 9.9096308-.0100428.0025962c1.3483355.300877 2.3559082 1.5006839 2.3559082 2.9349844 0 .6570106-.2114175 1.2648178-.5701612 1.7595585.0803024-.1064046.1526765-.2172862.2165783-.3316275.6305878.8981082.8942899 2.382985.7324915 3.317993-.2168438 1.2531642-.8091532 2.5466709-1.9681323 3.2202309-1.5433471.8969093-3.5814954 1.0120479-5.3332473 1.4455123-3.1299278.7744331-6.1528313 3.0319638-9.07136065 3.6054575-1.58857674.3121568-3.18315841.1287827-4.71196776-1.0056739-1.7466473-1.2961038-2.11243373-3.5223841-1.76475872-5.6261695.18319489-1.108443.57026377-2.1092593 1.02125915-3.0705923.0978223-.2085162.2623906-.5314109.59192286-1.2211723-.55223739-.5450619-.89430877-1.3011703-.89430877-2.1368894 0-1.661083 1.35138378-3.0076567 3.01840016-3.0076567s3.01840017 1.3465737 3.01840017 3.0076567c0 1.3150765-.84702869 2.433023-2.02711987 2.8417027-.60876918 1.3619454-.24669322 2.326564.92822969 3.2814501 1.30818284-.4931695 1.95163764-1.0022895 3.06279824-1.9626904.4528415-.4380506.779032-.8383905 1.2791805-1.5017244.0902252.0477081.1820795.0904192.2752265.1282204-1.0493335-.4710866-1.7798106-1.5223337-1.7798106-2.7435857 0-1.4856393 1.0809929-2.7196978 2.5019728-2.9638072zm1.6163627.1620952 2.9713741-5.99190897 2.9300505 5.93409497c.117152-.0381404.2374582-.0693316.3604279-.093085l2.9756483-8.7135105h-12.5322533l2.9790062 8.7609685c.1077474.0288057.2131151.0634046.3157463.103441zm5.6080896 5.5484451c-.9559622-.4262285-1.6487648-1.3334198-1.7684414-2.4127107-.9270157-.0003562-1.3301593-.0494644-1.9394138-.0015683-.0584312.5294936-.2547973 1.0176147-.5525153 1.4279103-.0011987.0022043-.0024004.0044136-.0036051.0066281.0011997-.0022053.0023977-.0044096.0035939-.0066127-.2896433.3991623-.6752132.7246643-1.1230242.9429403-.1314892.0697805-.2655252.1229275-.4123116.1645124-.2878256.0908284-.5943243.1398242-.9123074.1398242-.0116495 0-.0232837-.0000658-.034902-.0001969-.0953975.0071027-.1964046.0137207-.3038192.0202505-.5001485.6633339-1.0210034 1.3982712-1.4738449 1.8363218-1.021705 1.0432079-2.8068055 2.0368662-4.11498829 2.5300356-1.29594799-.5497399-2.81652251-2.3132089-2.17865505-4.4476507-.26968955-.0293022-.52870625-.0940041-.77227154-.1893442-.00808404-.0020778-.01579095-.0039222-.02312164-.005507-.33202133.6951351-.63789548 1.3308215-.73608609 1.5401228-.45099539.961333-.66367854 1.5587596-.79282225 2.6701221-.24154692 2.0786625.65469474 3.4637269 1.16943083 3.8723449 1.46733556 1.1648293 2.4690918 1.3059232 4.05766854.9937664 2.91852939-.5734937 5.67580979-2.8151301 8.80573759-3.5895632 1.751752-.4334643 3.9185093-.4334643 5.0818115-1.2765481.7882583-.6904672 1.1098768-1.0362003 1.4211033-2.2549265.2372183-.9289189.1617984-1.3778699-.3112265-2.3293357-.00689.0038693-.0137444.0077161-.0205637.0115405-.5083251.3880045-1.1440763.6185677-1.8338709.6185677-.2554874 0-.503561-.0316293-.7404922-.0911725.0205143.008004.0412057.015944.0620753.0238187-.1863971-.0322562-.3722881-.0993365-.5531379-.1935698zm-14.48332973-.9631957c1.01490806 0 1.8376536-.8179355 1.8376536-1.8269101s-.82274554-1.8269102-1.8376536-1.8269102-1.8376536.8179356-1.8376536 1.8269102.82274554 1.8269101 1.8376536 1.8269101zm15.71488453.0433727c1.0149081 0 1.8376536-.8179355 1.8376536-1.8269101s-.8227455-1.8269101-1.8376536-1.8269101c-1.014908 0-1.8376536.8179355-1.8376536 1.8269101s.8227456 1.8269101 1.8376536 1.8269101zm-7.9395797 0c1.014908 0 1.8376536-.8179355 1.8376536-1.8269101s-.8227456-1.8269101-1.8376536-1.8269101c-1.0149081 0-1.8376536.8179355-1.8376536 1.8269101s.8227455 1.8269101 1.8376536 1.8269101z" fill-rule="evenodd"/></svg>