<svg height="24" viewBox="0 0 24 24" width="24" xmlns="http://www.w3.org/2000/svg"><path d="m5.9292196 20c.3892922 0 .67876588-.1927711 1.14791289-.6168675l3.60344831-3.1807229h6.7477314c2.9745916 0 4.5716878-1.5807229 4.5716878-4.4048192v-7.38313257c0-2.82409638-1.5970962-4.41445783-4.5716878-4.41445783h-12.85662436c-2.97459165 0-4.57168784 1.58072289-4.57168784 4.41445783v7.38313257c0 2.8337349 1.59709619 4.4048192 4.57168784 4.4048192h.46914701v2.8048193c0 .5975904.31941923.9927711.88838475.9927711zm.02994555-10.47710843c-.80852994 0-1.47731397-.63614458-1.47731397-1.42650603 0-.79036144.66878403-1.42650602 1.47731397-1.42650602.8185118 0 1.47731398.63614458 1.47731398 1.42650602 0 .79036145-.65880218 1.42650603-1.47731398 1.42650603zm5.05081675 0c-.8185118 0-1.48729587-.63614458-1.48729587-1.42650603 0-.79036144.66878407-1.42650602 1.48729587-1.42650602.8085299 0 1.4773139.63614458 1.4773139 1.42650602 0 .79036145-.668784 1.42650603-1.4773139 1.42650603zm5.0408348 0c-.8185118 0-1.477314-.63614458-1.477314-1.42650603 0-.79036144.6588022-1.42650602 1.477314-1.42650602s1.477314.63614458 1.477314 1.42650602c0 .79036145-.6588022 1.42650603-1.477314 1.42650603z" transform="translate(1 2)"/></svg>