<svg height="24" viewBox="0 0 24 24" width="24" xmlns="http://www.w3.org/2000/svg"><path d="m12 3c.6666667 0 1.3333333.33333333 2 1l7.5 7c.3333809.3333333.5000714.6666667.5000714 1v9c0 1-1.0000714 1.9998574-2.0000714 1.9998574h-3c-1 0-2-.9998574-2-1.9998574v-3.5c0-.5056169-.5000879-.926982-1-1h-4c-.50010134.073018-1 .5-.99989531.9382158l-.00010469 3.5617842c0 1-1 1.9998574-2 1.9998574h-3c-1 0-1.99992862-.9998574-1.99992862-1.9998574v-9c0-.3333333.16664288-.6666667.49992862-1l7.5-7c.6666667-.66666667 1.3333333-1 2-1z"/></svg>