<svg height="24" viewBox="0 0 24 24" width="24" xmlns="http://www.w3.org/2000/svg"><path d="m12 3c.6666667 0 1.3333333.33333333 2 1l7.5 7c.3333809.3333333.5000714.6666667.5000714 1v9c0 1-1.0000714 1.9998574-2.0000714 1.9998574h-3c-1 0-2-.9998574-2-1.9998574v-3.5c0-.5056169-.5000879-.926982-1-1h-4c-.50010134.073018-1 .5-.99989531.9382158l-.00010469 3.5617842c0 1-1 1.9998574-2 1.9998574h-3c-1 0-1.99992862-.9998574-1.99992862-1.9998574v-9c0-.3333333.16664288-.6666667.49992862-1l7.5-7c.6666667-.66666667 1.3333333-1 2-1zm0 1.5c-.2248608 0-.5324985.15381886-.9765226.5965829l-7.46274151 6.9640016c-.03674988.0367551-.05191601.0487141-.05789466.0379318l-.00276985 8.9014837c0 .1524845.2594196.4288345.43758905.4883631l.06233957.0114943h3c.17162857 0 .5-.3283402.5-.4999015l.00010473-3.5613817c-.00029999-1.2557159 1.09059607-2.2487116 2.28318348-2.422837l.21671179-.0157372h4l.2167921.015749c1.2152227.1774974 2.2832079 1.189436 2.2832079 2.484251v3.5c0 .1715172.3283714.4998574.5.4998574h3c.1716564 0 .5000714-.3283681.5000714-.4998574v-8.89l-.0235488-.0134171-7.5371828-7.03592273c-.4068413-.40684131-.714479-.56066017-.9393398-.56066017z"/></svg>