<svg height="24" viewBox="0 0 24 24" width="24" xmlns="http://www.w3.org/2000/svg"><g transform="translate(2 4)"><path d="m4.65333333 15.1142578c.40666667 0 .80666667-.1982422 1.29333334-.6289062l2.06666666-1.8798828c.50666667.5126953 1.25333334.7929687 2.17333337.7929687h2.2666666l2.22 1.9482422c.4666667.4101562.8533334.6494141 1.24.6494141.5866667 0 .9466667-.4306641.9466667-1.09375v-1.5039063h.32c1.6933333 0 2.82-1.0664063 2.82-2.8232422v-4.27929686c0-1.81152344-1.16-2.91894532-2.9066667-2.91894532h-1.2533333v-.38964843c0-1.859375-1.14-2.98730469-2.98-2.98730469h-9.88c-1.79333333 0-2.98 1.12792969-2.98 2.98730469v6.48046875c0 1.81152346 1.14666667 2.89843746 2.88666667 2.89843746h.81333333v1.6611329c0 .6630859.36 1.086914.95333333 1.086914zm.38-3.5683594c0-.430664-.26666666-.6630859-.62666666-.6630859h-1.19333334c-1.04666666 0-1.68666666-.6152344-1.68666666-1.72949219v-5.93359375c0-1.10742187.64-1.72949218 1.68666666-1.72949218h9.40666667c1.0533333 0 1.6933333.62207031 1.6933333 1.72949218v.15722656h-4.1266666c-1.79333337 0-2.9066667 1.10742188-2.9066667 2.91894532v4.27929686c0 .21875.02.4238281.05333333.6220703l-2.3 2.2216797zm10.49999997 2.7753907-2.0533333-1.9277344c-.32-.3007813-.6266667-.4511719-1.0333333-.4511719h-2.0466667c-1 0-1.62-.5878906-1.62-1.6542969v-3.78710934c0-1.06640625.62-1.66113281 1.62-1.66113281h6.4866667c1 0 1.6133333.59472656 1.6133333 1.66113281v3.78710934c0 1.0664063-.6133333 1.6542969-1.6133333 1.6542969h-.74c-.3533334 0-.6133334.225586-.6133334.65625z"/><path d="m11.25 7.7c-.4143357 0-.75.3356643-.75.75s.3356643.75.75.75.75-.3356643.75-.75-.3356643-.75-.75-.75z"/><path d="m13.7526132 7.7c-.4128919 0-.7526132.3356643-.7526132.75s.3397213.75.7526132.75c.4076655 0 .7473868-.3356643.7473868-.75s-.3397213-.75-.7473868-.75z"/><path d="m16.25 7.7c-.4143357 0-.75.3356643-.75.75s.3356643.75.75.75.75-.3356643.75-.75-.3356643-.75-.75-.75z"/></g></svg>