<svg height="24" viewBox="0 0 24 24" width="24" xmlns="http://www.w3.org/2000/svg"><path d="m6.13883848 20c.4891107 0 .82849364-.2513291 1.43738657-.7733204l3.44373865-2.9676173h6.4083485c2.9745916 0 4.5716878-1.5949734 4.5716878-4.4272595v-7.40454325c0-2.83228613-1.5970962-4.42725955-4.5716878-4.42725955h-12.85662436c-2.97459165 0-4.57168784 1.58530691-4.57168784 4.42725955v7.40454325c0 2.8419526 1.59709619 4.4272595 4.57168784 4.4272595h.47912886v2.5132915c0 .7443209.38929219 1.2276462 1.08802178 1.2276462zm.40925589-1.7689705v-2.8032866c0-.5219913-.20961887-.7249879-.74863883-.7249879h-1.2277677c-2.01633394 0-2.9646098-.9956501-2.9646098-2.8806187v-7.39487675c0-1.88496859.94827586-2.87095216 2.9646098-2.87095216h12.85662436c2.006352 0 2.9646098.98598357 2.9646098 2.87095216v7.39487675c0 1.8849686-.9582578 2.8806187-2.9646098 2.8806187h-6.4682396c-.5589837 0-.8384755.077332-1.21778585.4543257zm-.4292196-8.71918803c.78856625 0 1.42740472-.61865636 1.42740472-1.3823103 0-.76365393-.63883847-1.38231029-1.42740472-1.38231029-.78856624 0-1.42740472.61865636-1.42740472 1.38231029 0 .76365394.63883848 1.3823103 1.42740472 1.3823103zm4.89110713 0c.7785843 0 1.4274047-.61865636 1.4274047-1.3823103 0-.76365393-.6488204-1.38231029-1.4274047-1.38231029-.7885663 0-1.43738662.61865636-1.43738662 1.38231029 0 .76365394.64882032 1.3823103 1.43738662 1.3823103zm4.8811252 0c.7885662 0 1.4274047-.61865636 1.4274047-1.3823103 0-.76365393-.6388385-1.38231029-1.4274047-1.38231029-.7885663 0-1.4274047.61865636-1.4274047 1.38231029 0 .76365394.6388384 1.3823103 1.4274047 1.3823103z" transform="translate(1 2)"/></svg>
