<svg height="24" viewBox="0 0 24 24" width="24" xmlns="http://www.w3.org/2000/svg"><path d="m2.92960136 16h16.14079724c1.9592876 0 2.9296014-.8951657 2.9296014-2.685497v-10.62031506c0-1.79033134-.9703138-2.69418794-2.9296014-2.69418794h-16.14079724c-1.94995759 0-2.92960136.9038566-2.92960136 2.69418794v10.62031506c0 1.7903313.97964377 2.685497 2.92960136 2.685497zm4.18914334-7.97827268c-1.12892282 0-2.043257-.88647474-2.043257-2.07713199 0-1.11243889.91433418-2.03367735 2.043257-2.03367735 1.13825276 0 2.043257.92123846 2.043257 2.03367735 0 1.19065725-.90500424 2.08582292-2.043257 2.07713199zm6.0831213-2.88538837c-.3358779 0-.5877863-.23465508-.5877863-.53883759 0-.29549158.2519084-.53014666.5877863-.53014666h5.0941476c.3265479 0 .5784563.23465508.5784563.53014666 0 .30418251-.2519084.53883759-.5784563.53883759zm0 3.4068441c-.3358779 0-.5877863-.243346-.5877863-.54752851 0-.29549159.2519084-.52145574.5877863-.52145574h5.0941476c.3265479 0 .5784563.22596415.5784563.52145574 0 .30418251-.2519084.54752851-.5784563.54752851zm-9.72179815 3.45898965c-.30788804 0-.45716709-.1912004-.45716709-.4519283 0-.8169473 1.30619169-2.92015206 4.09584394-2.92015206s4.1051739 2.10320476 4.1051739 2.92015206c0 .2607279-.1492791.4519283-.4571671.4519283zm9.72179815-.0608365c-.3358779 0-.5877863-.2259641-.5877863-.5214557 0-.3041825.2519084-.5475285.5877863-.5475285h5.0941476c.3265479 0 .5784563.243346.5784563.5475285 0 .2954916-.2519084.5214557-.5784563.5214557z" transform="translate(1 4)"/></svg>