<svg height="24" viewBox="0 0 24 24" width="24" xmlns="http://www.w3.org/2000/svg"><path d="m2.92960136 16h16.14079724c1.9592876 0 2.9296014-.8951657 2.9296014-2.685497v-10.62031506c0-1.79033134-.9703138-2.69418794-2.9296014-2.69418794h-16.14079724c-1.94995759 0-2.92960136.9038566-2.92960136 2.69418794v10.62031506c0 1.7903313.97964377 2.685497 2.92960136 2.685497zm.01865988-1.3992395c-.93299406 0-1.4461408-.4606193-1.4461408-1.3644759v-10.4638783c0-.9038566.51314674-1.37316676 1.4461408-1.37316676h16.10347756c.9236641 0 1.4461408.46931016 1.4461408 1.37316676v10.4638783c0 .9038566-.5224767 1.3644759-1.4461408 1.3644759zm4.17048346-6.63986968c1.13825276.00869093 2.043257-.88647474 2.043257-2.07713199 0-1.1124389-.90500424-2.03367735-2.043257-2.03367735-1.12892282 0-2.043257.92123845-2.043257 2.03367735 0 1.19065725.91433418 2.07713199 2.043257 2.07713199zm6.0831213-2.82455187h5.0941476c.3265479 0 .5784563-.23465508.5784563-.53883759 0-.29549158-.2519084-.53014666-.5784563-.53014666h-5.0941476c-.3358779 0-.5877863.23465508-.5877863.53014666 0 .30418251.2519084.53883759.5877863.53883759zm0 3.4068441h5.0941476c.3265479 0 .5784563-.243346.5784563-.54752851 0-.29549159-.2519084-.52145574-.5784563-.52145574h-5.0941476c-.3358779 0-.5877863.22596415-.5877863.52145574 0 .30418251.2519084.54752851.5877863.54752851zm-9.72179815 3.39815315h7.28668365c.307888 0 .4571671-.1912004.4571671-.4519283 0-.8169473-1.31552165-2.92015206-4.1051739-2.92015206s-4.09584394 2.10320476-4.09584394 2.92015206c0 .2607279.14927905.4519283.45716709.4519283zm9.72179815 0h5.0941476c.3265479 0 .5784563-.2259641.5784563-.5214557 0-.3041825-.2519084-.5475285-.5784563-.5475285h-5.0941476c-.3358779 0-.5877863.243346-.5877863.5475285 0 .2954916.2519084.5214557.5877863.5214557z" transform="translate(1 4)"/></svg>