<svg height="24" viewBox="0 0 24 24" width="24" xmlns="http://www.w3.org/2000/svg"><path d="m18.0636846 2.27245666.6914329-.71181035c.32651-.34628613.32651-.80800094 0-1.12542989l-.2208744-.23085741c-.2977003-.29819083-.7682588-.25971459-1.0851655.04809529l-.7010362.69257224zm-11.55269143 10.49439314 1.87263077-.8176199 8.96942126-8.97458194-1.3156431-1.29857295-8.95981808 8.97458189-.86429113 1.8083831c-.07682588.163524.11523882.3847623.29770028.3078098zm-3.49557745 6.2331502h11.27419768c1.7285822 0 2.7273186-.9907631 2.7273186-2.9819083v-10.85991738l-1.5461208 1.54866847v9.23429651c0 1.0003821-.5281779 1.5101923-1.2004044 1.5101923h-11.22618138c-.96032347 0-1.49810462-.5098102-1.49810462-1.5101923v-10.91763181c0-1.00038212.53778115-1.51981129 1.49810462-1.51981129h9.30553448l1.5461208-1.54866848h-10.88046498c-1.99747283 0-3.01541572 1.00038212-3.01541572 2.98190824v11.08115574c0 1.9911452 1.01794289 2.9819083 3.01541572 2.9819083z" transform="translate(3.5 2)"/></svg>