<svg height="13" viewBox="0 0 52 13" width="52" xmlns="http://www.w3.org/2000/svg"><g><path d="m.37765339 12.7332421h2.34661854c.18737258 0 .33013265-.1333789.34797765-.3112175l.81194786-7.30027359 2.09678844 7.37140899c.04461252.1422709.16952758.2400821.32121014.2400821h2.16816847c.15168257 0 .27659763-.0978112.32121015-.2400821l2.09678846-7.37140899.7762578 7.30916549c.017845.1867305.1695276.3112175.3569002.3112175h2.3466185c.2409076 0 .4015127-.1867305.3747452-.4268126l-1.5168256-11.77291374c-.0267676-.18673051-.1695277-.30232558-.3479777-.30232558h-2.8730463c-.15168259 0-.27659765.09781122-.32121017.24008208l-2.31092853 8.03830366-2.32877353-8.03830366c-.04461252-.14227086-.16952758-.24008208-.32121015-.24008208h-2.86412378c-.17845008 0-.32121014.11559507-.34797765.30232558l-1.50790318 11.76402184c-.02676751.2400821.13383756.4268126.37474518.4268126z"/><path d="m21.3276901 13c2.9444263 0 5.2196648-2.2318742 5.2196648-5.02393984 0-2.81874143-2.266316-5.07729136-5.2018198-5.07729136-2.9265814 0-5.1928974 2.25854993-5.1928974 5.07729136 0 2.78317374 2.2573935 5.02393984 5.1750524 5.02393984zm-2.3198511-5.04172369c0-1.36046512 1.026088-2.36525307 2.3466186-2.36525307 1.311608 0 2.337696 1.00478795 2.337696 2.36525307 0 1.34268125-1.026088 2.34746919-2.337696 2.34746919-1.3205306 0-2.3466186-1.00478794-2.3466186-2.34746919z"/><path d="m34.4080789 12.9555403c3.6671492 0 6.5045055-2.8987688 6.5045055-6.49110804 0-3.61012311-2.8373563-6.46443226-6.5045055-6.46443226-3.6939166 0-6.5223503 2.85430915-6.5223503 6.46443226 0 3.59233924 2.8284337 6.49110804 6.5223503 6.49110804zm-3.4262414-6.48221611c0-2.00957592 1.5971281-3.55677154 3.4262414-3.55677154 1.8201909 0 3.4083966 1.5383037 3.4083966 3.55677154 0 2.01846785-1.5703607 3.56566351-3.4083966 3.56566351-1.8291133 0-3.4262414-1.54719566-3.4262414-3.56566351z"/><path d="m45.2578414 12.49316 1.7220433-2.9343365 1.7398883 2.9343365c.0981475.1600547.2409077.2400821.4282802.2400821h2.5518361c.2855202 0 .3836677-.1778386.2230626-.4268126l-3.0336514-4.51709984 2.8373563-4.25923391c.1427601-.22229822.0803026-.42681259-.231985-.42681259h-2.5607587c-.1962951 0-.3390551.08002736-.4282802.24897401l-1.4989807 2.66757865-1.5168256-2.66757865c-.089225-.16894665-.2319852-.24897401-.4282802-.24897401h-2.5518362c-.2855201 0-.4015127.17783858-.231985.42681259l2.8908912 4.25923391-3.0871864 4.50820784c-.160605.2311903-.07138.4357046.2319852.4357046h2.5161461c.1873725 0 .3301326-.0800274.4282801-.2400821z"/></g></svg>