<svg viewBox="0 0 50 50" xmlns="http://www.w3.org/2000/svg"><path d="m33.375 0c-2.835937.191406-5.871094 1.878906-7.75 4.15625-1.644531 2.003906-3.023437 4.945313-2.5 8-.46875-.144531-.894531-.160156-1.40625-.34375-1.394531-.496094-2.988281-1.03125-4.96875-1.03125-3.933594 0-7.960937 2.339844-10.5 6.25-3.695312 5.679688-2.953125 15.675781 2.65625 24.21875.988281 1.5 2.140625 3.136719 3.5625 4.4375s3.140625 2.292969 5.15625 2.3125c1.722656.019531 2.921875-.554687 4-1.03125 1.078125-.476562 2.082031-.898437 3.96875-.90625h.03125c1.878906-.015625 2.851563.398438 3.90625.875 1.054688.476563 2.242188 1.078125 3.96875 1.0625 2.054688-.015625 3.800781-1.140625 5.25-2.53125s2.640625-3.097656 3.625-4.59375c1.410156-2.148437 1.976563-3.320312 3.0625-5.71875.113281-.25.117188-.539062.007813-.792969-.105469-.253906-.3125-.453125-.570313-.550781-3.554687-1.34375-5.582031-4.488281-5.875-7.8125s1.113281-6.746094 4.65625-8.6875c.261719-.140625.445313-.386719.507813-.675781.058593-.289063-.011719-.59375-.195313-.824219-2.542969-3.160156-6.121094-5.03125-9.625-5.03125-2.234375 0-3.875.527344-5.21875 1.03125-.222656.085938-.386719.078125-.59375.15625 1.363281-.71875 2.566406-1.714844 3.46875-2.875 1.640625-2.105469 2.90625-5.101562 2.4375-8.25-.078125-.515625-.542969-.8828125-1.0625-.84375zm-1.0625 2.375c-.066406 2.019531-.757812 3.996094-1.90625 5.46875-1.203125 1.546875-3.226562 2.617188-5.1875 2.9375.035156-1.941406.800781-3.953125 1.96875-5.375 1.226563-1.484375 3.257813-2.554687 5.125-3.03125zm-15.5625 10.40625c1.613281 0 2.90625.417969 4.28125.90625s2.824219 1.0625 4.53125 1.0625c1.667969 0 2.988281-.578125 4.28125-1.0625s2.582031-.90625 4.5-.90625c2.503906 0 5.210938 1.300781 7.34375 3.5625-3.414062 2.410156-5.011719 6.167969-4.6875 9.8125.324219 3.683594 2.542969 7.179688 6.1875 9-.789062 1.71875-1.308594 2.855469-2.46875 4.625-.957031 1.457031-2.09375 3.050781-3.34375 4.25s-2.574219 1.957031-3.90625 1.96875c-1.285156.011719-2.015625-.371094-3.125-.875s-2.542969-1.082031-4.75-1.0625c-2.203125.011719-3.65625.566406-4.78125 1.0625s-1.863281.886719-3.15625.875c-1.367187-.011719-2.636719-.675781-3.84375-1.78125s-2.296875-2.613281-3.25-4.0625c-5.25-8-5.671875-17.398437-2.65625-22.03125 2.210938-3.402344 5.722656-5.34375 8.84375-5.34375z"/></svg>