<svg height="24" viewBox="0 0 24 24" width="24" xmlns="http://www.w3.org/2000/svg"><path d="m7.02912116 16.8876171c3.46645864 3.4682622 7.60790434 6.1123829 10.94851794 6.1123829 1.5673427 0 2.9401976-.6295525 3.8325533-1.6253902.8580343-.9729449 1.1898076-1.7055151 1.1898076-2.3465141 0-.503642-.3088924-.950052-1.075403-1.4994797l-2.8829953-2.0603538c-.7093084-.503642-1.0410817-.5952133-1.4529382-.5952133-.3775351 0-.674987.0572321-1.2927717.4006244l-1.8647946 1.0187304c-.2173687.1259106-.3317732.1488034-.4919396.1488034-.2173687 0-.3660947-.0572321-.5949038-.1488034-.9037962-.4120707-2.1508061-1.396462-3.2719709-2.5182102-1.1097244-1.1103017-1.96775872-2.2320499-2.42537702-3.1477627-.06864275-.1259105-.1372855-.2976067-.1372855-.4921956 0-.14880336.08008321-.29760669.17160687-.45785643l1.09828393-1.88865765c.28601144-.51508845.38897556-.78980229.38897556-1.20187305 0-.45785639-.16016641-.93860561-.60634425-1.56815816l-1.96775871-2.75858481c-.56058243-.78980229-1.04108165-1.2591051-1.68174727-1.2591051-.77795112 0-1.7275091.60665973-2.41393656 1.2591051-.98387936.95005203-1.49869995 2.27783559-1.49869995 3.75442248 0 3.35379812 2.58554342 7.42872012 6.02912116 10.87408952z"/></svg>