<svg viewBox="0 0 50 50" xmlns="http://www.w3.org/2000/svg"><path d="m6 4c-1.0930628 0-2 .9069372-2 2v38c0 1.093063.9069372 2 2 2h38c1.093063 0 2-.906937 2-2v-38c0-1.0930628-.906937-2-2-2zm0 2h38v38h-38zm12.585938 8c-1.440001 0-2.591985.160016-3.583985.416016l-.001953 21.583984h2.464844v-9.169922c.352.031.67189.03125 1.08789.03125 1.92 0 3.935891-.798437 5.087891-2.398437.833-1.088 1.310547-2.432016 1.310547-4.416016 0-1.887-.543406-3.456469-1.566406-4.480469-1.12-1.088-2.815828-1.566406-4.798828-1.566406zm.390624 1.640625c2.751 0 3.646485 1.981453 3.646485 4.189453 0 3.04-1.63225 4.640625-4.03125 4.640625-.416 0-.704188-.0315-.992188-.0625v-8.607422c.32-.097.800953-.160156 1.376953-.160156zm12.740235 4.359375c-2.491 0-4.416016 1.768641-4.416016 4.306641 0 1.767 1.12675 3.116593 3.21875 4.433593 1.626 1.028 2.056641 1.863735 2.056641 3.052735 0 1.381-.927469 2.248047-2.355469 2.248047-1.03 0-2.025844-.449735-2.589844-.802735l-.630859 1.861328c.697.546 1.992297.900391 3.154297.900391 2.656 0 4.845703-1.509953 4.845703-4.626953 0-2.152-1.459406-3.598859-3.316406-4.755859-1.594-1.027-1.992188-1.638016-1.992188-2.666016 0-1.027.695641-1.990234 2.056641-1.990234.863-.000001 1.528203.289031 2.158203.707031l.664062-1.865235c-.664-.417-1.591515-.802734-2.853515-.802734z"/></svg>