<svg height="24" viewBox="0 0 24 24" width="24" xmlns="http://www.w3.org/2000/svg"><path d="m10.9915896 14.4216621c0-2.5592643-1.81328851-4.44550406-4.23717412-4.44550406-1.21194281 0-2.22960471.40735696-2.96047099 1.21321526h-.40706476c.44407065-1.52316077 2.04457527-2.98433243 4.31118587-3.50681199.31455004-.07970027.53658537-.17711172.68460892-.32765668.15727502-.14168937.24978974-.33651226.24978974-.57561308 0-.45163487-.38856182-.77929155-.93439866-.77929155-.48107653 0-.80487805.07970027-1.3784693.2479564-1.20269134.39850137-2.34987384 1.08038147-3.26576955 1.99250682-1.34146342 1.34604904-2.05382675 3.11716618-2.05382675 5.09196188 0 3.5865122 2.32211943 5.6675749 5.23633305 5.6675749 2.73843566 0 4.75525655-1.9128065 4.75525655-4.5783379zm12.0084104 0c0-2.5592643-1.8132885-4.44550406-4.2371741-4.44550406-1.2211943 0-2.2388562.40735696-2.960471 1.21321526h-.4163162c.4533221-1.52316077 2.0445753-2.98433243 4.3111859-3.50681199.31455-.07970027.5458368-.17711172.6938603-.32765668.1572751-.14168937.2405383-.33651226.2405383-.57561308 0-.45163487-.3885618-.77929155-.9251472-.77929155-.4810765 0-.804878.07970027-1.3877207.2479564-1.2026914.39850137-2.3406224 1.08038147-3.2657696 1.99250682-1.3322119 1.34604904-2.0445753 3.11716618-2.0445753 5.09196188 0 3.5865122 2.3221195 5.6675749 5.2363331 5.6675749 2.7384356 0 4.7552565-1.9128065 4.7552565-4.5783379z"/></svg>