<svg viewBox="0 0 512 457" xmlns="http://www.w3.org/2000/svg">
  <path d="M384,6.64000945 C415.139151,24.6182059 422.264864,76.0475977 407.849334,140.672258 C471.023697,160.500376 512,192.386121 512,228.342512 C512,264.298632 471.024321,296.184164 407.850778,316.012314 C422.266689,380.636099 415.1415,432.064935 384.002816,450.04339 C352.863657,468.022118 304.760897,448.478649 256.001115,403.681997 C207.241899,448.479267 159.139387,468.023349 128,450.045017 C96.8608504,432.06682 89.7351371,380.637428 104.150666,316.012767 C40.9763033,296.184651 0,264.298906 0,228.342512 C0,192.386395 40.9756792,160.50086 104.149223,140.672713 C89.7333112,76.0489267 96.8584997,24.6200903 127.997184,6.64163545 C159.136343,-11.3370935 207.239103,8.20637716 255.998887,53.0030279 C304.758103,8.20575784 352.860613,-11.3383239 384,6.64000945 Z M120.706152,320.796426 C107.668056,376.554847 112.277753,419.79638 137.167482,434.166471 C162.057409,448.536676 201.810956,430.907632 243.580479,391.736448 C227.071122,375.14532 210.64514,355.777875 194.935712,334.110513 C168.315894,331.339709 143.329636,326.798293 120.706152,320.796426 Z M391.295332,320.796032 C368.671697,326.798031 343.685216,331.339552 317.065133,334.110427 C301.356117,355.777729 284.930538,375.145165 268.421549,391.736338 C310.191618,430.906943 349.945389,448.535483 374.835133,434.164962 C399.724481,419.794668 404.333753,376.553647 391.295332,320.796032 Z M293.066378,336.094401 C280.96447,336.840942 268.588343,337.2274 256,337.2274 C243.412027,337.2274 231.036255,336.840966 218.934684,336.094401 C231.13538,352.172331 243.600685,366.734344 256.000961,379.512202 C268.400949,366.734312 280.865946,352.172306 293.066378,336.094401 Z M256,137.792591 C238.46884,137.792591 221.38102,138.515785 204.930844,139.88814 C195.517261,153.448231 186.347045,167.885121 177.581468,183.067552 C168.815758,198.250203 160.898048,213.410509 153.861378,228.34317 C160.898241,243.275729 168.816142,258.435933 177.582043,273.618469 C186.347689,288.800573 195.517952,303.237153 204.931568,316.796958 C221.381514,318.169261 238.469094,318.892436 256,318.892436 C273.53116,318.892436 290.61898,318.169242 307.069156,316.796885 C316.482739,303.236793 325.652955,288.799904 334.418532,273.617475 C343.18424,258.434822 351.101952,243.274516 358.138622,228.341856 C351.101759,213.409296 343.183856,198.249094 334.417957,183.066555 C325.652309,167.884453 316.482046,153.447873 307.068432,139.888067 C290.618486,138.515763 273.530906,137.792591 256,137.792591 Z M144.15074,250.118502 C136.326984,268.723616 129.948336,286.799961 125.082338,303.927903 C142.348859,308.277811 161.193084,311.791955 181.21782,314.318946 C174.52042,304.212011 167.997739,293.68758 161.703613,282.786154 C155.40912,271.884091 149.555441,260.972577 144.15074,250.118502 Z M367.849537,250.117081 C362.444973,260.971227 356.591433,271.882815 350.297078,282.784957 C344.002907,293.68678 337.480162,304.211592 330.782685,314.318881 C350.807749,311.791831 369.652257,308.277593 386.918985,303.927515 C382.052722,286.79926 375.673722,268.722558 367.849537,250.117081 Z M108.284337,157.401954 C53.4778254,173.989855 18.3349644,199.602556 18.3349644,228.342512 C18.3349644,257.082697 53.4783821,282.695578 108.285639,299.283466 C114.399478,276.690513 122.959386,252.781619 133.869367,228.343335 C122.958848,203.904593 114.398493,179.99528 108.284337,157.401954 Z M403.714361,157.401561 C397.600522,179.994514 389.040614,203.903407 378.130633,228.341691 C389.041152,252.780434 397.601506,276.689745 403.715663,299.283072 C458.522175,282.695172 493.665036,257.082468 493.665036,228.342512 C493.665036,199.60233 458.521618,173.989449 403.714361,157.401561 Z M257.687875,184.360736 C283.003177,184.360736 303.525285,204.882844 303.525285,230.198146 C303.525285,255.51345 283.003177,276.035558 257.687875,276.035558 C232.372573,276.035558 211.850464,255.51345 211.850464,230.198146 C211.850464,204.882844 232.372573,184.360736 257.687875,184.360736 Z M254.459828,206.41802 L245.001126,206.418872 C242.332969,206.425684 240.871694,206.486998 239.735512,207.038819 C238.606045,207.593067 237.687129,208.473421 237.108763,209.555338 C236.459828,210.781725 236.459828,212.396383 236.459828,215.627147 L236.459865,244.140324 C236.460686,246.587724 236.479558,247.867675 236.913629,248.877218 C237.522389,250.283194 238.688807,251.400342 240.15679,251.983388 C241.121022,252.363691 242.321513,252.411229 244.475224,252.417171 L245.117127,252.417988 L245.117127,252.417988 L245.458693,252.41802 C245.575642,252.41802 245.690136,252.41802 245.802257,252.417988 L246.447159,252.417171 C248.609204,252.411229 249.79646,252.363691 250.761353,251.983388 C252.229337,251.400342 253.395755,250.283194 254.004515,248.877218 C254.418854,247.913563 254.454884,246.703524 254.458017,244.466909 L254.458315,243.799268 L254.459828,206.41802 Z M272.459828,206.41802 C266.93698,206.41802 262.459828,210.895172 262.459828,216.41802 C262.459828,221.940867 266.93698,226.41802 272.459828,226.41802 L272.459828,226.41802 L272.473398,226.41802 C275.123792,226.416316 277.664946,225.361767 279.537785,223.486382 C281.410624,221.610998 282.46172,219.068414 282.459828,216.41802 L282.459828,216.41802 L282.455986,216.138115 C282.30776,210.744691 277.889066,206.41802 272.459828,206.41802 Z M181.217315,142.366143 C161.192251,144.893196 142.347741,148.407432 125.081015,152.75751 C129.947277,169.885767 136.326277,187.962468 144.150464,206.567944 C149.555026,195.7138 155.408567,184.802211 161.702922,173.900069 C167.997093,162.998246 174.519838,152.473433 181.217315,142.366143 Z M330.78218,142.36608 C337.47958,152.473013 344.002261,162.997447 350.296387,173.898872 C356.59088,184.800933 362.44456,195.712447 367.849259,206.566524 C375.673015,187.961411 382.051663,169.885064 386.917662,152.757124 C369.651141,148.407215 350.806916,144.893072 330.78218,142.36608 Z M268.419521,64.9485773 C284.928878,81.5397043 301.354862,100.90715 317.064288,122.574512 C343.684106,125.345317 368.670364,129.886733 391.293848,135.8886 C404.331943,80.1301792 399.722248,36.8886461 374.832518,22.5185542 C349.942591,8.14834865 310.189044,25.7773936 268.419521,64.9485773 Z M137.164868,22.5200638 C112.275518,36.890358 107.666247,80.1313786 120.704668,135.888994 C143.328304,129.886995 168.314784,125.345473 194.934867,122.5746 C210.643883,100.907296 227.069462,81.5398601 243.578451,64.9486885 C201.808382,25.7780821 162.054611,8.14954181 137.164868,22.5200638 Z M255.999039,77.1728228 C243.599051,89.9507127 231.134054,104.51272 218.933622,120.590624 C231.03553,119.844083 243.411659,119.457626 256,119.457626 C268.587975,119.457626 280.963745,119.84406 293.065316,120.590624 C280.86462,104.512694 268.399315,89.9506822 255.999039,77.1728228 Z" fill="#fff"></path>
</svg>
