<svg viewBox="0 0 30 30" xmlns="http://www.w3.org/2000/svg"><g fill="none" fill-rule="evenodd" transform="translate(2 4)"><path d="m5.66129032.76685733 7.31249998-.76685733 7.3125.76685733 5.6612903 7.53859746-12.9737903 14.98621191-12.9737903-14.98621191z" fill="#fdb300"/><path d="m5.25497917 8.3054549 7.71875003 14.9862917-12.9737292-14.9862917m20.6926628 0-7.71875 14.9862917 12.9737292-14.9862917" fill="#ea6c00" fill-rule="nonzero"/><path d="m5.25497917 8.3054549h15.43750003l-7.71875 14.9862917" fill="#fdad00"/><path d="m12.9737292 0-7.31250003.76672917-.40625 7.53864583m7.71887243-8.305375 7.3125.76672917.40625 7.53864583" fill="#fdd231" fill-rule="nonzero"/><path d="m25.947642 8.305375-5.6612292-7.53864583.40625 7.53864583m-20.6926628 0 5.66122917-7.53864583-.40625 7.53864583" fill="#fdad00" fill-rule="nonzero"/><path d="m12.9737292 0-7.71875003 8.305375h15.43750003" fill="#feeeb7"/></g></svg>