<svg height="24" viewBox="0 0 24 24" width="24" xmlns="http://www.w3.org/2000/svg"><path d="m5.20231709 2.48087059c2.75154249 2.15058479 5.71113891 6.5110752 6.79775321 8.85116781 1.0866971-2.3399203 4.046128-6.7006261 6.7977533-8.85116781 1.9853677-1.5517761 5.2021764-2.75245214 5.2021764 1.06816269 0 .76302874-.4202044 6.40983776-.6666582 7.32657512-.8566708 3.1872131-3.9783491 4.0001282-6.7551328 3.5081142 4.8537647.8600444 6.0885161 3.7088229 3.4219248 6.5576013-5.0643841 5.4103873-7.2789918-1.3574863-7.8467126-3.0916621-.104027-.3179158-.1527053-.46664-.1534212-.3401751-.00072-.1264692-.0493942.0222589-.1534212.3401751-.5674725 1.7341758-2.78203883 8.5022217-7.84671259 3.0916621-2.66663265-2.8487784-1.43192264-5.6977292 3.42192477-6.5576013-2.77686648.492014-5.89858612-.3209054-6.75513282-3.5081142-.246462-.91682352-.66665816-6.56363254-.66665816-7.32657512 0-3.82061483 3.21689149-2.61993879 5.2021764-1.06816269z"/></svg>