<svg height="24" viewBox="0 0 24 24" width="24" xmlns="http://www.w3.org/2000/svg"><path d="m20 0h-18c-1.105 0-2 .895-2 2v18c0 1.105.895 2 2 2h18c1.105 0 2-.895 2-2v-18c0-1.105-.895-2-2-2zm-13.046 18h-2.95v-9.49199999h2.95zm-1.505-10.849c-.951 0-1.72-.771-1.72-1.72s.77-1.719 1.72-1.719c.948 0 1.719.771 1.719 1.719 0 .949-.771 1.72-1.719 1.72zm12.555 10.849h-2.948v-4.616c0-1.101-.02-2.517-1.533-2.517-1.535 0-1.771 1.199-1.771 2.437v4.696h-2.94800003v-9.49199999h2.83000003v1.29699996h.04c.394-.74599998 1.356-1.53299997 2.791-1.53299997 2.987 0 3.539 1.966 3.539 4.522z" transform="translate(1 1)"/></svg>