<?xml version="1.0" encoding="UTF-8"?>
<svg width="384px" height="384px" viewBox="0 0 384 384" version="1.1" xmlns="http://www.w3.org/2000/svg" xmlns:xlink="http://www.w3.org/1999/xlink">
    <title>4x4grid</title>
    <g id="4x4grid" stroke="none" stroke-width="1" fill="none" fill-rule="evenodd">
        <g id="Group" stroke="#FFFFFF" stroke-width="0.5">
            <g id="Rectangle">
                <g>
                    <g transform="translate(48.000000, 48.000000)">
                        <rect x="0" y="0" width="48" height="48"></rect>
                    </g>
                    <g transform="translate(0.000000, 48.000000)">
                        <rect x="0" y="0" width="48" height="48"></rect>
                    </g>
                    <g>
                        <rect x="0" y="0" width="48" height="48"></rect>
                    </g>
                    <g transform="translate(48.000000, 0.000000)">
                        <rect x="0" y="0" width="48" height="48"></rect>
                    </g>
                </g>
                <g transform="translate(96.000000, 0.000000)">
                    <g transform="translate(48.000000, 48.000000)">
                        <rect x="0" y="0" width="48" height="48"></rect>
                    </g>
                    <g transform="translate(0.000000, 48.000000)">
                        <rect x="0" y="0" width="48" height="48"></rect>
                    </g>
                    <g>
                        <rect x="0" y="0" width="48" height="48"></rect>
                    </g>
                    <g transform="translate(48.000000, 0.000000)">
                        <rect x="0" y="0" width="48" height="48"></rect>
                    </g>
                </g>
                <g transform="translate(0.000000, 96.000000)">
                    <g transform="translate(48.000000, 48.000000)">
                        <rect x="0" y="0" width="48" height="48"></rect>
                    </g>
                    <g transform="translate(0.000000, 48.000000)">
                        <rect x="0" y="0" width="48" height="48"></rect>
                    </g>
                    <g>
                        <rect x="0" y="0" width="48" height="48"></rect>
                    </g>
                    <g transform="translate(48.000000, 0.000000)">
                        <rect x="0" y="0" width="48" height="48"></rect>
                    </g>
                </g>
                <g transform="translate(96.000000, 96.000000)">
                    <g transform="translate(48.000000, 48.000000)">
                        <rect x="0" y="0" width="48" height="48"></rect>
                    </g>
                    <g transform="translate(0.000000, 48.000000)">
                        <rect x="0" y="0" width="48" height="48"></rect>
                    </g>
                    <g>
                        <rect x="0" y="0" width="48" height="48"></rect>
                    </g>
                    <g transform="translate(48.000000, 0.000000)">
                        <rect x="0" y="0" width="48" height="48"></rect>
                    </g>
                </g>
            </g>
        </g>
        <g id="Group" transform="translate(192.000000, 0.000000)" stroke="#FFFFFF" stroke-width="0.5">
            <g id="Rectangle">
                <g>
                    <g transform="translate(48.000000, 48.000000)">
                        <rect x="0" y="0" width="48" height="48"></rect>
                    </g>
                    <g transform="translate(0.000000, 48.000000)">
                        <rect x="0" y="0" width="48" height="48"></rect>
                    </g>
                    <g>
                        <rect x="0" y="0" width="48" height="48"></rect>
                    </g>
                    <g transform="translate(48.000000, 0.000000)">
                        <rect x="0" y="0" width="48" height="48"></rect>
                    </g>
                </g>
                <g transform="translate(96.000000, 0.000000)">
                    <g transform="translate(48.000000, 48.000000)">
                        <rect x="0" y="0" width="48" height="48"></rect>
                    </g>
                    <g transform="translate(0.000000, 48.000000)">
                        <rect x="0" y="0" width="48" height="48"></rect>
                    </g>
                    <g>
                        <rect x="0" y="0" width="48" height="48"></rect>
                    </g>
                    <g transform="translate(48.000000, 0.000000)">
                        <rect x="0" y="0" width="48" height="48"></rect>
                    </g>
                </g>
                <g transform="translate(0.000000, 96.000000)">
                    <g transform="translate(48.000000, 48.000000)">
                        <rect x="0" y="0" width="48" height="48"></rect>
                    </g>
                    <g transform="translate(0.000000, 48.000000)">
                        <rect x="0" y="0" width="48" height="48"></rect>
                    </g>
                    <g>
                        <rect x="0" y="0" width="48" height="48"></rect>
                    </g>
                    <g transform="translate(48.000000, 0.000000)">
                        <rect x="0" y="0" width="48" height="48"></rect>
                    </g>
                </g>
                <g transform="translate(96.000000, 96.000000)">
                    <g transform="translate(48.000000, 48.000000)">
                        <rect x="0" y="0" width="48" height="48"></rect>
                    </g>
                    <g transform="translate(0.000000, 48.000000)">
                        <rect x="0" y="0" width="48" height="48"></rect>
                    </g>
                    <g>
                        <rect x="0" y="0" width="48" height="48"></rect>
                    </g>
                    <g transform="translate(48.000000, 0.000000)">
                        <rect x="0" y="0" width="48" height="48"></rect>
                    </g>
                </g>
            </g>
        </g>
        <g id="Group" transform="translate(192.000000, 192.000000)" stroke="#FFFFFF" stroke-width="0.5">
            <g id="Rectangle">
                <g>
                    <g transform="translate(48.000000, 48.000000)">
                        <rect x="0" y="0" width="48" height="48"></rect>
                    </g>
                    <g transform="translate(0.000000, 48.000000)">
                        <rect x="0" y="0" width="48" height="48"></rect>
                    </g>
                    <g>
                        <rect x="0" y="0" width="48" height="48"></rect>
                    </g>
                    <g transform="translate(48.000000, 0.000000)">
                        <rect x="0" y="0" width="48" height="48"></rect>
                    </g>
                </g>
                <g transform="translate(96.000000, 0.000000)">
                    <g transform="translate(48.000000, 48.000000)">
                        <rect x="0" y="0" width="48" height="48"></rect>
                    </g>
                    <g transform="translate(0.000000, 48.000000)">
                        <rect x="0" y="0" width="48" height="48"></rect>
                    </g>
                    <g>
                        <rect x="0" y="0" width="48" height="48"></rect>
                    </g>
                    <g transform="translate(48.000000, 0.000000)">
                        <rect x="0" y="0" width="48" height="48"></rect>
                    </g>
                </g>
                <g transform="translate(0.000000, 96.000000)">
                    <g transform="translate(48.000000, 48.000000)">
                        <rect x="0" y="0" width="48" height="48"></rect>
                    </g>
                    <g transform="translate(0.000000, 48.000000)">
                        <rect x="0" y="0" width="48" height="48"></rect>
                    </g>
                    <g>
                        <rect x="0" y="0" width="48" height="48"></rect>
                    </g>
                    <g transform="translate(48.000000, 0.000000)">
                        <rect x="0" y="0" width="48" height="48"></rect>
                    </g>
                </g>
                <g transform="translate(96.000000, 96.000000)">
                    <g transform="translate(48.000000, 48.000000)">
                        <rect x="0" y="0" width="48" height="48"></rect>
                    </g>
                    <g transform="translate(0.000000, 48.000000)">
                        <rect x="0" y="0" width="48" height="48"></rect>
                    </g>
                    <g>
                        <rect x="0" y="0" width="48" height="48"></rect>
                    </g>
                    <g transform="translate(48.000000, 0.000000)">
                        <rect x="0" y="0" width="48" height="48"></rect>
                    </g>
                </g>
            </g>
        </g>
        <g id="Group" transform="translate(0.000000, 192.000000)" stroke="#FFFFFF" stroke-width="0.5">
            <g id="Rectangle">
                <g>
                    <g transform="translate(48.000000, 48.000000)">
                        <rect x="0" y="0" width="48" height="48"></rect>
                    </g>
                    <g transform="translate(0.000000, 48.000000)">
                        <rect x="0" y="0" width="48" height="48"></rect>
                    </g>
                    <g>
                        <rect x="0" y="0" width="48" height="48"></rect>
                    </g>
                    <g transform="translate(48.000000, 0.000000)">
                        <rect x="0" y="0" width="48" height="48"></rect>
                    </g>
                </g>
                <g transform="translate(96.000000, 0.000000)">
                    <g transform="translate(48.000000, 48.000000)">
                        <rect x="0" y="0" width="48" height="48"></rect>
                    </g>
                    <g transform="translate(0.000000, 48.000000)">
                        <rect x="0" y="0" width="48" height="48"></rect>
                    </g>
                    <g>
                        <rect x="0" y="0" width="48" height="48"></rect>
                    </g>
                    <g transform="translate(48.000000, 0.000000)">
                        <rect x="0" y="0" width="48" height="48"></rect>
                    </g>
                </g>
                <g transform="translate(0.000000, 96.000000)">
                    <g transform="translate(48.000000, 48.000000)">
                        <rect x="0" y="0" width="48" height="48"></rect>
                    </g>
                    <g transform="translate(0.000000, 48.000000)">
                        <rect x="0" y="0" width="48" height="48"></rect>
                    </g>
                    <g>
                        <rect x="0" y="0" width="48" height="48"></rect>
                    </g>
                    <g transform="translate(48.000000, 0.000000)">
                        <rect x="0" y="0" width="48" height="48"></rect>
                    </g>
                </g>
                <g transform="translate(96.000000, 96.000000)">
                    <g transform="translate(48.000000, 48.000000)">
                        <rect x="0" y="0" width="48" height="48"></rect>
                    </g>
                    <g transform="translate(0.000000, 48.000000)">
                        <rect x="0" y="0" width="48" height="48"></rect>
                    </g>
                    <g>
                        <rect x="0" y="0" width="48" height="48"></rect>
                    </g>
                    <g transform="translate(48.000000, 0.000000)">
                        <rect x="0" y="0" width="48" height="48"></rect>
                    </g>
                </g>
            </g>
        </g>
    </g>
</svg>