<?xml version="1.0" encoding="UTF-8"?>
<svg width="609px" height="556px" viewBox="0 0 609 556" version="1.1" xmlns="http://www.w3.org/2000/svg" xmlns:xlink="http://www.w3.org/1999/xlink">
    <title>assets/SVGs/landscape-sun</title>
    <defs>
        <radialGradient cx="50%" cy="0%" fx="50%" fy="0%" r="89.560647%" gradientTransform="translate(0.500000,0.000000),scale(0.847412,1.000000),rotate(90.000000),translate(-0.500000,-0.000000)" id="radialGradient-1">
            <stop stop-color="#FFFDF3" offset="0%"></stop>
            <stop stop-color="#FFEB86" offset="15.7681639%"></stop>
            <stop stop-color="#F89289" offset="70.2710795%"></stop>
            <stop stop-color="#F15B7C" offset="100%"></stop>
        </radialGradient>
        <path d="M1126.11733,3751.78923 C1132.52304,3770.44313 1136,3790.45572 1136,3811.27942 C1136,3860.94252 1116.22337,3905.9921 1084.10692,3939.00029 L820.893079,3939.00029 C788.776626,3905.9921 769,3860.94252 769,3811.27942 C769,3790.45572 772.476963,3770.44313 778.882666,3751.78923 Z M1111.53836,3719.79077 C1115.96872,3727.45718 1119.85938,3735.47387 1123.15847,3743.78905 L781.84153,3743.78905 C785.140625,3735.47387 789.031279,3727.45718 793.461637,3719.79077 Z M1089.8971,3689.79071 C1094.94842,3695.48551 1099.65029,3701.49662 1103.96915,3707.79053 L801.030849,3707.79053 C805.349711,3701.49662 810.051581,3695.48551 815.102903,3689.79071 Z M1058.69351,3661.79111 C1063.95605,3665.52728 1069.01282,3669.53372 1073.84353,3673.79018 L831.156475,3673.79018 C835.98718,3669.53372 841.043951,3665.52728 846.306495,3661.79111 Z M952.5,3628 C977.268612,3628 1000.89106,3632.90141 1022.44812,3641.7861 L882.551878,3641.7861 C904.108939,3632.90141 927.731388,3628 952.5,3628 Z" id="path-2"></path>
        <filter x="-51.1%" y="-60.3%" width="202.2%" height="220.6%" filterUnits="objectBoundingBox" id="filter-3">
            <feMorphology radius="12.5" operator="dilate" in="SourceAlpha" result="shadowSpreadOuter1"></feMorphology>
            <feOffset dx="0" dy="0" in="shadowSpreadOuter1" result="shadowOffsetOuter1"></feOffset>
            <feGaussianBlur stdDeviation="50" in="shadowOffsetOuter1" result="shadowBlurOuter1"></feGaussianBlur>
            <feColorMatrix values="0 0 0 0 0.910563593   0 0 0 0 0.424689746   0 0 0 0 0.118495915  0 0 0 0.5 0" type="matrix" in="shadowBlurOuter1"></feColorMatrix>
        </filter>
    </defs>
    <g id="Page-1" stroke="none" stroke-width="1" fill="none" fill-rule="evenodd">
        <g id="assets/SVGs/landscape-sun" transform="translate(-648.000000, -3507.000000)">
            <use fill="black" fill-opacity="1" filter="url(#filter-3)" xlink:href="#path-2"></use>
            <use fill="url(#radialGradient-1)" fill-rule="evenodd" xlink:href="#path-2"></use>
        </g>
    </g>
</svg>