<svg height="124" viewBox="0 0 512 124" width="512" xmlns="http://www.w3.org/2000/svg" xmlns:xlink="http://www.w3.org/1999/xlink"><defs><linearGradient id="a" x1="2.638903%" x2="91.36589%" y1="51.139341%" y2="49.702367%"><stop offset="0" stop-color="#ffea53"/><stop offset=".704226194" stop-color="#ca3f87"/><stop offset="1" stop-color="#1c2d98"/></linearGradient><path id="b" d="m298.169019 31.5c0-.3-.6-.6-1.2-.6s-1.2 0-1.8 0c-7.5 2.1-15.3 3.6-23.1 4.2-1.8.3-3.3.9-4.8 1.2-3.9.9-7.5 2.4-11.7.9-1.5-.6-3.3 0-4.8.6-3.3 1.5-6.9 1.8-10.5 1.5-1.8 0-3.6.6-5.4.9-3.6.3-7.5 1.2-11.1.6-4.8-1.2-8.4-.3-12 2.7-2.4 2.1-4.8 3.3-8.1 2.4-2.7-.9-5.1-.3-7.5 1.8-1.8 1.5-4.5 1.8-6.9 1.5-4.2-.3-8.4-1.2-12.3.6-.9.3-1.8.3-2.4 0-3.3-2.4-5.1-.9-7.5 1.5-3.3 3.3-7.5 4.8-12.6 3.6-2.4-.6-5.1 0-7.8 0s-5.4 1.2-7.8-1.2c-.6-.3-2.4-.3-2.7.3-2.7 3-6 4.5-9.9 3.3-3-.6-4.8 2.1-7.2 3-2.7.9-6-1.5-8.4 1.2 0 .3-.6.3-.9.3 0 0-.3 0-.6 0 0 0-.3 0-.6 0 0-.3 0-.3 0-.6 0-.6 0-1.5.3-1.8 1.5-.9 3-2.1 4.5-2.7 8.7-2.7 17.7-5.4 26.4-8.1.9-.3 2.1-.3 3-.3 10.5-.9 19.8-4.5 29.7-7.8 2.1-.6 4.2-2.1 6.3-3.6 2.7-2.1 5.4-3 8.4-.6 3 1.8 6 .9 9 0 .6-.3 1.5-1.5 1.5-1.8-1.2-2.1.6-2.7 1.8-3.9.6-.3.6-1.2.9-1.8-.6-.3-1.2-.6-1.8-.6-4.5.6-8.7 1.8-13.2 1.2-.3 0-.9.3-1.2.6-2.7.9-5.4 1.8-8.4 2.4-6.9 1.5-14.4 2.1-21.3 4.5-5.1 1.5-10.8.3-15.3 3.9-.3.3-1.2.3-1.8 0-2.7-1.8-5.1-.3-7.5.3-8.7 3-17.1 5.4-26.1 6.6-3 .6-6.0000003 2.7-9.3000003 3.3-3.3.9-6.9.3-10.2 1.8-4.2 2.1-8.4 3.9-12.9 4.5-6 .6-11.4 2.1-17.1 3.9-.6 0-1.5.3-2.4.3-4.2-.6-7.5 1.8-11.4 2.7-.9.3-1.8 1.2-2.7 1.5-9 1.2-17.4 4.2-25.8 6.9-3.30000005 1.2-6.30000005 3-9.30000005 5.1-1.8 1.2-3.3 3.3-2.4 5.7 2.1 4.5 4.2 8.7 6.3 12.9 3 5.4 7.20000005 8.7 13.50000005 9 7.8.3 15.6.9 23.1 1.5 2.7.3 4.5-.6 6.6-1.8 3.3-2.4 6.9-3.9 11.1-4.2 1.2 0 2.4-.3 3.3-.9 3.6-2.1 7.5-2.7 11.4-2.7 2.1 0 3.6 0 5.1-1.8.3-.6 1.2-1.2 1.8-1.5 4.5-1.2 8.7-2.7 13.2-3.9 7.2000003-1.8 14.4000003-3.3 21.6000003-5.4 5.4-1.2 10.5-2.7 15.3-4.5 9.6-3.3 18.9-6.9 28.8-8.7 4.5-.6 8.7-2.4 13.5-1.2 1.5.6 4.2-.3 5.7-1.5 5.7-4.5 12.3-6.6 19.2-8.7 1.8-.6 3.9-1.8 6-1.8 9.3.6 18-2.7 26.7-4.5 5.1-.9 8.4-3.3 9.9-8.4 3 1.2 6 2.4 9 3.6.6 0 1.2-.3 1.8-.3 0-.6-.3-1.2-.6-1.8-.3-.9-.6-2.1-.9-3.3 1.2-.3 2.7-.9 3.9-.6 2.1.6 3.6.3 5.4-.6 4.8-2.1 9.6-3.9 14.4-5.4 5.1-1.2 10.5-1.8 15.9-2.7 2.1-.3 4.2-.9 6-1.5.3 0 .6-.9.9-1.2zm-91.8-3.9-.6-.6c0 .3-.3.3-.3.3-.3.3-.6.6-.6.9v.3c.3.3.6.6.9.9l.6-.3.6-.6zm6.9-1.8c-.3 0-.9-.3-1.2-.3s-.6.6-.6.6c.3.3.9.6 1.2.9zm15.6-2.7c-.6-.6-.9-.9-1.2-1.2-.6 0-1.5 0-1.8 0-.6.3-.9.9-1.2 1.2.3.3.6.6.9.6h.9.9c.6-.3.9-.6 1.5-.6zm9.9 4.8c-.6-.3-1.2-.6-1.8-.9 0 0-.3.6-.6.9l1.2.6zm1.5-7.5c-.3 0-.9-.6-1.5-.6-.3.3-.9.6-1.5.6-.6.3-1.2.3-1.8.6l1.2.3h2.1c.6-.3 1.2-.6 1.5-.9zm20.1 4.2h.3l.9-.9zm12.6-2.7c-.3-.3-.3-.9-.6-.9s-.9 0-.9.3c-.3.3 0 .6 0 1.2zm9.3-1.2-.3-.3c-.9 0-1.2 0-1.5 0-.6 0-.9.3-1.5.6.6.3 1.2.6 1.8.3h1.2c.3-.3.6-.3.9-.3zm6.6-7.2s-.3 0-.6 0h-1.8c-.6.3-1.2.3-1.5.6-.9 0-1.5.3-2.1.6h2.4c.3-.3.6-.6.9-.9l.3-.3c.6 0 1.2.3 1.8.3.3 0 .6-.3.6-.3zm34.8 14.4s-.3-.3-.6-.6h-.3c-4.2.3-8.7.6-12.9.9-1.8.3-3.6 1.2-5.1 1.8-.6.3-.9.9-1.2 1.5.6.3 1.5.6 2.1 1.2h.6c2.4-.6 5.1-2.1 7.5.3h1.2c2.7-1.2 5.7-2.7 8.4-3.9v-.3c.3-.3.3-.6.3-.9zm-21.6-15.6c-.3-.3-.6-.6-1.2-.6-.3 0-.6.3-.9.3.3.3.6.6.9.6s.6-.3 1.2-.3zm14.7-3-1.2.6c.3.3.3.9.9.9 0 .3.3 0 .9-.3zm27.9 4.2c-.3-.3-.9-.6-1.2-.6-3.6 0-7.2.3-10.5.6-.3 0-.6.3-.9.6 0 .3.3.9.6.9 1.2.3 2.1.6 3 .9 3-.3 5.4-.9 7.8-1.2.6 0 .9-.6 1.2-1.2zm35.1-2.7c-.6 0-.9-.6-1.5-.6-.3 0-.9.3-1.5.3l1.2.9zm29.7-1.8c-.3-.3-.3-.9-.6-.9-1.5 0-3 0-5.1 0-3.9.3-8.4.6-13.2 1.2-.6 0-1.5.3-2.1.3.6.3 1.5.6 2.1.6 6-.3 12-.3 18-.6.3 0 .6-.3.9-.6zm85.2-8.1c-.9-.3-1.8-.9-3-.9-2.4.3-5.4.3-7.8.9-6 1.2-11.7 2.7-17.7 3.9-4.5.9-9.3 1.5-14.1 2.1-3.3.3-6.6.9-9.9.3-4.8-.6-9-.3-13.5 1.2-3.6 1.2-7.2 2.4-10.8 3.6-3.3 1.2-6.9 1.8-10.8 1.5-2.1-.3-4.5 0-6.6.3-3.3.6-6.3 1.5-9.3 1.2-3.6-.3-6.6.3-9.9.9-5.1 1.5-10.5 3-15.6 3.6-9 1.5-17.7 2.4-26.7 3.6-.9 0-2.1 0-3 .3-1.8 1.5-5.1 1.2-5.7 4.2l6 .3h.6c8.7-.3 17.4-.3 25.8-3.9 1.2-.6 2.7-.9 4.2-.9 7.8-.9 15.3-1.5 23.1-2.4 12.3-1.5 24.3-5.1 36.6-5.4h.6c4.8-.6 9.6-1.2 14.4-1.8 1.8-.3 3.6-.9 5.1-2.1 2.7-2.1 5.4-2.7 9-1.8 1.5 0 3.6 0 5.4-.3 5.4-.9 11.1-1.8 16.5-2.7 5.1-1.2 9.9-2.7 15-3.9.9-.3 1.5-1.2 2.1-1.8z"/><filter id="c" height="125.7%" width="105.5%" x="-2.8%" y="-10.1%"><feMorphology in="SourceAlpha" operator="dilate" radius="0.25" result="shadowSpreadOuter1"/><feOffset dx="0" dy="3" in="shadowSpreadOuter1" result="shadowOffsetOuter1"/><feGaussianBlur in="shadowOffsetOuter1" result="shadowBlurOuter1" stdDeviation="4"/><feComposite in="shadowBlurOuter1" in2="SourceAlpha" operator="out" result="shadowBlurOuter1"/><feColorMatrix in="shadowBlurOuter1" type="matrix" values="0 0 0 0 0.479189223   0 0 0 0 0.0877801176   0 0 0 0 0.401203835  0 0 0 0.5 0"/></filter></defs><g fill="none" transform="translate(9.131 5.7)"><use fill="#000" filter="url(#c)" xlink:href="#b"/><use fill="#fff" xlink:href="#b"/><use fill="url(#a)" stroke="#a56c99" stroke-width=".5" xlink:href="#b"/></g></svg>