<svg height="96" viewBox="0 0 409 96" width="409" xmlns="http://www.w3.org/2000/svg" xmlns:xlink="http://www.w3.org/1999/xlink"><defs><linearGradient id="a" x1="98.190196%" x2="5.000796%" y1="49.745646%" y2="50.828251%"><stop offset="0" stop-color="#0b5f90"/><stop offset="1" stop-color="#23c3af"/></linearGradient><path id="b" d="m390.977778 10.4c-.2.4-.6.8-.8 1-3.4 1.8-7 2-10.6.8-.4 0-1-.8-1-1.2.4-1.4-1-2-1.4-3h-.2c-.4.2-.6.2-.8.4-.4 0-.8 0-1.2 0 .4-.2.6-.2 1-.4h1 .2l1.2-.2-.4-1h1l-.6 1h.2-.2c.6.4 1.4.8 1.8.8 1-.2 1.8-.6 2.8-1 .4 1.4 1.4.8 2.4.8 1.8 0 3.6.6 5.4 1 .2 0 .2.8.2 1zm-16.2-4-.2.2-.4-.4s.2-.2.2-.2c.2.2.4.2.4.4zm-10.6-1.6-.2.2h-.2v-.2l.2.2zm-.4 2-.6.2-.6-.2c.2-.2.4-.4.4-.4.4.2.6.4.8.4zm-13.2-3.8-.6.4-.8-.2c.2-.2.2-.6.4-.6.4.2.6.2 1 .4zm3.2 2.6v.4c-1.2.4-2.2.2-3-.6h-.2v-.2l.2.2c1-.6 2-.4 3 .2zm-10.8 3.6c-1.2 1.2-2.4 0-3.6.2-.2 0-.4-.4-.4-.4 0-.2.2-.6.2-.6 1.4 0 2.6-.6 3.8.4zm-6.8-.2c-1 0-2.2-.2-3.4-.2 0 0-.2-.4-.2-.6 0 0 .2-.2.2-.2 1.2 0 2.4.2 3.4.2zm-7.6-.4c-.6 0-1.2.2-1 1 .4 1.4-.8 1-1 .6-.6-.4-.6-1-.8-1.6.4-.2 1-.6 1.4-.6s.8.4 1.4.6zm-8.6 0-.6 1c-.4-.2-.8-.4-1-.8-.2-.2.2-.6.2-.8zm-4.4-.4c-.2.2-.4.4-.4.4-.8-.2-1.4-.4-2-.6h-.2l-2 .4-.4-.4.4.2 2-.4.2.2c.6-.2 1.4-.2 2-.2.2 0 .4.2.4.4zm-14.2-8.2h-.2.2v.2zm-10.4.2c0 .2-.2.4-.2.6l-.6-.2c.2-.2.2-.4.4-.4zm-4.2.6h-.2c-.2.2-.4.2-.6.4v-.4.4c.2-.2.4-.4.4-.4zm25.6 9c-.6.4-1 .8-1.6 1-2.6.4-5.2.6-7.8 1-.8 0-1.6.6-2.4.6-1.6.2-3.2.8-4.8.2s-3.2-.4-4.4.6c-1.8 1.8-3.6 1.4-5.6 1.4-.2 0-.4-.2-.6-.4.2-.2.4-.4.4-.4.4-.2.8-.4 1-.6 0-.4.2-1.2 0-1.4-.4-.2-1-.6-1.4-.6-.8.2-1.4.8-2.2 1.2-1.8 1-3.4 2-5.2.2-.4-.2-1.2-.2-1.8-.2-1 0-1.6-.2-1.8-1.2-.2-2-1.4-2.2-3-2.4-.2 0-.4 0-.8 0-.8 0-1.6 0-2.4-.2.8-.2 1.6-.6 2.4-.8h4.4c1.2 0 1.8 0 2.2 1.6s3 1.8 4 0c1.2-2 3.2-1.4 4.8-1.8.2.2.4.6.2.6-1 1.4-.4 1.6.8 1.8 1.2 0 2.4-.2 3.2.4 1.6.6 2.4-1.2 3.8-.8 1.2.4 2.4.8 3.6 1 .6 0 1.4-.4 1.6-.8.2-.6.2-1.2.2-2h-.2c-2.6.2-5.2.6-8 .8-.2 0-.4-.4-.8-.6.2-.2.6-.6.8-.6 2.6-.2 5.4-.6 8 .4h.2c.8-.2 1.6 0 2.4.8.6.6 1.2.2 1.8-.2l2-.8 1.6.8.6-.4-.6.4-1.8-.8-1.8.8c2.2 1.4 4.8 1.4 7.4 1.4zm-39.6-9c0 .2-.2.2-.2.2-.2 0-.2 0-.4 0l.2-.4zm-7.4 8.2-.6.6-1.4-.6c.2-.2.4-.6.6-.6.4.2 1 .4 1.4.6zm-4.4-.2c0 .2-.2.4-.2.6-.6.2-1.2.4-1.8.4-.2 0-.6-.4-1-.6l.8-.6c.6 0 1.2-.2 1.8-.2.2 0 .4.2.4.4zm-13.2-7.2v-.2h-.2-.6s.2-.2.2-.2.2.2.4.2l.2-.2zm4.6 7.8c.2 0-.2.4-.4.6-1 0-2 .2-3 .2-.4 0-.8-.4-1.2-.6.4-.2.6-.8 1-.8 1 0 2-.2 3.2 0 .2 0 .4.4.4.6zm-10.8-6.8c-.2-.2-.6-.2-.8-.2-.2-.2-.4-.4-.6-.4.4-.2.6-.4.8-.2s.4.4.6.8l.2-.2v.2zm27.4 12c-.2 1-3 .8-3.8 0-.2-.2-.2-.8-.4-1s-.6-.6-.8-.4c-.4.2-.8.6-.8.8.4 1 0 1.2-1 1.4-2 0-4 0-5.8.4-2 .2-4 1-5.4-1.2-1.8.6-3.6 1.2-5.2 1.4-1.2.2-2.4-.2-3.2-1.4-.6-.8-1.4-.6-1.6.2-.4 1.6-1.4 2.2-2.8 2.4-5.6.6-11.4 1.2-17 1.8-.6 0-1.2.2-1.6 0s-.6-1-.4-1.2c.6-1 1.6-1.8 2.8-1.2 1.4.4 2.2.4 3.2-.8.2-.2 1-.4 1.2-.2 1.8.6 2.6-.2 3.6-1.4.6-.8 2-.8 3.2-1 1.4-.4 2.2.2 2.8 1.6.4 1 1 .4 1-.2.2-1.4.8-1.8 2.2-1.8 2.6 0 5.2 0 7.8-.2 1.2 0 2.4-.4 3.8-.6h2.8c1.2 0 .8.6.4 1.2 0 .2.2 1 .2 1 1 0 2.2.2 2.8.2 3-2.6 6.6-2.6 9.8-3.4.6-.2 1.8 0 2 .2.2 1.2.4 2.4.2 3.4zm-35.4 1.4c0-.2 0-.2-.2-.4 0 0-.2 0-.2.2l.2.4zm11-6.6v.2h-.2c-3.2 1.8-7 1.4-10.6 1.8-1 0-2.2-.2-3.4-.2-.2 0-.4-.2-.6-.4.2 0 .4-.4.6-.4.8-.2 1.8-.6 2.6-.6 3.2.4 6.2-.4 9.2-.6.8-.2 1.6.2 2.2.4zm-15.6-6.6c-.6.2-1.2.6-1.8.6s-1.2-.2-1.6-.2c0-.4 0-.8 0-.8.6-.2 1.2-.2 1.6-.2.6 0 1.2.4 1.8.6zm-10.8 1c-.4.2-.6.4-1 .4-.2 0-.2-.2-.4-.4.2-.2.4-.4.8-.4 0 0 .2.2.6.4zm-.4 3.6-.4 1h-1.2c.2-.4.4-.8.6-1s.6 0 1 0zm-6.2-3.6v.8c-.4 0-.6-.2-1-.2 0-.2 0-.6 0-.6zm-7 1.2c-.6.6-.8.8-1 1-.4 0-.8-.2-1.2-.2 0-.2.2-.8.2-.8zm-.2 3.8c-.2.2-.2.2-.4.4 0 0-.2 0-.2-.2 0 0 0-.2 0-.4zm-13-1.8c-.2 0-.2 0-.2.2h-.2l-.2.2-.2-.2-.8-.2c0-.2.2-.2.2-.2.2.2.4.2.6.4h.2.2zm-6.2 4.4s-.2 0-.2.2l-.2-.4.2-.2c0 .2.2.2.2.4zm-2.4-3.4s-.2.4-.4.4c-.8 0-1.6.2-2.4.2-.2 0-.4-.4-.6-.6.2-.2.4-.4.6-.6 0 0 .2 0 .6-.2.4 0 1-.2 1.6 0 .4 0 .6.4.6.8zm7.6 7c.2.8-.2 1.6-.4 2.2l-2.8-.8c.2-.6.2-1 .4-1.2.8-.6 2.6-.8 2.8-.2zm-5.4.8v.2h-.6c0-.2 0-.4.2-.4 0 0 .2.2.4.2zm1.8 3.6c-.4.2-.6.6-.8.6s-.6-.4-.8-.6c0-.2.4-.6.6-.6s.4.2 1 .6zm-17.4-9.6v.2l-.4-.2.2-.2c.2 0 .2.2.2.2zm-2.8.8h-.2v-.2zm-9.2 1.2-.4.2h-.4c0-.2.2-.4.4-.4 0 0 .2 0 .4.2zm-10.6 2c-.6.4-1 .8-1.4 1.2-.4.2-1 .2-1.4.2-.2.2-.6 0-.8-.2.2-.2.4-.4.6-.6.4 0 .6-.2 1.4-.6zm-6.8-.8v.4h-.2c0-.2 0-.2 0-.4zm-.4 2.8-.4-.2.4-.2zm-7 .8c0 .2-.2.8-.4.8-.8 0-1.6 0-2.6 0 0 0 0-.6.2-.8s.4-.4 1-.6c.2 0 .6-.2 1.2 0 .2 0 .6.2.6.6zm-7.4-.4-.2.2-.2-.2c0-.2.2-.2.2-.2s.2.2.2.2zm2.4 2-.6.6-1.4-.6c.2-.2.4-.6.4-.4.6 0 1 .2 1.6.4zm2.2 3.2-.8.8-1-.2c.4-.2.8-.6 1.2-.8.2 0 .4 0 .6.2zm-16.8 0v.2h-.4v-.2zm114-10.6c-.2.4-.6.8-.8.8-2.6.6-5 1-7.4 1.2-1 0-2-.4-2.8-.6h-.4c-1.2.4-2.2.6-3.2 1.2-.4.2-.8.6-1.2 1 .4.2.8.6 1.2.6 1 .2 2 0 3 0 1.4-.2 1.8 0 2 1.2.2 2.4-.4 3.2-3 3.4-2.2.4-4.6.4-7 .6-4.2.6-8.4 1.2-12.6 2-1.8.4-3.4 1.2-5 1.8-1.4.6-2.8 1-4 1.4-.4 0-.8.2-1 .4 0 1.8-.4 1.6-1.6.6-1.8-1.2-3.6-.2-4.8 1.2-1 1.2-2.2 1.6-3.6 1.8-3.4.4-6.6 1.2-9.8 1.6-1.6.4-3.2 1-4.4-1-.6-.8-1.8-.2-2.8.2-2.8 1-5.6 2.2-8.4 3.2-1 .2-2.2 0-3.2-.2s-2-.2-2.8.8c-.8.8-2 1.6-3 1.8-4 .8-7.8 1.4-11.8 2.2-.2 0-.6.2-.8 0-2.2-1.6-4.4.4-6.6 0-.8 0-2.2.4-2.2.8-.6 1.6-1.8 1.6-3.2 1.8-2.6.6-5.2 1.4-7.8 2-.8.2-1.4.6-2 1-1.4.4-2.8 1.4-4.4 1.4-4.6000002.2-8.4000002 2.4-12.6000002 4-.6.2-1.2.4-1.8.6-4.8 1-9.6 2.4-13.8 5-2.2 1.2-4.4 1.4-6.6 2-4.4 1.2-8.6 2.4-12.8 4.4-3.4 1.6-7.4 2.4-10.8 4.2-4.6 2.6-10 3.6-14.4 6.8-.2 0-.4.2-.6.2-4 1.2-7.8 3.2-11.6 5.2-.6.2-1.4.4-2 .4-1.6-.4-3-.4-4.4.4-1.00000002.6-2.00000002 0-2.80000002-1-1-.8-2-1.6-3-2.6-.4-.4-1-.8-1-1.2.2-3-2.8-4.4-3.2-6.8-.4-1.4 0-3 0-4.6 0-1.2.8-2 1.6-2.6 1.4-1 2.6-2.2 3.8-3.2.6-.2 1-.6 1.6-.8 3.00000002-1 6.00000002-2 9.00000002-3.4 2.2-1 4.2-2.6 6.6-3.4 2-.6 3.8-2.2 6.2-2 .4.2.6-.2 1-.4 2-2 4.6-2 7.2-2.4s2.6-.2 4.4-2.8c.6-.8 1.6-.8 2.8.2.2.2.8.2 1.2.2.6-.4 1.2-1.2 2-1.2 1-.4 2.2-.2 3.4-.2-.2 1.8-1.8 1.4-3 2-2 .8-4.2 1.4-6.2 2.2-.6.4-1.2.6-1.6 1s-.6 1.2-.6 1.8c.2 1 1.2.8 1.8.6 3.4-1.4 6.8-2.6 10.4-4 1-.4 2.2-.8 3.2-1 .2 0 .6.2.6.2.2.2 0 .6-.2.6-.4.2-1 .2-1.2.6-1 1-3 .6-3.6 2.4 1.6-.2 3 0 4.6-.4 1.4-.2 2.8-.8 4.4-1.4 2.4-.6 4.6-1.6 7-2.2 6.8-2.2 13.6-4.2 20.4-6.2 9.2-2.6 18.2000002-5.4 27.4000002-7.6 7.4-1.8 14.8-3.2 22.2-4.8 3.2-.6 6.2-1.6 9.4-2.2 5.2-1 10.2-1.6 15.4-2.6 1.6-.2 3.4-.2 5-.8 4.4-1.4 9-1.4 13.6-1.8.4 0 .8.2 1 .4-.2.2-.6.4-1 .6-.6.4-.6.4-.2 1 .8.8 0 1-.6 1-.4 0-.8-.2-1.2-.4-1.8-.8-3.6-.6-5.2.6-1.2.8-2.2 1.2-3.8.2-.6-.4-1.6-.4-2.4-.4s-1.2.4-1 1.4c.2.8.2 1.6.2 2.4 0 1.6.6 1.8 2 1 0 0 0-.2.2-.2 1.2 0 2.6.2 3.6-.2 1.2-.2 2-1.2 3.6-1 1.6.4 3.2-.2 4.8-.4 1.2-.2 2.4-.8 3.6-.6 4.6.2 8.2-2.2 12-4.6.2-.2.4-.6.2-.8 0-.4-.4-.6-.6-.8-.2 0-.2 0-.4 0-.8-.2-2 .6-2.2-.8 0-.2 1.6-.6 2.4-.8 2.2-.4 4.2-.6 6.4-.8.2 0 .6.2.8.4-.2.2-.4.4-.6.6-.4.4-1 .4-1.2.6-.4.4-.6 1-.6 1.2.2.4.8.6 1 .6 2 0 3.8-.2 5.8-.6.4 0 .8-.4.8-.8.2-.2-.2-.8-.6-1-.2-.4-.6-.6-1-.8.4-.2.8-.4 1.2-.4 2.4-.8 4.8-1.6 7.4-1 .4 0 .8.2 1.2.2h.2.2c2.4-.6 4.8-1.2 7.2-1.8.8-.2 1.8-.2 2.8-.2.4 0 .6.4 1 .6zm-25.8 8.8v-.2l-.2.2zm-37.6 3.4c.4-1-.6-1.2-1.4-1.4s-1.6-.4-2.4-.4c-.2.4-.6.6-.6 1 0 .2.2.8.6.8.6.2 1.4.2 2 .2s1.8 0 1.8-.2zm-3.6 2.6c0-.2-.2-.6-.4-.8-2-1.6-4.4-2.4-7-1.8-1.6.2-3.2.4-4.8.8-1.2.2-2.4.4-3.4.8-1.2.6-2.2 1.4-1.8 3 .8-.2 2-.8 2.4-.4 1.4 1 2.2.2 3.2-.2 2.6-1 5.2-1.8 8-.6.8.2 2 0 3-.2.4 0 .8-.2.8-.6zm-17.6 2.2c-.2 0-.4.2-.4.2 0 .2 0 .4.2.6 0-.2 0-.2.2-.4 0-.2 0-.2 0-.4zm-2.2-1.6c-2.2-.6-4.4-.2-6.2 1.2-.8.6-1.4.8-2.2.4-.4-.2-1-.2-1.4-.2-2.2.6-4.4 1.2-6.8 1.6-4.6 1-9 3-13.6 3.6-3.4.6-5.4 3.4-8.2 4.6 0 0-.2.2-.2.4.2 0 .4.4.4.2 1.4-.4 3.2.4 4-1.2 1.2-2.2 3.2-2 5.2-2.2 1.6-.2 3.4 0 5-.4 2.4-.6 4.8-1.8 7.4-2.2 4-.6 7.8-2 12.2-1.6 3.8.4 4.2-.2 4.4-4.2zm-42.2000002 11.8c-.4 0-.6-.2-.6-.2-.4.2-.8.6-1 .8.2.2.4.4.4.4.4-.2.8-.6 1.2-1zm-5.2-13.4-.2.4h-.4c0-.2.2-.4.2-.4.2-.2.2 0 .4 0zm-8.4 2.2-.6.6-.4-.4.4-.4zm.4 2.4c-.4.4-.6.6-.8.6s-.6-.2-.8-.4c.2-.2.4-.4.4-.4.4 0 .6 0 1.2.2zm-4.6 1.2c0 .2-.2.4-.4.4s-.4-.2-.4-.2c.2-.2.2-.4.4-.4s.4.2.4.2zm5.4 2.4c-.4 1.6-1.8 1.8-2.2 1.8-1.4.6-1.8 1-2.4 1-.4 0-1-.4-1.4-.6.2-.4.4-1.4.8-1.4 1.6.2 3-.4 4.2-1.8 0-.2.6 0 .8.2s.4.6.2.8zm-9.6-1.2c0 .2-.2.4-.4.4 0 .2-.2 0-.2 0l.2-.6zm-6.8 2.2-1.2 1.4c-1.4.2-2.4.4-3.6.6-.2 0-.4-.2-.6-.2.2-.2.2-.4.4-.6.8-1 2-1.4 3.4-1.4.6 0 1 .2 1.6.2zm2.4 4.4c-.8.4-1.2 1-1.8 1-.4.2-1-.4-1-.6 0-1.2 1-1 1.8-1 .2 0 .4.2 1 .6zm-9-4.6c-.2.2 0 .4-.2.4-.2.2-.4.2-.6.2 0-.2 0-.4.2-.6zm-4.2 3.8c-.2 0 0 .4-.2.4-.2.2-.4 0-.6 0v-.6zm2.2 3.8c-.8.8-1.2 1.2-1.6 1.6-.4 0-.8-.4-1.2-.6.4-.4.8-1 1.2-1.2s.8 0 1.6.2zm-7-4c-.4.2-.6.6-1 .6-.2.2-.4 0-.8-.2.2-.2.4-.6.6-.6.2-.2.6 0 1.2.2zm-.2 2.2c0 .2-.4.2-.4.4-.2-.2-.4-.4-.4-.4 0-.2.2-.4.4-.6.2.2.4.4.4.6z"/><filter id="c" height="134.7%" width="107%" x="-3.5%" y="-13.3%"><feMorphology in="SourceAlpha" operator="dilate" radius="0.25" result="shadowSpreadOuter1"/><feOffset dx="0" dy="3" in="shadowSpreadOuter1" result="shadowOffsetOuter1"/><feGaussianBlur in="shadowOffsetOuter1" result="shadowBlurOuter1" stdDeviation="4"/><feComposite in="shadowBlurOuter1" in2="SourceAlpha" operator="out" result="shadowBlurOuter1"/><feColorMatrix in="shadowBlurOuter1" type="matrix" values="0 0 0 0 0.479189223   0 0 0 0 0.0877801176   0 0 0 0 0.401203835  0 0 0 0.5 0"/></filter></defs><g fill="none" transform="translate(9.0222 5.8)"><use fill="#000" filter="url(#c)" xlink:href="#b"/><use fill="#fff" xlink:href="#b"/><use fill="url(#a)" stroke="#a56c99" stroke-width=".5" xlink:href="#b"/></g></svg>