<?xml version="1.0" encoding="UTF-8"?>
<svg width="24px" height="24px" viewBox="0 0 24 24" version="1.1" xmlns="http://www.w3.org/2000/svg" xmlns:xlink="http://www.w3.org/1999/xlink">
    <title>Slice</title>
    <g id="Page-1" stroke="none" stroke-width="1" fill="none" fill-rule="evenodd" stroke-linecap="round" stroke-linejoin="round">
        <path d="M11.9994188,2.75 C12.3638294,2.74998816 12.7275842,2.87858777 13.0157124,3.1330222 L20.7435166,9.95713462 C21.0676669,10.243379 21.25,10.6498621 21.25,11.0746842 L21.25,19.7494283 C21.25,20.1497771 21.088018,20.5347675 20.7961671,20.818215 C20.5126446,21.093574 20.128585,21.25 19.7271761,21.25 L17,21.25 C16.2374211,21.25 15.8872111,21.1232683 15.6716362,20.9367213 C15.4365633,20.7333018 15.2574942,20.4213605 15.2505208,19.6351986 L15.25,15.5 C14.9788381,15.3053317 14.7615765,15.25 14.5,15.25 L9,15.25 L8.75,19.5 C8.75,20.3263889 8.5983621,20.6706314 8.38449675,20.8844968 C8.1706314,21.0983621 7.82638889,21.25 7,21.25 L4.27282386,21.25 C3.87141617,21.25 3.4873554,21.0935693 3.2038329,20.8182103 C2.91198196,20.5347628 2.75,20.1497724 2.75,19.7494236 L2.75,11.0746541 C2.75,10.6498663 2.93230418,10.2434129 3.25640892,9.95717086 L10.98315,3.13308908 C11.2712611,2.87863551 11.6350076,2.75001184 11.9994188,2.75 Z" id="Path-Copy" stroke="#000000" stroke-width="1.5" fill="#000000"></path>
    </g>
</svg>