<?xml version="1.0" standalone="no"?>
<!DOCTYPE svg PUBLIC "-//W3C//DTD SVG 20010904//EN"
 "http://www.w3.org/TR/2001/REC-SVG-20010904/DTD/svg10.dtd">
<svg version="1.0" xmlns="http://www.w3.org/2000/svg"
 width="1001.000000pt" height="1001.000000pt" viewBox="0 0 1001.000000 1001.000000"
 preserveAspectRatio="xMidYMid meet">
<metadata>
Created by potrace 1.11, written by Peter Selinger 2001-2013
</metadata>
<g transform="translate(0.000000,1001.000000) scale(0.100000,-0.100000)"
fill="#000000" stroke="none">
<path d="M6573 9989 c-21 -4 -954 -7 -2073 -7 -1119 0 -2192 -1 -2385 -1 -192
-1 -704 0 -1136 1 -681 3 -788 1 -804 -12 -19 -16 -19 -117 5 -945 20 -704 30
-1153 36 -1560 3 -231 7 -499 9 -595 15 -678 16 -899 6 -919 -8 -14 -8 -33 -1
-63 14 -57 28 -516 35 -1133 3 -275 8 -619 11 -765 3 -146 7 -364 9 -485 2
-121 6 -350 9 -510 4 -159 9 -418 11 -575 8 -558 15 -877 20 -995 l5 -120 -55
-42 c-30 -24 -59 -43 -64 -43 -4 0 -18 -9 -31 -20 -13 -11 -29 -20 -37 -20 -8
0 -33 -13 -56 -29 -23 -15 -52 -31 -65 -35 -22 -7 -23 -10 -20 -129 3 -117 4
-122 24 -122 12 -1 28 -6 35 -12 14 -11 78 -24 114 -23 11 1 36 1 56 2 47 1
91 -10 84 -22 -7 -12 -1 -12 48 -1 21 5 37 5 37 0 0 -5 11 -9 25 -9 25 0 33
-14 15 -25 -6 -4 -8 -10 -5 -15 3 -5 -9 -16 -27 -25 -66 -31 -84 -45 -98 -70
-11 -21 -12 -30 -2 -45 30 -49 5 -52 -93 -11 -89 37 -173 53 -197 37 -17 -10
-18 -35 -18 -328 l0 -318 1711 0 1711 0 -7 67 c-4 38 -23 129 -42 203 -36 136
-46 220 -31 253 11 22 -14 109 -60 205 -23 47 -32 76 -26 82 7 7 39 -5 95 -34
196 -104 299 -147 299 -126 0 4 -14 13 -31 19 -17 6 -43 24 -59 41 -17 18 -34
28 -43 24 -10 -3 -19 4 -26 23 -15 36 -36 72 -50 86 -6 6 -11 23 -11 38 0 14
-9 38 -21 53 -11 14 -18 29 -15 34 13 21 -14 36 -63 33 -46 -2 -51 0 -51 20 0
19 -4 21 -30 15 -23 -4 -36 0 -50 14 -11 11 -26 20 -33 20 -7 0 -27 22 -45 50
-23 35 -39 50 -55 50 -27 0 -49 31 -36 51 13 21 11 26 -16 33 -14 4 -25 11
-25 17 0 6 -11 35 -25 65 -16 34 -23 64 -19 79 3 13 1 32 -5 43 -16 30 -24
264 -12 365 11 92 62 227 118 312 37 55 121 136 126 122 3 -9 8 -9 18 1 7 6
22 12 32 12 10 0 21 8 24 19 7 27 77 59 89 40 3 -6 12 -8 20 -5 20 8 37 -39
24 -65 -12 -22 -6 -39 16 -39 8 0 14 -5 14 -10 0 -6 15 -26 33 -44 42 -44 58
-72 51 -91 -5 -11 0 -18 15 -22 11 -3 21 -10 21 -16 0 -14 53 -61 70 -62 8 0
20 -11 26 -23 6 -13 17 -29 23 -35 6 -6 11 -19 11 -29 0 -9 9 -22 20 -28 11
-6 19 -14 19 -18 -4 -23 5 -31 38 -34 30 -2 38 -8 43 -28 4 -15 14 -26 27 -28
11 -2 29 -12 39 -23 9 -10 27 -19 40 -19 13 0 28 -8 33 -18 5 -9 32 -26 61
-36 28 -10 56 -23 63 -30 22 -20 74 -46 80 -39 4 3 13 1 20 -5 8 -7 17 -9 20
-5 4 3 16 -2 27 -12 13 -12 24 -15 32 -8 17 13 203 6 203 -7 0 -1 38 -4 85 -6
55 -2 96 -10 117 -21 30 -16 33 -16 51 0 33 30 132 59 185 54 44 -4 49 -2 58
19 9 26 39 33 39 9 0 -9 9 -15 24 -15 14 0 28 -4 31 -10 9 -15 22 -12 43 10
l19 21 6 -21 c5 -18 9 -20 25 -11 15 8 33 7 70 -5 49 -16 50 -16 91 10 23 15
45 25 50 22 9 -6 92 21 106 35 5 5 16 9 25 9 18 1 70 44 70 59 0 17 51 25 72
12 24 -15 38 -7 31 19 -3 13 0 22 11 25 9 3 24 8 34 11 9 4 26 6 38 5 11 -1
32 3 47 8 21 8 27 17 27 39 0 25 6 32 43 47 23 9 50 21 59 26 10 5 23 9 29 9
6 0 17 7 25 15 14 13 12 15 -12 15 -23 0 -27 13 -6 16 27 3 62 18 62 26 0 6 7
8 15 4 8 -3 15 0 15 6 0 6 7 19 15 28 8 9 15 30 17 48 3 36 20 56 58 67 30 9
65 43 74 71 8 25 80 104 96 104 5 0 10 9 10 20 0 15 7 20 25 20 17 0 23 4 19
14 -4 10 5 16 26 21 26 6 35 2 56 -20 13 -14 24 -32 24 -39 0 -8 7 -19 15 -26
10 -8 15 -25 13 -44 -2 -24 1 -31 15 -30 22 2 22 -7 -1 -37 -11 -13 -27 -45
-37 -71 -10 -27 -21 -48 -25 -48 -4 0 -13 -21 -19 -46 -11 -43 -10 -48 9 -61
18 -13 20 -21 14 -57 -3 -22 -11 -44 -16 -47 -7 -4 -6 -14 1 -27 16 -31 13
-49 -9 -55 -11 -3 -20 -12 -20 -21 0 -22 17 -20 24 1 2 10 3 -12 0 -49 -4 -63
-3 -68 15 -68 11 0 24 8 30 17 5 10 12 15 16 11 4 -3 1 -17 -6 -30 -10 -18
-47 -114 -49 -125 0 -2 4 -3 9 -3 19 0 72 63 68 80 -5 19 37 49 50 37 3 -4 12
-2 19 4 17 14 34 3 34 -20 0 -28 12 -33 27 -11 8 11 21 20 30 20 13 0 12 -4
-5 -19 -12 -10 -22 -21 -22 -24 0 -8 60 -37 77 -37 9 0 13 -14 13 -44 0 -58
16 -67 49 -27 14 17 32 31 39 31 6 0 12 11 12 24 0 14 4 28 10 31 18 11 32 85
20 101 -9 10 -7 24 10 58 12 25 19 50 16 55 -9 14 4 39 21 43 12 2 16 19 17
78 2 86 16 120 50 120 19 0 22 4 19 24 -6 32 19 40 48 15 13 -11 32 -18 42
-15 21 5 67 -12 67 -25 0 -5 16 -11 36 -15 23 -4 50 -21 76 -47 l41 -41 21 27
c23 29 40 33 81 17 l27 -10 -24 -20 -23 -21 25 3 c16 2 26 11 30 26 3 14 25
34 55 51 47 27 52 28 92 16 36 -11 43 -11 43 0 0 8 -10 16 -22 18 -16 3 -13 5
10 6 20 0 31 -3 27 -9 -3 -6 1 -7 9 -4 9 3 25 -5 39 -20 16 -17 30 -23 44 -20
17 5 25 -4 48 -53 15 -32 29 -60 32 -63 11 -12 23 30 23 82 0 56 0 56 -43 81
-24 14 -79 53 -123 85 -75 56 -140 88 -245 117 -26 7 -55 18 -65 23 -22 12
-53 24 -72 28 -8 1 -21 9 -30 17 -16 14 -74 42 -179 88 -23 10 -47 28 -53 40
-12 21 -11 21 36 14 77 -11 324 -83 401 -117 24 -10 50 -18 58 -18 9 0 34 -9
56 -21 23 -11 59 -23 82 -25 41 -5 177 -69 177 -84 0 -3 22 -21 49 -38 27 -18
52 -40 56 -50 13 -35 17 -178 6 -232 -37 -176 -209 -451 -384 -612 -267 -247
-473 -373 -737 -450 -168 -50 -185 -54 -290 -66 -94 -11 -159 -8 -265 15 -200
43 -259 21 -279 -103 -4 -22 -18 -53 -32 -69 -13 -15 -24 -34 -24 -40 0 -18
-49 -106 -76 -135 -12 -14 -41 -59 -65 -99 -23 -41 -69 -116 -103 -165 -34
-50 -65 -97 -70 -103 -6 -10 438 -13 2203 -13 l2211 0 0 433 0 434 -27 14
c-50 25 -223 143 -223 151 0 4 -6 8 -13 8 -7 0 -37 16 -67 36 -30 20 -68 43
-84 51 -16 8 -60 37 -97 64 -37 27 -70 49 -74 49 -4 0 -28 15 -54 33 -25 19
-53 37 -61 40 -8 4 -31 17 -52 29 -93 58 -257 155 -298 176 -25 13 -61 34 -80
46 -19 13 -62 40 -95 61 -33 21 -62 41 -65 44 -3 3 -23 18 -45 33 -22 15 -59
45 -82 66 -22 21 -65 50 -95 64 -29 14 -89 42 -132 63 -91 43 -101 51 -121
100 -9 19 -20 35 -25 35 -5 0 -20 16 -34 36 -27 40 -44 50 -159 100 -44 18
-91 41 -105 51 -31 20 -151 73 -167 73 -7 0 -12 27 -13 73 0 39 -3 94 -5 120
-5 50 9 77 39 77 8 0 14 7 14 15 0 13 18 20 43 16 4 0 7 3 7 9 0 5 -7 10 -15
10 -16 0 -38 34 -40 63 -1 9 -9 23 -18 30 -9 6 -23 31 -31 55 -14 39 -14 45 4
75 20 35 20 81 -2 208 -9 53 -8 75 3 110 8 24 16 42 19 40 3 -2 15 1 28 8 13
7 69 18 125 24 60 8 102 17 104 24 6 17 -52 50 -98 58 -21 4 -43 13 -50 21 -7
8 -20 12 -34 8 -15 -4 -24 0 -28 10 -4 9 -14 16 -23 16 -8 0 -24 10 -34 22
-16 19 -19 40 -19 133 0 61 -4 135 -10 166 -7 41 -6 74 3 118 11 52 10 63 -2
73 -9 8 -12 26 -9 57 2 25 0 109 -6 185 -10 153 0 278 28 332 23 48 81 81 150
87 66 6 95 15 95 28 0 5 6 9 14 9 8 0 18 4 21 10 3 5 -2 9 -12 8 -10 -2 -52 4
-93 11 -41 8 -97 14 -124 15 -37 1 -52 6 -62 22 -13 19 -10 28 22 95 38 78
108 216 156 309 15 30 28 60 28 66 0 6 7 25 16 43 33 67 46 138 51 293 5 147
4 161 -16 208 -26 60 -81 115 -130 131 -48 16 -82 39 -75 51 4 5 -5 31 -19 56
-33 62 -54 224 -32 254 10 15 11 27 4 45 -5 13 -9 39 -9 58 0 43 -9 65 -26 65
-8 0 -14 5 -14 11 0 7 9 9 21 6 19 -5 20 -2 19 71 -2 49 4 99 15 137 10 33 17
76 17 95 -1 19 4 40 9 47 6 6 12 32 13 58 1 25 7 50 13 56 6 6 7 26 3 49 -7
37 6 110 23 137 18 28 38 116 36 160 -2 27 1 101 6 166 8 112 9 119 32 128 26
10 31 44 13 96 -7 20 -8 38 -1 56 12 31 -1 74 -51 177 -17 36 -39 81 -48 100
-20 41 -69 131 -80 145 -9 12 -25 76 -22 88 1 4 4 36 6 70 5 76 8 91 25 111
17 20 6 83 -17 110 -15 16 -17 61 -17 460 1 678 3 762 20 803 14 33 14 38 -2
62 -13 19 -18 52 -21 126 -4 137 -6 143 -45 150 -47 8 -1028 11 -1074 4z
m-2358 -169 c57 -9 298 -21 505 -25 52 -1 136 3 185 8 114 13 290 15 375 5 36
-5 158 -9 271 -11 171 -2 209 1 224 13 13 11 42 15 104 15 932 -6 1550 -15
1574 -24 22 -9 27 -17 27 -45 0 -71 -11 -83 -86 -91 -38 -4 -78 -11 -90 -16
-14 -5 -24 -4 -26 2 -2 5 -51 9 -113 9 -89 -1 -393 0 -885 2 -25 0 -92 -3
-150 -8 -181 -13 -359 -11 -369 5 -9 14 -13 15 -144 11 -43 -1 -83 3 -90 8 -8
7 -34 6 -82 -4 -84 -18 -312 -34 -375 -27 -25 3 -70 12 -100 20 -30 8 -68 14
-85 13 -16 -1 -79 -3 -140 -5 -60 -2 -139 -6 -175 -9 -188 -16 -502 -25 -527
-15 -15 6 -79 10 -143 9 -63 0 -154 4 -201 9 -48 5 -131 6 -185 3 -182 -12
-489 -8 -507 6 -9 8 -20 12 -24 9 -4 -2 -32 -1 -60 2 -33 5 -57 3 -63 -3 -7
-7 -76 -10 -198 -9 -330 5 -366 5 -417 1 -27 -1 -84 1 -127 5 -50 5 -78 5 -83
-2 -3 -6 -16 -11 -28 -11 -338 -6 -466 -9 -482 -10 -35 -1 -259 -2 -285 -1
-14 0 -135 3 -270 7 -134 3 -252 10 -262 15 -9 5 -43 9 -75 9 -32 0 -72 4 -88
9 -17 5 -58 4 -97 -1 -82 -12 -121 2 -126 45 -6 52 7 57 156 55 76 -1 162 4
192 10 51 11 185 11 1085 0 22 0 83 3 135 7 84 6 101 5 144 -14 40 -18 55 -20
81 -11 22 7 59 7 119 1 47 -6 92 -8 99 -6 25 9 214 28 262 27 76 -2 175 -10
225 -18 25 -4 63 -7 85 -5 22 1 53 -2 68 -8 17 -7 34 -7 45 -1 9 5 75 16 146
26 113 15 145 15 265 4 87 -8 177 -10 251 -6 63 4 177 8 252 9 75 1 140 5 144
10 10 10 67 9 139 -3z m1025 -440 c0 -5 -4 -10 -10 -10 -5 0 -10 5 -10 10 0 6
5 10 10 10 6 0 10 -4 10 -10z m2245 -220 c51 -42 58 -139 15 -199 -19 -27 -21
-40 -16 -80 3 -26 1 -69 -5 -96 -19 -85 -21 -122 -10 -129 6 -4 11 -26 11 -49
0 -33 51 -206 67 -226 10 -14 14 26 18 210 5 220 14 359 24 359 16 -1 29 -18
30 -40 0 -14 2 -177 3 -363 2 -264 0 -337 -9 -337 -7 0 -13 7 -13 15 0 8 -4
15 -10 15 -21 0 -50 43 -44 67 7 25 2 25 -55 11 -9 -2 -15 5 -15 18 -1 35
-126 158 -178 176 -16 6 -28 13 -28 16 0 4 -11 20 -25 36 -14 16 -25 33 -25
37 0 13 23 23 55 24 27 0 30 3 31 35 1 53 2 55 23 36 27 -24 48 -11 25 15 -9
10 -23 19 -31 19 -7 0 -13 9 -13 19 0 28 -19 36 -35 15 -13 -18 -15 -18 -42
-2 -34 21 -41 38 -14 38 31 0 35 19 7 30 -39 14 -31 30 14 30 22 0 40 -4 40
-10 0 -18 32 3 41 27 8 21 12 23 24 13 19 -15 28 -9 19 13 -9 25 -60 35 -164
36 -109 0 -300 20 -316 33 -6 4 -18 6 -26 3 -21 -8 -30 66 -15 114 16 48 58
61 207 68 63 3 122 9 130 14 26 14 286 5 305 -11z m-7050 -120 c0 0 83 -2 185
-4 102 -2 214 -9 250 -16 188 -34 228 -44 261 -65 21 -13 39 -35 43 -50 4 -15
19 -45 34 -68 15 -23 32 -53 39 -67 7 -14 17 -32 22 -40 14 -22 48 -101 56
-130 4 -14 13 -32 20 -40 7 -8 20 -38 29 -67 10 -29 28 -68 42 -88 13 -20 24
-39 24 -43 0 -4 9 -13 20 -20 21 -13 26 -47 11 -70 -9 -15 -44 -20 -146 -21
-109 -1 -207 7 -238 18 -32 12 -45 37 -28 54 6 6 11 21 11 34 0 13 4 23 9 23
5 0 16 13 24 29 12 25 13 31 1 43 -15 14 -23 132 -11 144 3 4 1 16 -5 28 -13
24 -21 69 -20 108 1 32 -10 42 -68 56 -62 16 -81 17 -113 9 -15 -4 -33 -5 -39
-1 -6 4 -68 8 -137 9 -120 1 -179 12 -243 46 -10 5 -19 5 -23 -1 -8 -13 -64
-1 -87 19 -14 12 -18 30 -18 86 0 39 5 76 10 81 8 8 85 11 85 4z m7180 -39 c7
-12 -12 -24 -25 -16 -11 7 -4 25 10 25 5 0 11 -4 15 -9z m-3595 -131 c0 -5 -4
-10 -10 -10 -5 0 -10 5 -10 10 0 6 5 10 10 10 6 0 10 -4 10 -10z m3214 -174
c-6 -15 -34 -30 -41 -22 -5 5 26 36 37 36 5 0 7 -6 4 -14z m-1279 -6 c-3 -5
-11 -10 -16 -10 -6 0 -7 5 -4 10 3 6 11 10 16 10 6 0 7 -4 4 -10z m-1637 -57
c-15 -18 -21 -9 -13 18 6 16 9 18 16 8 4 -8 3 -19 -3 -26z m2172 22 c0 -8 -4
-15 -9 -15 -13 0 -22 16 -14 24 11 11 23 6 23 -9z m50 -46 c0 -12 -27 -11 -35
1 -11 17 5 32 21 19 8 -6 14 -15 14 -20z m-1960 17 c0 -3 -4 -8 -10 -11 -5 -3
-10 -1 -10 4 0 6 5 11 10 11 6 0 10 -2 10 -4z m-122 -26 c-7 -11 -18 -22 -25
-25 -9 -3 -8 4 3 20 19 29 40 34 22 5z m-333 -70 c-10 -11 -20 -18 -23 -15 -7
6 18 35 31 35 5 0 2 -9 -8 -20z m240 0 c-3 -5 -11 -10 -16 -10 -6 0 -7 5 -4
10 3 6 11 10 16 10 6 0 7 -4 4 -10z m2105 -20 c-8 -5 -19 -10 -25 -10 -5 0 -3
5 5 10 8 5 20 10 25 10 6 0 3 -5 -5 -10z m-35 -20 c3 -5 1 -10 -4 -10 -6 0
-11 5 -11 10 0 6 2 10 4 10 3 0 8 -4 11 -10z m-2695 -15 c0 -8 -4 -15 -9 -15
-5 0 -11 7 -15 15 -3 9 0 15 9 15 8 0 15 -7 15 -15z m535 -4 c-3 -5 -24 -24
-48 -43 l-42 -33 35 42 c19 24 41 43 48 43 7 0 11 -4 7 -9z m-649 -107 c-3 -8
-10 -14 -16 -14 -14 0 -13 43 3 59 10 10 13 8 15 -9 2 -12 1 -28 -2 -36z m317
12 c-10 -13 -19 -20 -21 -16 -2 5 -10 6 -18 3 -8 -3 -14 -2 -14 1 0 6 55 34
68 36 2 0 -5 -11 -15 -24z m-3073 -1 c62 -9 160 -47 160 -62 0 -7 -7 -13 -15
-13 -8 0 -15 7 -15 15 0 8 -4 15 -10 15 -5 0 -10 -6 -10 -14 0 -8 -10 -22 -22
-30 -31 -22 -292 -23 -364 -1 -97 29 -110 62 -26 69 23 2 48 8 55 14 7 6 44
13 82 15 72 3 88 3 165 -8z m4270 -32 c0 -8 -95 -73 -106 -73 -3 0 -17 -9 -31
-20 -31 -24 -43 -25 -43 -5 0 8 -5 15 -11 15 -40 0 73 67 132 79 60 12 59 12
59 4z m-1596 -57 c-6 -16 -24 -23 -24 -8 0 10 22 33 27 28 2 -2 1 -11 -3 -20z
m252 -35 c-9 -10 -16 -25 -16 -34 0 -9 -4 -19 -10 -22 -5 -3 -10 -17 -10 -31
0 -13 -4 -24 -9 -24 -12 0 -2 109 11 130 8 12 9 12 4 -2 -3 -11 0 -18 9 -18 7
0 17 10 21 23 4 13 9 17 12 9 2 -7 -3 -21 -12 -31z m2966 11 c-13 -9 -38 -29
-55 -43 -40 -33 -64 -45 -105 -52 -45 -9 -32 7 26 33 26 12 58 32 72 44 26 25
45 34 70 35 10 0 7 -6 -8 -17z m-3284 -38 c-7 -15 -14 -21 -16 -15 -2 7 2 18
8 26 18 22 21 18 8 -11z m1452 -8 c0 -3 -4 -8 -10 -11 -5 -3 -10 -1 -10 4 0 6
5 11 10 11 6 0 10 -2 10 -4z m-660 -35 c0 -5 -7 -12 -16 -15 -14 -5 -15 -4 -4
9 14 17 20 19 20 6z m-804 -26 c4 -14 5 -28 3 -30 -16 -14 -82 1 -76 19 3 11
44 36 59 36 4 0 10 -11 14 -25z m184 -11 c0 -8 -5 -12 -10 -9 -6 4 -8 11 -5
16 9 14 15 11 15 -7z m-108 -29 c0 -5 -5 -11 -11 -13 -6 -2 -11 4 -11 13 0 9
5 15 11 13 6 -2 11 -8 11 -13z m216 -30 c1 -25 -3 -45 -7 -45 -12 0 -23 48
-16 71 11 33 22 21 23 -26z m1130 20 c-6 -14 -13 -23 -16 -21 -7 7 9 46 18 46
5 0 4 -11 -2 -25z m-1242 -30 c-23 -35 -21 -82 4 -95 23 -12 27 -30 6 -30 -7
0 -16 9 -19 20 -3 11 -13 20 -22 20 -13 0 -16 5 -11 23 4 12 10 39 13 59 3 23
12 38 22 40 23 5 25 -9 7 -37z m1624 7 c0 -24 -72 -58 -112 -53 -10 1 -28 -5
-40 -13 -25 -18 -52 -21 -43 -6 4 6 25 22 47 36 31 20 43 23 48 13 6 -9 15 -7
37 9 28 22 63 29 63 14z m-1860 -36 c0 -2 -11 -6 -25 -8 -14 -3 -25 -1 -25 3
0 5 11 9 25 9 14 0 25 -2 25 -4z m1260 -11 c0 -8 -4 -15 -9 -15 -5 0 -16 -3
-25 -6 -10 -4 -16 -1 -16 9 0 13 13 21 43 26 4 0 7 -6 7 -14z m-366 -69 c-29
-17 -64 -25 -64 -15 0 14 74 49 79 37 2 -6 -5 -16 -15 -22z m121 24 c-3 -5
-17 -10 -31 -10 -14 0 -22 4 -19 10 3 6 17 10 31 10 14 0 22 -4 19 -10z m-855
-30 c-12 -16 -23 -30 -26 -30 -9 0 -3 17 14 38 26 33 36 26 12 -8z m1027 3
c-15 -16 -17 -16 -17 -1 0 9 6 18 13 21 20 7 22 -2 4 -20z m423 -18 c-38 -39
-80 -59 -80 -39 0 12 96 82 115 83 5 1 -11 -19 -35 -44z m-1060 15 c0 -5 -4
-10 -10 -10 -5 0 -10 5 -10 10 0 6 5 10 10 10 6 0 10 -4 10 -10z m570 -6 c-8
-8 -23 -20 -34 -25 -15 -7 -13 -3 7 15 31 29 47 35 27 10z m-323 -8 c-10 -8
-34 -14 -53 -14 -19 0 -46 -8 -60 -17 -19 -12 -29 -14 -37 -6 -15 15 -5 22 40
28 21 3 45 9 53 14 8 4 29 8 45 8 28 0 29 -1 12 -13z m688 -36 c3 -5 1 -10 -4
-10 -6 0 -11 5 -11 10 0 6 2 10 4 10 3 0 8 -4 11 -10z m-58 -6 c-3 -3 -12 -4
-19 -1 -8 3 -5 6 6 6 11 1 17 -2 13 -5z m1123 -4 c0 -5 -4 -10 -10 -10 -5 0
-10 5 -10 10 0 6 5 10 10 10 6 0 10 -4 10 -10z m-1960 -15 c0 -8 5 -15 10 -15
6 0 10 -7 10 -15 0 -8 6 -15 14 -15 8 0 23 -11 33 -25 15 -20 30 -26 81 -31
44 -5 60 -10 53 -17 -6 -6 -11 -19 -11 -28 0 -21 -47 -39 -85 -31 -38 7 -55
-18 -55 -80 l0 -48 35 5 c20 2 40 7 45 10 17 10 50 -5 50 -23 0 -25 41 -62 70
-62 35 0 42 8 27 31 -6 10 -8 21 -4 25 13 13 127 18 127 5 0 -15 31 -13 53 3
15 12 15 15 2 26 -31 26 -5 58 36 45 22 -7 25 -25 7 -43 -9 -9 -7 -17 10 -35
12 -13 22 -26 22 -30 0 -11 -78 -8 -85 3 -12 19 -41 10 -71 -21 -18 -19 -36
-28 -47 -25 -10 2 -17 0 -15 -6 5 -13 33 -21 63 -19 95 7 140 5 138 -5 -3 -16
47 -24 90 -15 20 5 39 6 42 3 3 -4 10 0 15 8 7 11 11 11 23 1 10 -8 17 -9 22
-1 11 18 -6 32 -31 26 -31 -8 -131 41 -116 56 8 8 23 6 52 -6 22 -9 52 -16 65
-16 14 0 33 -4 43 -9 41 -21 69 -30 97 -33 l30 -3 -22 -20 c-13 -13 -23 -35
-25 -60 -3 -36 0 -40 21 -43 13 -2 28 1 34 7 19 19 47 12 59 -14 11 -25 28
-34 28 -15 0 27 46 5 94 -45 29 -30 62 -55 72 -55 11 0 25 -5 32 -12 9 -9 12
-9 12 3 0 8 -14 26 -31 38 l-31 23 21 19 c26 24 35 24 28 -1 -3 -11 -1 -23 4
-26 9 -5 13 2 23 47 7 34 46 47 53 18 3 -10 9 -19 14 -19 5 0 7 11 3 25 -5 20
-2 25 13 25 10 0 24 -5 31 -12 9 -9 15 -8 25 6 10 13 20 16 35 12 12 -4 22
-12 22 -17 0 -5 18 -9 40 -9 24 0 40 5 40 12 0 6 2 9 5 7 10 -10 -17 -79 -30
-79 -8 0 -15 7 -15 15 0 9 -9 15 -21 15 -27 0 -22 -33 6 -38 11 -2 34 -10 52
-18 54 -25 90 -12 57 21 -42 42 35 41 119 -1 16 -8 37 -14 47 -14 10 0 20 -3
22 -7 9 -21 161 -78 179 -67 4 2 11 0 14 -6 4 -7 31 -8 73 -5 91 9 100 9 159
-2 37 -7 54 -7 58 1 2 6 3 2 0 -9 -3 -14 3 -23 22 -32 35 -17 43 -16 43 2 0
12 3 13 19 3 11 -7 17 -16 15 -20 -11 -18 8 -27 29 -14 12 8 45 15 72 16 84 4
85 4 85 -35 0 -35 -26 -78 -42 -69 -15 9 -8 -73 7 -86 17 -15 20 -50 4 -50 -8
0 -8 -4 0 -14 6 -7 9 -21 5 -30 -3 -9 -1 -22 5 -30 8 -9 8 -28 1 -66 -5 -29
-10 -54 -10 -56 0 -2 -5 -4 -10 -4 -6 0 -9 23 -6 57 4 56 -16 133 -34 133 -12
0 -20 -40 -20 -106 0 -36 -6 -68 -14 -79 -11 -15 -11 -25 -4 -39 8 -15 8 -21
-1 -24 -17 -6 -13 -39 5 -46 13 -5 15 -19 11 -73 -2 -39 -9 -69 -15 -71 -7 -2
-12 -11 -12 -20 -1 -15 -2 -15 -11 1 -5 9 -14 17 -19 17 -13 0 0 -103 15 -115
14 -12 25 -74 14 -80 -4 -3 -23 2 -42 10 -40 17 -47 10 -47 -51 0 -19 -5 -34
-11 -34 -7 0 -9 -10 -4 -27 4 -16 10 -71 14 -123 l6 -95 -40 4 c-24 2 -45 11
-53 22 -18 26 -25 24 -47 -17 -12 -23 -15 -38 -8 -42 5 -4 18 -21 26 -39 15
-28 15 -34 2 -60 -33 -63 -2 -99 33 -38 10 17 11 18 12 2 0 -9 3 -16 8 -15 10
4 11 -7 5 -32 -4 -16 -14 -20 -52 -21 -46 -1 -50 -1 -85 9 -13 3 -17 1 -12 -6
9 -15 1 -15 -25 -2 -10 6 -19 19 -19 29 0 10 -7 32 -15 47 -8 16 -15 37 -15
47 0 9 -7 17 -15 17 -8 0 -15 6 -15 14 0 27 -73 36 -127 15 -26 -10 -72 -15
-155 -18 -22 0 -45 -9 -55 -20 -10 -10 -36 -21 -58 -25 -22 -4 -60 -13 -85
-21 -45 -14 -199 -35 -254 -35 -15 0 -34 -4 -41 -10 -6 -5 -44 -26 -83 -45
-55 -28 -78 -47 -102 -82 -35 -52 -33 -65 6 -34 37 29 44 17 11 -17 -15 -15
-30 -42 -33 -60 -6 -31 -24 -55 -24 -33 0 22 -20 10 -26 -15 -11 -45 -56 -104
-83 -111 -33 -7 -52 -23 -45 -35 3 -5 -6 -24 -20 -43 -14 -18 -26 -41 -26 -49
0 -9 -6 -16 -13 -16 -20 0 -51 -74 -43 -104 3 -14 0 -44 -8 -67 -8 -24 -13
-46 -10 -51 3 -4 -2 -22 -10 -40 -8 -19 -16 -70 -18 -115 -2 -46 -6 -83 -9
-83 -13 0 -19 -93 -8 -107 9 -10 8 -23 -6 -53 -10 -22 -22 -40 -27 -40 -4 0
-8 -7 -8 -15 0 -9 -7 -18 -15 -21 -17 -7 -20 -49 -5 -59 12 -8 2 -54 -16 -75
-13 -15 -24 -160 -14 -190 3 -10 -1 -14 -12 -12 -11 2 -18 -3 -18 -13 0 -8 7
-15 15 -15 21 0 19 -28 -2 -32 -13 -2 -11 -9 14 -33 l30 -30 -2 -125 c-2 -108
-6 -131 -26 -172 -12 -27 -27 -48 -33 -48 -15 0 -66 -52 -66 -67 0 -7 -4 -13
-10 -13 -5 0 -7 -7 -4 -15 4 -9 0 -15 -9 -15 -14 0 -27 -20 -27 -41 0 -6 17
-9 37 -7 29 2 38 -1 41 -14 4 -19 -35 -41 -73 -42 -10 -1 -25 -12 -32 -26 -11
-22 -13 -22 -13 -5 0 21 -65 73 -77 62 -3 -4 -12 -2 -19 4 -7 6 -26 8 -43 6
-26 -5 -30 -2 -33 21 -2 15 -9 26 -15 25 -7 -2 -13 1 -13 6 0 6 -10 21 -23 35
-22 23 -26 24 -68 14 -24 -6 -55 -11 -68 -12 -18 -1 -27 -9 -35 -33 -6 -18
-22 -40 -36 -50 -14 -9 -30 -24 -36 -32 -10 -13 -16 -13 -40 -3 -23 11 -29 11
-36 -2 -12 -21 -39 -21 -32 -1 8 20 -9 19 -57 -4 -38 -19 -40 -19 -34 -1 13
40 -27 32 -120 -25 -22 -13 -44 -20 -50 -16 -15 13 -70 -23 -73 -47 -2 -12 1
-22 6 -22 6 0 8 -9 5 -20 -5 -18 0 -20 36 -20 55 0 63 -21 22 -56 -51 -42 -35
-75 18 -37 23 16 24 16 19 -5 -4 -12 -2 -20 3 -16 5 3 9 1 9 -4 0 -5 -20 -17
-45 -26 -36 -14 -45 -22 -45 -42 0 -15 6 -24 16 -24 13 0 15 -7 9 -42 -4 -24
-12 -49 -17 -56 -8 -8 -6 -12 4 -12 22 0 49 35 43 52 -7 18 39 58 66 58 12 0
19 7 19 20 0 11 -6 20 -14 20 -30 0 -24 18 21 63 50 51 68 58 76 27 3 -11 21
-27 41 -35 20 -9 47 -32 61 -53 39 -59 116 -98 215 -109 25 -3 68 -16 97 -29
28 -13 66 -24 83 -24 18 0 33 -6 36 -15 4 -8 15 -15 25 -15 10 0 19 -6 19 -12
0 -9 4 -8 10 2 7 11 14 12 27 5 18 -11 74 -11 127 0 15 3 33 2 40 -3 16 -13
78 -13 94 0 19 16 62 -10 62 -38 0 -19 7 -23 58 -30 64 -10 110 -8 126 5 6 5
38 12 71 16 33 4 67 13 75 20 17 15 61 30 74 26 5 -1 13 3 17 10 7 13 28 17
91 18 27 1 44 9 63 28 14 15 25 33 25 39 0 25 51 -10 57 -39 5 -26 9 -28 34
-23 52 10 85 -16 80 -61 -1 -6 3 -14 9 -18 5 -3 10 -15 10 -26 0 -11 6 -22 14
-25 8 -3 16 -15 20 -26 4 -18 7 -19 20 -8 18 14 21 46 6 55 -13 8 -8 84 7 110
15 26 22 18 24 -30 2 -22 8 -48 15 -58 11 -17 12 -16 17 5 3 13 9 44 12 71 6
41 5 46 -9 41 -13 -5 -16 1 -16 29 0 19 -7 40 -15 47 -9 8 -13 21 -9 36 5 18
-1 30 -27 51 -29 25 -95 41 -83 21 3 -4 1 -8 -5 -8 -19 0 -22 20 -7 36 9 9 14
20 10 25 -7 13 -24 1 -24 -17 0 -17 -41 -19 -58 -2 -7 7 -12 20 -12 30 0 25
-44 41 -112 40 -32 0 -71 5 -87 11 -25 9 -33 8 -49 -6 -19 -18 -44 -22 -56
-10 -12 12 -80 11 -89 -1 -5 -7 -7 -2 -4 11 3 11 -4 34 -14 50 -10 15 -19 40
-19 54 0 14 -9 34 -19 43 -19 17 -20 17 -32 -6 -24 -45 -20 2 4 51 18 34 22
52 15 59 -8 8 -1 23 21 51 18 23 36 41 39 41 4 0 13 13 19 28 7 15 30 46 51
67 48 51 85 168 60 193 -6 6 -11 29 -11 51 0 23 -6 46 -13 52 -8 6 -14 19 -14
29 0 10 -7 20 -15 24 -8 3 -15 17 -15 32 0 30 31 127 43 132 11 5 9 50 -3 57
-15 9 -13 92 3 97 14 5 16 19 23 137 4 59 2 86 -6 91 -8 5 0 21 26 51 22 23
33 39 25 34 -11 -6 -13 -4 -8 9 4 9 0 30 -8 46 -8 16 -15 45 -15 65 0 19 -5
35 -11 35 -14 0 -10 175 5 210 12 28 36 56 36 43 0 -5 -5 -14 -11 -20 -6 -6
-9 -23 -7 -39 2 -22 9 -30 28 -32 14 -2 30 -8 35 -12 6 -4 36 -15 67 -25 52
-15 59 -15 95 0 l38 16 -30 22 c-43 32 -96 49 -112 35 -17 -14 -39 -4 -46 21
-4 17 -1 21 17 21 14 0 27 9 34 24 6 14 23 33 39 43 15 10 46 35 69 56 24 21
60 48 81 59 37 21 143 50 143 40 0 -2 -15 -22 -34 -43 -59 -64 -67 -140 -22
-204 37 -54 109 -97 162 -97 70 0 156 74 184 160 17 53 30 54 30 2 0 -22 3
-39 8 -38 9 4 12 -5 12 -35 0 -25 -30 -67 -48 -67 -6 0 -21 -14 -33 -31 -16
-23 -27 -30 -46 -26 -13 2 -26 0 -29 -4 -10 -16 -54 -10 -54 7 0 12 -4 11 -19
-7 -16 -20 -21 -21 -35 -10 -14 12 -16 10 -16 -17 0 -37 29 -57 66 -48 17 5
26 2 30 -9 7 -16 54 -21 54 -5 0 6 9 10 19 10 11 0 23 -4 26 -10 3 -5 17 -10
31 -10 19 0 24 -5 24 -27 1 -31 21 -63 39 -63 6 0 11 7 11 15 0 8 9 15 21 15
11 0 30 5 42 12 33 18 90 37 97 33 4 -3 22 0 41 5 22 7 35 6 40 -1 3 -6 9 1
11 15 6 30 -7 43 -27 26 -10 -8 -15 -8 -20 0 -12 20 13 34 55 32 33 -2 45 2
67 27 56 60 70 77 82 100 12 21 18 23 58 17 56 -7 93 1 93 23 0 9 9 31 20 49
22 36 52 42 88 16 14 -9 33 -14 46 -10 15 4 28 0 36 -9 7 -8 18 -15 25 -15 8
0 11 -8 8 -20 -4 -14 0 -20 11 -20 23 0 20 -21 -4 -27 -17 -4 -19 -11 -13 -49
5 -36 3 -44 -10 -44 -11 0 -17 -12 -19 -42 -2 -28 -7 -42 -15 -41 -8 2 -13 -9
-14 -30 -1 -45 -7 -75 -21 -100 -6 -12 -13 -31 -14 -42 -3 -29 -21 -66 -45
-97 -13 -16 -24 -46 -27 -77 -4 -41 -8 -51 -23 -51 -22 0 -24 -11 -6 -29 10
-10 9 -14 -5 -22 -12 -6 -18 -22 -18 -43 0 -19 -6 -39 -14 -45 -7 -6 -16 -24
-19 -39 -3 -15 -15 -37 -26 -49 -12 -12 -21 -29 -21 -38 0 -17 -18 -19 -54 -5
-23 8 -26 7 -26 -10 0 -13 7 -20 20 -20 11 0 20 -2 20 -4 0 -2 3 -11 6 -20 4
-12 0 -16 -15 -16 -12 0 -21 6 -21 13 0 6 -6 3 -12 -8 -6 -11 -19 -28 -29 -38
-11 -10 -19 -27 -19 -39 0 -27 -27 -58 -51 -58 -25 0 -100 -30 -121 -48 -10
-8 -18 -29 -18 -47 0 -17 -5 -36 -12 -43 -9 -9 -9 -17 -1 -34 6 -13 14 -36 17
-53 3 -16 3 -25 0 -18 -10 24 -34 1 -34 -33 0 -18 -11 -66 -24 -106 -32 -100
-39 -131 -26 -123 5 3 15 -6 20 -20 5 -14 14 -23 20 -20 16 10 12 -15 -6 -32
-14 -15 -14 -17 0 -25 9 -5 16 -15 16 -23 0 -8 7 -18 15 -22 9 -6 15 -26 16
-56 1 -26 6 -47 11 -47 4 0 8 5 8 10 0 6 6 10 13 10 27 0 39 44 34 133 -2 48
0 87 5 87 4 0 8 -24 8 -53 0 -40 5 -57 20 -70 11 -9 24 -17 29 -17 17 0 21
-50 6 -80 -8 -16 -15 -35 -15 -42 0 -22 -59 -71 -77 -64 -20 8 -73 -15 -73
-32 0 -7 -4 -22 -10 -32 -14 -26 -58 -5 -52 25 4 25 -19 48 -44 43 -26 -5 -28
-24 -6 -46 20 -20 20 -20 1 -41 -10 -11 -19 -25 -19 -31 0 -6 -13 -13 -30 -16
-16 -4 -30 -10 -30 -15 0 -4 -9 -11 -20 -14 -11 -3 -20 -15 -20 -25 0 -26 -20
-71 -44 -98 -15 -17 -17 -25 -8 -34 15 -15 16 -48 1 -48 -5 0 -7 -5 -4 -10 4
-6 -5 -24 -19 -41 -15 -17 -24 -35 -21 -39 3 -5 1 -11 -5 -15 -5 -3 -10 -15
-10 -25 0 -25 -26 -50 -52 -50 -30 0 -58 -28 -58 -59 -1 -41 -41 -65 -96 -56
-24 3 -46 10 -49 16 -10 15 -23 10 -30 -10 -4 -13 -12 -17 -25 -14 -14 4 -20
0 -20 -10 0 -8 4 -17 8 -19 9 -3 24 -78 17 -78 -18 0 -54 26 -58 42 -3 11 -10
17 -16 14 -6 -4 -8 -13 -5 -20 6 -17 -64 -79 -82 -72 -8 3 -18 -4 -24 -14 -12
-22 -41 -26 -71 -9 -17 8 -24 6 -40 -15 -21 -27 -57 -34 -76 -15 -15 15 -33 3
-33 -24 -1 -27 -24 -60 -35 -49 -4 4 -6 -3 -3 -14 6 -22 -5 -26 -30 -10 -17
10 -42 -11 -42 -35 0 -24 -18 -25 -27 -1 -4 9 -15 23 -25 30 -13 9 -17 21 -13
35 5 16 4 18 -3 8 -5 -7 -14 -11 -19 -8 -6 4 -19 0 -29 -8 -10 -8 -26 -15 -35
-15 -9 0 -24 -9 -34 -20 -24 -27 -38 -25 -31 4 4 16 1 26 -9 30 -8 3 -15 17
-15 31 l0 26 -32 -18 c-18 -10 -41 -18 -52 -19 -17 -1 -18 4 -13 62 5 53 4 62
-8 57 -19 -7 -19 0 3 40 27 51 58 87 76 87 17 0 22 15 7 24 -5 4 -5 22 1 43
18 70 20 93 10 93 -6 0 -14 -9 -17 -21 -7 -22 -30 -21 -30 2 0 7 -9 15 -20 17
-11 2 -28 11 -37 19 -10 9 -29 17 -43 19 -14 1 -32 7 -38 13 -7 5 -30 10 -52
10 -22 1 -65 2 -95 3 -64 2 -101 -6 -115 -25 -5 -8 -15 -12 -21 -10 -13 4 -26
-45 -14 -49 4 -2 4 -25 0 -51 -6 -40 -5 -47 8 -42 21 8 9 -60 -23 -124 -21
-40 -23 -54 -14 -69 9 -14 7 -26 -10 -57 -13 -24 -21 -33 -21 -21 0 12 -5 16
-15 12 -20 -7 -19 8 1 39 16 25 11 31 -20 26 -4 -1 -14 3 -21 9 -8 7 -22 5
-44 -6 -32 -16 -58 -11 -31 6 8 5 12 12 8 15 -9 10 -55 -41 -62 -69 -3 -14
-20 -33 -36 -43 -17 -9 -30 -21 -30 -26 0 -5 -7 -2 -15 7 -10 10 -13 24 -9 39
7 31 -9 42 -35 25 -29 -18 -37 -3 -12 23 23 25 27 39 10 39 -6 0 -8 7 -5 16 5
12 1 14 -15 9 -20 -7 -21 -5 -14 31 7 38 6 38 -12 21 -26 -23 -33 -22 -33 6
-1 21 -1 21 -15 3 -22 -29 -30 -11 -18 37 7 25 8 43 2 45 -5 2 -9 12 -9 23 0
23 -16 25 -36 4 -9 -8 -22 -15 -29 -15 -21 0 0 61 28 82 18 14 20 19 9 30 -11
11 -17 9 -32 -10 -16 -19 -25 -22 -60 -16 -34 6 -40 10 -35 25 5 14 2 17 -8
13 -23 -8 -29 11 -9 29 98 88 115 115 53 82 -27 -14 -31 -14 -31 0 0 8 -7 15
-15 15 -8 0 -15 5 -15 11 0 7 -12 9 -34 5 -32 -6 -35 -5 -47 29 -7 19 -16 35
-21 35 -4 0 -12 19 -18 43 -6 23 -17 54 -26 69 -24 44 -53 140 -54 176 0 17
-4 32 -10 32 -5 0 -10 16 -10 36 0 19 -6 42 -14 49 -7 7 -16 39 -20 71 -4 32
-11 63 -17 70 -5 6 -12 36 -16 65 -3 30 -10 59 -15 66 -6 7 -6 18 0 29 5 9 6
28 1 43 -5 14 -11 39 -14 55 -6 26 -7 27 -24 12 -10 -9 -25 -16 -34 -16 -9 0
-17 -4 -17 -9 0 -13 -59 -19 -63 -7 -2 6 3 30 12 54 12 32 21 42 37 42 15 0
21 -6 20 -17 -1 -22 43 -31 55 -11 14 21 10 38 -6 32 -17 -7 -20 11 -4 22 16
9 4 289 -17 414 -8 52 -18 109 -20 125 -2 17 -11 64 -19 106 -24 129 -34 303
-34 564 -1 277 14 655 29 755 5 36 14 99 20 140 17 120 30 202 40 240 18 73
32 169 25 179 -3 6 0 9 7 6 10 -4 13 15 14 81 1 79 13 145 35 186 5 10 9 32 9
50 0 18 8 47 18 63 10 17 28 55 40 86 19 51 19 58 5 72 -14 14 -13 18 8 49 28
39 34 72 11 63 -15 -5 35 67 50 73 4 2 8 13 8 24 0 14 -5 18 -15 15 -33 -13
-25 18 14 55 22 22 41 45 41 53 0 7 7 15 15 19 8 3 15 14 15 25 0 11 5 23 10
26 6 3 10 17 10 31 0 24 16 64 30 74 19 14 60 88 60 107 0 22 4 25 40 27 8 1
15 8 15 16 0 21 53 110 128 214 8 12 18 16 26 12 9 -6 8 -12 -4 -26 -16 -17
-15 -19 4 -29 25 -14 41 -14 21 -1 -12 8 -11 10 8 10 17 0 22 6 22 25 0 14 5
25 10 25 6 0 10 6 8 13 -2 6 7 26 18 42 12 17 23 36 26 44 3 12 6 12 18 0 11
-12 21 -13 52 -5 20 5 40 7 44 3 11 -11 7 -59 -6 -67 -11 -7 -10 -12 3 -24 11
-11 18 -13 23 -5 7 12 73 3 89 -12 13 -13 55 -11 55 2 0 18 -53 54 -80 54 -20
0 -25 4 -22 23 1 16 -4 25 -16 29 -29 7 -17 53 14 53 15 0 24 -6 24 -15z
m-244 -21 c-3 -9 -6 -18 -6 -20 0 -2 -7 -4 -15 -4 -18 0 -19 12 -3 28 17 17
31 15 24 -4z m1104 -28 c0 -15 -18 -31 -26 -23 -7 7 7 37 17 37 5 0 9 -6 9
-14z m51 -1 c-1 -15 -24 -12 -29 3 -3 9 2 13 12 10 10 -1 17 -7 17 -13z
m-1251 -19 c0 -2 -8 -10 -17 -17 -16 -13 -17 -12 -4 4 13 16 21 21 21 13z
m-351 -63 c57 12 100 -67 51 -93 -11 -6 -20 -17 -20 -25 0 -17 26 -20 35 -5
10 16 25 1 25 -23 0 -29 -43 -51 -57 -29 -14 23 -30 7 -49 -51 -9 -28 -26 -70
-37 -92 l-21 -40 -7 34 c-7 34 -1 69 20 109 27 53 31 62 31 73 0 6 7 17 15 25
17 17 20 60 5 69 -5 3 -25 -1 -45 -9 -39 -17 -42 -12 -20 41 13 30 17 33 30
23 9 -7 27 -10 44 -7z m1827 -23 c15 -6 24 -13 21 -16 -8 -9 -77 7 -71 17 7
12 17 11 50 -1z m-378 -40 c20 0 23 -3 14 -12 -11 -11 -80 -13 -91 -2 -9 8 23
24 37 19 8 -3 25 -5 40 -5z m-163 -19 c-3 -6 -11 -11 -17 -11 -6 0 -6 6 2 15
14 17 26 13 15 -4z m-115 -1 c0 -5 -7 -10 -16 -10 -8 0 -12 5 -9 10 3 6 10 10
16 10 5 0 9 -4 9 -10z m96 -48 c-3 -5 -14 -12 -25 -15 -15 -4 -18 -1 -13 12 3
9 10 19 16 23 13 9 30 -7 22 -20z m364 -3 c0 -5 -7 -9 -15 -9 -15 0 -20 12 -9
23 8 8 24 -1 24 -14z m-1703 -1 c-14 -39 -27 -88 -32 -120 -3 -21 -10 -38 -15
-38 -6 0 -10 -12 -10 -26 0 -20 4 -25 16 -20 12 5 15 2 10 -10 -3 -8 -6 -21
-6 -27 0 -7 -8 -3 -16 8 -15 20 -16 20 -12 -2 2 -14 -7 -30 -25 -45 -18 -16
-29 -37 -33 -64 -4 -31 -3 -35 6 -21 6 9 19 17 29 17 10 0 24 7 31 15 21 26
21 11 0 -33 -11 -22 -20 -47 -20 -55 0 -7 -11 -24 -25 -37 -15 -14 -25 -35
-25 -51 0 -15 -4 -31 -10 -34 -5 -3 -10 -10 -10 -16 0 -5 5 -9 10 -9 6 0 10 6
10 13 0 8 11 24 25 37 14 13 25 28 25 34 0 6 9 22 20 36 19 24 20 24 20 4 0
-11 -9 -29 -20 -39 -11 -10 -20 -24 -20 -31 0 -7 -6 -19 -13 -26 -31 -30 -52
-109 -29 -108 12 1 57 43 85 83 16 20 32 37 38 37 19 0 8 -26 -26 -62 -19 -20
-35 -41 -35 -47 0 -5 -11 -18 -24 -28 -18 -15 -26 -35 -33 -82 -11 -71 -1 -88
24 -37 9 20 23 36 30 36 20 0 16 -19 -16 -69 -46 -71 -68 -155 -65 -235 3 -56
0 -76 -16 -102 -11 -17 -18 -38 -15 -46 3 -8 -1 -33 -10 -57 -9 -26 -15 -77
-15 -125 0 -51 -5 -87 -12 -94 -16 -16 -66 -222 -56 -228 5 -3 5 -10 2 -16
-11 -17 -24 13 -24 54 0 20 -5 40 -10 43 -6 4 -8 15 -5 25 3 10 1 21 -5 25 -5
3 -10 16 -10 29 0 27 -34 134 -62 193 -26 56 -19 76 54 144 l59 56 4 91 c1 51
-1 94 -6 97 -4 3 -6 19 -2 35 4 23 2 30 -11 30 -18 0 -22 15 -6 25 5 3 9 20 8
38 -1 18 2 44 6 60 7 21 5 27 -8 27 -18 0 -21 11 -7 26 16 17 30 73 20 79 -15
10 -10 51 9 76 11 13 22 37 26 52 6 25 4 28 -12 22 -26 -8 -40 25 -16 38 33
19 54 48 54 75 0 15 11 43 25 62 14 19 25 41 25 49 0 8 9 24 19 35 11 12 21
33 23 47 2 15 9 33 15 40 6 8 28 47 47 87 20 39 42 72 47 72 6 0 9 -6 6 -12z
m1803 -48 c0 -10 -80 -30 -123 -30 -18 0 -42 7 -53 15 -22 17 -60 20 -69 5 -3
-5 -18 -10 -33 -10 -53 0 -4 22 60 27 34 3 86 8 113 12 49 7 105 -3 105 -19z
m545 0 c3 -5 -3 -10 -14 -10 -12 0 -21 5 -21 10 0 6 6 10 14 10 8 0 18 -4 21
-10z m-2183 -127 c3 -55 0 -73 -9 -73 -10 0 -13 21 -13 78 0 43 3 82 8 86 9 9
10 1 14 -91z m-1841 -5 c38 -11 39 -12 39 -59 0 -33 -4 -49 -16 -53 -26 -10
-79 -7 -92 6 -17 17 -15 78 5 100 19 21 16 21 64 6z m-861 -23 c14 -13 19 -13
23 -3 4 9 6 9 6 -2 1 -9 16 -21 34 -28 27 -10 37 -21 47 -55 8 -23 17 -46 20
-52 13 -18 9 -80 -6 -103 -12 -19 -18 -21 -29 -12 -10 8 -12 17 -5 29 10 20 1
101 -12 101 -5 0 -6 5 -3 11 8 12 -23 49 -42 49 -7 0 -13 6 -13 14 0 20 -133
22 -150 1 -7 -8 -18 -15 -25 -15 -7 0 -15 -7 -19 -15 -5 -14 -46 -22 -46 -9 0
17 85 100 108 106 39 9 92 1 112 -17z m4630 5 c0 -5 -7 -10 -15 -10 -8 0 -15
5 -15 10 0 6 7 10 15 10 8 0 15 -4 15 -10z m160 0 c0 -5 -11 -10 -25 -10 -14
0 -25 5 -25 10 0 6 11 10 25 10 14 0 25 -4 25 -10z m-295 -40 c3 -5 1 -10 -4
-10 -6 0 -11 5 -11 10 0 6 2 10 4 10 3 0 8 -4 11 -10z m-1945 -35 c-7 -9 -15
-13 -18 -10 -3 2 1 11 8 20 7 9 15 13 18 10 3 -2 -1 -11 -8 -20z m2380 15 c0
-5 -9 -10 -19 -10 -11 0 -23 5 -26 10 -4 6 5 10 19 10 14 0 26 -4 26 -10z m72
-38 c-19 -6 -44 6 -37 18 4 7 14 6 28 -2 14 -7 17 -13 9 -16z m-4922 -202 c0
-5 -4 -10 -10 -10 -5 0 -10 5 -10 10 0 6 5 10 10 10 6 0 10 -4 10 -10z m6060
-221 c0 -5 -4 -9 -10 -9 -5 0 -10 7 -10 16 0 8 5 12 10 9 6 -3 10 -10 10 -16z
m325 -159 c3 -5 1 -10 -4 -10 -6 0 -11 5 -11 10 0 6 2 10 4 10 3 0 8 -4 11
-10z m-727 -78 c2 -7 -5 -12 -17 -12 -14 0 -19 5 -14 15 6 17 25 15 31 -3z
m852 -52 c0 -9 -23 -30 -32 -30 -4 0 -8 9 -8 19 0 14 6 19 20 18 11 -1 20 -4
20 -7z m85 -10 c3 -5 1 -10 -4 -10 -6 0 -11 5 -11 10 0 6 2 10 4 10 3 0 8 -4
11 -10z m215 -65 c0 -19 -4 -37 -10 -40 -6 -4 -10 12 -10 40 0 28 4 44 10 40
6 -3 10 -21 10 -40z m-280 -23 c0 -40 -14 -71 -26 -59 -14 14 -16 90 -3 98 20
12 29 1 29 -39z m90 39 c0 -6 -4 -13 -10 -16 -5 -3 -10 1 -10 9 0 9 5 16 10
16 6 0 10 -4 10 -9z m-200 -25 c0 -8 -4 -18 -10 -21 -5 -3 -10 3 -10 14 0 12
5 21 10 21 6 0 10 -6 10 -14z m-65 -83 c-8 -109 -11 -119 -29 -104 -12 10 -12
19 0 58 8 25 14 66 14 90 0 23 5 43 11 43 7 0 8 -29 4 -87z m-735 50 c-1 -24
-2 -26 -11 -10 -5 9 -7 22 -4 27 10 17 15 11 15 -17z m1013 -39 c7 -41 -1 -64
-14 -43 -11 18 -12 92 0 85 4 -3 11 -22 14 -42z m-162 -60 c-3 -77 -7 -88 -27
-80 -9 3 -17 -6 -23 -27 -9 -31 -9 -30 -10 16 -1 41 2 50 19 54 17 5 20 14 20
60 0 39 4 53 13 50 8 -2 11 -24 8 -73z m289 35 c0 -10 -4 -19 -10 -19 -5 0
-10 12 -10 26 0 14 4 23 10 19 6 -3 10 -15 10 -26z m-5245 -80 c4 -6 14 -8 22
-5 22 9 42 -11 36 -34 -3 -10 0 -34 7 -54 6 -19 13 -67 15 -107 3 -39 7 -79 9
-88 7 -21 -19 -130 -26 -111 -3 8 -9 11 -14 7 -4 -4 3 -19 17 -33 36 -35 91
-36 127 -1 16 15 36 27 45 27 10 0 14 5 11 14 -3 8 4 19 16 26 21 11 22 10 15
-22 -4 -18 -8 -35 -8 -38 -1 -3 3 -16 7 -29 5 -15 4 -26 -3 -30 -11 -7 -18
-74 -10 -101 2 -9 -4 -16 -18 -18 -15 -2 -25 5 -35 25 -7 15 -18 28 -25 28 -6
0 -15 3 -19 8 -28 28 -62 -24 -69 -109 -3 -31 -9 -62 -13 -68 -15 -18 -30 -95
-24 -118 5 -19 2 -20 -31 -14 -24 5 -37 3 -40 -6 -2 -7 -7 -11 -10 -8 -13 12
-25 369 -13 389 3 4 -2 84 -10 177 -8 93 -11 193 -8 222 5 38 3 52 -6 52 -10
0 -10 3 0 15 14 17 46 20 55 4z m5322 -54 l-12 -50 -3 37 c-2 21 2 44 10 52 7
8 14 13 15 12 1 -1 -4 -24 -10 -51z m-289 -7 c14 -14 16 -78 3 -78 -5 0 -11
12 -13 28 -3 15 -9 35 -13 45 -8 20 5 23 23 5z m-231 -65 c-3 -10 -5 -2 -5 17
0 19 2 27 5 18 2 -10 2 -26 0 -35z m430 -5 c-3 -7 -5 -2 -5 12 0 14 2 19 5 13
2 -7 2 -19 0 -25z m-347 -38 c0 -17 -4 -38 -9 -48 -13 -24 -38 -101 -46 -139
-4 -18 -11 -33 -16 -33 -12 0 -12 36 0 58 5 10 17 53 26 96 9 44 18 83 21 88
11 18 24 6 24 -22z m62 -22 c-13 -26 -17 -29 -20 -15 -2 10 2 24 8 32 22 26
29 16 12 -17z m-115 0 c-3 -8 -6 -5 -6 6 -1 11 2 17 5 13 3 -3 4 -12 1 -19z
m-17 2 c0 -5 -4 -10 -10 -10 -5 0 -10 5 -10 10 0 6 5 10 10 10 6 0 10 -4 10
-10z m465 -32 c4 -24 12 -49 18 -56 8 -11 7 -16 -6 -23 -9 -6 -17 -17 -17 -24
0 -8 -6 -15 -14 -15 -10 0 -13 19 -12 80 1 89 19 110 31 38z m-458 -10 c-3 -8
-6 -5 -6 6 -1 11 2 17 5 13 3 -3 4 -12 1 -19z m123 -37 c0 -22 -4 -43 -10 -46
-6 -4 -10 12 -10 39 0 25 5 46 10 46 6 0 10 -18 10 -39z m90 18 c0 -11 -4 -17
-10 -14 -5 3 -10 13 -10 21 0 8 5 14 10 14 6 0 10 -9 10 -21z m141 -36 c-10
-17 -10 -16 -11 3 0 23 13 41 18 25 2 -6 -1 -18 -7 -28z m-386 -13 c3 -5 0
-19 -8 -30 -14 -21 -14 -21 -20 1 -9 33 12 55 28 29z m592 -22 c-3 -7 -5 -2
-5 12 0 14 2 19 5 13 2 -7 2 -19 0 -25z m-270 -10 c-3 -7 -5 -2 -5 12 0 14 2
19 5 13 2 -7 2 -19 0 -25z m-92 -56 c1 -49 -2 -71 -9 -69 -6 2 -12 17 -12 33
-3 67 -4 70 -14 54 -5 -8 -7 -32 -3 -54 5 -30 3 -38 -8 -34 -22 7 -24 98 -2
126 32 40 45 24 48 -56z m241 -9 c-3 -10 -6 -40 -8 -66 -2 -52 -7 -60 -32 -51
-18 7 -22 39 -6 49 6 3 10 21 10 40 0 30 9 42 33 44 5 1 6 -7 3 -16z m-116
-65 c0 -10 -4 -18 -10 -18 -5 0 -10 15 -10 33 0 24 3 28 10 17 5 -8 10 -23 10
-32z m160 -7 c0 -11 -3 -11 -15 -1 -8 7 -15 22 -15 33 0 20 0 20 15 1 8 -10
15 -25 15 -33z m-1431 18 c-16 -10 -23 -4 -14 10 3 6 11 8 17 5 6 -4 5 -9 -3
-15z m1196 -16 c-7 -40 -21 -63 -37 -63 -6 0 -3 12 7 26 9 14 14 31 12 39 -5
11 10 35 21 35 2 0 1 -17 -3 -37z m-1100 17 c3 -5 -1 -10 -9 -10 -9 0 -16 5
-16 10 0 6 4 10 9 10 6 0 13 -4 16 -10z m55 -70 c0 -5 -4 -10 -10 -10 -5 0
-10 5 -10 10 0 6 5 10 10 10 6 0 10 -4 10 -10z m950 -74 c-11 -72 -32 -146
-42 -146 -11 0 -10 11 8 109 22 112 23 116 33 105 5 -5 5 -35 1 -68z m-4309
33 c-9 -22 -10 -22 -10 -3 -1 11 2 24 6 27 12 12 14 0 4 -24z m4669 21 c0 -5
-5 -10 -11 -10 -5 0 -7 5 -4 10 3 6 8 10 11 10 2 0 4 -4 4 -10z m-120 -76 c0
-8 -5 -12 -10 -9 -6 4 -8 11 -5 16 9 14 15 11 15 -7z m-1290 -80 c0 -17 -26
-19 -36 -3 -7 12 15 31 28 23 4 -3 8 -12 8 -20z m1520 11 c6 -8 9 -23 5 -34
-6 -21 -62 -61 -86 -61 -19 -1 -59 -35 -59 -51 0 -7 -3 -10 -6 -6 -3 3 -3 24
1 45 5 31 12 42 31 46 13 4 24 13 24 20 0 8 15 23 33 34 40 25 42 25 57 7z
m-1580 -5 c0 -5 -2 -10 -4 -10 -3 0 -8 5 -11 10 -3 6 -1 10 4 10 6 0 11 -4 11
-10z m-3396 -44 c11 4 16 0 17 -12 0 -11 2 -26 4 -35 2 -12 -3 -15 -21 -11
-17 3 -24 11 -24 28 0 13 -4 24 -10 24 -5 0 -10 8 -10 18 1 16 1 16 14 -1 8
-10 20 -15 30 -11z m2919 -2 c-5 -13 -1 -15 23 -10 59 13 135 9 152 -7 14 -15
14 -17 -1 -23 -28 -10 -20 -21 38 -49 30 -14 55 -31 55 -37 0 -7 15 -9 44 -5
39 6 46 4 51 -13 4 -11 13 -20 21 -20 19 0 18 -20 -3 -36 -17 -13 -16 -16 10
-38 15 -14 27 -34 27 -45 0 -11 8 -26 18 -33 21 -16 42 -52 43 -75 0 -11 3
-13 6 -5 5 12 33 17 33 6 0 -10 -44 -88 -57 -102 -13 -13 -14 -13 -17 11 0 6
-11 13 -24 15 -13 2 -34 20 -49 43 -16 24 -54 57 -98 84 -40 25 -83 54 -95 65
-12 11 -31 22 -42 26 -11 3 -35 16 -52 28 -21 14 -64 27 -117 35 -46 7 -97 17
-114 21 -27 8 -159 22 -225 24 -14 1 -28 4 -31 9 -10 13 -71 -4 -65 -19 3 -7
1 -16 -4 -19 -6 -4 -10 2 -11 12 0 10 -3 13 -6 6 -2 -7 -13 -13 -24 -13 -19 0
-19 1 2 30 12 16 25 27 29 25 8 -5 72 15 80 24 14 17 58 29 68 19 8 -8 15 -8
26 1 8 7 79 25 156 41 78 16 144 31 148 34 10 10 12 7 5 -10z m-591 -66 c-7
-7 -12 -8 -12 -2 0 14 12 26 19 19 2 -3 -1 -11 -7 -17z m929 -31 c-9 -9 -14
-8 -21 3 -16 24 -11 31 11 19 16 -8 18 -14 10 -22z m-1041 -12 c10 -12 10 -15
-4 -15 -9 0 -16 7 -16 15 0 8 2 15 4 15 2 0 9 -7 16 -15z m-2690 -105 c0 -5
-5 -10 -11 -10 -5 0 -7 5 -4 10 3 6 8 10 11 10 2 0 4 -4 4 -10z m5654 -87 c-6
-63 -23 -142 -34 -158 -4 -5 -11 -24 -14 -42 -4 -17 -14 -37 -22 -44 -8 -6
-14 -19 -14 -28 -1 -19 -23 -51 -37 -51 -11 0 -7 41 6 75 32 79 51 131 51 137
0 4 5 19 12 35 6 15 13 38 14 51 4 29 27 82 36 82 3 0 4 -26 2 -57z m-1314 22
c0 -2 -14 -12 -30 -20 -37 -19 -64 -8 -29 11 24 13 59 19 59 9z m1048 -42 c2
-18 7 -33 10 -33 4 0 16 -15 27 -32 15 -27 19 -52 19 -143 -1 -129 -17 -197
-72 -304 -32 -64 -42 -76 -72 -84 -18 -5 -41 -6 -51 -4 -10 3 -19 2 -21 -2 -2
-4 -19 -19 -39 -34 -28 -21 -42 -43 -57 -90 -29 -85 -25 -140 11 -171 23 -20
26 -28 21 -57 -4 -19 -13 -41 -21 -51 -8 -9 -16 -23 -17 -32 -3 -20 -93 -89
-106 -81 -6 3 -13 -1 -16 -9 -3 -9 -10 -13 -15 -10 -6 3 -17 0 -25 -7 -17 -14
-27 -7 -31 26 -3 23 -2 24 22 15 34 -13 35 -13 35 7 0 21 -46 63 -69 63 -9 0
-26 17 -38 38 -16 29 -19 42 -10 57 7 14 7 20 -1 23 -23 7 -5 112 19 112 14 0
93 90 101 114 3 11 9 32 12 46 6 28 63 60 108 60 13 0 28 3 32 7 4 4 16 8 28
8 27 0 83 68 74 91 -5 12 -13 15 -34 10 -75 -19 -133 -29 -138 -24 -3 4 3 19
13 34 11 17 20 56 24 102 5 63 10 77 32 97 15 12 27 27 27 32 0 19 30 37 41
26 14 -14 70 -1 82 18 13 21 0 105 -20 125 -13 13 -14 17 -3 24 8 5 17 7 21 4
4 -2 10 0 14 6 3 5 -2 10 -12 10 -12 0 -7 7 17 25 48 33 74 29 78 -12z m-983
-13 c-3 -5 -10 -10 -16 -10 -5 0 -9 5 -9 10 0 6 7 10 16 10 8 0 12 -4 9 -10z
m65 -10 c-6 -11 -13 -20 -15 -20 -3 0 -5 9 -5 20 0 11 7 20 15 20 13 0 14 -4
5 -20z m-1186 -33 c-6 -18 -44 -24 -44 -8 0 5 7 17 16 26 19 19 38 7 28 -18z
m-404 19 c0 -2 -7 -7 -16 -10 -8 -3 -12 -2 -9 4 6 10 25 14 25 6z m-70 -49 c0
-2 -10 -12 -21 -23 -22 -19 -22 -19 -8 4 12 19 29 30 29 19z m440 -44 c0 -20
-38 -63 -57 -63 -8 0 -13 12 -13 33 0 41 5 47 42 47 20 0 28 -5 28 -17z m780
-33 c0 -5 -8 -10 -17 -10 -15 0 -16 2 -3 10 19 12 20 12 20 0z m347 -6 c-3 -3
-12 -4 -19 -1 -8 3 -5 6 6 6 11 1 17 -2 13 -5z m-7 -114 c0 -5 -4 -10 -10 -10
-5 0 -10 5 -10 10 0 6 5 10 10 10 6 0 10 -4 10 -10z m15 -50 c-3 -5 -10 -10
-16 -10 -5 0 -9 5 -9 10 0 6 7 10 16 10 8 0 12 -4 9 -10z m-4667 -407 c-13
-17 3 -33 35 -33 26 0 22 -51 -9 -112 -19 -37 -24 -60 -20 -82 3 -17 10 -66
16 -110 6 -56 15 -85 29 -100 12 -12 21 -27 21 -33 0 -7 9 -15 20 -18 11 -3
20 -12 20 -20 0 -7 14 -25 30 -38 17 -14 30 -30 30 -35 0 -12 25 -22 55 -22
13 0 29 -10 38 -24 17 -25 75 -41 92 -25 15 15 38 11 31 -6 -3 -9 0 -15 9 -15
8 0 15 5 15 10 0 6 15 8 38 4 26 -4 61 2 120 21 52 17 93 24 108 21 34 -9 104
-74 104 -98 0 -25 -44 -83 -105 -139 -41 -37 -61 -48 -110 -58 -100 -19 -200
-10 -272 27 -35 17 -63 29 -63 27 0 -7 -164 77 -197 101 -17 13 -35 24 -40 24
-10 0 -83 64 -83 73 0 4 -27 34 -60 66 -35 35 -60 68 -60 80 0 12 -6 21 -16
21 -8 0 -12 5 -9 10 3 6 8 40 10 76 4 52 14 85 45 150 22 45 40 89 40 97 0 8
7 20 15 27 8 7 15 21 15 31 0 11 4 19 8 19 4 0 16 15 26 33 28 49 57 76 72 70
12 -4 12 -8 2 -20z m-368 -307 c0 -3 -4 -8 -10 -11 -5 -3 -10 -1 -10 4 0 6 5
11 10 11 6 0 10 -2 10 -4z m45 -6 c3 -5 2 -10 -4 -10 -5 0 -13 5 -16 10 -3 6
-2 10 4 10 5 0 13 -4 16 -10z m5520 -34 c-4 -20 -11 -36 -16 -36 -5 0 -9 -7
-9 -15 0 -16 -34 -38 -43 -28 -7 7 -62 -56 -62 -71 0 -6 -8 -12 -17 -14 -11
-2 -18 3 -18 13 0 10 -5 13 -12 9 -8 -5 -9 0 -4 17 5 13 10 38 13 54 9 57 33
76 101 82 47 4 62 10 62 21 0 8 3 13 6 10 3 -3 2 -22 -1 -42z m-2678 -8 c-3
-8 -6 -5 -6 6 -1 11 2 17 5 13 3 -3 4 -12 1 -19z m-2867 -13 c0 -8 -4 -15 -10
-15 -5 0 -10 7 -10 15 0 8 5 15 10 15 6 0 10 -7 10 -15z m5670 -35 c0 -5 -5
-10 -11 -10 -5 0 -7 5 -4 10 3 6 8 10 11 10 2 0 4 -4 4 -10z m84 -269 c3 -5
-2 -19 -12 -31 -13 -16 -32 -24 -70 -28 -50 -4 -52 -4 -52 20 0 19 7 27 33 36
41 13 94 15 101 3z m-2674 -201 c0 -5 -10 -10 -22 -10 -19 0 -20 2 -8 10 19
13 30 13 30 0z m-738 -122 c-7 -7 -12 -8 -12 -2 0 6 3 14 7 17 3 4 9 5 12 2 2
-3 -1 -11 -7 -17z m-181 -111 c-13 -13 -26 -3 -16 12 3 6 11 8 17 5 6 -4 6
-10 -1 -17z m385 -23 c-3 -8 -10 -14 -16 -14 -14 0 -13 33 3 49 10 10 13 9 15
-4 2 -9 1 -23 -2 -31z m-50 -90 c-4 -9 -9 -15 -11 -12 -3 3 -3 13 1 22 4 9 9
15 11 12 3 -3 3 -13 -1 -22z m324 -3 c0 -5 -6 -14 -14 -20 -10 -9 -15 -8 -19
3 -3 8 -3 17 0 20 9 9 33 7 33 -3z m-765 -32 c-4 -5 -13 -9 -22 -9 -13 0 -13
3 -3 15 13 15 35 11 25 -6z m634 -24 c6 -3 11 0 11 7 1 20 30 -52 30 -73 0
-21 6 -24 58 -33 29 -5 34 -2 50 32 12 26 24 37 40 38 18 1 23 -3 19 -17 -3
-11 0 -19 7 -19 6 0 17 -13 23 -30 6 -16 19 -30 27 -30 14 0 16 -9 14 -49 l-3
-49 -95 1 c-99 2 -192 -6 -223 -18 -22 -9 -164 14 -192 31 -11 6 -58 24 -105
40 -47 15 -99 34 -117 41 -17 7 -35 13 -40 13 -15 0 -63 50 -63 66 0 22 61 56
77 42 7 -6 13 -14 13 -19 0 -9 36 -49 44 -49 2 0 20 16 39 35 40 40 57 44 57
15 0 -11 5 -20 10 -20 6 0 10 5 10 10 0 6 9 10 20 10 12 0 32 7 45 16 18 12
25 13 25 4 0 -7 8 -10 19 -7 13 3 21 -1 24 -12 3 -14 16 -17 68 -16 59 0 64 2
67 23 2 12 -2 22 -9 22 -8 0 -5 7 7 18 18 18 19 18 26 2 4 -10 11 -21 17 -25z
m1701 -124 c0 -17 -12 -41 -21 -41 -10 0 -12 33 -2 43 9 10 23 9 23 -2z
m-1260 -92 c0 -5 -4 -9 -10 -9 -5 0 -10 7 -10 16 0 8 5 12 10 9 6 -3 10 -10
10 -16z m-3423 -225 c5 -15 -48 -37 -60 -25 -15 15 12 43 36 39 11 -2 22 -8
24 -14z m2033 -48 c0 -3 -4 -8 -10 -11 -5 -3 -10 -1 -10 4 0 6 5 11 10 11 6 0
10 -2 10 -4z m-1260 -71 c0 -8 7 -15 15 -15 23 0 95 -24 95 -32 0 -7 70 -52
85 -54 6 -1 16 -2 23 -3 6 0 12 -8 12 -16 0 -8 14 -17 35 -21 19 -3 38 -11 41
-16 4 -6 9 -5 14 3 6 9 16 9 43 -5 20 -9 38 -22 41 -29 5 -9 7 -9 12 0 4 8 17
4 44 -15 43 -29 53 -62 20 -62 -11 0 -28 -8 -38 -17 -24 -25 -58 -28 -66 -6
-6 15 -8 15 -16 3 -6 -8 -10 -25 -10 -37 0 -12 -5 -25 -11 -29 -8 -4 -9 0 -4
15 5 16 2 21 -13 21 -27 0 -36 -47 -11 -60 10 -6 24 -10 32 -10 25 0 64 -25
60 -37 -7 -19 -127 -73 -453 -203 -25 -10 -81 -32 -125 -50 -109 -43 -205 -85
-298 -131 -43 -22 -83 -39 -88 -39 -5 0 -40 -15 -77 -33 -106 -52 -178 -79
-204 -75 -21 3 -23 8 -24 68 0 36 -8 83 -17 105 -21 51 -21 93 -1 140 18 45
12 86 -23 137 -25 37 -25 37 -8 87 9 27 23 55 31 61 20 17 17 39 -11 85 -14
22 -25 47 -25 56 0 8 22 38 50 67 l49 51 68 0 c140 1 327 12 337 20 6 5 18 8
26 9 46 1 98 10 117 20 12 7 29 12 37 12 9 0 16 4 16 9 0 5 9 7 20 4 11 -3 26
0 34 6 8 7 37 13 66 13 28 1 53 5 56 10 9 14 44 9 44 -7z m420 -151 c0 -2 -7
-4 -15 -4 -8 0 -15 4 -15 10 0 5 7 7 15 4 8 -4 15 -8 15 -10z m791 -34 c1 -11
2 -26 3 -32 3 -19 -44 -68 -79 -82 -62 -27 -234 -218 -280 -311 -10 -22 -27
-51 -36 -65 -22 -33 -64 -177 -77 -265 -21 -140 6 -506 39 -540 5 -5 9 -19 9
-31 0 -12 7 -27 15 -34 8 -7 15 -19 15 -26 0 -8 5 -14 10 -14 6 0 10 -4 10
-10 0 -5 15 -25 33 -43 98 -104 105 -113 95 -130 -12 -22 -33 -22 -50 1 -7 9
-56 38 -109 64 -107 51 -137 82 -163 163 -37 118 -38 512 -2 651 53 205 154
384 295 524 90 90 114 110 194 161 69 45 77 47 78 19z m3069 -80 c0 -5 9 -19
20 -30 l21 -21 -28 7 c-35 8 -58 28 -49 43 9 14 36 14 36 1z m85 -9 c3 -6 -4
-15 -15 -21 -16 -8 -20 -8 -20 3 0 25 23 36 35 18z m-2119 -98 c-10 -10 -19 5
-10 18 6 11 8 11 12 0 2 -7 1 -15 -2 -18z m2102 -30 c-6 -7 -14 -13 -19 -13
-13 0 -11 34 3 48 10 10 14 9 19 -5 4 -10 2 -24 -3 -30z m-2137 -39 c-4 -16
-6 -34 -4 -40 2 -6 -4 -17 -14 -25 -17 -13 -17 -13 -3 5 11 15 12 20 3 23 -16
6 -17 34 -1 68 16 34 31 10 19 -31z m-112 -60 c-15 -19 -22 -18 -37 6 -14 22
-6 44 25 76 17 17 18 16 21 -25 2 -23 -2 -49 -9 -57z m-294 37 c3 -5 1 -12 -4
-15 -5 -3 -11 1 -15 9 -6 16 9 21 19 6z m360 -100 c-3 -12 -11 -19 -16 -16 -5
4 -5 14 2 26 13 26 23 18 14 -10z m115 -35 c0 -2 -7 -9 -15 -16 -12 -10 -15
-10 -15 4 0 9 7 16 15 16 8 0 15 -2 15 -4z m1583 -61 c-3 -9 -8 -14 -10 -11
-3 3 -2 9 2 15 9 16 15 13 8 -4z m1357 -45 c0 -5 -5 -10 -11 -10 -5 0 -7 5 -4
10 3 6 8 10 11 10 2 0 4 -4 4 -10z m-860 -329 c0 -6 -4 -13 -10 -16 -5 -3 -10
1 -10 9 0 9 5 16 10 16 6 0 10 -4 10 -9z m-3290 -1152 c25 -49 25 -144 0 -144
-11 0 -15 12 -16 50 0 28 -4 69 -8 93 -11 53 -2 54 24 1z m-64 -204 c-14 -56
-94 -101 -109 -61 -8 20 3 56 18 56 6 0 24 14 39 31 25 28 30 30 43 16 11 -10
13 -24 9 -42z m67 -7 c-7 -27 -41 -78 -63 -95 -30 -22 -30 -1 0 33 16 19 30
43 30 54 0 16 11 27 32 29 3 1 4 -9 1 -21z"/>
<path d="M1146 8462 c-3 -6 -1 -14 5 -17 15 -10 25 3 12 16 -7 7 -13 7 -17 1z"/>
<path d="M3810 7760 c0 -5 4 -10 9 -10 6 0 13 5 16 10 3 6 -1 10 -9 10 -9 0
-16 -4 -16 -10z"/>
<path d="M4753 7443 c-15 -41 -58 -48 -95 -15 -15 13 -18 13 -18 1 0 -18 45
-39 85 -39 43 0 66 19 59 48 -8 26 -22 29 -31 5z"/>
<path d="M4640 6651 c0 -13 27 -21 45 -15 8 4 12 10 9 15 -7 12 -54 12 -54 0z"/>
<path d="M3452 6310 c8 -21 5 -28 -16 -47 -14 -12 -26 -29 -26 -38 0 -8 -7
-15 -16 -15 -9 0 -32 -16 -50 -35 -30 -32 -34 -34 -44 -18 -6 10 -13 14 -16 8
-2 -5 -22 -45 -43 -87 -21 -43 -36 -80 -33 -82 7 -8 32 6 27 14 -3 4 4 19 15
33 11 14 20 30 20 37 0 6 4 8 10 5 5 -3 18 -1 28 4 11 6 47 15 82 20 77 13
103 2 181 -69 37 -34 57 -46 65 -39 6 5 18 7 26 4 14 -5 55 -66 49 -73 -7 -9
37 -31 62 -32 38 0 74 -26 93 -66 13 -26 22 -34 44 -34 15 0 35 -9 45 -20 17
-19 45 -27 45 -14 0 18 -37 81 -57 97 -13 10 -23 24 -23 30 0 7 -47 60 -105
120 -58 59 -105 114 -105 121 0 7 -25 33 -55 56 -38 29 -55 49 -55 65 0 12 -7
28 -15 35 -8 7 -15 9 -15 5 0 -5 -8 -1 -18 8 -10 10 -22 14 -25 10 -4 -3 -7 1
-7 11 0 13 -8 16 -39 14 -37 -3 -38 -4 -29 -28z"/>
<path d="M3400 6295 c-32 -34 -19 -43 14 -10 14 14 26 28 26 30 0 12 -19 3
-40 -20z"/>
<path d="M3528 5710 c-51 -9 -118 -66 -118 -99 0 -10 -7 -24 -16 -32 -9 -7
-13 -21 -10 -35 4 -13 0 -27 -10 -35 -14 -12 -13 -14 6 -21 16 -6 20 -13 15
-28 -3 -11 -3 -20 0 -20 15 0 97 64 113 88 31 49 56 74 94 93 40 21 113 26
123 8 4 -6 19 -9 33 -8 34 3 82 -10 82 -22 0 -5 -18 -20 -39 -33 -46 -29 -79
-73 -92 -121 -8 -29 -6 -42 16 -85 14 -28 44 -69 65 -90 22 -22 40 -42 40 -45
0 -3 -22 -5 -50 -5 -52 0 -180 37 -180 51 0 5 -7 9 -15 9 -8 0 -15 5 -15 10 0
6 -11 21 -25 34 -20 19 -24 30 -19 53 4 19 1 33 -6 38 -16 10 -25 -2 -12 -18
6 -7 9 -23 5 -35 -5 -22 -7 -22 -24 -6 -21 19 -25 50 -7 56 6 2 8 9 5 15 -11
18 -73 -6 -85 -32 -6 -12 -8 -41 -5 -64 5 -34 9 -41 28 -41 18 0 21 -4 17 -25
-3 -20 0 -25 16 -25 11 0 25 7 32 15 15 19 30 10 30 -17 0 -12 3 -19 6 -15 3
3 25 -1 47 -10 23 -9 52 -15 64 -14 12 0 29 -9 37 -21 15 -21 17 -21 68 -6 54
16 124 18 147 4 6 -4 18 -3 25 3 7 6 16 8 19 5 3 -4 20 -1 37 5 23 7 38 8 52
0 20 -11 20 -11 -1 -33 -25 -26 -27 -46 -6 -46 23 0 58 37 52 54 -8 19 10 25
52 15 37 -8 69 -34 57 -46 -4 -4 -11 -2 -15 6 -7 10 -9 10 -14 -2 -7 -19 1
-27 25 -27 24 0 48 23 48 45 0 8 7 18 15 21 30 12 13 114 -27 163 -13 15 -30
39 -38 51 -21 32 -133 138 -210 199 -79 61 -117 79 -195 92 -32 6 -64 14 -70
19 -5 4 -21 8 -35 7 -14 -1 -41 2 -60 5 -19 3 -52 2 -72 -2z m392 -245 c0 -16
-27 -32 -37 -22 -3 4 -3 13 0 22 8 20 37 20 37 0z m-35 -76 c8 -12 -33 -59
-52 -59 -17 0 -17 57 0 63 21 9 46 7 52 -4z m237 -36 c18 -16 22 -41 12 -78
-4 -16 -14 -21 -48 -23 -24 -1 -55 -6 -70 -12 -15 -5 -37 -10 -48 -10 -17 0
-12 6 21 30 23 17 54 48 69 70 30 44 38 47 64 23z"/>
<path d="M3954 5145 c3 -8 0 -15 -6 -15 -6 0 -9 -2 -6 -5 3 -3 13 -3 22 1 21
8 21 34 0 34 -10 0 -14 -6 -10 -15z"/>
<path d="M6553 5111 c-19 -30 7 -47 30 -21 9 11 17 25 17 30 0 18 -35 11 -47
-9z"/>
<path d="M4217 5083 c-12 -11 -8 -23 8 -23 8 0 15 7 15 15 0 16 -12 20 -23 8z"/>
<path d="M5393 4978 c-6 -7 -16 -23 -22 -35 -10 -20 -9 -22 6 -16 10 4 21 11
26 17 5 8 10 6 16 -3 8 -12 12 -12 25 -2 18 15 21 41 6 41 -5 0 -10 -4 -10
-10 0 -5 -4 -10 -10 -10 -5 0 -10 7 -10 15 0 18 -14 20 -27 3z"/>
<path d="M4463 4034 c-7 -19 2 -28 22 -21 19 8 19 23 0 31 -9 3 -18 -1 -22
-10z"/>
<path d="M5778 3813 c7 -3 16 -2 19 1 4 3 -2 6 -13 5 -11 0 -14 -3 -6 -6z"/>
<path d="M5940 3700 c0 -5 -7 -10 -16 -10 -8 0 -12 -4 -9 -10 4 -6 13 -5 25 3
21 13 26 27 10 27 -5 0 -10 -4 -10 -10z"/>
<path d="M5935 3287 c-19 -30 -29 -81 -20 -104 5 -14 9 -9 20 22 15 48 26 105
20 105 -3 0 -11 -10 -20 -23z"/>
<path d="M3405 2980 c-3 -5 -1 -10 4 -10 6 0 11 5 11 10 0 6 -2 10 -4 10 -3 0
-8 -4 -11 -10z"/>
<path d="M5380 2765 c0 -8 5 -15 10 -15 6 0 10 7 10 15 0 8 -4 15 -10 15 -5 0
-10 -7 -10 -15z"/>
<path d="M2932 6408 c-17 -17 -15 -39 4 -31 8 3 13 11 10 19 -3 7 0 15 7 18 7
2 7 5 2 5 -6 1 -16 -4 -23 -11z"/>
<path d="M2320 5525 c0 -8 5 -15 10 -15 6 0 10 7 10 15 0 8 -4 15 -10 15 -5 0
-10 -7 -10 -15z"/>
<path d="M7431 4354 c0 -11 3 -14 6 -6 3 7 2 16 -1 19 -3 4 -6 -2 -5 -13z"/>
<path d="M4352 3240 c0 -14 2 -19 5 -12 2 6 2 18 0 25 -3 6 -5 1 -5 -13z"/>
<path d="M8735 4545 c-19 -15 -18 -15 15 -13 19 2 34 8 33 13 -3 17 -27 17
-48 0z"/>
<path d="M6620 1501 c0 -5 7 -11 14 -14 10 -4 13 -1 9 9 -6 15 -23 19 -23 5z"/>
<path d="M4330 492 c0 -17 383 -62 534 -62 102 0 73 12 -46 19 -68 4 -102 10
-101 17 2 12 -134 30 -145 20 -3 -3 12 -6 34 -7 21 0 34 -3 28 -5 -10 -4 -153
7 -266 21 -21 3 -38 1 -38 -3z"/>
</g>
</svg>
