<?xml version="1.0" encoding="utf-8"?>

<!-- The icon can be used freely in both personal and commercial projects with no attribution required, but always appreciated. 
You may NOT sub-license, resell, rent, redistribute or otherwise transfer the icon without express written permission from iconmonstr.com -->

<!DOCTYPE svg PUBLIC "-//W3C//DTD SVG 1.1//EN" "http://www.w3.org/Graphics/SVG/1.1/DTD/svg11.dtd">
<svg version="1.1" xmlns="http://www.w3.org/2000/svg" xmlns:xlink="http://www.w3.org/1999/xlink" x="0px" y="0px"
	 width="512px" height="512px" viewBox="0 0 512 512" enable-background="new 0 0 512 512" xml:space="preserve">
<path id="laptop-2-icon" d="M413.719,120.25c0-11.046-8.954-20-20-20H118.052c-11.046,0-20,8.954-20,20v194h315.667V120.25z
	 M386.719,287.25H125.051v-160h261.668V287.25z M414.719,329.25H97.052l-29.959,52.603c-3.525,6.19-3.492,13.789,0.089,19.948
	c3.58,6.159,10.166,9.949,17.291,9.949h343.056c7.136,0,13.731-3.802,17.307-9.978c3.576-6.176,3.591-13.788,0.039-19.978
	L414.719,329.25z M217.816,383.25l8-23.5h60.5l8,23.5H217.816z"/>
</svg>
