<?xml version="1.0" encoding="utf-8"?>

<!-- License Agreement at http://iconmonstr.com/license/ -->

<!DOCTYPE svg PUBLIC "-//W3C//DTD SVG 1.1//EN" "http://www.w3.org/Graphics/SVG/1.1/DTD/svg11.dtd">
<svg version="1.1" xmlns="http://www.w3.org/2000/svg" xmlns:xlink="http://www.w3.org/1999/xlink" x="0px" y="0px"
	 width="512px" height="512px" viewBox="0 0 512 512" enable-background="new 0 0 512 512" xml:space="preserve">
<path id="mouse-3-icon" d="M324.001,50H187.999c-33.131,0-59.992,26.856-60,59.989V334c0,70.692,57.07,128,127.762,128
	c70.693,0,128.24-57.308,128.24-128V110.011C384.007,76.875,357.122,50,324.001,50z M272.888,174c0,9.665-7.836,17.5-17.5,17.5
	c-9.666,0-17.5-7.835-17.5-17.5v-57c0-9.665,7.834-17.5,17.5-17.5c9.664,0,17.5,7.835,17.5,17.5V174z"/>
</svg>
