<?xml version="1.0" encoding="utf-8"?>

<!-- The icon can be used freely in both personal and commercial projects with no attribution required, but always appreciated. 
You may NOT sub-license, resell, rent, redistribute or otherwise transfer the icon without express written permission from iconmonstr.com -->

<!DOCTYPE svg PUBLIC "-//W3C//DTD SVG 1.1//EN" "http://www.w3.org/Graphics/SVG/1.1/DTD/svg11.dtd">
<svg version="1.1" xmlns="http://www.w3.org/2000/svg" xmlns:xlink="http://www.w3.org/1999/xlink" x="0px" y="0px"
	 width="512px" height="512px" viewBox="0 0 512 512" enable-background="new 0 0 512 512" xml:space="preserve">
<path id="tablet-3-icon" d="M430,97.75H82c-17.674,0-32,14.326-32,32v252.5c0,17.673,14.326,32,32,32h348c17.673,0,32-14.327,32-32
	v-252.5C462,112.076,447.673,97.75,430,97.75z M417,374.25H95v-236.5h322V374.25z M439.749,264.5c-4.693,0-8.5-3.806-8.5-8.5
	c0-4.695,3.807-8.5,8.5-8.5c4.695,0,8.5,3.805,8.5,8.5C448.249,260.694,444.444,264.5,439.749,264.5z"/>
</svg>
