<?xml version="1.0" encoding="utf-8"?>

<!-- License Agreement at http://iconmonstr.com/license/ -->

<!DOCTYPE svg PUBLIC "-//W3C//DTD SVG 1.1//EN" "http://www.w3.org/Graphics/SVG/1.1/DTD/svg11.dtd">
<svg version="1.1" xmlns="http://www.w3.org/2000/svg" xmlns:xlink="http://www.w3.org/1999/xlink" x="0px" y="0px"
	 width="512px" height="512px" viewBox="0 0 512 512" enable-background="new 0 0 512 512" xml:space="preserve">
<path id="keyboard-icon" d="M50,121.5v269h412v-269H50z M323.081,162.342h39.517v33.296h-39.517V162.342z M178.476,247.311v-33.296
	h39.516v33.296H178.476z M188.918,265.688v33.297h-39.516v-33.297H188.918z M207.296,265.688h39.515v33.297h-39.515V265.688z
	 M236.368,247.311v-33.296h39.515v33.296H236.368z M265.188,265.688h39.515v33.297h-39.515V265.688z M294.262,247.311v-33.296
	h39.514v33.296H294.262z M265.188,162.342h39.515v33.296h-39.515V162.342z M207.296,162.342h39.515v33.296h-39.515V162.342z
	 M149.402,162.342h39.516v33.296h-39.516V162.342z M91.51,162.342h39.515v33.296H91.51V162.342z M91.51,214.015h68.588v33.296H91.51
	V214.015z M131.024,298.984H91.51v-33.297h39.515V298.984z M362.598,350.658H149.402v-33.297h213.195V350.658z M362.598,298.984
	h-39.517v-33.297h39.517V298.984z M420.49,298.984h-39.516v-33.297h39.516V298.984z M420.49,247.311h-68.336v-33.296h68.336V247.311
	z M420.49,195.638h-39.516v-33.296h39.516V195.638z"/>
</svg>
