<?xml version="1.0" encoding="utf-8"?>
<!-- Generator: Adobe Illustrator 16.0.0, SVG Export Plug-In . SVG Version: 6.00 Build 0)  -->
<!DOCTYPE svg PUBLIC "-//W3C//DTD SVG 1.1//EN" "http://www.w3.org/Graphics/SVG/1.1/DTD/svg11.dtd">
<svg version="1.1" id="Layer_1" xmlns="http://www.w3.org/2000/svg" xmlns:xlink="http://www.w3.org/1999/xlink" x="0px" y="0px"
	 width="512px" height="512px" viewBox="0 0 512 512" enable-background="new 0 0 512 512" xml:space="preserve">
<g id="menu-icon">
	<path d="M462,145c0,5.5-4.5,10-10,10H60c-5.5,0-10-4.5-10-10v-30c0-5.5,4.5-10,10-10h392c5.5,0,10,4.5,10,10V145z M462,241
		c0-5.5-4.5-10-10-10H60c-5.5,0-10,4.5-10,10v30c0,5.5,4.5,10,10,10h392c5.5,0,10-4.5,10-10V241z M462,366c0-5.5-4.5-10-10-10H60
		c-5.5,0-10,4.5-10,10v30c0,5.5,4.5,10,10,10h392c5.5,0,10-4.5,10-10V366z"/>
</g>
</svg>
