<?xml version="1.0" encoding="utf-8"?>

<!-- License Agreement at http://iconmonstr.com/license/ -->

<!DOCTYPE svg PUBLIC "-//W3C//DTD SVG 1.1//EN" "http://www.w3.org/Graphics/SVG/1.1/DTD/svg11.dtd">
<svg version="1.1" xmlns="http://www.w3.org/2000/svg" xmlns:xlink="http://www.w3.org/1999/xlink" x="0px" y="0px"
	 width="512px" height="512px" viewBox="0 0 512 512" enable-background="new 0 0 512 512" xml:space="preserve">
<path id="quote-4-icon" d="M432,140.165v72.538c0,66.047-25.884,110.64-68.46,136.956c28.015-37.159,29.567-76.909,29.567-106.114
	H320.62v-103.38H432 M462,110.165H290.62v163.38h70.487c0,37.955-26.488,75.622-68.242,91.359l17.087,36.931
	C400.119,384,462,317.629,462,219.703C462,162.317,462,110.165,462,110.165L462,110.165z M191.38,140.165v72.538
	c0,66.047-25.884,110.64-68.46,136.956c28.015-37.159,29.567-76.909,29.567-106.114H80v-103.38H191.38 M221.38,110.165H50v163.38
	h70.487c0,37.955-26.488,75.622-68.242,91.359l17.087,36.931C159.499,384,221.38,317.629,221.38,219.703
	C221.38,162.317,221.38,110.165,221.38,110.165L221.38,110.165z"/>
</svg>
