<?xml version="1.0" encoding="utf-8"?>

<!-- License Agreement at http://iconmonstr.com/license/ -->

<!DOCTYPE svg PUBLIC "-//W3C//DTD SVG 1.1//EN" "http://www.w3.org/Graphics/SVG/1.1/DTD/svg11.dtd">
<svg version="1.1" xmlns="http://www.w3.org/2000/svg" xmlns:xlink="http://www.w3.org/1999/xlink" x="0px" y="0px"
	 width="512px" height="512px" viewBox="0 0 512 512" enable-background="new 0 0 512 512" xml:space="preserve">
<path id="quote-3-icon" d="M80,371.835v-72.538c0-66.047,25.884-110.64,68.46-136.956c-28.015,37.159-29.567,76.909-29.567,106.114
	h72.487v103.38H80 M50,401.835h171.38v-163.38h-70.487c0-37.955,26.488-75.622,68.242-91.359l-17.087-36.931
	C111.881,128,50,194.371,50,292.297C50,349.683,50,401.835,50,401.835L50,401.835z M320.62,371.835v-72.538
	c0-66.047,25.884-110.64,68.46-136.956c-28.015,37.159-29.567,76.909-29.567,106.114H432v103.38H320.62 M290.62,401.835H462v-163.38
	h-70.487c0-37.955,26.488-75.622,68.242-91.359l-17.087-36.931C352.501,128,290.62,194.371,290.62,292.297
	C290.62,349.683,290.62,401.835,290.62,401.835L290.62,401.835z"/>
</svg>
