<?xml version="1.0" encoding="utf-8"?>


<!-- The icon can be used freely in both personal and commercial projects with no attribution required, but always appreciated. 
You may NOT sub-license, resell, rent, redistribute or otherwise transfer the icon without express written permission from iconmonstr.com -->


<!DOCTYPE svg PUBLIC "-//W3C//DTD SVG 1.1//EN" "http://www.w3.org/Graphics/SVG/1.1/DTD/svg11.dtd">

<svg version="1.1" xmlns="http://www.w3.org/2000/svg" xmlns:xlink="http://www.w3.org/1999/xlink" x="0px" y="0px"

	 width="512px" height="512px" viewBox="0 0 512 512" enable-background="new 0 0 512 512" xml:space="preserve">

<path id="speech-bubble-3-icon" d="M256,65.353c-108.81,0-206,73.248-206,173.431c0,35.533,12.684,70.421,35.135,97.493

	C86.083,368,67.583,413.5,50.918,446.647c44.665-8.147,108.165-26.147,136.963-43.95C346.438,441.636,462,343.677,462,238.783

	C462,138.051,364.132,65.353,256,65.353z M180.527,270.028c-15.188,0-27.5-12.312-27.5-27.5s12.312-27.5,27.5-27.5

	s27.5,12.312,27.5,27.5S195.716,270.028,180.527,270.028z M262.527,270.028c-15.188,0-27.5-12.312-27.5-27.5s12.312-27.5,27.5-27.5

	s27.5,12.312,27.5,27.5S277.716,270.028,262.527,270.028z M343.527,270.028c-15.188,0-27.5-12.312-27.5-27.5s12.312-27.5,27.5-27.5

	s27.5,12.312,27.5,27.5S358.716,270.028,343.527,270.028z"/>

</svg>

