<svg viewBox="0 0 18 24" xmlns="http://www.w3.org/2000/svg"><path d="m10.000048 0c2.209139 0 4 1.790861 4 4 0 1.30517567-.6251061 2.46435-1.5922597 3.19446434-.2929893-1.26637905-1.2600697-2.19446434-2.4077883-2.19446434-1.14771864 0-2.11479899.92808529-2.40850342 2.19297069-.9665606-.72902512-1.59144863-1.88802269-1.59144863-3.19297069 0-2.209139 1.790861-4 4.00000005-4zm-1.992048 10.07-.008-.07c.29361035 2.6420976.46027702 4.1420976.5 4.5.00767034.0691094.44069372.5661747.50001893.5000189l5.08173817 5.0815199c-.0508552 1.2063708-.0817091 2.5158594-.0817091 3.9184612h-8.00000005c0-3.439-.185484-6.318234-.396484-8.490234l-2.7050785 1.779296 2.0097656 5.298829c.2150939.486953.0219688 1.061687-.4570312 1.304687-.145.073-.2982188.107422-.4492188.107422-.365 0-.7185312-.200828-.8945312-.548828l-2.9160157-5.757813c-.329-.649-.2281874-1.420843.2578126-1.964843l3.6113281-4.054688c.767-.861 1.8047341-1.417562 2.9277341-1.601562zm3.0796039-.88074074-.3799941 3.42187494c.1429351.0191883.2810224.0752738.3979429.1699479l3.8303079 2.9110881c-.0877106-.9641752-.2329975-1.528232-.4358606-1.6921702l-2.4999811-1.9999811c.0074276-.0669305.0118832-.2137565.0133667-.440478l-.0000038-.4000038c-.0014175-.2919839-.0055302-.6564194-.012338-1.0933065l.9462702-.0037306c1.148.172 2.21214.734328 2.99414 1.611328l2.0363615 5.2648919c.014471.0193189.0221845.0397152.0221845.0612801 0 .2743247-.053243.4996568-.1597289.6759962-.5274231 1.0838943-2.2147135 1.6709335-2.8402711 1.3240038-.7182486-.3983355-2.3842653-2.0697306-4.9980501-5.0141855-.06640987-.0589683-.12016802-.1266971-.16096378-.1999708l-.19450867-.0004477c-.12763118 0-.23444713-.0957785-.24858909-.2223491l-.4854393-4.37378757zm-2.14822438-2.37126397c.58583066-.58583066 1.53546318-.58583066 2.12129388 0 .508757.50875698.5726056 1.29044264.1974902 1.87132362h-2.51627424c-.37511547-.58088098-.31126682-1.36256664.19749016-1.87132362z"/></svg>