<svg viewBox="0 0 30 30" xmlns="http://www.w3.org/2000/svg"><path d="m15 4a3 3 0 0 0 -3 3 3 3 0 0 0 3 3 3 3 0 0 0 3-3 3 3 0 0 0 -3-3zm-12.9785156.9882812a1.0001 1.0001 0 0 0 -.8710938 1.5410157l3.2636719 5.2421871a1.0001 1.0001 0 0 0 .3183594.316407l4.6679687 3.49414s.5996094 2.673328.5996094 3.486328c0 1.297623-1.77855 5.020833-1.8125 5.091797-.0003238.000677-.0175781.039063-.0175781.039063a2 2 0 0 0 -.1699219.800781 2 2 0 0 0 2 2 2 2 0 0 0 1.556641-.746094l3.443359-4.253906 3.419922 4.224609a2 2 0 0 0 1.580078.775391 2 2 0 0 0 2-2 2 2 0 0 0 -.169922-.800781s-1.830078-3.82086-1.830078-5.13086c0-.813.599609-3.486328.599609-3.486328l4.652344-3.482422a1.0001 1.0001 0 0 0 .333985-.328125l3.263671-5.2421871a1.0001 1.0001 0 0 0 -.800781-1.5410157 1.0001 1.0001 0 0 0 -.865234.4316407l-3.914063 4.5234375-4.857422 2.0566406h-3.412109-3.412109l-4.8554691-2.0546875-3.9296875-4.5429687a1.0001 1.0001 0 0 0 -.78125-.4140626z"/></svg>