<?xml version="1.0" encoding="UTF-8"?>
<svg viewBox="0 0 23 24" version="1.1" xmlns="http://www.w3.org/2000/svg" xmlns:xlink="http://www.w3.org/1999/xlink">
  <path d="M17.498047,0 C16.118047,0 15,1.12 15,2.5 C15,3.88 16.118047,5 17.498047,5 C18.881047,5 20,3.88 20,2.5 C20,1.12 18.881047,0 17.498047,0 Z M8,5 C7.73480111,5 7.48048066,5.10543258 7.292969,5.2929688 L4.2929688,8.292969 C4.10542327,8.48047444 4,8.73479892 4,9 C4,9.55228475 4.44771525,10 5,10 C5.26520118,9.99995986 5.51952575,9.89457665 5.7070312,9.707031 C5.71030887,9.70379852 5.71356418,9.70054344 5.7167969,9.697266 L8.212891,7.201172 L10.533203,7.587891 L8.392578,11.154297 L8.394531,11.162109 C8.147531,11.550109 8,12.007 8,12.5 C8,13.165 8.2645,13.764891 8.6875,14.212891 L8.6875,14.222656 L12.425781,18.085938 L13,23 C13,23.5522847 13.4477153,24 14,24 C14.5522847,24 15,23.5522847 15,23 L15,17 C14.9998931,16.7944767 14.9364695,16.5939766 14.818359,16.425781 L12.787109,13.523438 L15.640625,8.792969 L15.634766,8.783203 C15.861766,8.406203 16,7.971 16,7.5 C16,6.12 14.882,5.001 13.5,5 L13.498047,5 L8,5 Z M17.292969,8.875 L16,11 L16.216797,11.109375 L17.492188,11.861328 C17.6460382,11.95207 17.8213831,11.9999527 18,12 L22,12 C22.5522847,12 23,11.5522847 23,11 C23,10.4477153 22.5522847,10 22,10 L18.654297,10 L17.292969,8.875 Z M6.8710938,14.609375 L5.3691406,16.402344 L1,17 C0.44771525,17 0,17.4477153 0,18 C0,18.5522847 0.44771525,19 1,19 L6,19 C6.27222126,18.999508 6.53247942,18.8880694 6.7207031,18.691406 L6.7890625,18.619141 L8.898438,16.699219 L6.8710938,14.609375 Z" id="Shape"></path>
</svg>
