<svg viewBox="0 0 30 30" xmlns="http://www.w3.org/2000/svg"><path d="m24.5 3a2.5 2.5 0 0 0 -2.5 2.5 2.5 2.5 0 0 0 2.5 2.5 2.5 2.5 0 0 0 2.5-2.5 2.5 2.5 0 0 0 -2.5-2.5zm-8.552734 1.0019531a1.0001 1.0001 0 0 0 -.142578.0175781l-5 1a1.0001 1.0001 0 0 0 .324218 1.9726563l4.810547-.578125 1.480469 1.5859375-4.294922 3.414062a2.5 2.5 0 0 0 -1.125 2.085938 2.5 2.5 0 0 0 .609375 1.632812l2.761719 3.453126-5.371094.414062a1.0001 1.0001 0 0 0 -.0039062 0l-.0234376.001953a1.0001 1.0001 0 1 0 .0273438 1.998047h7.439453c1.103014 0 1.847417-1.223303 1.404297-2.205078l.011719-.011719-1.855469-4.121094 3.123047-2.470703.914062 2.078125a1.0001 1.0001 0 0 0 .113282.257813l.005859.011718h.001953a1.0001 1.0001 0 0 0 .841797.460938h4a1.0001 1.0001 0 1 0 .007812-2l-3.238281-.263672-.802734-3.6308592a2.5 2.5 0 0 0 -.066406-.3007813l-.001953-.0019531a2.5 2.5 0 0 0 -1.111329-1.4414063l-4.183593-3.1601562a1.0001 1.0001 0 0 0 -.65625-.1992188zm-9.947266 4.9980469-1 1h5.685547l1.259765-1zm-3 3v1h6.0488281c.04-.342.1125157-.677.2285157-1zm1 3 1 1h4.7871094c-.213-.315-.3925313-.647-.5195313-1zm10 8-1.794922 2.392578a1 1 0 0 0 -.205078.607422 1 1 0 0 0 1 1 1 1 0 0 0 .763672-.353516l.001953-.001953a1 1 0 0 1 .001953-.001953l3.132813-3.642578z"/></svg>