<svg viewBox="0 0 30 30" xmlns="http://www.w3.org/2000/svg"><path d="m7.5 3a2.5 2.5 0 0 0 -2.5 2.5 2.5 2.5 0 0 0 2.5 2.5 2.5 2.5 0 0 0 2.5-2.5 2.5 2.5 0 0 0 -2.5-2.5zm8.982422 3a.50005.50005 0 0 0 -.482422.5v2.5h-8.5a1.0001 1.0001 0 0 0 -.2167969.0214844c-1.2777384.1115223-2.2832031 1.1717716-2.2832031 2.4785156v5c0 .913923.4948014 1.704578 1.2265625 2.140625a1.0001 1.0001 0 0 0 .1738281.160156l3.7636714 2.822266c-.3849441.317355-.7576422.607513-1.1582026.958984.292-.105.5310156-.205484.6660156-.271484.84-.409 1.833922-.412141 2.669922.005859.381.185 1.628203.683594 2.658203.683594s2.277875-.497453 2.671875-.689453c.84-.409 1.833922-.412141 2.669922.005859.055.026.13175.060656.21875.097656.834-.748999 1.505984-1.405328 1.708984-1.611328 1-1.016 1.728516-1.924859 1.728516-3.130859 0-.843-.927422-1.671875-2.232422-1.671875-1.447583 0-3.396292.451607-5.830078 1.701172l-3.335938-2.501953a1.0001 1.0001 0 0 0 -.466797-.189453l-2.132812-.521485v-2.710937l6-.666016v2.388672a.50005.50005 0 0 0 .777344.416016l5.875-3.916016h3.847656a.50005.50005 0 1 0 0-1h-3.882812l-5.894532-2.9472656a.50005.50005 0 0 0 -.240234-.0527344zm.517578 1.3085938 4.505859 2.2539062-4.505859 3.003906v-1.566406a1.0001 1.0001 0 1 0 0-2zm-5.921875 10.0000002 2.945313 1.490234c-.717335.450604-1.467485.967585-2.257813 1.558594a1.0003905 1.0003905 0 0 0 -.070313-.076172l-2.0605464-2.498047c.0083877-.013932.0153156-.028862.0234375-.042969zm-8.1132812 6.685547a1.0001 1.0001 0 0 0 -.4121094 1.90039s2.1139323 1.105469 4.4472656 1.105469c1.9465696 0 3.458804-.666797 4-.921875.541196.255078 2.05343.921875 4 .921875s3.458804-.666797 4-.921875c.541196.255078 2.05343.921875 4 .921875 2.333333 0 4.447266-1.105469 4.447266-1.105469a1.0001163 1.0001163 0 1 0 -.894532-1.789062s-1.886067.894531-3.552734.894531-3.552734-.894531-3.552734-.894531a1.0001 1.0001 0 0 0 -.894532 0s-1.886067.894531-3.552734.894531-3.552734-.894531-3.552734-.894531a1.0001 1.0001 0 0 0 -.894532 0s-1.8860673.894531-3.552734.894531-3.5527344-.894531-3.5527344-.894531a1.0001 1.0001 0 0 0 -.4824218-.111328z"/></svg>