<svg viewBox="0 0 30 30" xmlns="http://www.w3.org/2000/svg"><path d="m19.5 3c-1.38 0-2.5 1.119-2.5 2.5s1.12 2.5 2.5 2.5c1.381 0 2.5-1.119 2.5-2.5s-1.119-2.5-2.5-2.5zm-3 6c-.757504 0-1.428133.344366-1.886719.8769531l-.015625.0019531-4.8105466 4.8085938c-.0349963.033073-.0685208.066536-.1015625.101562l-.0839844.083985-.0117187.033203c-.3623018.433731-.5898438.984333-.5898438 1.59375l-.5664062 3.751953-3.9589844-.175781-.2792969-.056641a1.0001 1.0001 0 1 0 -.390625 1.960938l5 1a1.0001 1.0001 0 0 0 1.0664063-.494141l2.7480472-4.160156 2.398437 1.033203-1.927734 4.210937.001953.001954a1.0001 1.0001 0 0 0 .314453 1.273437c-.156175.086408-.304935.154297-.40625.154297-.166667 0-.530651-.138924-.820312-.332031-.289662-.193108-.472657-.375-.472657-.375a1.0001 1.0001 0 0 0 -1.414062 0s-.182995.181892-.4726565.375c-.2896615.193107-.6536458.332031-.8203125.332031s-.5721786-.147753-.890625-.347656c-.3184464-.199904-.5273437-.390625-.5273438-.390625a1.0001 1.0001 0 0 0 -1.4160156.066406c0-.000004-.8326823.671875-1.1660156.671875-.1666667 0-.530651-.138924-.8203125-.332031-.2896615-.193108-.4726562-.375-.4726563-.375a1.0001 1.0001 0 0 0 -.7167968-.302735 1.0001 1.0001 0 0 0 -.6972656 1.716797s.3170052.318108.7773437.625c.4603385.306893 1.0963542.667969 1.9296875.667969.8762847 0 1.5300875-.350988 1.984375-.699219.034962.02301.025783.023835.0625.046875.4780536.300102 1.1197917.652344 1.953125.652344s1.469348-.361076 1.929688-.667969c.041669-.02778.031122-.02892.070312-.05664.03919.02772.028643.02886.070312.05664.460344.306893 1.096355.667969 1.929688.667969.876285 0 1.530087-.350988 1.984375-.699219.03496.02301.02578.023835.0625.046875.478054.300102 1.119792.652344 1.953125.652344s1.469349-.361076 1.929688-.667969c.041669-.02778.031122-.02892.070312-.05664.03919.02772.028643.02886.070312.05664.460344.306893 1.096355.667969 1.929688.667969.876285 0 1.530087-.350988 1.984375-.699219.03496.02301.02578.023835.0625.046875.478054.300102 1.119792.652344 1.953125.652344s1.469349-.361076 1.929688-.667969c.460338-.306892.777343-.625.777343-.625a1.0001 1.0001 0 1 0 -1.414062-1.414062s-.182994.181892-.472657.375c-.28966.193107-.653645.332031-.820312.332031s-.572179-.147753-.890625-.347656c-.318446-.199904-.527344-.390625-.527344-.390625a1.0001 1.0001 0 0 0 -1.416015.066406c0-.000004-.832683.671875-1.166016.671875-.166667 0-.530651-.138924-.820312-.332031-.289662-.193108-.472657-.375-.472657-.375a1.0001 1.0001 0 0 0 -1.414062 0s-.182995.181892-.472657.375c-.28966.193107-.653645.332031-.820312.332031s-.572179-.147753-.890625-.347656c-.318446-.199904-.527344-.390625-.527344-.390625a1.0001 1.0001 0 0 0 -.433593-.232422l2.708984-4.515625a1.0001 1.0001 0 0 0 -.21875-1.28125l-2.134766-2.222656 2.703125-2.69336c.03721-.034971.07241-.07025.107422-.107422l.080078-.078125 5.955078 3.660157.021485.015625a1.0001 1.0001 0 1 0 1.203125-1.597657l-7.617188-5.7324215c-.032698-.0235766-.063798-.0483045-.097656-.0703125a1.0001 1.0001 0 0 0 -.146484-.078125c-.360672-.2018247-.770103-.328125-1.212891-.328125zm9.5 1.400391c-1.105 0-2 .895-2 2s.895 2 2 2 2-.895 2-2-.895-2-2-2z"/></svg>