<svg viewBox="0 0 30 30" xmlns="http://www.w3.org/2000/svg"><path d="m22.498047 2c-1.38 0-2.498047 1.12-2.498047 2.5s1.118047 2.5 2.498047 2.5c1.383 0 2.501953-1.12 2.501953-2.5s-1.118953-2.5-2.501953-2.5zm-9.498047 5a1.0001 1.0001 0 0 0 -.599609.1992188l-4.0000004 3.0000002v.001953a1 1 0 0 0 -.4003906.798828 1 1 0 0 0 1 1 1 1 0 0 0 .5996094-.201172v.001953l.0214844-.017578 3.4707032-2.6015624 1.888672.3144532-2.126953 2.1230472v.013671c-.519079.45821-.853516 1.120679-.853516 1.867188 0 .664574.2643 1.264961.6875 1.712891v.009765l3.3125 3.423828.9375 5.353516h-7.7011719l-1.7890625-.894531a1.0001 1.0001 0 0 0 -.4824218-.111328 1.0001 1.0001 0 0 0 -.4121094 1.90039l2 1a1.0001 1.0001 0 0 0 .4472656.105469h12a1.0001 1.0001 0 0 0 .447266-.105469l2-1a1.0001163 1.0001163 0 1 0 -.894532-1.789062l-1.789062.894531h-1.763672v-6a1.0001 1.0001 0 0 0 -.140625-.505859l.001953-.003907-1.621094-3.193359 3.082032-3.085937-.003907-.003907c.419932-.447315.681641-1.045436.681641-1.707031 0-1.3793406-1.117914-2.4989304-2.5-2.5h-.001953zm8.703125 5.214844-1.703125 1.785156.576172.320312.916016.541016a1.0001 1.0001 0 0 0 .191406.087891l3 1v-.001953a1 1 0 0 0 .316406.052734 1 1 0 0 0 1-1 1 1 0 0 0 -.683594-.947266v-.001953l-.021484-.005859-2.320313-.773438.003907-.003906zm-10.832031 3.394531-1.5019534 1.792969-4.4609375.601562.0039063.001953a1 1 0 0 0 -.9121094.994141 1 1 0 0 0 1 1h5a1.0001 1.0001 0 0 0 .720703-.308594l.068359-.072265 2.109376-1.919922zm-.871094 11.390625a1 1 0 0 0 -1 1 1 1 0 0 0 1 1 1 1 0 0 0 1-1 1 1 0 0 0 -1-1zm10 0a1 1 0 0 0 -1 1 1 1 0 0 0 1 1 1 1 0 0 0 1-1 1 1 0 0 0 -1-1z"/></svg>