<?xml version="1.0" encoding="utf-8"?>
<!-- Generator: Adobe Illustrator 16.0.4, SVG Export Plug-In . SVG Version: 6.00 Build 0)  -->
<!DOCTYPE svg PUBLIC "-//W3C//DTD SVG 1.1//EN" "http://www.w3.org/Graphics/SVG/1.1/DTD/svg11.dtd">
<svg version="1.1" id="svg1339" xmlns:svg="http://www.w3.org/2000/svg"
	 xmlns="http://www.w3.org/2000/svg" xmlns:xlink="http://www.w3.org/1999/xlink" x="0px" y="0px" width="1053px" height="446px"
	 viewBox="-19.5 -121.5 1053 446" enable-background="new -19.5 -121.5 1053 446" xml:space="preserve">
<g id="g1348" transform="translate(-16.92808,279.3133)">
	<path id="path1350" fill="#040000" d="M96.467-86.554c-18.991-3.642-35.344-12.074-49.687-25.623
		c-20.683-19.539-32.072-49.572-29.491-77.769c3.077-33.603,21.467-61.772,50.906-77.976c16.952-9.331,42.364-13.631,60.523-10.244
		c1.047,0.195,3.891,0.686,6.319,1.091c6.916,1.152,17.667,5.116,25.793,9.509c44.341,23.973,62.643,77.127,42.795,124.293
		c-9.317,22.143-30.636,42.872-52.76,51.307C135.212-85.999,111.61-83.651,96.467-86.554z M120.378-95.649
		c4.684-0.818,12.129-2.771,16.545-4.337c30.898-10.96,54.063-41.292,56.818-74.397l0.664-7.976h8.435h8.685l-0.422-2.85
		c-0.283-1.516-0.968-4.909-1.518-7.654c-2.549-12.722-13.247-28.542-25.966-35.26c-9.779-5.165-16.382-6.641-27.385-6.122
		c-24.849,1.171-43.442,16.004-49.516,39.502c-0.875,3.387-1.592,7.559-1.592,9.271l-0.088,3.112h-9.005l-8.608,0.044l0.321-5.306
		c3.561-27.991,20.538-47.677,46.377-54.318c8.367-2.15,23.568-2.177,31.497-0.054c11.426,3.059,22.334,9.767,30.795,18.937
		c2.761,2.992,3.475,3.432,2.616,1.61c-0.65-1.378-4.857-6.125-9.349-10.547c-9.026-8.887-19.735-15.085-31.561-18.268
		c-8.815-2.373-27.1-2.308-35.997,0.127c-19.332,5.291-36.069,18.98-45.079,36.871c-3.801,7.548-6.916,19.088-6.916,25.623v5.282
		h-9.115h-8.807l0.335-6.765c3.161-33.209,25.245-59.909,57.583-69.619c9.381-2.817,27.295-3.502,37.296-1.428
		c16.749,3.474,30.433,11.035,42.65,23.563c6.229,6.389,6.948,6.903,4.373,3.134c-4.741-6.942-18.214-19.293-26.294-24.105
		c-23.936-14.253-54.345-16.375-79.894-5.575c-31.462,13.3-52.007,43.357-54.024,79.041c-0.043,0.76,0.893-15.326-0.055,1.756
		c-1.301,0.028-4.662-0.002-8.188-0.002l-8.945,0.044l0.829,6.176c0.331,3.444,1.936,8.562,2.868,11.319
		c2.018,5.972,8.972,17.003,13.007,20.638c13.25,11.934,30.303,16.907,46.381,13.532c22.915-4.812,40.597-24.327,42.308-46.698
		l0.345-4.51l9.171-0.289l9.171-0.288l-0.018,3.295c-0.022,4.184-2.156,13.772-3.718,17.76c-2.504,6.39-2.752,6.039-5.426,10.014
		c-8.865,13.174-19.742,23.043-34.256,27.803c-6.81,2.234-9.883,2.652-19.577,2.67c-9.872,0.017-12.537-0.351-18.833-2.59
		c-12.268-4.363-22.502-11.672-30.514-21.793c-1.528-1.93-0.844-0.633,1.519,2.881c18.773,27.916,57.06,38.303,87.352,23.698
		c8.055-3.884,20.366-13.271,25.898-19.75c7.686-9,13.617-23.746,15.142-37.647l0.688-6.265h8.519h8.519l-0.595,8.269
		c-1.813,25.205-19.273,51.244-41.498,61.885c-21.95,10.51-42.723,12.191-63.623,5.152c-14.214-4.789-28.362-14.912-38.01-27.196
		l-2.754-3.509l1.848,3.396c2.589,4.758,15.777,18.669,22.225,23.444c10.031,7.428,27.866,14.489,40.618,16.082
		C101.838-93.934,112.496-94.272,120.378-95.649z M805.56-117.62c-24.005-4.682-34.507-17.178-34.491-41.041
		c0.003-5.041,0.424-11.646,0.936-14.678s2.558-14.758,4.547-26.06c5.941-33.756,8.494-48.565,8.503-49.36
		c0.005-0.414,9.615-0.752,21.354-0.752h21.349l-1.774,10.273c-1.853,10.732-5.91,33.82-10.434,59.383
		c-2.812,15.879-2.818,21.871-0.036,26.129c5.512,8.432,25.035,7.225,32.04-1.98c4.998-6.568,4.71-5.264,17.761-80.273l2.269-13.029
		l21.233-0.271c11.68-0.149,21.233,0.077,21.23,0.501c-0.003,0.424-1.31,7.988-2.902,16.808s-4.31,24.154-6.036,34.076
		c-4.43,25.459-5.886,31.976-9.178,41.092c-3.315,9.178-10.312,20.049-16.096,25.012c-5.791,4.969-16.565,10.331-25.479,12.68
		C840.199-116.434,815.802-115.622,805.56-117.62z M944.547-117.682c-21.663-4.8-34.003-16.924-35.269-34.647l-0.498-6.978h20.633
		c19.845,0,20.633,0.075,20.633,1.971c0,2.927,5.589,8.764,9.689,10.119c4.996,1.653,16.324,0.697,20.466-1.728
		c7.677-4.493,7.604-11.104-0.162-15.021c-2.474-1.246-9.896-3.67-16.494-5.387c-14.918-3.881-19.252-5.324-25.491-8.494
		c-11.728-5.956-16.979-14.055-16.995-26.207c-0.034-24.676,18.248-43.228,46.751-47.441c12.036-1.779,17.587-1.985,26.232-0.973
		c16.619,1.945,27.665,7.814,33.702,17.909c3.437,5.744,5.62,14.018,5.108,19.348l-0.315,3.283l-19.721,0.014l-19.721,0.014
		l-0.602-2.742c-0.859-3.923-5.53-7.441-10.966-8.258c-13.396-2.014-23.014,5.114-16.833,12.476
		c2.57,3.062,9.007,5.473,28.334,10.615c17.688,4.706,28.254,11.228,32.547,20.088c5.54,11.438,1.25,30.601-9.736,43.486
		c-5.848,6.858-18.271,13.637-31.298,17.078C974.453-116.491,953.419-115.716,944.547-117.682z M275.328-131.232
		c3.344-6.347,7.308-13.793,8.81-16.55c3.004-5.512,15-27.962,22.491-42.094c2.63-4.961,7.353-13.756,10.495-19.544
		c3.142-5.788,8.432-15.714,11.754-22.058c3.321-6.343,6.869-12.993,7.883-14.776l1.842-3.243l21.748-0.006
		c12.803-0.003,21.748,0.378,21.748,0.929c0,0.762,2.564,15.44,5.526,31.638c0.303,1.654,3.896,21.498,7.986,44.099
		c4.09,22.601,7.897,43.535,8.46,46.521c0.563,2.986,0.766,5.689,0.446,6.009c-0.317,0.317-9.747,0.588-20.955,0.598l-20.379,0.018
		l-0.635-5.525c-0.35-3.037-0.959-6.877-1.354-8.529l-0.721-3.008l-20.697-0.271l-20.697-0.271l-4.282,8.783l-4.281,8.783
		l-20.634,0.02l-20.634,0.019L275.328-131.232z M357.563-167.345c-0.06-5.41-4.188-41.132-4.826-41.773
		c-0.158-0.159-1.576,2.527-3.151,5.969c-1.574,3.441-5.079,10.993-7.789,16.781c-6.349,13.562-9.691,21.132-9.691,21.943
		c0,0.354,5.736,0.629,12.749,0.606l12.748-0.039L357.563-167.345z M416.391-120.895c-0.251-0.654,0.224-4.715,1.055-9.025
		c0.83-4.312,2.924-15.956,4.651-25.879c3.919-22.504,8.285-47.3,11.999-68.151c1.571-8.82,3.164-18.178,3.541-20.797l0.684-4.761
		h21.493h21.493l-0.562,2.255c-0.525,2.104-2.773,14.785-9.105,51.365c-1.432,8.269-3.233,18.416-4.004,22.551
		c-0.771,4.135-2.81,15.635-4.526,25.557c-1.719,9.923-3.559,20.299-4.09,23.06l-0.967,5.018h-20.604
		C422.481-119.706,416.721-120.032,416.391-120.895z M485.089-120.608c0-0.503,1.549-9.529,3.44-20.058
		c1.893-10.529,4.625-25.907,6.072-34.177c1.447-8.269,3.946-22.476,5.554-31.57c1.607-9.095,3.943-22.4,5.191-29.566l2.269-13.029
		h40.481c35.891,0,41.378,0.21,48.382,1.856c16.415,3.856,23.445,10.903,23.987,24.045c0.733,17.789-8.324,34.199-22.02,39.888
		l-5.396,2.242l5.739,3.067c10.802,5.772,12.726,12.444,9.361,32.461c-2.472,14.707-2.655,20.781-0.653,21.552
		c0.793,0.307,1.212,1.687,0.946,2.7c-0.439,1.688-2.036,1.489-21.92,1.489H565.08l0.004-5.018c0.002-2.76,0.669-9.076,1.481-14.037
		c3.672-22.404,1.436-25.412-19.583-26.32l-11.597-0.501l-0.578,3.389c-5.604,32.88-6.866,39.699-7.586,40.968
		c-0.71,1.25-4.239,1.5-21.492,1.514C493.952-119.702,485.089-120.087,485.089-120.608z M568.826-194.904
		c11.407-3.396,14.669-15.455,5.937-21.943c-2.535-1.883-4.19-2.094-16.422-2.094h-13.604l-2.163,12.778l-2.163,12.779h11.655
		C559.569-193.384,565.537-193.925,568.826-194.904z M625.584-121.684c0.241-1.123,1.574-8.582,2.962-16.576
		c1.386-7.991,3.677-21.071,5.091-29.063c2.68-15.147,5.477-31.168,9.885-56.627c1.434-8.269,3.076-17.411,3.653-20.317l1.05-5.283
		l38.171,0.134c40.486,0.143,47.837,0.772,57.457,4.922c6.322,2.728,12.877,9.72,13.816,14.739
		c1.153,6.167-0.203,15.984-3.002,21.719c-2.731,5.597-8.604,12.365-14.581,16.805l-3.479,2.584l3.979,2.045
		c8.411,4.322,12.514,12.508,11.826,23.596c-1.19,19.18-13.127,33.785-32.075,39.248c-12.13,3.496-16.969,3.841-55.98,3.979
		C625.383-119.641,625.147-119.653,625.584-121.684z M705.502-152.159c5.146-2.281,7.565-6.143,7.565-12.07
		c0-5.104-2.563-7.633-9.178-9.055c-5.606-1.205-25.814-1.443-25.828-0.305c-0.005,0.412-0.856,5.712-1.895,11.774
		c-1.146,6.693-1.516,11.259-0.941,11.616c0.521,0.325,6.549,0.458,13.398,0.296C698.345-150.134,702.05-150.628,705.502-152.159z
		 M708.798-199.361c6.642-3.021,10.136-10.705,7.291-16.032c-1.578-2.956-6.581-4.049-18.539-4.049h-11.22l-1.097,5.763
		c-0.604,3.169-1.395,8.13-1.759,11.024l-0.662,5.262l10.877-0.022C702.248-197.432,705.471-197.847,708.798-199.361z"/>
</g>
</svg>
