<?xml version="1.0" encoding="UTF-8"?>
<svg width="24px" height="24px" viewBox="0 0 24 24" version="1.1" xmlns="http://www.w3.org/2000/svg" xmlns:xlink="http://www.w3.org/1999/xlink">
    <title>assets/SVGs/app-store-apple</title>
    <defs>
        <linearGradient x1="50%" y1="0%" x2="50%" y2="100%" id="asp-linearGradient-1">
            <stop stop-color="#72CBFF" offset="0%"></stop>
            <stop stop-color="#0B60A1" offset="99.9043925%"></stop>
        </linearGradient>
    </defs>
    <g id="Page-1" stroke="none" stroke-width="1" fill="none" fill-rule="evenodd">
        <g id="12.9″-iPad-Pro" transform="translate(-1125.000000, -4316.000000)" fill-rule="nonzero">
            <g id="assets/SVGs/app-store-apple" transform="translate(1125.000000, 4316.000000)">
                <rect id="Rectangle" fill="url(#asp-linearGradient-1)" x="0" y="0" width="24" height="24" rx="6"></rect>
                <path d="M14.0207868,15.6 C14.07007,15.4591931 14.095611,15.3102053 14.095611,15.1574962 C14.095611,14.4132092 13.4878901,13.8098453 12.7382284,13.8098453 L9.56110848,13.8098453 L13.9790659,6.21258036 C14.2280195,5.78447148 14.0802794,5.23705078 13.649079,4.98988201 C13.2178787,4.74271324 12.6665049,4.88939417 12.4175513,5.31750304 L11.9157794,6.18036649 L11.3554543,5.21681307 C11.1236699,4.81822894 10.6103219,4.68166394 10.2088595,4.91178659 C9.80739714,5.14190924 9.66984594,5.65157678 9.90163038,6.05016091 L10.9465634,7.84706221 L7.47908904,13.8098453 L4.80154088,13.8098453 C4.3036336,13.8098453 3.9,14.2105851 3.9,14.7049226 C3.9,15.1992602 4.3036336,15.6 4.80154088,15.6 L14.0207888,15.6 L14.0207868,15.6 Z M13.5257137,9 C12.805278,9.86782818 12.688217,11.1010889 13.2723893,12.0971772 C13.3878346,12.2940261 13.5397274,12.5769203 13.9123928,13.2833902 L17.1165235,18.7468421 C17.3706624,19.1801816 17.9335205,19.3286546 18.3737022,19.0784659 C18.8138839,18.8282773 18.9647012,18.2741683 18.7105622,17.8408289 L17.5393846,15.8438214 L19.1796813,15.8438214 C19.6879593,15.8438214 20.1,15.4381854 20.1,14.9378081 C20.1,14.4374308 19.6879593,14.0317949 19.1796813,14.0317949 L16.476692,14.0317949 L13.5257137,9 Z M8.1,16.8711801 C7.8615502,16.4553761 7.46875735,16.2 7.03932685,16.2 C6.83764155,16.2 6.64222013,16.2532667 6.46375078,16.3544998 L5.8093926,17.7229144 C5.58419819,18.193848 5.71783855,18.7960286 6.10788671,19.0679223 C6.49793487,19.339816 6.99668749,19.1784622 7.22188194,18.7075285 L8.1,16.8711801 Z" id="Shape" fill="#FFFFFF"></path>
            </g>
        </g>
    </g>
</svg>
