<svg viewBox="0 0 30 30" xmlns="http://www.w3.org/2000/svg"><path d="m19.2265625 27.1054688c.9453125 0 1.6894531-.2617188 2.2324219-.7851563.5429687-.5234375.8144531-1.2460937.8144531-2.1679687v-18.1992188c0-.9140625-.2714844-1.63476562-.8144531-2.16210938-.5429688-.52734374-1.2871094-.79101562-2.2324219-.79101562h-8.1796875c-.9453125 0-1.68945312.26367188-2.23242188.79101562-.54296874.52734376-.81445312 1.24804688-.81445312 2.16210938v18.1992188c0 .921875.27148438 1.6445312.81445312 2.1679687.54296876.5234375 1.28710938.7851563 2.23242188.7851563zm-.1640625-1.4296876h-7.8515625c-.5859375 0-1.0273437-.1445312-1.32421875-.4335937-.296875-.2890625-.4453125-.71875-.4453125-1.2890625v-17.7890625c0-.578125.1484375-1.00976562.4453125-1.29492188.29687505-.28515624.73828125-.42773437 1.32421875-.42773437h7.8515625c.5859375 0 1.0253906.14257813 1.3183594.42773437.2929687.28515626.4394531.71679688.4394531 1.29492188v17.7890625c0 .5703125-.1464844 1-.4394531 1.2890625-.2929688.2890625-.7324219.4335937-1.3183594.4335937zm-6.3632812-17.39062495c.296875 0 .4453124-.140625.4453124-.421875v-1.11328125c0-.28125-.1484374-.421875-.4453124-.421875h-1.078125c-.2890626 0-.4335938.140625-.4335938.421875v1.11328125c0 .28125.1445312.421875.4335938.421875zm2.953125 0c.296875 0 .4453124-.140625.4453124-.421875v-1.11328125c0-.28125-.1484374-.421875-.4453124-.421875h-1.0898438c-.2734375 0-.4101562.140625-.4101562.421875v1.11328125c0 .28125.1367187.421875.4101562.421875zm2.953125 0c.296875 0 .4453124-.140625.4453124-.421875v-1.11328125c0-.28125-.1484374-.421875-.4453124-.421875h-1.078125c-.28125 0-.421875.140625-.421875.421875v1.11328125c0 .28125.140625.421875.421875.421875zm-5.90625 3.10546875c.296875 0 .4453124-.1367188.4453124-.4101562v-1.1132813c0-.28125-.1484374-.421875-.4453124-.421875h-1.078125c-.2890626 0-.4335938.140625-.4335938.421875v1.1132813c0 .2734374.1445312.4101562.4335938.4101562zm2.953125 0c.296875 0 .4453124-.1367188.4453124-.4101562v-1.1132813c0-.28125-.1484374-.421875-.4453124-.421875h-1.0898438c-.2734375 0-.4101562.140625-.4101562.421875v1.1132813c0 .2734374.1367187.4101562.4101562.4101562zm2.953125 0c.296875 0 .4453124-.1367188.4453124-.4101562v-1.1132813c0-.28125-.1484374-.421875-.4453124-.421875h-1.078125c-.28125 0-.421875.140625-.421875.421875v1.1132813c0 .2734374.140625.4101562.421875.4101562zm-5.90625 3.1171875c.296875 0 .4453124-.140625.4453124-.421875v-1.1015625c0-.28125-.1484374-.421875-.4453124-.421875h-1.078125c-.2890626 0-.4335938.140625-.4335938.421875v1.1015625c0 .28125.1445312.421875.4335938.421875zm2.953125 0c.296875 0 .4453124-.140625.4453124-.421875v-1.1015625c0-.28125-.1484374-.421875-.4453124-.421875h-1.0898438c-.2734375 0-.4101562.140625-.4101562.421875v1.1015625c0 .28125.1367187.421875.4101562.421875zm-2.953125 9.4453125c.296875 0 .4453124-.1367188.4453124-.4101562v-1.1132813c0-.28125-.1484374-.421875-.4453124-.421875h-1.078125c-.2890626 0-.4335938.140625-.4335938.421875v1.1132813c0 .2734374.1445312.4101562.4335938.4101562zm2.953125 0c.296875 0 .4453124-.1367188.4453124-.4101562v-1.1132813c0-.28125-.1484374-.421875-.4453124-.421875h-1.0898438c-.2734375 0-.4101562.140625-.4101562.421875v1.1132813c0 .2734374.1367187.4101562.4101562.4101562zm2.953125 0c.296875 0 .4453124-.1367188.4453124-.4101562v-1.1132813c0-.28125-.1484374-.421875-.4453124-.421875h-1.078125c-.28125 0-.421875.140625-.421875.421875v1.1132813c0 .2734374.140625.4101562.421875.4101562z"/></svg>