<?xml version="1.0" encoding="UTF-8"?>
<svg viewBox="0 0 30 30" version="1.1" xmlns="http://www.w3.org/2000/svg" xmlns:xlink="http://www.w3.org/1999/xlink">
  <path d="M19.2265625,27.1054688 C20.171875,27.1054688 20.9160156,26.84375 21.4589844,26.3203125 C22.0019531,25.796875 22.2734375,25.0742188 22.2734375,24.1523438 L22.2734375,5.953125 C22.2734375,5.0390625 22.0019531,4.31835938 21.4589844,3.79101562 C20.9160156,3.26367188 20.171875,3 19.2265625,3 L11.046875,3 C10.1015625,3 9.35742188,3.26367188 8.81445312,3.79101562 C8.27148438,4.31835938 8,5.0390625 8,5.953125 L8,24.1523438 C8,25.0742188 8.27148438,25.796875 8.81445312,26.3203125 C9.35742188,26.84375 10.1015625,27.1054688 11.046875,27.1054688 L19.2265625,27.1054688 Z M19.0625,25.6757812 L11.2109375,25.6757812 C10.625,25.6757812 10.1835938,25.53125 9.88671875,25.2421875 C9.58984375,24.953125 9.44140625,24.5234375 9.44140625,23.953125 L9.44140625,6.1640625 C9.44140625,5.5859375 9.58984375,5.15429688 9.88671875,4.86914062 C10.1835938,4.58398438 10.625,4.44140625 11.2109375,4.44140625 L19.0625,4.44140625 C19.6484375,4.44140625 20.0878906,4.58398438 20.3808594,4.86914062 C20.6738281,5.15429688 20.8203125,5.5859375 20.8203125,6.1640625 L20.8203125,23.953125 C20.8203125,24.5234375 20.6738281,24.953125 20.3808594,25.2421875 C20.0878906,25.53125 19.6484375,25.6757812 19.0625,25.6757812 Z M12.6992188,8.28515625 C12.9960938,8.28515625 13.1445312,8.14453125 13.1445312,7.86328125 L13.1445312,6.75 C13.1445312,6.46875 12.9960938,6.328125 12.6992188,6.328125 L11.6210938,6.328125 C11.3320312,6.328125 11.1875,6.46875 11.1875,6.75 L11.1875,7.86328125 C11.1875,8.14453125 11.3320312,8.28515625 11.6210938,8.28515625 L12.6992188,8.28515625 Z M15.6523438,8.28515625 C15.9492188,8.28515625 16.0976562,8.14453125 16.0976562,7.86328125 L16.0976562,6.75 C16.0976562,6.46875 15.9492188,6.328125 15.6523438,6.328125 L14.5625,6.328125 C14.2890625,6.328125 14.1523438,6.46875 14.1523438,6.75 L14.1523438,7.86328125 C14.1523438,8.14453125 14.2890625,8.28515625 14.5625,8.28515625 L15.6523438,8.28515625 Z M18.6054688,8.28515625 C18.9023438,8.28515625 19.0507812,8.14453125 19.0507812,7.86328125 L19.0507812,6.75 C19.0507812,6.46875 18.9023438,6.328125 18.6054688,6.328125 L17.5273438,6.328125 C17.2460938,6.328125 17.1054688,6.46875 17.1054688,6.75 L17.1054688,7.86328125 C17.1054688,8.14453125 17.2460938,8.28515625 17.5273438,8.28515625 L18.6054688,8.28515625 Z M12.6992188,11.390625 C12.9960938,11.390625 13.1445312,11.2539062 13.1445312,10.9804688 L13.1445312,9.8671875 C13.1445312,9.5859375 12.9960938,9.4453125 12.6992188,9.4453125 L11.6210938,9.4453125 C11.3320312,9.4453125 11.1875,9.5859375 11.1875,9.8671875 L11.1875,10.9804688 C11.1875,11.2539062 11.3320312,11.390625 11.6210938,11.390625 L12.6992188,11.390625 Z M15.6523438,11.390625 C15.9492188,11.390625 16.0976562,11.2539062 16.0976562,10.9804688 L16.0976562,9.8671875 C16.0976562,9.5859375 15.9492188,9.4453125 15.6523438,9.4453125 L14.5625,9.4453125 C14.2890625,9.4453125 14.1523438,9.5859375 14.1523438,9.8671875 L14.1523438,10.9804688 C14.1523438,11.2539062 14.2890625,11.390625 14.5625,11.390625 L15.6523438,11.390625 Z M18.6054688,11.390625 C18.9023438,11.390625 19.0507812,11.2539062 19.0507812,10.9804688 L19.0507812,9.8671875 C19.0507812,9.5859375 18.9023438,9.4453125 18.6054688,9.4453125 L17.5273438,9.4453125 C17.2460938,9.4453125 17.1054688,9.5859375 17.1054688,9.8671875 L17.1054688,10.9804688 C17.1054688,11.2539062 17.2460938,11.390625 17.5273438,11.390625 L18.6054688,11.390625 Z M12.6992188,14.5078125 C12.9960938,14.5078125 13.1445312,14.3671875 13.1445312,14.0859375 L13.1445312,12.984375 C13.1445312,12.703125 12.9960938,12.5625 12.6992188,12.5625 L11.6210938,12.5625 C11.3320312,12.5625 11.1875,12.703125 11.1875,12.984375 L11.1875,14.0859375 C11.1875,14.3671875 11.3320312,14.5078125 11.6210938,14.5078125 L12.6992188,14.5078125 Z M15.6523438,14.5078125 C15.9492188,14.5078125 16.0976562,14.3671875 16.0976562,14.0859375 L16.0976562,12.984375 C16.0976562,12.703125 15.9492188,12.5625 15.6523438,12.5625 L14.5625,12.5625 C14.2890625,12.5625 14.1523438,12.703125 14.1523438,12.984375 L14.1523438,14.0859375 C14.1523438,14.3671875 14.2890625,14.5078125 14.5625,14.5078125 L15.6523438,14.5078125 Z M12.6992188,23.953125 C12.9960938,23.953125 13.1445312,23.8164062 13.1445312,23.5429688 L13.1445312,22.4296875 C13.1445312,22.1484375 12.9960938,22.0078125 12.6992188,22.0078125 L11.6210938,22.0078125 C11.3320312,22.0078125 11.1875,22.1484375 11.1875,22.4296875 L11.1875,23.5429688 C11.1875,23.8164062 11.3320312,23.953125 11.6210938,23.953125 L12.6992188,23.953125 Z M15.6523438,23.953125 C15.9492188,23.953125 16.0976562,23.8164062 16.0976562,23.5429688 L16.0976562,22.4296875 C16.0976562,22.1484375 15.9492188,22.0078125 15.6523438,22.0078125 L14.5625,22.0078125 C14.2890625,22.0078125 14.1523438,22.1484375 14.1523438,22.4296875 L14.1523438,23.5429688 C14.1523438,23.8164062 14.2890625,23.953125 14.5625,23.953125 L15.6523438,23.953125 Z M18.6054688,23.953125 C18.9023438,23.953125 19.0507812,23.8164062 19.0507812,23.5429688 L19.0507812,22.4296875 C19.0507812,22.1484375 18.9023438,22.0078125 18.6054688,22.0078125 L17.5273438,22.0078125 C17.2460938,22.0078125 17.1054688,22.1484375 17.1054688,22.4296875 L17.1054688,23.5429688 C17.1054688,23.8164062 17.2460938,23.953125 17.5273438,23.953125 L18.6054688,23.953125 Z"></path>
</svg>
