<?xml version="1.0" encoding="utf-8"?>
<svg xmlns="http://www.w3.org/2000/svg" viewBox="0 0 50 50" fill="#000000"><path d="M 24.375 2 C 18.695313 2 14.410156 3.980469 11.3125 6.34375 C 3.453125 12.335938 2.6875 22.46875 2.6875 22.46875 C 2.644531 22.929688 2.921875 23.363281 3.363281 23.511719 C 3.800781 23.660156 4.285156 23.488281 4.53125 23.09375 C 4.53125 23.09375 7.417969 18.625 12.4375 15.5 C 14.136719 14.441406 16.304688 13.667969 18.5 13.125 C 17.632813 13.511719 14.636719 14.960938 11.8125 18.25 C 9.261719 21.21875 7.8125 25.261719 7.8125 29.5 C 7.8125 30.566406 7.792969 32.613281 8.40625 34.78125 C 8.976563 36.800781 10.078125 38.761719 11.09375 40.25 C 14.035156 44.554688 18.359375 46.355469 20.4375 47.03125 C 22.832031 47.808594 25.292969 48 27.5625 48 C 35.691406 48 41.125 44.65625 41.125 44.65625 C 41.425781 44.46875 41.601563 44.136719 41.59375 43.78125 L 41.59375 34.53125 C 41.601563 34.15625 41.398438 33.8125 41.070313 33.632813 C 40.742188 33.457031 40.339844 33.476563 40.03125 33.6875 C 40.03125 33.6875 37.898438 35.140625 35.84375 35.75 C 34.296875 36.210938 33.035156 36.8125 28.71875 36.8125 C 22.609375 36.8125 20.027344 34.695313 18.78125 32.65625 C 17.988281 31.355469 17.78125 30.292969 17.71875 29.53125 L 44.3125 29.53125 C 44.863281 29.53125 45.3125 29.082031 45.3125 28.53125 L 45.3125 23.9375 C 45.3125 23.925781 45.3125 23.917969 45.3125 23.90625 C 45.3125 23.90625 45.222656 20.339844 44.46875 17.25 C 44.066406 15.601563 43.449219 13.910156 42.625 12.53125 C 40.851563 9.554688 39.101563 7.328125 35.125 4.875 C 31.015625 2.339844 26.539063 2 24.375 2 Z M 24.375 4 C 26.304688 4 30.441406 4.359375 34.0625 6.59375 C 37.820313 8.910156 39.195313 10.695313 40.90625 13.5625 C 41.585938 14.707031 42.167969 16.238281 42.53125 17.71875 C 43.207031 20.488281 43.3125 23.9375 43.3125 23.9375 L 43.3125 27.53125 L 16.6875 27.53125 C 16.160156 27.53125 15.71875 27.941406 15.6875 28.46875 C 15.6875 28.46875 15.46875 31.082031 17.0625 33.6875 C 18.65625 36.292969 22.121094 38.8125 28.71875 38.8125 C 33.242188 38.8125 35.046875 38.058594 36.40625 37.65625 C 37.605469 37.300781 38.726563 36.753906 39.59375 36.28125 L 39.59375 43.15625 C 38.9375 43.539063 34.597656 46 27.5625 46 C 25.40625 46 23.167969 45.808594 21.0625 45.125 C 19.210938 44.523438 15.316406 42.882813 12.75 39.125 C 11.820313 37.761719 10.789063 35.9375 10.3125 34.25 C 9.792969 32.410156 9.8125 30.578125 9.8125 29.5 C 9.8125 25.71875 11.109375 22.097656 13.3125 19.53125 C 14.390625 18.273438 15.527344 17.351563 16.59375 16.59375 C 16.578125 16.625 16.578125 16.621094 16.5625 16.65625 C 15.714844 18.65625 15.5 20.625 15.5 20.625 C 15.472656 20.90625 15.566406 21.183594 15.757813 21.394531 C 15.949219 21.601563 16.21875 21.71875 16.5 21.71875 L 32.09375 21.71875 C 32.601563 21.722656 33.03125 21.347656 33.09375 20.84375 C 33.09375 20.84375 33.355469 18.289063 32.25 15.6875 C 31.144531 13.085938 28.441406 10.40625 23.25 10.40625 C 19.347656 10.40625 14.738281 11.71875 11.375 13.8125 C 8.921875 15.339844 7.023438 17.125 5.59375 18.65625 C 6.519531 15.46875 8.382813 11.097656 12.53125 7.9375 C 15.359375 5.78125 19.15625 4 24.375 4 Z M 23.25 12.40625 C 27.800781 12.40625 29.53125 14.410156 30.40625 16.46875 C 30.980469 17.816406 31.082031 18.933594 31.09375 19.71875 L 17.78125 19.71875 C 17.894531 19.082031 17.929688 18.5625 18.40625 17.4375 C 19.109375 15.777344 20.28125 14.375 20.28125 14.375 C 20.476563 14.160156 20.566406 13.871094 20.53125 13.582031 C 20.492188 13.292969 20.335938 13.035156 20.09375 12.875 C 21.171875 12.6875 22.273438 12.40625 23.25 12.40625 Z" /></svg>
