<?xml version="1.0" encoding="utf-8"?>
<svg xmlns="http://www.w3.org/2000/svg" viewBox="0 0 50 50" fill="#000000"><path d="M 25 2 C 12.308594 2 2 12.308594 2 25 C 2 37.691406 12.308594 48 25 48 C 37.691406 48 48 37.691406 48 25 C 48 12.308594 37.691406 2 25 2 Z M 25 4 C 36.609375 4 46 13.390625 46 25 C 46 36.609375 36.609375 46 25 46 C 13.390625 46 4 36.609375 4 25 C 4 24.636719 4.007813 24.277344 4.027344 23.917969 C 4.589844 12.8125 13.753906 4 25 4 Z M 25 6 C 14.519531 6 6 14.519531 6 25 C 6 35.480469 14.519531 44 25 44 C 35.480469 44 44 35.480469 44 25 C 44 14.519531 35.480469 6 25 6 Z M 24 8.050781 L 24 10 C 24 10.550781 24.449219 11 25 11 C 25.550781 11 26 10.550781 26 10 L 26 8.050781 C 29.945313 8.28125 33.515625 9.839844 36.285156 12.300781 L 35.292969 13.296875 C 34.902344 13.683594 34.902344 14.316406 35.292969 14.707031 C 35.683594 15.097656 36.316406 15.097656 36.703125 14.707031 L 37.699219 13.714844 C 40.160156 16.484375 41.71875 20.054688 41.949219 24 L 40 24 C 39.449219 24 39 24.449219 39 25 C 39 25.550781 39.449219 26 40 26 L 41.949219 26 C 41.71875 29.945313 40.15625 33.523438 37.691406 36.292969 C 37.679688 36.277344 37.675781 36.261719 37.664063 36.25 L 36.703125 35.292969 C 36.316406 34.902344 35.683594 34.902344 35.292969 35.292969 C 34.902344 35.683594 34.902344 36.316406 35.292969 36.703125 L 36.25 37.664063 C 36.261719 37.675781 36.277344 37.679688 36.292969 37.691406 C 33.523438 40.15625 29.945313 41.71875 26 41.949219 L 26 40 C 26 39.449219 25.550781 39 25 39 C 24.449219 39 24 39.449219 24 40 L 24 41.949219 C 20.054688 41.71875 16.476563 40.15625 13.707031 37.691406 C 13.722656 37.679688 13.738281 37.675781 13.75 37.664063 L 14.707031 36.703125 C 15.097656 36.316406 15.097656 35.683594 14.707031 35.292969 C 14.316406 34.902344 13.683594 34.902344 13.296875 35.292969 L 12.335938 36.25 C 12.324219 36.261719 12.320313 36.277344 12.308594 36.292969 C 9.84375 33.523438 8.28125 29.945313 8.050781 26 L 10 26 C 10.550781 26 11 25.550781 11 25 C 11 24.449219 10.550781 24 10 24 L 8.050781 24 C 8.28125 20.054688 9.839844 16.484375 12.300781 13.714844 L 13.296875 14.707031 C 13.683594 15.097656 14.316406 15.097656 14.707031 14.707031 C 15.097656 14.316406 15.097656 13.683594 14.707031 13.296875 L 13.714844 12.300781 C 16.484375 9.839844 20.054688 8.28125 24 8.050781 Z M 32.996094 16 C 32.855469 16 32.714844 16.03125 32.585938 16.089844 L 21.585938 21.089844 C 21.367188 21.191406 21.191406 21.367188 21.089844 21.585938 L 16.089844 32.585938 C 15.917969 32.964844 16 33.410156 16.292969 33.707031 C 16.589844 34 17.035156 34.082031 17.414063 33.910156 L 28.414063 28.910156 C 28.632813 28.808594 28.808594 28.632813 28.910156 28.414063 L 33.910156 17.414063 C 34.050781 17.105469 34.023438 16.742188 33.839844 16.457031 C 33.65625 16.171875 33.335938 16 32.996094 16 Z M 30.984375 19.015625 L 27.246094 27.246094 L 19.015625 30.984375 L 22.753906 22.753906 Z M 25 23 C 23.894531 23 23 23.894531 23 25 C 23 26.105469 23.894531 27 25 27 C 26.105469 27 27 26.105469 27 25 C 27 23.894531 26.105469 23 25 23 Z" /></svg>
