<?xml version="1.0" encoding="UTF-8"?>
<svg viewBox="0 0 30 30" version="1.1" xmlns="http://www.w3.org/2000/svg" xmlns:xlink="http://www.w3.org/1999/xlink">
  <path d="M12.1915876,26.4402913 C12.4334078,26.3035499 12.5982853,26.0949315 12.6862199,25.8144363 L19.2373502,4.2934394 C19.317957,4.00593178 19.2978053,3.7447206 19.1768952,3.50980584 C19.0559851,3.27489108 18.8599641,3.1188656 18.5888323,3.04172941 C18.3103726,2.96459322 18.0520646,2.99439584 17.8139083,3.13113727 C17.575752,3.2678787 17.4127066,3.47649703 17.3247719,3.75699226 L10.7626498,25.2779892 C10.682043,25.5654968 10.7021947,25.826708 10.8231048,26.0616227 C10.9440149,26.2965375 11.1436998,26.452563 11.4221595,26.5296992 C11.6932913,26.6068353 11.9497673,26.5770327 12.1915876,26.4402913 Z M21.2558562,22.2857143 C21.5148662,22.2890514 21.75002,22.1914626 21.9613177,21.9928607 L29.6498253,15.0178266 C29.8065945,14.8740114 29.9105393,14.7096513 29.9616597,14.5247461 C30.0127801,14.3398409 30.0127801,14.1566478 29.9616597,13.9751668 C29.9105393,13.7936858 29.8065945,13.6310378 29.6498253,13.4872226 L21.9613177,6.5121885 C21.75002,6.31358664 21.5148662,6.21428571 21.2558562,6.21428571 C20.9968462,6.21428571 20.7787325,6.31701081 20.6015151,6.52246101 C20.4174817,6.72106286 20.3373931,6.94877016 20.3612492,7.20558291 C20.3851054,7.46239565 20.4992743,7.68667878 20.7037559,7.8784323 L27.7174743,14.2473883 L20.7037559,20.6266169 C20.4992743,20.8183704 20.3851054,21.0409415 20.3612492,21.29433 C20.3373931,21.5477186 20.4174817,21.777138 20.6015151,21.9825882 C20.7787325,22.18119 20.9968462,22.2822031 21.2558562,22.2857143 Z M8.74901491,22.2857143 C9.00464599,22.2857143 9.22448872,22.1829558 9.4085431,21.9774388 C9.58578064,21.7787724 9.66246997,21.550991 9.63861107,21.2940948 C9.61475217,21.0371986 9.50057028,20.8162678 9.29606542,20.6313025 L2.28154861,14.25 L9.29606542,7.86869748 C9.50057028,7.67688162 9.61475217,7.45423822 9.63861107,7.20076726 C9.66246997,6.94729631 9.58578064,6.71780234 9.4085431,6.51228535 C9.22448872,6.31361893 9.00464599,6.21428571 8.74901491,6.21428571 C8.49338383,6.21428571 8.25990745,6.31019364 8.04858576,6.5020095 L0.348977654,13.4793113 C0.192190592,13.6231732 0.0882339531,13.7875868 0.0371077373,13.9725521 C-0.0140184785,14.1575174 -0.0123142713,14.3424826 0.0422203589,14.5274479 C0.0967549891,14.7124132 0.199007421,14.8734015 0.348977654,15.0104129 L8.04858576,21.9979905 C8.25990745,22.1898064 8.49338383,22.2857143 8.74901491,22.2857143 Z"></path>
</svg>
