<svg viewBox="0 0 30 30" xmlns="http://www.w3.org/2000/svg"><path d="m12.1915876 26.4402913c.2418202-.1367414.4066977-.3453598.4946323-.625855l6.5511303-21.5209969c.0806068-.28750762.0604551-.5487188-.060455-.78363356s-.3169311-.39094024-.5880629-.46807643c-.2784597-.07713619-.5367677-.04733357-.774924.08940786s-.4012017.34535976-.4891364.62585499l-6.5621221 21.52099694c-.0806068.2875076-.0604551.5487188.060455.7836335.1209101.2349148.320595.3909403.5990547.4680765.2711318.0771361.5276078.0473335.7694281-.0894079zm9.0642686-4.154577c.25901.0033371.4941638-.0942517.7054615-.2928536l7.6885076-6.9750341c.1567692-.1438152.260714-.3081753.3118344-.4930805s.0511204-.3680983 0-.5495793-.1550652-.344129-.3118344-.4879442l-7.6885076-6.9750341c-.2112977-.19860186-.4464515-.29790279-.7054615-.29790279s-.4771237.1027251-.6543411.3081753c-.1840334.19860185-.264122.42630915-.2402659.6831219.0238562.25681274.1380251.48109587.3425067.67284939l7.0137184 6.368956-7.0137184 6.3792286c-.2044816.1917535-.3186505.4143246-.3425067.6677131-.0238561.2533886.0562325.482808.2402659.6882582.1772174.1986018.3953311.2996149.6543411.3031261zm-12.50684129 0c.25563108 0 .47547381-.1027585.65952819-.3082755.17723754-.1986664.25392687-.4264478.23006797-.683344s-.13804079-.477827-.34254565-.6627923l-7.01451681-6.3813025 7.01451681-6.38130252c.20450486-.19181586.31868675-.41445926.34254565-.66793022.0238589-.25347095-.05283043-.48296492-.23006797-.68848191-.18405438-.19866642-.40389711-.29799964-.65952819-.29799964s-.48910746.09590793-.70042915.28772379l-7.69960811 6.9773018c-.15678706.1438619-.2607437.3082755-.31186991.4932408-.05112622.1849653-.04942201.3699305.00511262.5548958s.15678706.3459536.30675729.482965l7.69960811 6.9875776c.21132169.1918159.44479807.2877238.70042915.2877238z"/></svg>