<svg height="30" viewBox="0 0 30 30" width="30" xmlns="http://www.w3.org/2000/svg"><path d="m2.0354448 4.95840728c-.48599015-.09320078-.90447244-.30898031-1.27151771-.65570669-.52928937-.50001378-.82074016-1.2685748-.75469095-1.99015157.07874213-.8599193.54935236-1.58077953 1.3027126-1.99544882.43381102-.23878544 1.08411811-.34882481 1.54881693-.26214961.02679331.00499016.09957283.01755512.16170669.02791929.17698425.02948032.45210827.13092126.66005709.24334055 1.13471063.61348229 1.6030689 1.97372244 1.09514764 3.18072638-.23842717.56665158-.78399213 1.09711811-1.35015748 1.31297441-.4005689.15269882-1.00455709.21278543-1.39207481.13849606zm.61189567-.23274606c.11986614-.02093307.3103878-.07091142.42339567-.11098622.79069685-.28047244 1.38350197-1.05668504 1.45400394-1.90386024l.01699212-.20411023h.2158563.22225394l-.01079921-.07293307c-.00724213-.03879528-.02477166-.12562402-.03884646-.19587008-.06523031-.32556299-.33899803-.73040551-.66448425-.90232284-.25025-.13217519-.41922441-.16994685-.70079724-.15666535-.63589961.02996653-1.11170473.40955118-1.26714174 1.01087795-.02239173.0866752-.04074015.19343898-.04074015.23725l-.00225197.0796378h-.23044292l-.22028346.00112598.00821457-.13578346c.09112795-.71630512.52557874-1.22008071 1.18681299-1.39002756.21411614-.05501969.60311811-.05571063.80602559-.00138189.29239764.07828149.57153937.24994291.78806102.48460827.07065551.07656692.08892717.08782677.06694488.04120078-.01663385-.03526378-.1242933-.15674212-.23924606-.26990354-.23098031-.22742323-.50502953-.38603346-.80766338-.46748819-.22558071-.06072638-.69350394-.05906299-.92118308.00325-.49471653.13539961-.92302559.48570866-1.15359645.94354921-.09726969.19315748-.17698425.48847244-.17698425.6557067v.13516929h-.23325788-.22537598l.00857283-.17312008c.08089174-.84983662.64603347-1.53310433 1.47358071-1.78158858.24006496-.07208859.6984941-.08961811.9544252-.03654331.42861614.08890157.77879724.28239173 1.09143701.60299016.15940354.16349803.17780315.17665157.11190748.08020078-.12132481-.1776496-.4661063-.4937185-.67287796-.61686023-.61253543-.36474213-1.3907185-.41904528-2.04453149-.14266732-.80512992.34035433-1.3308878 1.10952952-1.38250394 2.02270275-.00110039.01944882.02285236-.39220079-.00140748.04493701-.03329331.00071653-.11930315-.00005118-.20953543-.00005118l-.22890748.00112598.02121456.15804725c.00847048.08813385.04954331.2191063.0733937.28965944.05164174.15282678.22959843.43511615.3328563.5281378.33907481.30539764.77547048.43265945 1.18691536.34629134.58640748-.12314173 1.0388996-.62254134 1.08268504-1.19502756l.00882874-.11541339.23469094-.00739567.23469095-.00737007-.00046063.08432086c-.00056299.10707087-.05517323.35243307-.09514567.45448819-.06407874.16352362-.0704252.15454134-.13885433.25626378-.22686024.33712992-.50520866.58968307-.87662992.71149409-.17427166.0571693-.25291142.06786615-.50098622.06832678-.25262993.00043504-.32082874-.00898229-.48194685-.06627953-.31394489-.11165158-.57583859-.29869291-.78087008-.55769488-.03910237-.04938977-.02159843-.01619882.03887204.07372637.48041142.71438583 1.46019685.98019489 2.23538583.60644489.20613189-.0993937.52117717-.33961221.66274409-.50541339.19668898-.23031496.34846654-.60767323.38749213-.96340748l.0176063-.1603248h.21800591.2180059l-.01522638.21160827c-.04639567.64500984-.49320669 1.3113622-1.06195669 1.58367126-.5617126.26895669-1.09330512.3119744-1.62814764.13184251-.36374409-.12255314-.72579921-.38160629-.97269685-.69596063l-.07047638-.08979724.04729134.08690551c.06625394.12175985.40374213.47775.56875.59994488.25669882.19008662.7131063.3707815 1.03943701.41154725.18445669.02308268.45720079.01443307.65890551-.02080512zm17.53418503-.56225c-.6143012-.11981496-.8830531-.43959449-.8826437-1.05026181.0000768-.12900197.0108504-.29802756.0239528-.37561811.0131023-.07759055.0654606-.37766536.1163602-.66688976.1520335-.86383465.2173661-1.24280512.2175965-1.26314961.0001279-.01059449.2460531-.01924409.5464606-.01924409h.5463327l-.0453977.26289173c-.0474193.27463779-.1512401.86547244-.2670118 1.5196437-.0719606.40635236-.0721142.55969094-.0009212.66865551.1410551.21577953.6406594.18489173.8199212-.05066929.1279016-.16807874.1205315-.13470866.4545138-2.05423032l.058065-.33341929.5433641-.00693504c.2988977-.00381299.5433642.00197048.5432874.01282087-.0000767.01085039-.0335236.20441732-.0742637.43012598-.0407402.22570866-.1102953.61811418-.1544646.87202362-.1133662.65150985-.150626.81828347-.2348701 1.05156693-.0848327.23487008-.2638898.51306496-.4119055.64007087-.1481949.12715945-.4239075.26437598-.6520217.32448819-.2599232.06848031-.8842559.08925984-1.1463543.03812992zm3.5567539-.00158661c-.5543681-.12283465-.8701555-.43309449-.9025531-.88663583l-.0127441-.17857087h.5280098c.5078445 0 .5280099.00191929.5280099.05043898 0 .07490354.1430256.22427559.2479468.25895079.1278504.04230118.4177402.01783661.5237363-.04422048.1964586-.11497834.1945905-.28415748-.0041457-.38439566-.063311-.03188583-.2532441-.09391733-.4220906-.1378563-.3817598-.09931693-.4926693-.1362441-.6523287-.21736615-.300126-.15241732-.434502-.35967519-.4349114-.67065157-.0008701-.63147244.4669764-1.10622835 1.1963838-1.21404134.3080079-.04552559.4500611-.05079724.6712914-.0248996.4252893.04977362.7079626.19996456.8624527.45830118.0879548.14699212.1438189.35872834.1307166.49512598l-.0080611.08401378-.5046712.00035827-.5046713.00035827-.0154055-.0701693c-.0219823-.10039173-.1415157-.19041929-.280626-.21132677-.342811-.05153937-.5889409.13087008-.4307657.31926772.0657677.07835827.2304941.14005709.7250827.2716437.4526456.12042913.7230354.28733071.8328956.51406299.1417717.29270473.0319882.78309646-.2491496 1.11283071-.1496535.1755-.4675649.34897835-.800933.43703543-.2581575.06822441-.7964292.08805709-1.0234686.03774607zm-17.12568302-.34675197c.0855748-.16242323.18701575-.35297047.22545275-.42352362.07687402-.14105512.38385827-.715563.57555709-1.07720867.06730315-.12695472.18816732-.35202362.26857284-.50014173.08040551-.14811811.21577952-.40212992.30079133-.56447638.08498622-.16232086.1757815-.33249803.20173032-.37812598l.04713779-.08299016.55654331-.00015354c.32763583-.00007677.55654331.00967323.55654331.02377362 0 .0195.06561417.39511811.14141338.80963386.00775394.04232677.09970079.55014567.20436615 1.12851772.10466535.57837204.20208858 1.11408464.21649606 1.19049803.01440748.07641338.01960236.14558464.01141338.15377362-.0081122.0081122-.2494311.01504724-.53625.01530315l-.52150984.00046063-.01625-.1413878c-.00895669-.0777185-.02454134-.17598622-.0346496-.21826181l-.01845079-.07697638-.52964764-.00693503-.52964764-.00693504-.10957874.22476181-.10955315.22476181-.52803543.00051181-.52803543.00048622zm2.10443897-.92415158c-.00153543-.13844488-.10717322-1.05259055-.1235-1.06899409-.0040433-.0040689-.0403307.06466732-.08063582.15275-.04027953.08805709-.12997441.28131693-.19932481.42943504-.16247441.34705905-.24799803.54077953-.24799803.56153346 0 .00905906.1467874.01609646.32625394.01550788l.32622835-.00099804zm1.50544095 1.18868111c-.0064232-.01673623.0057323-.12065945.026998-.23095473.0212402-.11034646.0748268-.40832283.1190217-.66225787.1002894-.57588977.2120177-1.21043307.307061-1.74402166.0402028-.22570866.0809685-.46518504.0906161-.53220669l.017504-.12183661h.5500177.5500177l-.0143819.05770669c-.013435.05384252-.0709626.3783563-.2330019 1.31445866-.0366457.21160827-.0827343.47127559-.1024646.57709252s-.0719095.40010827-.1158228.65401772c-.0439902.25393504-.0910768.5194626-.1046654.59011811l-.0247461.12841338h-.5272677c-.3830393-.00010236-.5304409-.00844488-.5388858-.03052952zm1.7580197.00734448c0-.01287204.0396397-.24385236.0880315-.51329527.0484429-.26944292.1183563-.66297441.1553858-.87460827.0370295-.21160827.1009803-.57517323.1421299-.8078937.041124-.23274606.1009036-.57322835.1328406-.75661024l.0580649-.33341929h1.0359311c.9184705 0 1.0588859.00537402 1.2381221.04749607.4200689.09867716.5999705.27901377.6138405.6153248.0187579.45523031-.2130157.87517126-.5635039 1.0207559l-.1380866.05737402.1468642.07848622c.2764291.14770866.3256653.31844882.2395531.83069488-.0632598.37636024-.0679429.53179725-.0167106.55152756.0202933.0078563.0310157.04317126.0242086.06909449-.0112342.04319685-.0521023.03810433-.5609448.03810433h-.5487126l.0001023-.12841339c.0000512-.07062992.0171201-.23225984.0378996-.35921456.0939685-.57333071.0367481-.65030709-.5011397-.67354331l-.2967737-.01282087-.0147913.08672638c-.1434094.84141732-.1757047 1.01591929-.1941299 1.0483937-.0181693.03198819-.1084784.03838583-.5499921.0387441-.30138.00028149-.528189-.00957087-.528189-.02290355zm2.142876-1.90127559c.2919114-.08690551.3753878-.39550197.1519311-.56153346-.0648721-.04818701-.1072244-.05358662-.4202481-.05358662h-.3481338l-.0553524.32699607-.0553523.32702165h.2982578c.1920059 0 .3447303-.01384449.4288977-.03889764zm1.4524685 1.87374016c.0061673-.02873819.0402795-.21961811.0757992-.42418898.0354685-.20449409.0940964-.5392185.1302815-.74373818.0685827-.38762008.1401594-.7976063.2529626-1.44911615.0366968-.21160826.0787165-.44555708.0934823-.51992322l.02687-.13519489.976817.00342914c1.036059.00365945 1.2241752.0197559 1.4703563.12595669.1617834.06981102.3295295.24874016.353559.37717913.0295059.15781693-.0051949.40903937-.0768228.55580118-.0698878.14323032-.2201811.31642717-.3731358.43004922l-.0890296.06612598.1018248.05233268c.2152422.11060236.3202402.32008661.3026339.60383464-.0304528.49082678-.3359272.86457678-.8208169 1.00437796-.3104134.08946456-.4342461.0982933-1.4325591.1018248-.9973661.0035315-1.0034055.00322441-.9922224-.04875zm2.0451456-.77987205c.131689-.05837204.1935926-.15720275.1935926-.30887795 0-.13061417-.0655886-.19533268-.2348701-.23172244-.1434606-.03083661-.6605945-.03692717-.6609528-.00780512-.0001279.01054331-.0219055.14617323-.0484941.30130315-.0293267.17127756-.0387952.28812402-.0240807.29725984.0133327.00831693.1675925.01172048.3428622.00757481.2487914-.00591142.3436044-.01855315.4319429-.05773229zm.0843465-1.20792519c.1699724-.07730906.2593858-.27394685.1865807-.41026772-.0403819-.07564567-.1684114-.10361614-.4744232-.10361614h-.287126l-.0280728.14747834c-.0154567.08109646-.0356989.20805119-.0450138.28211024l-.016941.13465748.2783485-.00056299c.2190295-.00043504.3015078-.01105512.3866476-.04979921z" transform="translate(2 13)"/></svg>