<svg height="30" viewBox="0 0 30 30" width="30" xmlns="http://www.w3.org/2000/svg"><g transform="translate(2 10)"><path d="m1.73502703 3.20843243c-.1292973 2.08556757 1.77010811 2.064 1.77010811 2.064-.09956757.42281081-.27745946.84302703-.27745946.84302703s-1.19902703-.10210811-1.98572973.40151351c-1.53302703.992-1.68394595 2.60270271-.09432433 2.49221622 1.34713514-.08897297 2.29016216-1.02875676 2.94767568-2.20124324.02962162 0 .40956756-.0052973.58464865 0 .18048648.00816216.18048648-.08632433.18048648-.08632433s.05394595-.16151351.14810811-.42254054c.06735135-.18864865-.16151351-.17783784-.16151351-.17783784l-.41772973.00313514c.79751351-1.78940541 1.05075675-3.84513514 1.11010811-4.39216216.36097297-3.34378379-3.64005406-1.18032433-3.80437838 1.47621621zm1.01578378 3.91735135c-.1967027.24816217-.74356757.95405406-1.07232432 1.08616217-.326.12632432-1.16389189.17762162-.52005406-.65751352.512-.67648648 1.20978379-.70854054 1.52778379-.71118919.326-.00291892.13194594.19648649.06459459.28254054zm1.61394595-5.30486486c-.01616217.08891892-.39875676 2.23091892-.52810811 2.55956757-.11589189.28286486-.35572973.69513513-.78686487-.08075676-.41216216-.73551351-.08075675-2.04497297.56318919-2.87756757.84054054-1.08578378.82713514-.04854054.75178379.39875676z"/><path d="m7.67324324 1.24437838c.42837838 0 .71940541-.43113514.72751352-.73832433.008-.30718918-.21562162-.51729729-.64394595-.49043243-.42837838.02697297-.59821622.37454054-.59821622.69513514 0 .318.25324325.53362162.51464865.53362162z"/><path d="m25.962 5.66291892c-.0187027-.05075676-.0347568-.08340541-.0915676-.21810811-.0402702-.09713513-.1617838-.0134054-.2368108.03237838-1.9075675 1.12081081-2.8963784.53886486-3.0310811.46886486-.0326486-.01632432-.0568108-.03789189-.0568108-.03789189 1.4281622-.63043243 2.1312433-2.27394594 1.3203244-2.9852973-1.4037298-1.23124324-3.5134055 1.47383784-2.5030811 2.84794595.0808108.11054054.0673513.11054054.0673513.11054054s-.3554594.34464865-1.1368648.41756757c-.309946.02972973-.5983244-.03237838-.8324865-.116l-.0026487-.0187027s-.1486486-.69254054-.7575135-.9158919c0 0 1.5410811-.62789189 2.4193514-2.6214054 1.0053513-2.28237838-.8672433-3.83421622-2.1902163-1.342-.0994594.18589189-.959027 2.38448649-1.5194594 4.46443243-.2102162.21021622-.5307027.45518919-.872973.45518919-.6007027 0-.6843784-.54437838.0215135-1.96124324.2881081-.57940541.5362703-1.08854054.5362703-1.08854054s.1481081-.25324325.0026486-.35297298c-.2423243-.16708108-.5281081-.27481081-.5281081-.27481081s-.2668108-.12935135-.512054.44454054c0 0-.2125946-.27205405-.6788649-.27205405-1.6947567 0-2.7724324 1.48989189-2.9475135 2.67810811-.2156216.28535135-.6978919.84048648-1.2097838.84048648-.6331892 0-.3987567-.68724324-.2586486-1.01297297.1401081-.32627027.9214054-1.5254054.2424324-1.92956757-.7408649-.43913513-.9105946-.50913513-.9105946-.50913513s.317946-.80832433-.47691891-.84064865c-.79475675-.03237838-.78405405.93486486-.396 1.00221622 0 0-.06194594.17243243-.10248648.28562162-.03497298.09432432-.70043244 2.02362162-1.45216217 2.73481081-.13745946.11021621-.28562162.20205405-.44464865.25286486-.00259459 0-.008.00264865-.01081081.00264865 0 0 0 0-.00259459.00318919-.08897297.02681081-.18048649.0425946-.27481081.04578378-.50113514.00264865-.56308108-.16443243-.39610811-.78145945.16983784-.61675676.74372973-2.15816217.85962162-2.50291892.11578379-.34221622-.09167567-.33140541-.16708108-.33140541-.07551351 0-.57118919-.0054054-.67356757 0-.09432432.0052973-.19945946.09956757-.3314054.44454054-.13205406.34481081-.36913514 1.06691892-.76524325 2.2465946-.39875675 1.18324324.57935136 1.54918919 1.2285946 1.54918919.43113513 0 1.90762162-.15632433 2.88837838-3.23843244 0 0 .35562163-.09432432.57659463.23983784.2208648.334-.59821625 1.0507027-.63318923 1.99637838-.03237838.94589189.93481083.92697297 1.28778383.92697297.3314054 0 .8891891-.15627027 1.4307027-.76243243.0915675.46621622.3907567.78935135.9295675.78935135 1.217946 0 1.7568108-1.19875676 2.0072973-1.4387027 0 0-.8029729 1.474.9482703 1.42789189.3933513-.01075676.670973-.09708108.8782703-.21810811-.0965406.42016216-.1723244.81908108-.2204865 1.18275676-.2534054 1.89151351 2.5243243 1.79437838 2.5459459-.9107027 1.1797838.25054054 2.2201622-.52254054 2.2201622-.52254054 1.9775676 1.15562162 3.9898378-.35545946 4.1166486-.43940541.1455135-.10189189.1157298-.19605405.0968649-.24735135zm-7.1262162-1.39562162c.0404865-.13735135.6598919-1.85902703.7785405-2.15540541.5201622-1.32556757 1.2369189-1.60578378 1.0132433-.66816216-.3985946 1.68118919-1.474 2.70508108-1.6923784 2.93951351-.2178378.23167568-.1451892.03762162-.0994054-.11594594zm-5.0112973 1.83762162c-.9404865 0 .3015135-2.70248649 1.6165946-2.70248649.9535135.00005406-1.0887568 2.70248649-1.6165946 2.70248649zm4.3782162 2.19043243c-.4151892.30708108-.2075676-.65486486-.0944324-1.05086486.116-.39594595.2423243-.92140541.2423243-.92140541s.1994054.26681081.476973.31810811c.000054-.00005405.0324324 1.17189189-.6248649 1.65416216zm4.8576216-4.83897297c.721946.06735135.1429189 1.13427027-.8919459 1.89389189-.1857298-.87827027.2236757-1.95594595.8919459-1.89389189z"/></g></svg>