<svg height="30" viewBox="0 0 30 30" width="30" xmlns="http://www.w3.org/2000/svg"><g transform="translate(2 11)"><path d="m20.4485714 7.17914286c-1.6131428-.93942857-6.0262857-1.10514286-10.3514285-.73028572-1.32685719.11542857-2.53142861.28457143-3.86000004.54 0 .00171429-.00057143.00285715-.00085715.00457143.068-.00228571.50742858-.05657143.71314286-.08857143-.18285714.04942857-.70485714.14857143-.72742857.15428572 0 .002-.00371429.00457143-.00228571.00457143.00942857 0 .42742857-.06.67285714-.08971429-.28571429.06428571-.68285714.14714286-.68342857.14857143 0 .00171428 0 .00171428-.00057143.00285714 0 .00085714.38114286-.05228571.65142857-.07914286-.24914286.05285715-.65371429.15257143-.65371429.15342858v.00485714c-.00057142.00085714.37085715-.05228572.64285715-.08114286-.24228572.04971429-.62285715.15657143-.62285715.15714286v.00514286c.00057143.00085714.39914286-.05857143.63885715-.08914286-.24514286.05828571-.60571429.15628571-.60514286.15914286l.00228571.01c1.23485715-.21714286 2.71428572-.38514286 4.07428569-.444 6.124-.26857143 9.4062857.65514285 10.2131429 1.53371428.1971428-.25257143.518-.91428571-.1014286-1.27571428zm-15.74114283.264c0-.00285715 0-.00571429.00057143-.00857143 0-.00171429-.33885714.04285714-.60571429.11714286.19714286-.07142858.59428572-.17657143.59428572-.178 0-.00342858 0-.00628572-.00057143-.00942858 0-.00114285-.38628571.06571429-.60914286.12714286.22857143-.07914286.58971429-.17085714.58914286-.17342857 0-.00171429-.00085714-.00457143-.00171429-.00742857-1.04.23428571-1.96.48457143-2.738.742-.37485714.124-.01085714.28857143.32342858.19857143.816-.21942857 1.62571428-.41314286 2.42342857-.58114286 0-.00228571.00085714-.004.00114285-.00514286-.01428571-.00057143-.46714285.05885715-.67228571.12085715.16657143-.06.66571429-.18285715.68914286-.18457143l.00228571-.00914286c0-.002-.40114286.05-.63714286.11514286.27228572-.096.64342858-.18457143.644-.18657143l.00142858-.01057143c0-.00114286-.34857143.04628571-.618.11542857.22-.08371428.61314285-.18.61314285-.18285714z"/><path d="m25.32 6.01285714-.4814286 1.27228572-.4942857-1.27228572h-2.2042857v.63828572h.5791429v1.83257143h.6914285v-1.83228572h.8914286l-.3508571.13942857.7148571 1.69314286h.3422857l.9708572-2.32228571v-.14857143h-.6591429zm-3.58 1.75142857c-.2228571 0-.3842857.15257143-.3842857.36285715 0 .20714285.1617143.35714285.3845714.35714285.2188572 0 .3777143-.15.3777143-.35714285 0-.20657143-.1622857-.36285715-.3771429-.36285715zm-15.81714286-1.00942857c.02742857-.52571428.15085715-1.684.31428572-2.60857143.09628571-.54342857.28942857-1.45314285.39428571-1.96428571.012-.056.04-.25142857-.058-.36942857-.04914286-.06-.20057143-.16571429-.35714286-.23285714-.00285714-.002-.00714285-.00342858-.01142857-.00457143-.20571428-.08142857-.36285714-.05085715-.51914285.02228571-.28285715.13257143-.52285715.39914286-.69657143.61628572-.498.62342857-.89714286 1.60685714-1.14857143 2.32114285.09428571-.49257143.42971428-1.92914285.48657143-2.29914285.00657143-.04285715.052-.16571429.01857143-.23542858-.04628572-.09571428-.22457143-.23485714-.35085715-.28714285-.03285714-.01342857-.06657143-.028-.10142857-.04171429l-.00285714-.00085714c-.18942857-.064-.30971429-.03571429-.46685714.04342857-.28057143.14171429-.522.41314286-.688.63885714-.462.62657143-.90057143 1.84-1.13028572 2.58628572.02857143-.18.16085714-1.03142857.17628572-1.12285715.08171428-.484.402-2.30628571.46685714-2.75714285.00657143-.04285715.03428571-.17142857.008-.21371429-.04914286-.08-.20428572-.12171428-.30571429-.13142857-.13285714-.01314286-.37885714-.02342857-.496.03057143l-.00228571.00085714-.00285714.00085714s-.00057143.00085715-.00114286.00085715h-.00142857c-.00057143.00085714-.00142857.00142857-.00228572.00171428-.00742857.00371429-.01428571.008-.02085714.012-.27542857.17228572-.732.82285715-.86857143 1.05542857-.27971428.47514286-.39457143.67714286-.52885714.93514286-.08971429.17142857.06142857.63657143.24371428.34857143.23514286-.36942857.58514286-.87142857.88171429-1.2-.14857143.97085714-.56142857 4.14085714-.62171429 4.54285714-.03142857.20942857-.19 1.15714286.19228572 1.11371429.00857143 0 .01942857-.00171429.03142857-.00485714.12371429-.03142858.59085714-.22285715.63257143-.40057143.216-.92171429.924-3.40285715 1.92342857-4.42-.14771429.78285714-.36857143 2.23771428-.40142857 2.52742857-.052.46228571-.182 1.40114286.12457143 1.38714286.01 0 .02114285-.00114286.03571428-.00428572.12428572-.02714286.59771429-.20171428.64114286-.37885714.20457143-.83314286.94857143-2.77571429 1.85542857-3.65657143-.05714286.30685714-.07857143.40857143-.13885714.71257143-.19057143.96-.55828572 2.87314286-.56857143 3.71914286-.00857143.68571428.30485714 1.23142857.92571429 1.40742857.12171428.03428571.56571428.00428571.47771428-.14-.28857143-.47257143-.36571428-1.00371429-.338-1.55085715zm1.99542857-.78914285c.39485715-.08114286.76085715-.32057143 1.11228572-.81142858.302-.42228571.458-.85057142.57028571-1.38057142.024-.11285715.04228572-.21657143.05657143-.31257143.21314286-.09571429.41142853-.25142857.56714283-.48-.1214285.71428571-.1834285 1.19885714-.2057143 1.50628571-.03057139.44571429.0114286.756.1185715.99857143.122.27857143.342.418.5914285.45142857.3557143.04857143.5942858-.12371428.8788572-.39628571.0408571-.03885715.0814286-.08285715.122-.13142857.182.38057142.5685714.60571428 1.096.50085714.3951428-.078.7634286-.31428572 1.1191428-.80285714.3057143-.42.4657143-.84657143.5822858-1.37571429.024-.11.0428571-.21142857.0582857-.30571429.2308571-.08857142.4505714-.23714285.6217143-.45857142-.142.66114285-.2257143 1.10171428-.2542858 1.4-.0428571.44342857-.0085714.75628571.0922858 1.00628571.1157142.28685714.3334285.442.584.49428571.3562857.07428572.6257142-.09028571.8942857-.33228571.0471428-.042.0942857-.08971429.1417143-.14114286.1642857.42057143.564.68 1.1245714.57142857.396-.07571428.7648571-.30942857 1.1222857-.79285714.3077143-.416.4685714-.83942857.588-1.36457143.0242857-.10714285.0428571-.20571428.0582857-.29714285.2877143-.12057143.4782857-.33714286.6022857-.66514286.0608572-.16114286.02-.57257143-.0722857-.36571429-.1937143.43428572-.4342857.62142857-.6908571.68371429.0697143-.04171429.14-.09542857.208-.16428572 0-.276-.0525715-.44485714-.1037143-.562-.1691429-.38857142-.5648572-.36742857-.6614286-.32742857.0028572-.23714285-.11-.38228571-.4971428-.31314285-.2257143.04-.4531429.12857142-.6405715.26942857-.3485714.262-.6565714.704-.81 1.07657143-.1628571.39485714-.2782857.78342857-.3271428 1.18771428-.0257143.21028572-.0257143.45714286.0065714.68571429-.0337143.03428571-.0685714.06628571-.1051429.09628571-.1062857.08857143-.2808571.19571429-.4057142.17714286-.2562858-.03885714-.2211429-.49714286-.2128572-.67514286.0177143-.37571428.1471429-.90428571.2005714-1.18857143.0457143-.24485714.2057143-1.03142857.464-2.01571428 1.0948572-.06457143 2.0142858.06942857 2.578.18942857.2185715.04685714.48.122.7534286.22714286.6734286.28514285.6505714 1.20085714.5754286 1.74171428-.1677143 1.21257143-.6128572 2.09228572-.622 2.25-.0028572.05342857-.0171429.224.0934286.35942857.056.06857143.1857142.18085715.3457142.27885715.2154286.12742857.3645715.12971428.508.09142857.3391429-.09371429 1.5914286-1.20914286 2.3051429-2.37428572.39-.64285714.6457143-1.35857143.6445714-1.59857143-.0017143-.27228571-1.0471428-.19714285-1.0748571.21485715-.0468572.66571428-.4085714 1.48428571-.924 2.11942857-.3494286.42914286-.7322857.77771428-1.018.91914286.2728571-.76628572.618-1.908.6931428-2.99428572.0257143-.35942857.0065715-.89257143-.2185714-1.22914286-.388-.58-1.542-.858-3.028-.852-.4925714 0-.9942857.03314286-1.4714286.08857143.0914286-.38942857.1528572-.62771428.1622858-.67628571.018-.09057143-.1371429-.12857143-.442-.12-.3134286.00857143-.524.05657143-.5771429.27257143-.0622857.25657143-.1142857.45285714-.1691429.684-.1417142.02857143-.278.058-.4071428.08914285-.3502857.084-.5814286.15371429-.7971429.24657143-.2014285.07085715-.3445714.56914286-.1657143.50514286.4154286-.14771429.7685715-.23428571 1.18-.30742857l.0751429-.012c-.02.09142857-.0371429.17057143-.0471429.21428571-.2057142.91142857-.6751428 1.25028572-1.0542857 1.32171429.0725715-.04285714.1457143-.09885714.2177143-.17142857-.0048571-.26085715-.056-.42228572-.1057143-.536-.1705714-.39028572-.5662857-.36742857-.6628571-.32714286.0022857-.23828571-.1114286-.38457143-.4985714-.31371429-.2251429.04114286-.4522858.13057143-.6391429.27314286-.3477143.26485714-.6534286.71142857-.8057143 1.08657143-.1614286.39771429-.2748571.78942857-.3222857 1.19714286-.0277143.238-.0228571.52285714.0234286.77571428-.0251429.02685715-.0514286.05285715-.078.078-.1028572.096-.2737143.216-.398.20628572-.2548572-.02-.2322857-.48085715-.2285715-.65914286.008-.37714286.1228572-.89542857.1685715-1.18285714.0877143-.57828572.6171428-3.22714286.6468571-3.38571429.0157143-.09257143-.1394286-.11942857-.4414286-.08857143-.3105714.032-.5177142.09485715-.5645714.31428572-.1408571.66342857-.2257143 1.17714285-.3214286 1.67857143-.2157142.68857142-.57428567.99142857-.88399996 1.08685714.06-.03857143.12-.08571429.17828572-.14485714-.00514286-.27085715-.05885715-.43714286-.11057143-.55285715-.17428572-.38914285-.56971429-.36285714-.66571429-.322 0-.23828571-.11428571-.38371428-.50142857-.30971428-.22485714.04285714-.45142857.13428571-.63714286.278-.34514285.26742857-.64685714.71628571-.796 1.09285714-.15771428.39914286-.268.792-.31142857 1.19942857-.03657143.33714286-.00771428.768.11142857 1.06628572.16971429.42342857.57314286.68142857 1.13371429.56628571zm9.65885719-2.20914286c.1271428-.392.2428571-.61428572.456-.86342857.162-.19.4162857-.27828572.522-.26857143-.0657143.10085714-.0171429.16485714.0857142.18571428.1142858.02428572.2125715.098.248.28771429-.1585714-.10057143-.3434285.48285714-.1271428.51628571.2.03085715.43.01628572.6502857-.05-.1754286.09142858-.3691429.14057143-.5571429.15228572-.0788571.44914286-.2342857.86371428-.4371428 1.15514286-.2788572.4-.5808572.568-.7657143.43028571-.2857143-.21142857-.3191429-.79085714-.0742857-1.54514286zm-4.9737143-.07c.1257143-.39514286.2405714-.61885714.4522857-.87085714.1614286-.19142858.4154286-.282.5211428-.272-.0657142.10114285-.0171428.16571428.0857143.18685714.1071429.02171428.2.08742857.2414286.25028571-.14-.04657143-.3.50571429-.0985714.53428572.1794285.02628571.3805714.01942857.5811428-.028-.162.08057143-.3334285.122-.5028571.13142857-.0754286.46114286-.2308572.88857143-.4362857 1.18771428-.2771429.40342858-.5782857.57342858-.764.43571429-.2862857-.212-.322-.79514286-.08-1.55542857zm-4.92657146.05714286c.122-.396.23485715-.62085715.44457143-.87428572.16-.19314286.41285714-.28571428.51885714-.27628571-.06428571.10171428-.01514285.16571428.08771429.18571428.10857143.02171429.20228571.088.24428571.25514286-.12571428-.01028571-.35142857.49571429-.10171428.53314286.198.03.416.018.62714286-.04685715-.17342858.09428572-.35942858.14142858-.54228572.15085715-.07228571.46-.22342857.88571428-.42571428 1.18514285-.27314286.40571429-.57314286.578-.76.44171429-.288-.20971429-.32857143-.79257143-.09371429-1.55428571z"/></g></svg>