<svg viewBox="0 0 30 30" xmlns="http://www.w3.org/2000/svg"><g transform="translate(2 9)"><path d="m22.653386.82518059c.9222461.91809819 1.8445429 1.83634876 2.7704289 2.7580869-.0745598.07401806-.1475621.14600452-.2199887.21846502-.2061908.20600451-.4116027.41260158-.6188939.61742099-.0158804.01581264-.0436456.02774831-.0659594.02778217-.8006038.00138826-1.6012077.00111738-2.4018454.00099887-.0137471 0-.0274435-.00115124-.0401072-.00172687.2859481-.28520316.570728-.56930586.8584368-.85637133-.5149774-.51259029-1.0219469-1.01717268-1.5268171-1.5195711.42193-.42209933.835886-.8361061 1.244746-1.24508465z"/><path d="m18.8699661 6.3028386c-.0059932.26363431-.0503837.5171614-.1752426.75196388-.1662359.31261287-.4282111.50955982-.7597686.61891084-.291061.09611174-.5890125.11370203-.8916705.07090293-.2154345-.03042325-.4194921-.0932167-.6062133-.20696952-.2915181-.17756208-.470333-.43501693-.5366648-.76901242-.0655361-.32964447-.0426975-.65426072.0814673-.96707675.1439052-.36257336.4117551-.60265801.7747855-.73198645.4443793-.15844809.8931265-.16530474 1.3336626.01335778.4295993.17414222.6830925.49599888.7547065.95595373.0135948.08717268.0169131.17593679.0249379.26395598zm-.7373194-.0011851c-.0024718-.02927201-.004825-.0734763-.0100733-.11735892-.022026-.18465575-.0857167-.35209368-.2172799-.4869921-.3151016-.32326185-.8657168-.27045711-1.1281998.10899549-.1606998.23231377-.2005192.4934763-.1621896.76803047.0488431.34987585.2956489.62439616.6662471.6557675.2487021.02112866.4585666-.06013544.6225847-.24812641.1656772-.18983635.2230869-.41911964.2289108-.68031603z"/><path d="m6.49833521 7.73075056c.02906885-.45883747.0579684-.91542325.0872912-1.37764672-.0622009.02984763-.1167325.06325056-.175886.08295711-.16618511.05536117-.33575621.100886-.50112867.15844808-.1070316.03724605-.21274267.08211061-.31240971.1358465-.10168171.05485327-.17205982.14161964-.18347065.26294018-.0151693.16107224.06413092.27424944.22279909.3192833.17427766.0494018.34765802.03221783.51985328-.01234199.04515237-.01164786.08923815-.02724041.14204289-.04354402-.02040068.07159707-.03875283.13648984-.05744357.20136569-.02493792.08624154-.04902935.17270316-.07604966.25825057-.00455418.01415349-.02055305.0325395-.03382619.03492663-.30722912.05624154-.61523702.07757337-.92021444-.00988713-.40560948-.11636005-.5746219-.44590294-.53964447-.80950903.02680022-.27858352.18848194-.45981941.423386-.58769187.19464447-.10588037.40713318-.16119075.61992664-.21582393.19444131-.04989278.38930587-.09897291.5815632-.15653499.06667043-.02001129.13005644-.05859481.18794018-.09880361.15836344-.10994357.13249436-.3504684-.07032731-.42966705-.13794582-.05390519-.28166479-.05634311-.42633183-.04767494-.32197517.01931716-.62874718.10408578-.92834086.21883747-.00915914.00353838-.0187246.00585779-.03463882.01071671.0098702-.064114.01884311-.1239447.02839165-.18375847.01621896-.10130925.03402934-.20246614.04860609-.30397855.00431716-.03006772.01566027-.043307.04620203-.05033296.31594808-.07264673.63392777-.1290237.95876411-.14485327.22493228-.01095373.4481377-.00712754.66810948.04522009.15172686.0360948.29290632.0952483.40715011.20598758.1251298.12121896.18304741.27213318.17905192.44343115-.00514672.22113996-.0177088.44212754-.02928894.66308127-.00838036.16110609-.02363431.32187359-.03.48292889-.01200338.30389391-.02011286.60794018-.02895033.9119526-.00076186.02547968-.00492664.03904063-.03519752.03890519-.24015237-.00104966-.48028781-.00055869-.72042325-.00072799-.00689052.00005079-.01373025-.00174379-.01750565-.00230249z"/><path d="m8.77946953 6.24260158c.14018058.0131377.27363995.01290068.40361173-.02911964.14145034-.04571106.25616818-.12279345.29473477-.27616253.0306772-.12208239.02332957-.23969526-.0777596-.33162528-.05327878-.04853837-.12028781-.07469526-.19081828-.07819977-.20629233-.01031039-.41275395-.01540632-.62341422-.02268623-.00550226.08316027-.01134312.1554176-.01484763.22772573-.01069978.2210553-.02255079.44200903-.03006772.66318284-.01073364.31393341-.01835215.62800226-.026614.94200339-.00306433.11424379-.00450338.22852144-.00607788.34276524-.00028781.02019751-.00047404.03601016-.0284255.03594244-.24585779-.00079572-.49168172-.00066028-.73752258-.00096502-.00394469 0-.00790632-.00243792-.0175395-.00551918.10144469-.89663093.12335214-1.79795147.13015801-2.70595937h.05253386c.48025395.00040632.96057562-.00201467 1.44081264.00242099.21722912.00201467.42980249.03736456.61933409.15467269.17812078.11023138.26983068.27328442.28357788.48125282.0155756.23629232-.0409199.44737585-.2190576.61425508-.10799658.1012246-.23740967.16659142-.37493224.21758465-.02119639.00780474-.04222348.01588036-.07383183.02784989.18010158.40406884.35895034.80529345.53976297 1.21108916-.016456.00125282-.0284763.00299661-.0405305.00299661-.25154624.00027089-.50310945.00013544-.75468958.00035554-.02344808 0-.0417833.00104966-.05089165-.03042326-.13963883-.48194695-.31638826-.95121331-.48992099-1.42142776-.00204854-.00521445-.00369075-.01047968-.00758465-.02200903z"/><path d="m20.2059142 6.24229684c.156772.01513544.3049774.01097065.4484932-.04437359.1943398-.075.2890294-.23531038.2567608-.43913092-.0190463-.1203894-.112737-.2072912-.255254-.22831829-.0759481-.01124153-.1532844-.01593115-.2301636-.01745485-.1356095-.00267495-.2713544-.00076185-.4126355-.00076185-.0031828.03296275-.007737.0649097-.0091591.0969921-.0158804.35234763-.032675.70464447-.046202 1.05704289-.0084989.22117381-.0122066.44258465-.0173872.66384311-.0026749.11566591-.0039108.23136569-.0057901.3470316-.0003386.02040068.0016592.03944696-.0298307.03934538-.2458408-.00099888-.4917325-.00076186-.7375733-.00103274-.0039278-.00006772-.0078386-.00267494-.0162698-.00577313.101614-.89686795.1235384-1.79835779.1303104-2.70301355.0158127-.00103273.0282393-.0025395.0405813-.00250564.4860101.00027088.9720542-.00243792 1.4579966.00247178.220158.00218398.4356095.039193.6257506.16188488.1687076.10882618.2563205.2670711.2712359.46640519.0160327.21467269-.0270204.41221219-.1742946.57667043-.1133465.12655192-.2597066.20280474-.4163939.26161964-.0212303.00794018-.0426637.01554176-.0687529.02500564.1569075.41316027.3574775.80602145.5329064 1.21549097-.0193849.00104966-.0329459.00231941-.0465915.0023702-.2501241.00016931-.5003329-.00025395-.7504909.00057563-.027833.00015237-.0424436-.00526524-.0512811-.03585779-.1394356-.47918736-.3145598-.94604966-.4878894-1.41348759-.002421-.00651806-.0042833-.01317155-.0080756-.0250395z"/><path d="m11.4568849 6.08782731h1.1727596c-.0114955.17089165-.0230757.34393341-.0349097.52097066-.3906095 0-.7772066 0-1.170254 0-.0116478.19518623-.0231095.38668171-.0349097.58408578.4685384.00592551.9330982-.00028781 1.4038544-.02837472-.0108013.18446953-.021298.36457111-.0320316.54814334-.7318679 0-1.4613318 0-2.1973984 0 .0948758-.89905192.1337302-1.79962754.1381998-2.70528217h2.1922686c-.0083296.17933973-.0166084.35786682-.0247009.53195824-.4606659-.00741535-.9145937-.01461061-1.3782732-.02211061-.0118171.19445824-.0231941.38221219-.0346049.57060948z"/><path d="m.2304684 5.00232506h.28701467c.15584086.00001693.31164786.00110045.46743792-.00079571.03433409-.00040633.04968962.00944695.06003386.04293453.19369639.62725734.3886456 1.25407449.58335779 1.88104402.00661964.02126411.01342551.0424605.02260158.07139391.04523702-.1167833.08788375-.22670994.13041197-.33668736.20864559-.53940745.41729119-1.07884876.6257167-1.61834086.00843115-.02178894.01383183-.04036117.0453386-.0402088.25301919.00138826.50607223.00089729.75909142.00104966.00556998.00003386.01117382.00138826.02219526.00284424-.03904063.08451467-.07803047.16642212-.11492099.24922686-.32817156.73687924-.65612303 1.47386005-.98373589 2.21101016-.03528217.07936795-.06700903.16041196-.10308691.23947517-.00575621.01266366-.02580136.02671558-.03931151.02681716-.25874154.00155756-.51746614.00055869-.77620768.00201467-.03159142.0001693-.03667043-.01733634-.04425508-.03981941-.12179458-.35871332-.24126975-.71829007-.36675508-1.07561513-.17226298-.49059819-.34919864-.97945259-.52401806-1.46903499-.016693-.04677765-.03245485-.09382618-.05090857-.14730812z"/><path d="m14.244921 6.19931151c.0490971 0 .0931151.00062641.137184-.00010158.1259255-.00201467.2441309-.02761286.3384988-.11854402.1055926-.10185101.1357788-.29476862.0681264-.42501128-.0362471-.06970091-.0961625-.11427765-.1704345-.12363996-.1041196-.01305304-.2100677-.01530474-.3152201-.01586343-.0708183-.00035553-.1416873.01017495-.2146388.01591422-.046219.72705982-.070649 1.45259594-.0714447 2.18150113-.2484989 0-.492105 0-.7413488 0 .0651976-.90125282.1029007-1.80181151.1151242-2.70643341.0134255-.00111738.0257506-.00303047.0380925-.00303047.483149.00028781.9662472-.00252257 1.4493116.00259029.2198194.00233635.4163769.07207111.5555079.25525395.1115011.14700339.1519808.3182675.1515914.49896163-.0005756.26134876-.0830079.49110609-.2819357.66904063-.1587867.14204289-.3489447.21641648-.5592833.23053612-.1188657.00797404-.239035-.00252258-.3584424-.00717833-.0122574-.00042325-.0314391-.01588036-.0345542-.02768059-.0365688-.14058691-.0705813-.28174943-.1061343-.4263149z"/><path d="m22.0504402 5.00630361h2.5293792c-.0071783.1788149-.0142212.35502258-.0213657.53382054-.2892663-.00611173-.5751636-.01215575-.8642607-.01828442-.0526693.73261287-.0812472 1.45975734-.0951975 2.19091422-.27193 0-.5409989 0-.8154515 0 .0726129-.72827878.1113318-1.45574492.1174605-2.19143905-.2905869.0071614-.5766704.01417043-.8686287.02138262.0060779-.1793228.0120034-.35575057.0180644-.53639391z"/><path d="m3.43428894 7.73334086c.08756208-.91095373.12098194-1.81743793.12628104-2.72791761h.81010158c-.00849887.11243228-.01738714.221614-.02495486.33086343-.01093679.15944695-.02459932.31886005-.03066027.47851016-.01479684.39081264-.02752821.781693-.0378386 1.17265801-.00612867.2326693-.00702596.46545711-.00805869.69821106-.00020316.0371614-.00929458.04874154-.04774266.04847066-.24573928-.00172686-.49152935-.00082957-.73728555-.00079571-.01395034 0-.02795147 0-.04984199 0z"/><path d="m3.58569413 4.03526524h.80319413c.00091422.0136456.00277653.02600451.00235327.03827878-.00573927.15267494-.01196952.30524831-.01769187.45790632-.00081264.02160271-.00677201.03492664-.03209932.03484199-.25012415-.00084651-.50024831-.00110046-.75038939-.00167608-.00262416 0-.00526524-.0018623-.00540068-.00191309.00003386-.17561512.00003386-.35009594.00003386-.52743792z"/></g></svg>