<?xml version="1.0" encoding="UTF-8"?>
<svg width="30px" height="30px" viewBox="0 0 30 30" version="1.1" xmlns="http://www.w3.org/2000/svg" xmlns:xlink="http://www.w3.org/1999/xlink">
    <title>company-facebook</title>
    <g id="Page-1" stroke="none" stroke-width="1" fill="none" fill-rule="evenodd">
        <g id="company-facebook" transform="translate(2.000000, 12.000000)" fill="#1877F2" fill-rule="nonzero">
            <path d="M2.03428334,0.783032965 C1.72817334,0.783032965 1.63967108,0.917895245 1.63967108,1.2153485 L1.63967108,1.70879319 L2.45617588,1.70879319 L2.37433507,2.50599312 L1.63998829,2.50599312 L1.63998829,4.92532159 L0.660119077,4.92532159 L0.660119077,2.50599312 L8.8817842e-16,2.50599312 L8.8817842e-16,1.70879319 L0.660119077,1.70879319 L0.660119077,1.22889775 C0.660119077,0.424765647 0.986530672,0 1.89724757,0 C2.08808257,-0.000428653041 2.27879069,0.0108203736 2.46822995,0.0337280552 L2.46822995,0.783978261 L2.03428334,0.783032965 Z" id="Path"></path>
            <path d="M2.52405934,3.21559558 C2.52405934,2.31693385 2.95261334,1.64010166 3.85064175,1.64010166 C4.34041774,1.64010166 4.63954907,1.89029009 4.78261188,2.2009775 L4.78261188,1.70879319 L5.72124347,1.70879319 L5.72124347,4.92532159 L4.78261188,4.92532159 L4.78261188,4.43880906 C4.64652774,4.74981156 4.34041774,4.99306783 3.85064175,4.99306783 C2.95261334,4.99306783 2.52405934,4.31718093 2.52405934,3.4175739 L2.52405934,3.21559558 Z M3.50361134,3.43206845 C3.50361134,3.9116488 3.68029867,4.22926837 4.13613294,4.22926837 C4.53772388,4.22926837 4.74169147,3.93874729 4.74169147,3.47933327 L4.74169147,3.15635701 C4.74169147,2.69694298 4.53772388,2.4064219 4.13613294,2.4064219 C3.68029867,2.4064219 3.50361134,2.72404148 3.50361134,3.20362183 L3.50361134,3.43206845 Z" id="Shape"></path>
            <path d="M7.76218828,1.64104696 C8.1428432,1.64104696 8.50351374,1.72234244 8.70081987,1.85720472 L8.48321214,2.54664086 C8.27911766,2.4500946 8.05611732,2.39930067 7.83007174,2.39791424 C7.29937534,2.39791424 7.0687619,2.70198456 7.0687619,3.22252776 L7.0687619,3.41158703 C7.0687619,3.93213022 7.30000976,4.23620055 7.83007174,4.23620055 C8.05611732,4.2347826 8.27911766,4.18402019 8.48321214,4.08747392 L8.70081987,4.77659496 C8.50351374,4.91177234 8.14316041,4.99306783 7.76218828,4.99306783 C6.6122932,4.99306783 6.08857547,4.377995 6.08857547,3.3914207 L6.08857547,3.24269408 C6.08857547,2.25611978 6.6122932,1.64104696 7.76218828,1.64104696 Z" id="Path"></path>
            <path d="M8.82992533,3.43994592 L8.82992533,3.15635701 C8.82992533,2.24414603 9.35364306,1.64388284 10.4220145,1.64388284 C11.4288468,1.64388284 11.8710409,2.2520235 11.8710409,3.14406816 L11.8710409,3.65767918 L9.80916012,3.65767918 C9.82977893,4.09692688 10.0270851,4.29291833 10.57047,4.29291833 C10.9381192,4.29291833 11.3257528,4.21855501 11.6115612,4.09692688 L11.7907862,4.76336081 C11.5322581,4.89885329 11.0015617,5 10.5324045,5 C9.29242106,4.9996849 8.82992533,4.38524227 8.82992533,3.43994592 L8.82992533,3.43994592 Z M9.80947733,3.02086453 L10.9933141,3.02086453 L10.9933141,2.93988415 C10.9933141,2.588549 10.8505685,2.30968658 10.4223318,2.30968658 C9.97982041,2.31000168 9.80947733,2.58728861 9.80947733,3.01960414 L9.80947733,3.02086453 Z" id="Shape"></path>
            <path d="M15.5021717,3.4185192 C15.5021717,4.31718093 15.0669562,4.99401312 14.1698795,4.99401312 C13.6801035,4.99401312 13.3400517,4.75075686 13.2039676,4.43975436 L13.2039676,4.92626688 L12.2789761,4.92626688 L12.2789761,0.0935968243 L13.2585281,0.0053691646 L13.2585281,2.15434288 C13.4012737,1.87075397 13.7143624,1.64073186 14.1701967,1.64073186 C15.0682251,1.64073186 15.5024889,2.31661875 15.5024889,3.21622578 L15.5021717,3.4185192 Z M14.5226197,3.19542926 C14.5226197,2.74263231 14.3459324,2.40484641 13.876458,2.40484641 C13.474867,2.40484641 13.2572593,2.68843532 13.2572593,3.14816444 L13.2572593,3.48595034 C13.2572593,3.94536437 13.474867,4.22926837 13.876458,4.22926837 C14.3459324,4.22926837 14.5226197,3.89148248 14.5226197,3.43868552 L14.5226197,3.19542926 Z" id="Shape"></path>
            <path d="M15.8298521,3.39803778 L15.8298521,3.236077 C15.8298521,2.31000168 16.3605485,1.64104696 17.4422429,1.64104696 C18.5239373,1.64104696 19.054951,2.31000168 19.054951,3.236077 L19.054951,3.39803778 C19.054951,4.32379801 18.5242546,4.99306783 17.4425601,4.99306783 C16.3608657,4.99306783 15.8298521,4.32379801 15.8298521,3.39803778 Z M18.0750817,3.16833076 C18.0750817,2.74263231 17.8980772,2.40484641 17.4406569,2.40484641 C16.9832365,2.40484641 16.8078181,2.74263231 16.8078181,3.16833076 L16.8078181,3.46578402 C16.8078181,3.89148248 16.9848226,4.22926837 17.4406569,4.22926837 C17.8964911,4.22926837 18.0750817,3.89148248 18.0750817,3.46578402 L18.0750817,3.16833076 Z" id="Shape"></path>
            <path d="M19.3807281,3.39803778 L19.3807281,3.236077 C19.3807281,2.31000168 19.9114245,1.64104696 20.9931189,1.64104696 C22.0748133,1.64104696 22.6055097,2.31000168 22.6055097,3.236077 L22.6055097,3.39803778 C22.6055097,4.32379801 22.0748133,4.99306783 20.9931189,4.99306783 C19.9114245,4.99306783 19.3807281,4.32379801 19.3807281,3.39803778 Z M21.6259577,3.16833076 C21.6259577,2.74263231 21.4489532,2.40484641 20.9931189,2.40484641 C20.5372847,2.40484641 20.3605973,2.74263231 20.3605973,3.16833076 L20.3605973,3.46578402 C20.3605973,3.89148248 20.5372847,4.22926837 20.9931189,4.22926837 C21.4489532,4.22926837 21.6259577,3.89148248 21.6259577,3.46578402 L21.6259577,3.16833076 Z" id="Shape"></path>
            <polygon id="Path" points="23.9523937 3.24269408 24.9183056 1.70879319 25.9590796 1.70879319 24.9455859 3.29689107 26 4.92532159 24.959226 4.92532159 23.9523937 3.34982766 23.9523937 4.92532159 22.9725245 4.92532159 22.9725245 0.0935968243 23.9523937 0.0053691646"></polygon>
        </g>
    </g>
</svg>