<?xml version="1.0" encoding="UTF-8"?>
<svg width="30px" height="30px" viewBox="0 0 30 30" version="1.1" xmlns="http://www.w3.org/2000/svg" xmlns:xlink="http://www.w3.org/1999/xlink">
    <title>company-alltricks</title>
    <g id="Page-1" stroke="none" stroke-width="1" fill="none" fill-rule="evenodd">
        <g id="company-alltricks" transform="translate(2.004759, 13.000000)" fill="#000000" fill-rule="nonzero">
            <path d="M6.23024321,3.07116954 C6.23024321,3.07116954 5.88310766,3.03717135 5.95029519,2.6631913 L5.95029519,2.64052584 C5.95029519,2.64052584 6.40940994,0.396645512 6.42060786,0.31731641 C6.43180578,0.237987307 6.39821202,0.192656392 6.39821202,0.192656392 C6.30862865,0.0679963735 6.18545152,4.4408921e-16 6.01748271,4.4408921e-16 C5.83831598,0.0113327289 5.67034716,0.0113327289 5.53597211,0.362647325 C5.40159706,0.702629193 5.08805528,2.56119674 5.05446152,2.73118767 C5.02086776,2.88984587 5.05446152,3.07116954 5.05446152,3.07116954 C5.21123241,3.58114234 5.60315964,3.84182491 6.20784737,3.84182491 C6.20784737,3.84182491 6.6557642,3.85312783 6.67816004,3.43381686 C6.67816004,3.1731641 6.52138915,3.05983681 6.23024321,3.07116954 L6.23024321,3.07116954 Z M3.87867983,0 L1.97503329,0 C1.40393933,0.0679963735 0.967220412,0.305983681 0.66487655,0.702629193 C0.66487655,0.702629193 0.552897341,0.827289211 0.485709816,1.09927471 L0.0377929828,3.26382593 C0.00419922031,3.39981868 -0.00699870052,3.51314597 0.00419922031,3.6038078 C0.0601888245,3.80779692 0.351334766,3.88712602 0.653678629,3.762466 C0.66487655,3.75113327 0.788053679,3.69446963 0.844043283,3.56980961 C0.877637046,3.50181324 0.911230808,3.34315503 0.911230808,3.34315503 L1.1239913,2.30054397 L3.78909646,2.30054397 L3.56513805,3.37715322 C3.53154428,3.53581142 3.54274221,3.58114234 3.55394013,3.6038078 C3.64352349,3.79646419 3.82269023,3.87579329 4.06904448,3.83046238 C4.21461746,3.77379873 4.32659666,3.69446963 4.39378419,3.59247507 C4.39378419,3.59247507 4.41618003,3.56980961 4.44977379,3.43381686 L4.93128439,0.9406165 C5.02086776,-0.0906618314 3.91227359,0.0113327289 3.87867983,0 Z M3.92347151,1.54125113 L1.2807622,1.54125113 C1.30315804,1.09927471 1.43753309,0.804623753 1.78466863,0.770625567 L3.35237755,0.770625567 C3.58753389,0.781958296 3.71071102,0.770625567 3.83388815,0.793291024 C4.20341953,0.974614687 3.94586736,1.50725295 3.92347151,1.54125113 Z M8.22347312,3.07116954 C8.22347312,3.07116954 7.87633757,3.03717135 7.9435251,2.6631913 L7.9435251,2.64052584 C7.9435251,2.64052584 8.40263985,0.396645512 8.41383777,0.31731641 C8.43623361,0.237987307 8.40263985,0.192656392 8.40263985,0.192656392 C8.31305648,0.0679963735 8.18987935,4.4408921e-16 8.02191054,4.4408921e-16 C7.84274381,0.0113327289 7.674775,0.0113327289 7.54039994,0.362647325 C7.40602489,0.702629193 7.09248311,2.56119674 7.05888935,2.73118767 C7.02529559,2.88984587 7.05888935,3.07116954 7.05888935,3.07116954 C7.21566024,3.58114234 7.60758747,3.84182491 8.2122752,3.84182491 C8.2122752,3.84182491 8.66019203,3.85312783 8.68258787,3.43381686 C8.66019203,3.1731641 8.51461906,3.05983681 8.22347312,3.07116954 L8.22347312,3.07116954 Z M10.4182656,3.08250227 C10.2279009,3.05983681 10.0375363,3.00317316 9.95915085,2.85584769 C9.95915085,2.85584769 9.92555708,2.79918404 9.97034877,2.62919311 L10.1047238,1.94922937 L10.6646199,1.94922937 C10.6646199,1.94922937 11.0005575,1.93789665 11.0565471,1.57524932 C11.1125367,1.38259293 10.9893596,1.15593835 10.7542032,1.16727108 L10.2726926,1.16727108 C10.2726926,1.16727108 10.4070677,0.52130553 10.4406614,0.339981868 C10.4742552,0.158658205 10.216703,0.0113327289 10.0375363,0.0113327289 C9.8247758,0.0113327289 9.63441114,-0.0113327289 9.5560257,0.373980054 C9.47764025,0.759292838 9.10810886,2.57252947 9.0745151,2.7425204 C9.04092134,2.91251133 9.0745151,3.08250227 9.0745151,3.08250227 C9.25368183,3.64913871 9.67920283,3.89845875 10.3510781,3.83046238 C10.4742552,3.79646419 10.5414427,3.75113327 10.6198282,3.63780598 C10.6982136,3.50181324 10.7094115,3.37715322 10.6646199,3.26382593 C10.6646199,3.24116047 10.6086303,3.10516772 10.4182656,3.08250227 L10.4182656,3.08250227 Z M13.0049853,0.815956482 C13.0049853,0.815956482 12.8482144,0.725294651 12.6354539,0.770625567 C12.053162,0.872620127 11.6276411,1.13327289 11.358891,1.56391659 C11.358891,1.56391659 11.3029013,1.64324569 11.2357138,1.86990027 L10.93337,3.34315503 C10.9109741,3.44514959 10.8997762,3.53581142 10.9109741,3.6038078 C11.0453492,3.8417951 11.2581097,3.88712602 11.5604535,3.762466 C11.6500369,3.69446963 11.7172244,3.61514053 11.7620161,3.53581142 C11.7620161,3.53581142 11.9747766,2.32320943 12.0867558,1.9605621 C12.198735,1.59791478 12.5234747,1.59791478 12.8706103,1.47325476 C13.2401417,1.35992747 13.2513396,1.0199456 13.0049853,0.815956482 L13.0049853,0.815956482 Z M13.8784231,1.15593835 C13.6768606,1.16727108 13.5312876,1.15593835 13.4081105,1.54125113 L13.0049853,3.51314597 C13.0273812,3.69446963 13.1393604,3.80779692 13.329725,3.83046238 C13.5648814,3.83046238 13.7440481,3.73980054 13.8672252,3.55847688 L14.2479545,1.7225748 C14.2815483,1.58658205 14.2815483,1.50725295 14.2815483,1.38259293 C14.2815483,1.25793291 14.0687878,1.15593835 13.8784231,1.15593835 L13.8784231,1.15593835 Z M17.5961329,3.10516772 C17.5961329,3.10516772 17.5177474,3.07116954 17.428164,3.07116954 L15.5805071,3.07116954 C15.5245175,3.05983681 15.5133196,3.05983681 15.4461321,3.03717135 C14.9646215,2.86718042 15.4461321,1.86990027 15.4797258,1.77923844 C15.5357154,1.67724388 15.6700905,1.54125113 15.9164447,1.5299184 L17.7641017,1.5299184 C18.2008206,1.51858568 18.2344143,1.20126927 18.2456123,1.15593835 C18.2568102,1.11060743 18.290404,0.883952856 18.0552476,0.793291024 C17.9880601,0.781958296 17.9320705,0.770625567 17.8760809,0.770625567 L15.9388406,0.770625567 C15.0094131,0.849954669 14.6286838,1.40525839 14.460715,2.25521306 C14.460715,2.25521306 14.3599337,2.79918404 14.3599337,2.84451496 C14.2703504,3.62647325 14.886236,3.90979148 15.8604551,3.8417951 L17.3497786,3.83046238 C17.4505599,3.83046238 17.5513412,3.79646419 17.6297266,3.69446963 C17.8312892,3.43381686 17.7864975,3.21849501 17.5961329,3.10516772 L17.5961329,3.10516772 Z M20.7427486,2.28921124 C20.8547278,2.20988214 21.9521241,1.39392566 22.0641033,1.30326383 C22.1760825,1.21260199 22.1536866,1.03127833 22.097697,0.9406165 C22.0417074,0.849954669 21.8401449,0.759292838 21.6609781,0.781958296 C21.6385823,0.793291024 21.5601968,0.781958296 21.4818114,0.849954669 C21.4034259,0.917951043 19.2198314,2.51586582 19.1750397,2.53853128 L19.5781648,0.555303717 L19.6005607,0.430643699 C19.6117586,0.328649139 19.6341545,0.283318223 19.5781648,0.181323663 C19.4773836,0.0679963735 19.3542064,0.0113327289 19.1862376,0.0113327289 C18.7943104,1.03216047e-15 18.7271229,0.351314597 18.7271229,0.351314597 C18.7271229,0.351314597 18.1112372,3.35448776 18.0888414,3.49048051 C18.0776435,3.59247507 18.1112372,3.64913871 18.1112372,3.64913871 C18.2120185,3.81912965 18.4359769,3.88712602 18.6823312,3.80779692 C18.6935291,3.79646419 19.9700921,2.86718042 19.9924879,2.85584769 L20.8211341,3.72846782 C20.8659257,3.77379873 20.8883216,3.79646419 20.966707,3.83046238 C21.2242592,3.87579329 21.4258218,3.80779692 21.5825927,3.61514053 C21.672176,3.44514959 21.6609781,3.29782412 21.5601968,3.1731641 C21.5601968,3.15049864 20.7427486,2.28921124 20.7427486,2.28921124 L20.7427486,2.28921124 Z M23.4078538,1.5299184 L25.4682712,1.5299184 C25.4682712,1.5299184 26.0169693,1.54125113 25.9945735,1.05394379 C26.0057714,0.827289211 25.781813,0.793291024 25.7370213,0.781958296 C25.6586359,0.770625567 24.0909269,0.747960109 23.4862392,0.770625567 C22.8815515,0.793291024 22.3776451,1.11060743 22.3104575,1.8019039 C22.2992596,2.18721668 22.4672284,2.45920218 22.8255619,2.60652765 C22.8255619,2.60652765 23.0607182,2.6631913 23.2062912,2.67452403 C23.5086351,2.68585675 24.6172292,2.67452403 24.6172292,2.67452403 C24.7180105,2.69718948 24.7516043,2.7425204 24.7516043,2.8218495 C24.7516043,2.93517679 24.7292084,3.02583862 24.5388438,3.05983681 L22.6128014,3.05983681 C22.6128014,3.05983681 22.5568118,3.05983681 22.3776451,3.07116954 C22.1984783,3.08250227 22.1424887,3.13916591 22.0641033,3.22982774 C21.9185303,3.43381686 21.9185303,3.6038078 22.0529054,3.75113327 C22.0529054,3.75113327 22.1200929,3.80779692 22.2544679,3.83046238 C22.4000409,3.85312783 24.3484791,3.83046238 24.3484791,3.83046238 C24.6172292,3.81912965 24.6284271,3.79646419 24.7404064,3.762466 C25.4122816,3.46781505 25.7034275,3.03717135 25.5914483,2.49320036 C25.501865,2.26654578 25.3450941,2.10788758 25.1323336,2.00589302 C25.1323336,2.00589302 25.0315523,1.93789665 24.7516043,1.92656392 L23.37426,1.92656392 C23.3406662,1.92656392 23.3182704,1.92656392 23.2958746,1.91523119 C23.1838954,1.85856754 23.1503016,1.77923844 23.1838954,1.66591115 C23.2622808,1.57524932 23.3070725,1.55258386 23.4078538,1.5299184 L23.4078538,1.5299184 Z M14.4719129,0.226654578 L14.460715,0.203989121 C14.3599337,0.0113327289 14.1023816,-0.0566636446 13.8896211,0.0566636446 C13.6768606,0.169990934 13.5872772,0.41931097 13.6880585,0.623300091 C13.7888398,0.815956482 14.046392,0.883952856 14.2591524,0.770625567 C14.460715,0.657298277 14.5502984,0.41931097 14.4719129,0.226654578 Z" id="Shape"></path>
        </g>
    </g>
</svg>