<svg viewBox="0 0 30 30" xmlns="http://www.w3.org/2000/svg"><g fill="none" transform="translate(2 11)"><path d="m11.1264649 4.73625507c0 1.29484002-.9632844 2.24898603-2.14545318 2.24898603-1.18216882 0-2.1454532-.95414601-2.1454532-2.24898603 0-1.30396575.96328438-2.24898603 2.1454532-2.24898603 1.18216878 0 2.14545318.94502028 2.14545318 2.24898603zm-.9391781 0c0-.80914827-.5583-1.36277603-1.20627508-1.36277603s-1.20627503.55362776-1.20627503 1.36277603c0 .8010365.55829995 1.36277603 1.20627503 1.36277603s1.20627508-.5627535 1.20627508-1.36277603z" fill="#ea4335"/><path d="m15.7548583 4.73625507c0 1.29484002-.9632843 2.24898603-2.1454532 2.24898603-1.1821688 0-2.1454532-.95414601-2.1454532-2.24898603 0-1.30295178.9632844-2.24898603 2.1454532-2.24898603 1.1821689 0 2.1454532.94502028 2.1454532 2.24898603zm-.9391781 0c0-.80914827-.5583-1.36277603-1.2062751-1.36277603-.647975 0-1.206275.55362776-1.206275 1.36277603 0 .8010365.5583 1.36277603 1.206275 1.36277603.6479751 0 1.2062751-.5627535 1.2062751-1.36277603z" fill="#fbbc05"/><path d="m20.190402 2.62314105v4.03762957c0 1.66088328-.9314642 2.33922938-2.0326361 2.33922938-1.0365673 0-1.6604361-.72904461-1.8957128-1.32525913l.8176828-.3579315c.1456016.36604327.5023736.7979946 1.0770658.7979946.7048657 0 1.1416703-.45730059 1.1416703-1.31816134v-.32345651h-.0327844c-.2102062.272758-.6151906.51104101-1.1262424.51104101-1.0693517 0-2.0490283-.97949527-2.0490283-2.2398603 0-1.26949076.9796766-2.25709779 2.0490283-2.25709779.5100875 0 .9150719.23828301 1.1262424.50292925h.0327844v-.36604327h.89193zm-.8253968 2.12122578c0-.79191077-.5023735-1.37088779-1.1416704-1.37088779-.6479751 0-1.190847.57897702-1.190847 1.37088779 0 .78379901.5428719 1.35466427 1.190847 1.35466427.6392969 0 1.1416704-.57086526 1.1416704-1.35466427z" fill="#4285f4"/><path d="m21.6608812.25653448v6.59080666h-.9160362v-6.59080666z" fill="#34a853"/><path d="m25.2305296 5.47645336.728972.51104101c-.2352767.36604326-.8022549.99673276-1.7819315.99673276-1.2149533 0-2.1223112-.98760703-2.1223112-2.24898603 0-1.33742677.9150719-2.24898603 2.0172081-2.24898603 1.1098502 0 1.6527221.92879676 1.8301439 1.43071203l.0973891.25552051-2.8589972 1.24515547c.2188845.45121677.5592642.68138802 1.0365673.68138802.4782673 0 .8099688-.24740875 1.0529595-.62257774zm-2.2438066-.80914827 1.9111408-.83449752c-.1051031-.28086976-.4213766-.47656602-.7935766-.47656602-.4773031 0-1.1416704.443105-1.1175642 1.31106354z" fill="#ea4335"/><path d="m3.36812046 4.15119423v-.95414601h3.0576324c.0298917.16629112.04531968.36300135.04531968.57593511 0 .715863-.18609998 1.60105903-.78586263 2.23174853-.58337042.63880126-1.32873461.97949527-2.3161252.97949527-1.8301439 0-3.36908471-1.56759802-3.36908471-3.49211357 0-1.92451554 1.53894081-3.49211356 3.36908471-3.49211356 1.01246105 0 1.73371903.41775575 2.27562676.96225777l-.64026109.67327625c-.3885922-.38328075-.91507195-.68138801-1.63632992-.68138801-1.3364486 0-2.38169411 1.13260478-2.38169411 2.53796755 0 1.40536278 1.04524551 2.53796756 2.38169411 2.53796756.86685951 0 1.36055481-.36604327 1.67682836-.69862551.25649014-.26971609.42523365-.65502479.4917668-1.18127535z" fill="#4285f4"/></g></svg>
