<svg viewBox="0 0 30 30" xmlns="http://www.w3.org/2000/svg"><path d="m6.23024321 3.07116954s-.34713555-.03399819-.27994802-.40797824v-.02266546s.45911475-2.24388033.47031267-2.32320943-.02239584-.12466002-.02239584-.12466002c-.08958337-.12466002-.2127605-.19265639-.38072931-.19265639-.17916673.01133273-.34713555.01133273-.4815106.36264733-.13437505.33998186-.44791683 2.19854941-.48151059 2.36854034-.03359376.1586582 0 .33998187 0 .33998187.15677089.5099728.54869812.77065537 1.15338585.77065537 0 0 .44791683.01130292.47031267-.40800805 0-.26065276-.15677089-.37398005-.44791683-.36264732zm-2.35156338-3.07116954h-1.90364654c-.57109396.06799637-1.00781288.30598368-1.31015674.70262919 0 0-.11197921.12466002-.17916673.39664552l-.44791684 2.16455122c-.03359376.13599275-.04479168.24932004-.03359376.33998187.0559896.20398912.34713555.28331822.64947941.1586582.01119792-.01133273.13437505-.06799637.19036465-.19265639.03359377-.06799637.06718753-.22665458.06718753-.22665458l.21276049-1.04261106h2.66510516l-.22395841 1.07660925c-.03359377.1586582-.02239584.20398912-.01119792.22665458.08958336.19265639.2687501.27198549.51510435.22665458.14557298-.05666365.25755218-.13599275.32473971-.23798731 0 0 .02239584-.02266546.0559896-.15865821l.4815106-2.49320036c.08958337-1.03127833-1.0190108-.92928377-1.05260456-.9406165zm.04479168 1.54125113h-2.64270931c.02239584-.44197642.15677089-.73662738.50390643-.77062556h1.56770892c.23515634.01133273.35833347 0 .4815106.02266545.36953138.18132367.11197921.71396193.08958336.74796011zm4.30000161 1.52991841s-.34713555-.03399819-.27994802-.40797824v-.02266546s.45911475-2.24388033.47031267-2.32320943c.02239584-.0793291-.01119792-.12466002-.01119792-.12466002-.08958337-.12466002-.2127605-.19265639-.38072931-.19265639-.17916673.01133273-.34713554.01133273-.4815106.36264733-.13437505.33998186-.44791683 2.19854941-.48151059 2.36854034-.03359376.1586582 0 .33998187 0 .33998187.15677089.5099728.54869812.77065537 1.15338585.77065537 0 0 .44791683.01130292.47031267-.40800805-.02239584-.26065276-.16796881-.37398005-.45911475-.36264732zm2.19479248.01133273c-.1903647-.02266546-.3807293-.07932911-.45911475-.22665458 0 0-.03359377-.05666365.01119792-.22665458l.13437503-.67996374h.5598961s.3359376-.01133272.3919272-.37398005c.0559896-.19265639-.0671875-.41931097-.3023439-.40797824h-.4815106s.1343751-.64596555.1679688-.82728921c.0335938-.18132366-.2239584-.32864914-.4031251-.32864914-.2127605 0-.40312516-.02266546-.4815106.36264732-.07838545.38531279-.44791684 2.19854942-.4815106 2.36854035s0 .33998187 0 .33998187c.17916673.56663644.60468773.81595648 1.276563.74796011.1231771-.03399819.1903646-.07932911.2687501-.1926564.0783854-.13599274.0895833-.26065276.0447917-.37398005 0-.02266546-.0559896-.15865821-.2463543-.18132366zm2.5867197-2.26654579s-.1567709-.09066183-.3695314-.04533091c-.5822919.10199456-1.0078128.36264732-1.2765629.79329102 0 0-.0559897.0793291-.1231772.30598368l-.3023438 1.47325476c-.0223959.10199456-.0335938.19265639-.0223959.26065277.1343751.2379873.3471356.28331822.6494794.1586582.0895834-.06799637.1567709-.14732547.2015626-.22665458 0 0 .2127605-1.21260199.3247397-1.57524932.1119792-.36264732.4367189-.36264732.7838545-.48730734.3695314-.11332729.3807293-.45330916.134375-.65729828zm.8734378.33998187c-.2015625.01133273-.3471355 0-.4703126.38531278l-.4031252 1.97189484c.0223959.18132366.1343751.29465095.3247397.31731641.2351564 0 .4143231-.09066184.5375002-.2719855l.3807293-1.83590208c.0335938-.13599275.0335938-.21532185.0335938-.33998187s-.2127605-.22665458-.4031252-.22665458zm3.7177098 1.94922937s-.0783855-.03399818-.1679689-.03399818h-1.8476569c-.0559896-.01133273-.0671875-.01133273-.134375-.03399819-.4815106-.16999093 0-1.16727108.0335937-1.25793291.0559896-.10199456.1903647-.23798731.4367189-.24932004h1.847657c.4367189-.01133272.4703126-.32864913.4815106-.37398005.0111979-.04533092.0447917-.27198549-.1903647-.36264733-.0671875-.01133272-.1231771-.02266545-.1791667-.02266545h-1.9372403c-.9294275.0793291-1.3101568.63463282-1.4781256 1.48458749 0 0-.1007813.54397098-.1007813.5893019-.0895833.78195829.5263023 1.06527652 1.5005214.99728014l1.4893235-.01133272c.1007813 0 .2015626-.03399819.279948-.13599275.2015626-.26065277.1567709-.47597462-.0335937-.58930191zm3.1466157-.81595648c.1119792-.0793291 1.2093755-.89528558 1.3213547-.98594741.1119792-.09066184.0895833-.2719855.0335937-.36264733s-.2575521-.18132366-.4367189-.1586582c-.0223958.01133272-.1007813 0-.1791667.06799637-.0783855.06799637-2.26198 1.66591115-2.3067717 1.68857661l.4031251-1.98322756.0223959-.12466002c.0111979-.10199456.0335938-.14732548-.0223959-.24932004-.1007812-.11332729-.2239584-.16999093-.3919272-.16999093-.3919272-.01133273-.4591147.33998187-.4591147.33998187s-.6158857 3.00317316-.6382815 3.13916591c-.0111979.10199456.0223958.1586582.0223958.1586582.1007813.16999094.3247397.23798731.571094.15865821.0111979-.01133273 1.2877609-.9406165 1.3101567-.95194923l.8286462.87262013c.0447916.04533091.0671875.06799637.1455729.10199456.2575522.04533091.4591148-.02266546.6158857-.21532185.0895833-.16999094.0783854-.31731641-.0223959-.44197643 0-.02266546-.8174482-.88395286-.8174482-.88395286zm2.6651052-.75929284h2.0604174s.5486981.01133273.5263023-.47597461c.0111979-.22665458-.2127605-.26065277-.2575522-.27198549-.0783854-.01133273-1.6460944-.03399819-2.2507821-.01133273-.6046877.02266545-1.1085941.33998186-1.1757817 1.03127833-.0111979.38531278.1567709.65729828.5151044.80462375 0 0 .2351563.05666365.3807293.06799638.3023439.01133272 1.410938 0 1.410938 0 .1007813.02266545.1343751.06799637.1343751.14732547 0 .11332729-.0223959.20398912-.2127605.23798731h-1.9260424s-.0559896 0-.2351563.01133273c-.1791668.01133273-.2351564.06799637-.3135418.1586582-.145573.20398912-.145573.37398006-.0111979.52130553 0 0 .0671875.05666365.2015625.07932911.145573.02266545 2.0940112 0 2.0940112 0 .2687501-.01133273.279948-.03399819.3919273-.06799638.6718752-.29465095.9630211-.72529465.8510419-1.26926564-.0895833-.22665458-.2463542-.38531278-.4591147-.48730734 0 0-.1007813-.06799637-.3807293-.0793291h-1.3773443c-.0335938 0-.0559896 0-.0783854-.01133273-.1119792-.05666365-.145573-.13599275-.1119792-.24932004.0783854-.09066183.1231771-.11332729.2239584-.13599275zm-8.9359409-1.30326382-.0111979-.02266546c-.1007813-.19265639-.3583334-.26065276-.5710939-.14732548-.2127605.11332729-.3023439.36264733-.2015626.56663645.1007813.19265639.3583335.26065277.5710939.14732548.2015626-.11332729.291146-.3513146.2127605-.54397099z" transform="translate(2.004759 13)"/></svg>