<svg viewBox="0 0 30 30" xmlns="http://www.w3.org/2000/svg"><g transform="translate(2 10)"><path d="m25.2617284 4.01234568h-.1283951c-.0320987 0-.0320987 0-.0320987.03209876v1.47654321c0 .03209877 0 .03209877.0320987.03209877h.7703704c.0320988 0 .0320988 0 .0320988-.03209877v-.09629629c0-.03209877 0-.03209877-.0320988-.03209877h-.5777778v-1.34814815c0-.03209876-.0320987-.03209876-.0641975-.03209876zm-.8666667.96296296h-.3851852l.0917318-.3691358c.0320987-.0962963.1008608-.3691358.1008608-.3691358 0 .03209876.0527551.30493827.0848539.3691358zm-.2567901-.96296296c-.0320988 0-.0320988 0-.0641975.03209876l-.4493827 1.47654321c0 .03209877 0 .03209877.0320987.03209877h.1283951c.0213992 0 .0748971-.12839506.1604938-.38518519h.4814815l.0962963.35308642c0 .03209877.0320988.03209877.0641975.03209877h.1283951c.0320987 0 .0320987-.03209877.0320987-.03209877l-.4493827-1.47654321c0-.03209876-.0320987-.03209876-.0641975-.03209876zm-1.4765432 0c-.0320988 0-.0320988 0-.0320988.03209876v.0962963c0 .03209877 0 .03209877.0320988.03209877h.3530864v1.31604938c0 .03209876 0 .03209876.0320988.03209876h.128395c.0320988 0 .0320988 0 .0320988-.03209876v-1.31604938h.3530864c.0320988 0 .0320988 0 .0320988-.03209877v-.0962963c0-.03209876 0-.03209876-.0320988-.03209876zm-.2888889.03209876c0-.03209876 0-.03209876-.0320988-.03209876h-.128395c-.0320988 0-.0320988 0-.0320988.03209876v1.47654321c0 .03209877 0 .03209877.0320988.03209877h.128395c.0320988 0 .0320988 0 .0320988-.03209877zm-1.1234568.73827161c-.0320987 0-.0320987 0-.0320987.03209876v.0962963c0 .03209877 0 .03209877.0320987.03209877h.2567901v.22469135c0 .12839507-.0962963.1925926-.2888888.1925926-.1925926 0-.2888889-.06419753-.2888889-.1925926v-.80246913c0-.12839506.0641975-.19259259.2888889-.19259259.2246913 0 .2888888.06419753.2888888.19259259v.06419753c0 .03209877 0 .03209877.0320988.03209877h.1283951c.0320987 0 .0320987 0 .0320987-.03209877v-.0962963c0-.19259259-.0962963-.35308642-.5135802-.35308642-.3851852 0-.5135803.16049383-.5135803.35308642v.89876544c0 .19259259.0962963.35308642.5135803.35308642.3851852 0 .5135802-.16049383.5135802-.35308642v-.41728396c0-.03209876 0-.03209876-.0320987-.03209876zm-.9308642-.73827161c0-.03209876 0-.03209876-.0320987-.03209876h-.1283951c-.0320988 0-.0320988 0-.0320988.03209876v1.47654321c0 .03209877 0 .03209877.0320988.03209877h.1283951c.0320987 0 .0320987 0 .0320987-.03209877zm-.8666666.35308642v.77037037c0 .12839507-.0962963.1925926-.2888889.1925926h-.2888889v-1.18765432h.2888889c.1925926 0 .2888889.09629629.2888889.22469135zm.2246913.80246914v-.86666667c0-.19259259-.1283951-.35308642-.5135802-.35308642h-.4814815c-.0320988 0-.0320988 0-.0320988.03209877v1.47654321c0 .03209876 0 .03209876.0320988.03209876h.4814815c.3851851 0 .5135802-.12839506.5135802-.32098765z"/><path d="m15.0864198 4.78271605c0-1.28395062-.9308642-2.21481482-2.2469136-2.21481482h-.0320988c-.7061728-.03209876-1.2839506-.57777777-1.2839506-1.28395061s.5777778-1.28395062 1.2839506-1.28395062 1.2839506.57777778 1.2839506 1.28395062c0 1.28395061.9308642 2.21481481 2.2148148 2.21481481.7061729 0 1.2839507.57777778 1.2839507 1.28395062s-.5777778 1.28395062-1.2839507 1.28395062c-1.3160493 0-2.2148148.89876543-2.2148148 2.21481481 0 .70617284-.5777778 1.28395062-1.2839506 1.28395062s-1.2839506-.57777778-1.2839506-1.28395062.5777778-1.28395062 1.2839506-1.28395062h.0320988c1.2839506 0 2.2469136-.89876543 2.2469136-2.21481481z"/><path d="m11.0419753 4.78271605c0-.96296296.7703704-1.73333333 1.7333333-1.73333333.962963 0 1.7333334.77037037 1.7333334 1.73333333s-.7703704 1.73333333-1.7333334 1.73333333c-.9629629 0-1.7333333-.77037037-1.7333333-1.73333333zm.6419753 0c0 .60987654.4814815 1.09135802 1.091358 1.09135802.6098766 0 1.0913581-.48148148 1.0913581-1.09135802s-.4814815-1.09135803-1.0913581-1.09135803c-.6098765 0-1.091358.48148149-1.091358 1.09135803zm-6.93333332-2.02222222h-.6419753v-.64197531h.6419753zm5.52098762 0h-.64197527v-.64197531h.64197527zm-5.52098762 3.69135802h-.6419753v-3.3382716h.6419753zm5.52098762 0h-.64197527v-3.3382716h.64197527zm-9.37283947 0h-.64197531v-3.3382716h.64197531zm4.81481482-.60987654h2.11851852c.19259259 0 .38518518-.16049383.38518518-.35308642s-.16049383-.35308642-.38518518-.35308642h-1.21975309c-.57777778 0-1.02716049-.44938272-1.02716049-.99506173s.44938271-.99506173 1.02716049-.99506173h1.89382716v.64197531h-1.89382716c-.19259259 0-.38518519.16049383-.38518519.35308642 0 .22469136.12839507.35308642.28888889.35308642h1.31604939c.57777777 0 1.02716049.44938272 1.02716049.99506173s-.44938272.99506173-1.02716049.99506173h-2.11851852zm-3.81975309-1.05925926 1.70123457 1.6691358h-.9308642l-1.63703704-1.6691358 1.63703704-1.6691358h.9308642z"/></g></svg>
