<?xml version="1.0" encoding="UTF-8"?>
<svg width="30px" height="30px" viewBox="0 0 30 30" version="1.1" xmlns="http://www.w3.org/2000/svg" xmlns:xlink="http://www.w3.org/1999/xlink">
    <title>company-microsoft</title>
    <g id="Page-1" stroke="none" stroke-width="1" fill="none" fill-rule="evenodd">
        <g id="company-microsoft" transform="translate(2.000000, 12.000000)" fill-rule="nonzero">
            <path d="M10.8127962,1.2 L10.8127962,4.8 L10.2351896,4.8 L10.2351896,1.975 L10.2274882,1.975 L9.19549763,4.8 L8.81042654,4.8 L7.75533175,1.975 L7.74763033,1.975 L7.74763033,4.8 L7.21623223,4.8 L7.21623223,1.2 L8.04798578,1.2 L9.00296209,3.86666667 L9.01836493,3.86666667 L10.0272512,1.2 L10.8127962,1.2 Z M11.2902844,1.475 C11.2902844,1.375 11.32109,1.29166667 11.3904028,1.225 C11.4597156,1.15833333 11.5367299,1.125 11.6291469,1.125 C11.7292654,1.125 11.813981,1.15833333 11.8755924,1.225 C11.9372038,1.29166667 11.9757109,1.375 11.9757109,1.475 C11.9757109,1.575 11.9449052,1.65833333 11.8755924,1.725 C11.8062796,1.79166667 11.7292654,1.825 11.6291469,1.825 C11.5290284,1.825 11.4520142,1.79166667 11.3904028,1.725 C11.3287915,1.65 11.2902844,1.56666667 11.2902844,1.475 Z M11.9140995,2.21666667 L11.9140995,4.8 L11.3518957,4.8 L11.3518957,2.21666667 L11.9140995,2.21666667 Z M13.6161137,4.35833333 C13.7008294,4.35833333 13.7932464,4.34166667 13.8933649,4.29166667 C13.9934834,4.25 14.0859005,4.19166667 14.1706161,4.125 L14.1706161,4.69166667 C14.0781991,4.75 13.9780806,4.79166667 13.8625592,4.81666667 C13.7470379,4.84166667 13.6238152,4.85833333 13.4851896,4.85833333 C13.1309242,4.85833333 12.8459716,4.74166667 12.6303318,4.5 C12.4069905,4.25833333 12.2991706,3.95 12.2991706,3.58333333 C12.2991706,3.16666667 12.4146919,2.825 12.6380332,2.55833333 C12.8613744,2.29166667 13.1771327,2.15833333 13.5930095,2.15833333 C13.7008294,2.15833333 13.8086493,2.175 13.9087678,2.2 C14.0165877,2.225 14.1013033,2.26666667 14.1629147,2.3 L14.1629147,2.88333333 C14.0781991,2.81666667 13.985782,2.75833333 13.9010664,2.725 C13.8086493,2.69166667 13.7162322,2.66666667 13.6238152,2.66666667 C13.4004739,2.66666667 13.2233412,2.74166667 13.0847156,2.9 C12.94609,3.05833333 12.8844787,3.26666667 12.8844787,3.53333333 C12.8844787,3.79166667 12.9537915,4 13.0847156,4.14166667 C13.2156398,4.28333333 13.3927725,4.35833333 13.6161137,4.35833333 Z M15.7648104,2.175 C15.811019,2.175 15.8495261,2.175 15.8880332,2.18333333 C15.9265403,2.19166667 15.957346,2.2 15.9804502,2.20833333 L15.9804502,2.825 C15.9496445,2.8 15.9111374,2.775 15.8495261,2.75833333 C15.7879147,2.74166667 15.7263033,2.725 15.6415877,2.725 C15.5029621,2.725 15.3874408,2.79166667 15.2950237,2.91666667 C15.2026066,3.04166667 15.1486967,3.23333333 15.1486967,3.5 L15.1486967,4.8 L14.5864929,4.8 L14.5864929,2.21666667 L15.1486967,2.21666667 L15.1486967,2.625 L15.1563981,2.625 C15.2103081,2.48333333 15.2873223,2.375 15.3874408,2.29166667 C15.4952607,2.21666667 15.6184834,2.175 15.7648104,2.175 Z M16.0112559,3.55 C16.0112559,3.125 16.1267773,2.78333333 16.3424171,2.53333333 C16.5657583,2.28333333 16.8738152,2.15833333 17.2665877,2.15833333 C17.6362559,2.15833333 17.92891,2.275 18.1368483,2.51666667 C18.3447867,2.75833333 18.4526066,3.08333333 18.4526066,3.49166667 C18.4526066,3.90833333 18.3370853,4.24166667 18.1214455,4.49166667 C17.8981043,4.74166667 17.5977488,4.86666667 17.2126777,4.86666667 C16.8430095,4.86666667 16.5503555,4.75 16.3347156,4.51666667 C16.1190758,4.275 16.0112559,3.95 16.0112559,3.55 L16.0112559,3.55 Z M16.596564,3.525 C16.596564,3.79166667 16.6504739,4 16.7659953,4.14166667 C16.8815166,4.28333333 17.0432464,4.35833333 17.2511848,4.35833333 C17.4514218,4.35833333 17.6131517,4.29166667 17.7209716,4.14166667 C17.8287915,4 17.8827014,3.79166667 17.8827014,3.50833333 C17.8827014,3.23333333 17.8287915,3.025 17.7209716,2.875 C17.6131517,2.73333333 17.4514218,2.65833333 17.2588863,2.65833333 C17.0509479,2.65833333 16.8969194,2.73333333 16.7813981,2.88333333 C16.6504739,3.04166667 16.596564,3.25 16.596564,3.525 Z M19.2920616,2.9 C19.2920616,2.98333333 19.3151659,3.05833333 19.3690758,3.10833333 C19.4229858,3.15833333 19.5308057,3.21666667 19.7079384,3.29166667 C19.9312796,3.39166667 20.0930095,3.5 20.1777251,3.61666667 C20.2701422,3.74166667 20.3163507,3.88333333 20.3163507,4.05833333 C20.3163507,4.3 20.2316351,4.49166667 20.0545024,4.64166667 C19.8850711,4.79166667 19.646327,4.85833333 19.353673,4.85833333 C19.2535545,4.85833333 19.1457346,4.84166667 19.0225118,4.81666667 C18.8992891,4.79166667 18.7991706,4.75833333 18.714455,4.71666667 L18.714455,4.11666667 C18.8145735,4.19166667 18.9300948,4.25833333 19.0456161,4.3 C19.1611374,4.34166667 19.2689573,4.36666667 19.3690758,4.36666667 C19.4922986,4.36666667 19.5924171,4.35 19.646327,4.30833333 C19.7079384,4.26666667 19.7387441,4.20833333 19.7387441,4.11666667 C19.7387441,4.03333333 19.7079384,3.96666667 19.646327,3.9 C19.5847156,3.84166667 19.4614929,3.775 19.2920616,3.7 C19.0841232,3.60833333 18.9377962,3.5 18.8530806,3.38333333 C18.7683649,3.26666667 18.7221564,3.11666667 18.7221564,2.93333333 C18.7221564,2.7 18.806872,2.50833333 18.9763033,2.35833333 C19.1457346,2.20833333 19.3690758,2.13333333 19.6386256,2.13333333 C19.7233412,2.13333333 19.8157583,2.14166667 19.9158768,2.16666667 C20.0159953,2.19166667 20.1084123,2.21666667 20.1777251,2.24166667 L20.1777251,2.83333333 C20.1007109,2.78333333 20.0159953,2.73333333 19.9158768,2.69166667 C19.8157583,2.65 19.7156398,2.63333333 19.6232227,2.63333333 C19.5154028,2.63333333 19.4306872,2.65833333 19.3767773,2.7 C19.3228673,2.75833333 19.2920616,2.81666667 19.2920616,2.9 L19.2920616,2.9 Z M20.5550948,3.55 C20.5550948,3.125 20.6706161,2.78333333 20.8862559,2.53333333 C21.1095972,2.28333333 21.417654,2.15833333 21.8104265,2.15833333 C22.1800948,2.15833333 22.4727488,2.275 22.6806872,2.51666667 C22.8886256,2.75833333 22.9964455,3.08333333 22.9964455,3.49166667 C22.9964455,3.90833333 22.8809242,4.24166667 22.6652844,4.49166667 C22.4419431,4.74166667 22.1415877,4.86666667 21.7565166,4.86666667 C21.3868483,4.86666667 21.0941943,4.75 20.8785545,4.51666667 C20.6706161,4.275 20.5550948,3.95 20.5550948,3.55 L20.5550948,3.55 Z M21.1404028,3.525 C21.1404028,3.79166667 21.1943128,4 21.3098341,4.14166667 C21.4253555,4.28333333 21.5870853,4.35833333 21.7950237,4.35833333 C21.9952607,4.35833333 22.1569905,4.29166667 22.2648104,4.14166667 C22.3726303,4 22.4265403,3.79166667 22.4265403,3.50833333 C22.4265403,3.23333333 22.3726303,3.025 22.2648104,2.875 C22.1569905,2.73333333 21.9952607,2.65833333 21.8027251,2.65833333 C21.5947867,2.65833333 21.4407583,2.73333333 21.325237,2.88333333 C21.2020142,3.04166667 21.1404028,3.25 21.1404028,3.525 L21.1404028,3.525 Z M24.867891,2.71666667 L24.028436,2.71666667 L24.028436,4.8 L23.4585308,4.8 L23.4585308,2.71666667 L23.0580569,2.71666667 L23.0580569,2.21666667 L23.4585308,2.21666667 L23.4585308,1.85833333 C23.4585308,1.59166667 23.5432464,1.36666667 23.7049763,1.19166667 C23.8667062,1.01666667 24.0746445,0.933333333 24.3287915,0.933333333 C24.3981043,0.933333333 24.4597156,0.941666667 24.5136256,0.941666667 C24.5675355,0.941666667 24.6137441,0.958333333 24.6522512,0.975 L24.6522512,1.5 C24.6368483,1.49166667 24.5983412,1.475 24.5521327,1.45833333 C24.5059242,1.44166667 24.4520142,1.43333333 24.3904028,1.43333333 C24.2748815,1.43333333 24.1824645,1.475 24.1208531,1.55 C24.0592417,1.625 24.028436,1.75 24.028436,1.9 L24.028436,2.20833333 L24.867891,2.20833333 L24.867891,1.625 L25.4300948,1.44166667 L25.4300948,2.20833333 L26,2.20833333 L26,2.70833333 L25.4300948,2.70833333 L25.4300948,3.91666667 C25.4300948,4.075 25.4609005,4.18333333 25.507109,4.25 C25.561019,4.31666667 25.6457346,4.35 25.7612559,4.35 C25.7920616,4.35 25.8305687,4.34166667 25.8767773,4.325 C25.9229858,4.30833333 25.9614929,4.29166667 25.9922986,4.26666667 L25.9922986,4.76666667 C25.9537915,4.79166667 25.8998815,4.80833333 25.8151659,4.825 C25.7304502,4.84166667 25.653436,4.85 25.5687204,4.85 C25.3299763,4.85 25.1528436,4.78333333 25.0373223,4.65 C24.9218009,4.51666667 24.8601896,4.30833333 24.8601896,4.03333333 L24.867891,2.71666667 Z" id="Shape" fill="#737373"></path>
            <polygon id="Path" fill="#F25022" points="0 0 2.63388626 0 2.63388626 2.85 0 2.85"></polygon>
            <polygon id="Path" fill="#7FBA00" points="2.91113744 0 5.5450237 0 5.5450237 2.85 2.91113744 2.85"></polygon>
            <polygon id="Path" fill="#00A4EF" points="0 3.15 2.63388626 3.15 2.63388626 6 0 6"></polygon>
            <polygon id="Path" fill="#FFB900" points="2.91113744 3.15 5.5450237 3.15 5.5450237 6 2.91113744 6"></polygon>
        </g>
    </g>
</svg>