<?xml version="1.0" encoding="UTF-8"?>
<svg width="30px" height="30px" viewBox="0 0 30 30" version="1.1" xmlns="http://www.w3.org/2000/svg" xmlns:xlink="http://www.w3.org/1999/xlink">
    <title>company-google</title>
    <g id="Page-1" stroke="none" stroke-width="1" fill="none" fill-rule="evenodd">
        <g id="company-google" transform="translate(2.000000, 11.000000)" fill-rule="nonzero">
            <path d="M11.1264649,4.73625507 C11.1264649,6.03109509 10.1631805,6.9852411 8.98101172,6.9852411 C7.7988429,6.9852411 6.83555852,6.03109509 6.83555852,4.73625507 C6.83555852,3.43228932 7.7988429,2.48726904 8.98101172,2.48726904 C10.1631805,2.48726904 11.1264649,3.43228932 11.1264649,4.73625507 Z M10.1872868,4.73625507 C10.1872868,3.9271068 9.6289868,3.37347904 8.98101172,3.37347904 C8.33303664,3.37347904 7.77473669,3.9271068 7.77473669,4.73625507 C7.77473669,5.53729157 8.33303664,6.0990311 8.98101172,6.0990311 C9.6289868,6.0990311 10.1872868,5.5362776 10.1872868,4.73625507 Z" id="Shape" fill="#EA4335"></path>
            <path d="M15.7548583,4.73625507 C15.7548583,6.03109509 14.791574,6.9852411 13.6094051,6.9852411 C12.4272363,6.9852411 11.4639519,6.03109509 11.4639519,4.73625507 C11.4639519,3.43330329 12.4272363,2.48726904 13.6094051,2.48726904 C14.791574,2.48726904 15.7548583,3.43228932 15.7548583,4.73625507 Z M14.8156802,4.73625507 C14.8156802,3.9271068 14.2573802,3.37347904 13.6094051,3.37347904 C12.9614301,3.37347904 12.4031301,3.9271068 12.4031301,4.73625507 C12.4031301,5.53729157 12.9614301,6.0990311 13.6094051,6.0990311 C14.2573802,6.0990311 14.8156802,5.5362776 14.8156802,4.73625507 Z" id="Shape" fill="#FBBC05"></path>
            <path d="M20.190402,2.62314105 L20.190402,6.66077062 C20.190402,8.3216539 19.2589378,9 18.1577659,9 C17.1211986,9 16.4973298,8.27095539 16.2620531,7.67474087 L17.0797359,7.31680937 C17.2253375,7.68285264 17.5821095,8.11480397 18.1568017,8.11480397 C18.8616674,8.11480397 19.298472,7.65750338 19.298472,6.79664263 L19.298472,6.47318612 L19.2656876,6.47318612 C19.0554814,6.74594412 18.650497,6.98422713 18.1394452,6.98422713 C17.0700935,6.98422713 16.0904169,6.00473186 16.0904169,4.74436683 C16.0904169,3.47487607 17.0700935,2.48726904 18.1394452,2.48726904 C18.6495327,2.48726904 19.0545171,2.72555205 19.2656876,2.99019829 L19.298472,2.99019829 L19.298472,2.62415502 L20.190402,2.62415502 L20.190402,2.62314105 Z M19.3650052,4.74436683 C19.3650052,3.95245606 18.8626317,3.37347904 18.2233348,3.37347904 C17.5753597,3.37347904 17.0324878,3.95245606 17.0324878,4.74436683 C17.0324878,5.52816584 17.5753597,6.0990311 18.2233348,6.0990311 C18.8626317,6.0990311 19.3650052,5.52816584 19.3650052,4.74436683 Z" id="Shape" fill="#4285F4"></path>
            <polygon id="Path" fill="#34A853" points="21.6608812 0.256534475 21.6608812 6.84734114 20.744845 6.84734114 20.744845 0.256534475"></polygon>
            <path d="M25.2305296,5.47645336 L25.9595016,5.98749437 C25.7242249,6.35353763 25.1572467,6.98422713 24.1775701,6.98422713 C22.9626168,6.98422713 22.0552589,5.9966201 22.0552589,4.7352411 C22.0552589,3.39781433 22.9703308,2.48625507 24.072467,2.48625507 C25.1823172,2.48625507 25.7251891,3.41505183 25.9026109,3.9169671 L26,4.17248761 L23.1410028,5.41764308 C23.3598873,5.86885985 23.700267,6.0990311 24.1775701,6.0990311 C24.6558374,6.0990311 24.9875389,5.85162235 25.2305296,5.47645336 Z M22.986723,4.66730509 L24.8978638,3.83280757 C24.7927607,3.55193781 24.4764872,3.35624155 24.1042872,3.35624155 C23.6269841,3.35624155 22.9626168,3.79934655 22.986723,4.66730509 L22.986723,4.66730509 Z" id="Shape" fill="#EA4335"></path>
            <path d="M3.36812046,4.15119423 L3.36812046,3.19704822 L6.42575286,3.19704822 C6.45564456,3.36333934 6.47107254,3.56004957 6.47107254,3.77298333 C6.47107254,4.48884633 6.28497256,5.37404236 5.68520991,6.00473186 C5.10183949,6.64353312 4.3564753,6.98422713 3.36908471,6.98422713 C1.53894081,6.98422713 4.0939474e-16,5.41662911 4.0939474e-16,3.49211356 C4.0939474e-16,1.56759802 1.53894081,0 3.36908471,0 C4.38154576,0 5.10280374,0.417755746 5.64471147,0.962257774 L5.00445038,1.63553402 C4.61585818,1.25225327 4.08937843,0.954146012 3.36812046,0.954146012 C2.03167186,0.954146012 0.986426346,2.08675079 0.986426346,3.49211356 C0.986426346,4.89747634 2.03167186,6.03008112 3.36812046,6.03008112 C4.23497997,6.03008112 4.72867527,5.66403785 5.04494882,5.33145561 C5.30143896,5.06173952 5.47018247,4.67643082 5.53671562,4.15018026 L3.36812046,4.15119423 Z" id="Path" fill="#4285F4"></path>
        </g>
    </g>
</svg>