<svg viewBox="0 0 30 30" xmlns="http://www.w3.org/2000/svg"><g fill="none"><g fill="#000" transform="translate(9 13)"><path d="m1.17744154.72627235v3.20220083h.86382393v-3.20220083h1.17744155v-.72627235h-3.21870702v.72627235z"/><path d="m6.22833563 3.92847318.89683631-2.84456672h-.80330124l-.52269601 1.92572215h-.01100413l-.48418156-1.92572215h-.75928474l-.47317744 1.93122421h-.01100412l-.52269601-1.93122421h-.8253095l.90233838 2.84456672h.8088033l.48418157-1.90921596h.01100413l.50618982 1.90921596z"/><path d="m8.32930399.6437414v-.6437414h-.852v.6437414zm-.852.44016506v2.84456672h.852v-2.84456672z"/><path d="m9.86519945 1.08390646v-.8528198h-.78129299v.8528198h-.47317744v.52269602h.47317744v1.67812929c0 .14305365.02384228.25859698.07152683.34662999s.11279229.15589179.19532324.20357634.17790005.07977992.28610729.09628611c.10820725.01650619.22283357.02475928.34387896.02475928.07702892 0 .15589182-.00183402.23658872-.00550206s.1540578-.01100413.2200825-.02200825v-.60522696c-.0366804.00733608-.0751948.01283814-.1155433.01650619-.0403485.00366804-.0825309.00550206-.1265475.00550206-.1320495 0-.22008248-.02200825-.26409899-.06602476s-.06602476-.13204952-.06602476-.26409904v-1.40852819h.57221455v-.52269602z"/><path d="m11.8019257 1.08390646v-.8528198h-.781293v.8528198h-.4731774v.52269602h.4731774v1.67812929c0 .14305365.0238423.25859698.0715269.34662999.0476845.08803301.1127923.15589179.1953232.20357634.082531.04768455.1779001.07977992.2861073.09628611s.2228336.02475928.343879.02475928c.0770288 0 .1558917-.00183402.2365887-.00550206.0806969-.00366804.1540577-.01100413.2200825-.02200825v-.60522696c-.0366804.00733608-.0751949.01283814-.1155433.01650619-.0403485.00366804-.082531.00550206-.1265475.00550206-.1320495 0-.2200825-.02200825-.264099-.06602476s-.0660248-.13204952-.0660248-.26409904v-1.40852819h.5722146v-.52269602z"/><path d="m14.6629986 2.20082531h-1.2709766c.0036681-.05502063.0155892-.11737735.0357634-.18707015.0201743-.0696928.0550207-.13571756.1045392-.19807428.0495186-.06235672.1155434-.11462632.1980743-.1568088.0825309-.04218249.1861531-.06327373.3108666-.06327373.1907382 0 .3328748.05135259.4264099.15405777s.1586428.25309491.1953232.45116919zm-1.2709766.49518569h2.0522696c.0146722-.22008253-.003668-.43099495-.0550206-.63273727s-.1348006-.38147639-.2503439-.5392022c-.1155433-.15772582-.263182-.28335626-.4429161-.37689134-.1797341-.09353507-.3906465-.14030261-.6327373-.14030261-.2164145 0-.4135717.03851444-.5914718.11554333-.1779.07702888-.3310408.1824851-.4594223.31636864-.1283814.13388354-.2274186.29252636-.2971114.47592847s-.1045392.38147639-.1045392.59422283c0 .22008253.0339294.42182485.1017882.60522696s.1641449.34112793.2888583.47317744c.1247135.13204952.2769372.23383769.4566713.30536452.179734.07152682.3814764.10729023.6052269.10729023.3227877 0 .5978909-.07336084.8253095-.22008253s.3961486-.39064649.5061898-.73177442h-.6877579c-.0256763.08803302-.0953691.17148098-.2090784.25034388-.1137093.07886291-.2494268.11829436-.4071527.11829436-.2200825 0-.3888124-.05685465-.5061898-.17056396-.1173773-.11370931-.1815681-.29711142-.1925722-.55020633z"/><path d="m15.9064649 1.08390646v2.84456672h.781293v-1.28198075c0-.12838147.0128382-.24759284.0385145-.35763411.0256762-.11004126.0687757-.20632737.1292984-.28885832s.1403027-.1476387.2393398-.19532325c.0990371-.04768454.2200825-.07152682.3631362-.07152682.0476845 0 .0972031.00275103.1485557.0082531.0513526.00550206.0953691.01192113.1320495.01925722v-.72627235c-.0623567-.01834022-.1192114-.02751032-.170564-.02751032-.0990371 0-.1944062.01467217-.2861073.04401651-.091701.02934433-.1779.07060981-.2585969.12379642-.080697.05318661-.1522238.11737735-.2145805.19257221-.0623567.07519487-.1118753.15680881-.1485557.24484182h-.0110041v-.52819808z"/></g><path d="m8 13.480943c-.18403138.0817277-.38171608.1367256-.5892081.1615323.21191492-.1269182.37440867-.327872.45094418-.5674782-.1980693.1174955-.41767623.2028768-.6515134.2490289-.18710818-.1994154-.4536364-.324026-.74862505-.324026-.56651666 0-1.02572978.4594054-1.02572978 1.0257298 0 .0803815.00923042.15884.02653745.2336448-.85246722-.0426906-1.60820738-.4511365-2.11434176-1.0718818-.08807354.1515326-.13864852.3276797-.13864852.5159417 0 .3557555.18095458.6697819.45613631.853621-.16807046-.0053844-.32633361-.0515365-.46459752-.1282643v.0128841c0 .4970963.35344794.9116957.82285297 1.0057306-.08595823.0234606-.17672397.0359601-.27037422.0359601-.065959 0-.1303796-.0065382-.1928772-.0182685.13057191.4074843.50940349.7042037.95823238.7124726-.35094804.2751817-.79323872.4392139-1.27398946.4392139-.08268913 0-.16441676-.0048075-.24479828-.0144225.454021.2909503.99303873.4607514 1.57243952.4607514 1.88685051 0 2.9183493-1.5630168 2.9183493-2.9185415 0-.0444214-.0009615-.0886505-.0028845-.1326872.2005692-.1448022.37460096-.3253721.51209568-.5309412z" fill="#1d9bf0"/></g></svg>
