<svg viewBox="0 0 30 30" xmlns="http://www.w3.org/2000/svg"><g fill="none" transform="translate(2 12)"><path d="m10.8127962 1.2v3.6h-.5776066v-2.825h-.0077014l-1.03199057 2.825h-.38507109l-1.05509479-2.825h-.00770142v2.825h-.5313981v-3.6h.83175355l.95497631 2.66666667h.01540284l1.00888627-2.66666667zm.4774882.275c0-.1.0308056-.18333333.1001184-.25s.1463271-.1.2387441-.1c.1001185 0 .1848341.03333333.2464455.1s.1001185.15.1001185.25-.0308057.18333333-.1001185.25-.146327.1-.2464455.1-.1771327-.03333333-.2387441-.1c-.0616113-.075-.1001184-.15833333-.1001184-.25zm.6238151.74166667v2.58333333h-.5622038v-2.58333333zm1.7020142 2.14166666c.0847157 0 .1771327-.01666666.2772512-.06666666.1001185-.04166667.1925356-.1.2772512-.16666667v.56666667c-.092417.05833333-.1925355.1-.3080569.125-.1155213.025-.238744.04166666-.3773696.04166666-.3542654 0-.639218-.11666666-.8548578-.35833333-.2233413-.24166667-.3311612-.55-.3311612-.91666667 0-.41666666.1155213-.75833333.3388626-1.025.2233412-.26666666.5390995-.4.9549763-.4.1078199 0 .2156398.01666667.3157583.04166667.1078199.025.1925355.06666667.2541469.1v.58333333c-.0847156-.06666666-.1771327-.125-.2618483-.15833333-.0924171-.03333333-.1848342-.05833333-.2772512-.05833333-.2233413 0-.400474.075-.5390996.23333333s-.2002369.36666667-.2002369.63333333c0 .25833334.0693128.46666667.2002369.60833334.1309242.14166666.3080569.21666666.5313981.21666666zm2.1486967-2.18333333c.0462086 0 .0847157 0 .1232228.00833333.0385071.00833334.0693128.01666667.092417.025v.61666667c-.0308057-.025-.0693128-.05-.1309241-.06666667-.0616114-.01666666-.1232228-.03333333-.2079384-.03333333-.1386256 0-.2541469.06666667-.346564.19166667s-.146327.31666666-.146327.58333333v1.3h-.5622038v-2.58333333h.5622038v.40833333h.0077014c.05391-.14166667.1309242-.25.2310427-.33333333.1078199-.075.2310426-.11666667.3773696-.11666667zm.2464455 1.375c0-.425.1155214-.76666667.3311612-1.01666667.2233412-.25.5313981-.375.9241706-.375.3696682 0 .6623223.11666667.8702606.35833334.2079384.24166666.3157583.56666666.3157583.975 0 .41666666-.1155213.75-.3311611 1-.2233412.25-.5236967.375-.9087678.375-.3696682 0-.6623222-.11666667-.8779621-.35-.2156398-.24166667-.3234597-.56666667-.3234597-.96666667zm.5853081-.025c0 .26666667.0539099.475.1694313.61666667.1155213.14166666.2772511.21666666.4851895.21666666.200237 0 .3619669-.06666666.4697868-.21666666.1078199-.14166667.1617298-.35.1617298-.63333334 0-.275-.0539099-.48333333-.1617298-.63333333-.1078199-.14166667-.2695498-.21666667-.4620853-.21666667-.2079384 0-.3619669.075-.4774882.225-.1309242.15833334-.1848341.36666667-.1848341.64166667zm2.6954976-.625c0 .08333333.0231043.15833333.0770142.20833333.05391.05.1617299.10833334.3388626.18333334.2233412.1.3850711.20833333.4697867.325.0924171.125.1386256.26666666.1386256.44166666 0 .24166667-.0847156.43333334-.2618483.58333334-.1694313.15-.4081754.21666666-.7008294.21666666-.1001185 0-.2079384-.01666666-.3311612-.04166666-.1232227-.025-.2233412-.05833334-.3080568-.1v-.6c.1001185.075.2156398.14166666.3311611.18333333s.2233412.06666667.3234597.06666667c.1232228 0 .2233413-.01666667.2772512-.05833334.0616114-.04166666.0924171-.1.0924171-.19166666 0-.08333334-.0308057-.15-.0924171-.21666667-.0616114-.05833333-.1848341-.125-.3542654-.2-.2079384-.09166667-.3542654-.2-.438981-.31666667-.0847157-.11666666-.1309242-.26666666-.1309242-.45 0-.23333333.0847156-.425.2541469-.575s.3927725-.225.6623223-.225c.0847156 0 .1771327.00833334.2772512.03333334s.1925355.05.2618483.075v.59166666c-.0770142-.05-.1617298-.1-.2618483-.14166666-.1001185-.04166667-.200237-.05833334-.2926541-.05833334-.1078199 0-.1925355.025-.2464454.06666667-.05391.05833333-.0847157.11666667-.0847157.2zm1.2630332.65c0-.425.1155213-.76666667.3311611-1.01666667.2233413-.25.5313981-.375.9241706-.375.3696683 0 .6623223.11666667.8702607.35833334.2079384.24166666.3157583.56666666.3157583.975 0 .41666666-.1155213.75-.3311611 1-.2233413.25-.5236967.375-.9087678.375-.3696683 0-.6623223-.11666667-.8779621-.35-.2079384-.24166667-.3234597-.56666667-.3234597-.96666667zm.585308-.025c0 .26666667.05391.475.1694313.61666667.1155214.14166666.2772512.21666666.4851896.21666666.200237 0 .3619668-.06666666.4697867-.21666666.1078199-.14166667.1617299-.35.1617299-.63333334 0-.275-.05391-.48333333-.1617299-.63333333-.1078199-.14166667-.2695497-.21666667-.4620853-.21666667-.2079384 0-.3619668.075-.4774881.225-.1232228.15833334-.1848342.36666667-.1848342.64166667zm3.7274882-.80833333h-.839455v2.08333333h-.5699052v-2.08333333h-.4004739v-.5h.4004739v-.35833334c0-.26666666.0847156-.49166666.2464455-.66666666s.3696682-.25833334.6238152-.25833334c.0693128 0 .1309241.00833334.1848341.00833334.0539099 0 .1001185.01666666.1386256.03333333v.525c-.0154029-.00833333-.05391-.025-.1001185-.04166667-.0462085-.01666666-.1001185-.025-.1617299-.025-.1155213 0-.2079383.04166667-.2695497.11666667s-.0924171.2-.0924171.35v.30833333h.839455v-.58333333l.5622038-.18333333v.76666666h.5699052v.5h-.5699052v1.20833334c0 .15833333.0308057.26666666.0770142.33333333.05391.06666667.1386256.1.2541469.1.0308057 0 .0693128-.00833333.1155214-.025.0462085-.01666667.0847156-.03333333.1155213-.05833333v.5c-.0385071.025-.0924171.04166666-.1771327.05833333-.0847157.01666667-.1617299.025-.2464455.025-.2387441 0-.4158768-.06666667-.5313981-.2-.1155214-.13333333-.1771327-.34166667-.1771327-.61666667z" fill="#737373"/><path d="m0 0h2.63388626v2.85h-2.63388626z" fill="#f25022"/><path d="m2.91113744 0h2.63388626v2.85h-2.63388626z" fill="#7fba00"/><path d="m0 3.15h2.63388626v2.85h-2.63388626z" fill="#00a4ef"/><path d="m2.91113744 3.15h2.63388626v2.85h-2.63388626z" fill="#ffb900"/></g></svg>
