<svg viewBox="0 0 30 30" xmlns="http://www.w3.org/2000/svg"><g fill="#1877f2" transform="translate(2 12)"><path d="m2.03428334.78303297c-.30611 0-.39461226.13486228-.39461226.43231553v.49344469h.8165048l-.08184081.79719993h-.73434678v2.41932847h-.97986921v-2.41932847h-.66011908v-.79719993h.66011908v-.47989544c0-.8041321.32641159-1.22889775 1.23712849-1.22889775.190835-.00042865.38154312.01082037.57098238.03372806v.7502502z"/><path d="m2.52405934 3.21559558c0-.89866173.428554-1.57549392 1.32658241-1.57549392.48977599 0 .78890732.25018843.93197013.56087584v-.49218431h.93863159v3.2165284h-.93863159v-.48651253c-.13608414.3110025-.44219414.55425877-.93197013.55425877-.89802841 0-1.32658241-.6758869-1.32658241-1.57549393zm.979552.21647287c0 .47958035.17668733.79719992.6325216.79719992.40159094 0 .60555853-.29052108.60555853-.7499351v-.32297626c0-.45941403-.20396759-.74993511-.60555853-.74993511-.45583427 0-.6325216.31761958-.6325216.79719993z"/><path d="m7.76218828 1.64104696c.38065492 0 .74132546.08129548.93863159.21615776l-.21760773.68943614c-.20409448-.09654626-.42709482-.14734019-.6531404-.14872662-.5306964 0-.76130984.30407032-.76130984.82461352v.18905927c0 .52054319.23124786.82461352.76130984.82461352.22604558-.00141795.44904592-.05218036.6531404-.14872663l.21760773.68912104c-.19730613.13517738-.55765946.21647287-.93863159.21647287-1.14989508 0-1.67361281-.61507283-1.67361281-1.60164713v-.14872662c0-.9865743.52371773-1.60164712 1.67361281-1.60164712z"/><path d="m8.82992533 3.43994592v-.28358891c0-.91221098.52371773-1.51247417 1.59208917-1.51247417 1.0068323 0 1.4490264.60814066 1.4490264 1.50018532v.51361102h-2.06188078c.02061881.4392477.21792498.63523915.76130988.63523915.3676492 0 .7552828-.07436332 1.0410912-.19599145l.179225.66643393c-.2585281.13549248-.7892245.23663919-1.2583817.23663919-1.23998344-.0003151-1.70247917-.61475773-1.70247917-1.56005408zm.979552-.41908139h1.18383677v-.08098038c0-.35133515-.1427456-.63019757-.5709823-.63019757-.44251139.0003151-.61285447.27760203-.61285447.70991756z"/><path d="m15.5021717 3.4185192c0 .89866173-.4352155 1.57549392-1.3322922 1.57549392-.489776 0-.8298278-.24325626-.9659119-.55425876v.48651252h-.9249915v-4.83267006l.979552-.08822766v2.14897372c.1427456-.28358891.4558343-.51361102.9116686-.51361102.8980284 0 1.3322922.67588689 1.3322922 1.57549392zm-.979552-.22308994c0-.45279695-.1766873-.79058285-.6461617-.79058285-.401591 0-.6191987.28358891-.6191987.74331803v.3377859c0 .45941403.2176077.74331803.6191987.74331803.4694744 0 .6461617-.33778589.6461617-.79058285z"/><path d="m15.8298521 3.39803778v-.16196078c0-.92607532.5306964-1.59503004 1.6123908-1.59503004s1.6127081.66895472 1.6127081 1.59503004v.16196078c0 .92576023-.5306964 1.59503005-1.6123909 1.59503005-1.0816944 0-1.612708-.66926982-1.612708-1.59503005zm2.2452296-.22970702c0-.42569845-.1770045-.76348435-.6344248-.76348435-.4574204 0-.6328388.3377859-.6328388.76348435v.29745326c0 .42569846.1770045.76348435.6328388.76348435.4558342 0 .6344248-.33778589.6344248-.76348435z"/><path d="m19.3807281 3.39803778v-.16196078c0-.92607532.5306964-1.59503004 1.6123908-1.59503004s1.6123908.66895472 1.6123908 1.59503004v.16196078c0 .92576023-.5306964 1.59503005-1.6123908 1.59503005s-1.6123908-.66926982-1.6123908-1.59503005zm2.2452296-.22970702c0-.42569845-.1770045-.76348435-.6328388-.76348435-.4558342 0-.6325216.3377859-.6325216.76348435v.29745326c0 .42569846.1766874.76348435.6325216.76348435.4558343 0 .6328388-.33778589.6328388-.76348435z"/><path d="m23.9523937 3.24269408.9659119-1.53390089h1.040774l-1.0134937 1.58809788 1.0544141 1.62843052h-1.040774l-1.0068323-1.57549393v1.57549393h-.9798692v-4.83172477l.9798692-.08822766z"/></g></svg>
