<?xml version="1.0" encoding="UTF-8"?>
<svg width="30px" height="30px" viewBox="0 0 30 30" version="1.1" xmlns="http://www.w3.org/2000/svg" xmlns:xlink="http://www.w3.org/1999/xlink">
    <title>company-twitter</title>
    <g id="Page-1" stroke="none" stroke-width="1" fill="none" fill-rule="evenodd">
        <g id="Twitter" transform="translate(9.000000, 13.000000)" fill="#000000" fill-rule="nonzero">
            <polygon id="Path" points="1.17744154 0.726272352 1.17744154 3.92847318 2.04126547 3.92847318 2.04126547 0.726272352 3.21870702 0.726272352 3.21870702 0 -3.25787591e-15 0 -3.25787591e-15 0.726272352"></polygon>
            <polygon id="Path" points="6.22833563 3.92847318 7.12517194 1.08390646 6.3218707 1.08390646 5.79917469 3.00962861 5.78817056 3.00962861 5.303989 1.08390646 4.54470426 1.08390646 4.07152682 3.01513067 4.0605227 3.01513067 3.53782669 1.08390646 2.71251719 1.08390646 3.61485557 3.92847318 4.42365887 3.92847318 4.90784044 2.01925722 4.91884457 2.01925722 5.42503439 3.92847318"></polygon>
            <path d="M8.32930399,0.643741403 L8.32930399,0 L7.47730399,0 L7.47730399,0.643741403 L8.32930399,0.643741403 Z M7.47730399,1.08390646 L7.47730399,3.92847318 L8.32930399,3.92847318 L8.32930399,1.08390646 L7.47730399,1.08390646 Z" id="Shape"></path>
            <path d="M9.86519945,1.08390646 L9.86519945,0.231086657 L9.08390646,0.231086657 L9.08390646,1.08390646 L8.61072902,1.08390646 L8.61072902,1.60660248 L9.08390646,1.60660248 L9.08390646,3.28473177 C9.08390646,3.42778542 9.10774874,3.54332875 9.15543329,3.63136176 C9.20311784,3.71939477 9.26822558,3.78725355 9.35075653,3.8349381 C9.43328748,3.88262265 9.52865658,3.91471802 9.63686382,3.93122421 C9.74507107,3.9477304 9.85969739,3.95598349 9.98074278,3.95598349 C10.0577717,3.95598349 10.1366346,3.95414947 10.2173315,3.95048143 C10.2980284,3.94681339 10.3713893,3.9394773 10.437414,3.92847318 L10.437414,3.32324622 C10.4007336,3.3305823 10.3622192,3.33608436 10.3218707,3.33975241 C10.2815222,3.34342045 10.2393398,3.34525447 10.1953232,3.34525447 C10.0632737,3.34525447 9.97524072,3.32324622 9.93122421,3.27922971 C9.8872077,3.2352132 9.86519945,3.14718019 9.86519945,3.01513067 L9.86519945,1.60660248 L10.437414,1.60660248 L10.437414,1.08390646 L9.86519945,1.08390646 Z" id="Path"></path>
            <path d="M11.8019257,1.08390646 L11.8019257,0.231086657 L11.0206327,0.231086657 L11.0206327,1.08390646 L10.5474553,1.08390646 L10.5474553,1.60660248 L11.0206327,1.60660248 L11.0206327,3.28473177 C11.0206327,3.42778542 11.044475,3.54332875 11.0921596,3.63136176 C11.1398441,3.71939477 11.2049519,3.78725355 11.2874828,3.8349381 C11.3700138,3.88262265 11.4653829,3.91471802 11.5735901,3.93122421 C11.6817973,3.9477304 11.7964237,3.95598349 11.9174691,3.95598349 C11.9944979,3.95598349 12.0733608,3.95414947 12.1540578,3.95048143 C12.2347547,3.94681339 12.3081155,3.9394773 12.3741403,3.92847318 L12.3741403,3.32324622 C12.3374599,3.3305823 12.2989454,3.33608436 12.258597,3.33975241 C12.2182485,3.34342045 12.176066,3.34525447 12.1320495,3.34525447 C12,3.34525447 11.911967,3.32324622 11.8679505,3.27922971 C11.823934,3.2352132 11.8019257,3.14718019 11.8019257,3.01513067 L11.8019257,1.60660248 L12.3741403,1.60660248 L12.3741403,1.08390646 L11.8019257,1.08390646 Z" id="Path"></path>
            <path d="M14.6629986,2.20082531 L13.392022,2.20082531 C13.3956901,2.14580468 13.4076112,2.08344796 13.4277854,2.01375516 C13.4479597,1.94406236 13.4828061,1.8780376 13.5323246,1.81568088 C13.5818432,1.75332416 13.647868,1.70105456 13.7303989,1.65887208 C13.8129298,1.61668959 13.916552,1.59559835 14.0412655,1.59559835 C14.2320037,1.59559835 14.3741403,1.64695094 14.4676754,1.74965612 C14.5612105,1.8523613 14.6263182,2.00275103 14.6629986,2.20082531 Z M13.392022,2.696011 L15.4442916,2.696011 C15.4589638,2.47592847 15.4406236,2.26501605 15.389271,2.06327373 C15.3379184,1.86153141 15.2544704,1.68179734 15.1389271,1.52407153 C15.0233838,1.36634571 14.8757451,1.24071527 14.696011,1.14718019 C14.5162769,1.05364512 14.3053645,1.00687758 14.0632737,1.00687758 C13.8468592,1.00687758 13.649702,1.04539202 13.4718019,1.12242091 C13.2939019,1.19944979 13.1407611,1.30490601 13.0123796,1.43878955 C12.8839982,1.57267309 12.784961,1.73131591 12.7152682,1.91471802 C12.6455754,2.09812013 12.610729,2.29619441 12.610729,2.50894085 C12.610729,2.72902338 12.6446584,2.9307657 12.7125172,3.11416781 C12.780376,3.29756992 12.8766621,3.45529574 13.0013755,3.58734525 C13.126089,3.71939477 13.2783127,3.82118294 13.4580468,3.89270977 C13.6377808,3.96423659 13.8395232,4 14.0632737,4 C14.3860614,4 14.6611646,3.92663916 14.8885832,3.77991747 C15.1160018,3.63319578 15.2847318,3.38927098 15.394773,3.04814305 L14.7070151,3.04814305 C14.6813388,3.13617607 14.611646,3.21962403 14.4979367,3.29848693 C14.3842274,3.37734984 14.2485099,3.41678129 14.090784,3.41678129 C13.8707015,3.41678129 13.7019716,3.35992664 13.5845942,3.24621733 C13.4672169,3.13250802 13.4030261,2.94910591 13.392022,2.696011 Z" id="Shape"></path>
            <path d="M15.9064649,1.08390646 L15.9064649,3.92847318 L16.6877579,3.92847318 L16.6877579,2.64649243 C16.6877579,2.51811096 16.7005961,2.39889959 16.7262724,2.28885832 C16.7519486,2.17881706 16.7950481,2.08253095 16.8555708,2 C16.9160935,1.91746905 16.9958735,1.8523613 17.0949106,1.80467675 C17.1939477,1.75699221 17.3149931,1.73314993 17.4580468,1.73314993 C17.5057313,1.73314993 17.5552499,1.73590096 17.6066025,1.74140303 C17.6579551,1.74690509 17.7019716,1.75332416 17.738652,1.76066025 L17.738652,1.0343879 C17.6762953,1.01604768 17.6194406,1.00687758 17.568088,1.00687758 C17.4690509,1.00687758 17.3736818,1.02154975 17.2819807,1.05089409 C17.1902797,1.08023842 17.1040807,1.1215039 17.0233838,1.17469051 C16.9426868,1.22787712 16.87116,1.29206786 16.8088033,1.36726272 C16.7464466,1.44245759 16.696928,1.52407153 16.6602476,1.61210454 L16.6492435,1.61210454 L16.6492435,1.08390646 L15.9064649,1.08390646 Z" id="Path"></path>
        </g>
        <path d="M8,13.480943 C7.81596862,13.5626707 7.61828392,13.6176686 7.4107919,13.6424753 C7.62270682,13.5155571 7.78520057,13.3146033 7.86173608,13.0749971 C7.66366678,13.1924926 7.44405985,13.2778739 7.21022268,13.324026 C7.0231145,13.1246106 6.75658628,13 6.46159763,13 C5.89508097,13 5.43586785,13.4594054 5.43586785,14.0257298 C5.43586785,14.1061113 5.44509827,14.1845698 5.4624053,14.2593746 C4.60993808,14.216684 3.85419792,13.8082381 3.34806354,13.1874928 C3.25999,13.3390254 3.20941502,13.5151725 3.20941502,13.7034345 C3.20941502,14.05919 3.3903696,14.3732164 3.66555133,14.5570555 C3.49748087,14.5516711 3.33921772,14.505519 3.20095381,14.4287912 L3.20095381,14.4416753 C3.20095381,14.9387716 3.55440175,15.353371 4.02380678,15.4474059 C3.93784855,15.4708665 3.84708281,15.483366 3.75343256,15.483366 C3.68747356,15.483366 3.62305296,15.4768278 3.56055536,15.4650975 C3.69112727,15.8725818 4.06995885,16.1693012 4.51878774,16.1775701 C4.1678397,16.4527518 3.72554902,16.616784 3.24479828,16.616784 C3.16210915,16.616784 3.08038152,16.6119765 3,16.6023615 C3.454021,16.8933118 3.99303873,17.0631129 4.57243952,17.0631129 C6.45929003,17.0631129 7.49078882,15.5000961 7.49078882,14.1445714 C7.49078882,14.10015 7.48982732,14.0559209 7.48790432,14.0118842 C7.68847352,13.867082 7.86250528,13.6865121 8,13.480943 Z" id="Twitter-logo" fill="#1D9BF0" fill-rule="nonzero"></path>
    </g>
</svg>