<svg viewBox="0 0 30 30" xmlns="http://www.w3.org/2000/svg"><path d="m12.9325926 1.9057037c-6.08014816 0-11.0268889 4.94674074-11.0268889 11.0268889 0 3.2673333 1.43577778 6.1976296 3.69970371 8.2179259.07029629-.0491111.156-.0914815.25711111-.1251852.08955555-.026.17814815-.0529629.26385185-.0789629 2.52103704-.7732593 3.12385185-1.4425185 3.35111111-2.1811111.41792593-.1868149.57392592-.3148889.65674072-.7588149.052-.2821481.0924445-1.2287407.052963-1.5571111-.23881483-.233037-.36881483-.8329629-.48437039-1.0727407-.2677037-.5546667-.31488888-.8416296-.572-1.7747407-.03948148-.1251852-.12422222-.1328889-.18392592-.156963-.08955556-.0375556-.16755556-.0972593-.25037037-.2099259-.234-.3168149-.08762963-.495926-.30718519-1.0977778-.27925926-.6846667-.39192592-1.3606667-.17911111-1.5628889.14348148-.1280741.23977778-.0452593.31007408-.0192593.04622222.0173334.01059259-.0991851-.03081482-.2677037-.16851852-.68948145-.17814815-2.06459256-.17814815-2.06459256l.026-.00096296c-.08666666-.57488889-.06644444-1.10451852.31488889-1.90762963.37555556-.82044445.71162963-.63940741.90037037-.8502963.79637041-.89651852 1.52822221-.91962963 2.07807411-1.15651852 1.2354814-.53348148 2.2774074-.06066666 3.1103703.28792593.3505186.15118518 1.3722223.2677037 1.7131111 1.0217037.1993334.43911111.3736297 1.18925926.4410371 1.25666667.0712592.32355556.1097778.84548148.0731852 1.41748148-.0452593.70681482-.0462223 1.29133333-.2137778 1.98081479-.0423704.1675556-.078963.2850371-.0317778.2667408.0702963-.026.1579259-.1213334.3014074.0067407.2118519.2022222.1685185.9071111-.1107407 1.5917778-.2185926.6018518-.0982222.7125926-.2378519.9591111-.0597037.1078518-.1011111.2532593-.2821481.3187407-.0597037.0221482-.1328889.0751111-.1608148.2041482-.1945186.9071111-.2436297 1.0727407-.4477778 1.7535555-.0760741.2542223-.2503704.8021482-.4805185 1.0178519-.0481482.39.0654815 1.3905185.1309629 1.6158518.1521482.5277037.2975556.6307408.5941482.7588149.3649629.7626666.6461481 1.7574074 3.4445185 2.2022963.1271111.0202222.259037.0394814.3967407.0577777.1588889.0231111.286963.0654815.4005926.1155556 2.2571852-2.0212593 3.6891111-4.9467408 3.6891111-8.2082963 0-6.08014816-4.9477037-11.0268889-11.0278518-11.0268889m0 23.9594815c-7.1422963 0-12.9325926-5.7893333-12.9325926-12.9325926 0-7.1422963 5.7902963-12.9325926 12.9325926-12.9325926s12.9335555 5.7902963 12.9335555 12.9325926c0 7.1432593-5.7912592 12.9325926-12.9335555 12.9325926" fill-rule="evenodd" transform="translate(2 2)"/></svg>
