<?xml version="1.0" encoding="UTF-8"?>
<svg width="390px" height="789px" viewBox="0 0 390 789" version="1.1" xmlns="http://www.w3.org/2000/svg" xmlns:xlink="http://www.w3.org/1999/xlink">
    <title>smartphone</title>
    <g id="Scene-Small" stroke="none" stroke-width="1" fill="none" fill-rule="evenodd">
        <g transform="translate(-861.000000, -206.000000)" id="smartphone">
            <g transform="translate(861.000000, 206.000000)">
                <path d="M308.206339,3.00065719 C331.415517,3.04315374 341.597711,5.14649387 350.357285,9.26426413 L350.357285,9.26426413 L350.955053,9.54930918 C351.831637,9.97316072 352.696574,10.4167948 353.5622,10.8797363 C363.078244,15.9689725 370.546491,23.4372198 375.635728,32.9532641 C380.848639,42.7005609 383.515464,52.3998568 383.515464,79.0311005 L383.515464,79.0311005 L383.515464,709.546219 C383.515464,736.177463 380.848639,745.876759 375.635728,755.624056 C370.546491,765.1401 363.078244,772.608347 353.5622,777.697583 C353.080681,777.955102 352.599366,778.206648 352.116145,778.45214 L352.116145,778.45214 L351.523052,778.749856 C342.388298,783.278882 332.258468,785.57732 307.484363,785.57732 L307.484363,785.57732 L81.7115129,785.57732 C56.9374081,785.57732 46.8075787,783.278882 37.6728241,778.749856 L37.6728241,778.749856 L37.0797315,778.45214 C36.5965103,778.206648 36.1151955,777.955102 35.6336764,777.697583 C26.1176321,772.608347 18.6493849,765.1401 13.5601487,755.624056 C13.4057702,755.335393 13.2535381,755.046802 13.1034694,754.757829 L13.1034694,754.757829 L12.7993732,754.165756 C8.08022318,744.8721 5.68041237,734.848259 5.68041237,709.546219 L5.68041237,709.546219 L5.68041237,79.0311005 C5.68041237,52.3998568 8.3472373,42.7005609 13.5601487,32.9532641 C18.6493849,23.4372198 26.1176321,15.9689725 35.6336764,10.8797363 C36.4993019,10.4167948 37.3642395,9.97316072 38.2408229,9.54930918 L38.2408229,9.54930918 L38.8385909,9.26426414 C47.5853553,5.15251611 57.7510084,3.04964378 80.8923363,3.00085805 L80.8923363,3.00085805 Z" id="border" stroke="#363941" stroke-width="6"></path>
                <path d="M352.37106,13.271973 C361.369303,18.0842863 368.431178,25.1461606 373.243491,34.1444042 L373.529528,34.6843374 C378.157289,43.5059376 380.618557,52.5602796 380.618557,76.6812842 L380.618557,711.896035 C380.618557,736.01704 378.157289,745.071382 373.529528,753.892982 L373.243491,754.432915 L373.243491,754.432915 C368.431178,763.431159 361.369303,770.493033 352.37106,775.305347 C351.831165,775.594085 351.291533,775.874726 350.748759,776.1472 L350.204811,776.41695 C341.844355,780.511299 332.478388,782.680412 309.83418,782.680412 L79.3616966,782.680412 C56.7174882,782.680412 47.3515214,780.511299 38.9910653,776.41695 L38.4471177,776.1472 C37.9043434,775.874726 37.3647112,775.594085 36.8248166,775.305347 C27.826573,770.493033 20.7646987,763.431159 15.9523854,754.432915 C11.1881952,745.524654 8.62879959,736.68782 8.5780881,712.629743 L8.57731959,76.6812842 C8.57731959,52.0680142 11.140072,43.1426478 15.9523854,34.1444042 C20.7646987,25.1461606 27.826573,18.0842863 36.8248166,13.271973 C45.7330777,8.50778279 54.569912,5.94838722 78.6279891,5.89767573 L309.83418,5.89690722 C334.44745,5.89690722 343.372816,8.45965966 352.37106,13.271973 Z M324.001054,19.352528 C314.553364,18.8896793 305.091176,19.0547434 295.634564,19.0803953 C294.654217,19.0837412 293.670524,19.1506591 292.696869,19.2621889 C290.300093,19.5354369 288.601494,21.0946235 288.237907,23.4925143 C287.998118,25.0762374 287.930085,26.6889584 287.854245,28.2916416 C287.440469,36.9418931 281.916398,44.3229354 273.573969,46.5736068 C270.177886,47.4903818 266.707079,47.5349937 263.22958,47.5349937 C217.45998,47.5394549 171.691495,47.5405702 125.921894,47.5394549 C123.424742,47.5394549 120.937628,47.431271 118.444936,47.1825595 C110.036705,46.3438554 103.216657,39.9844261 101.529211,32.0066994 C101.006137,29.5340836 100.941449,27.0469691 100.823228,24.5687768 C100.679354,21.5820087 98.5614034,19.2053087 95.131862,19.1562356 C86.3879255,19.0309278 77.6484502,19.0636658 68.9067443,19.2108852 C64.526969,19.2844948 60.1739608,19.6190842 55.8611033,20.3585268 C47.4182973,21.8039531 39.8108495,25.0137808 33.5886018,31.0932703 C26.3558942,38.1575679 23.0155766,47.008573 21.7987865,56.8165038 C20.8295925,64.6269359 20.9072165,72.4842104 20.9072165,80.3336779 L20.9072165,394.025745 L20.9188163,394.025745 L20.9188163,394.025745 L20.9188163,582.723017 C20.9188163,625.63857 20.9072165,668.551892 20.9321999,711.466329 C20.9355458,719.315797 20.9321999,727.174186 22.3363601,734.941122 C23.5587267,741.699828 25.9599634,747.971149 30.2125947,753.441685 C37.1296731,762.340648 46.5606331,766.652391 57.4459418,768.224961 C64.4388604,769.234305 71.4886592,769.302352 78.538458,769.302352 L78.538458,769.302352 L250.642326,769.302352 C271.787261,769.302352 292.932197,769.302352 314.077132,769.277802 C320.948483,769.267764 327.816488,769.019053 334.581886,767.677349 C342.43916,766.121509 349.486729,762.908335 355.286278,757.247082 C362.51564,750.188361 365.858188,741.332895 367.082786,731.526079 C367.989523,724.249875 367.973926,716.930174 367.973926,709.614934 C367.973926,500.039283 367.969447,290.464747 367.96164,80.8890963 C367.96164,77.0524711 367.956064,73.2147306 367.870186,69.380336 C367.731889,63.2250063 367.447488,57.0819448 366.064518,51.042606 C363.320885,39.0631899 356.814237,29.9367062 345.73152,24.3479478 C338.917049,20.9105993 331.519278,19.7205763 324.001054,19.352528 Z" id="frame" fill="#18181D"></path>
                <path d="M84.9690722,782.680412 L84.9690722,788.57732 L79.3402062,788.57732 L79.3402062,782.680412 L84.9690722,782.680412 Z M386.515464,702.536082 L386.515464,707.896907 L380.618557,707.896907 L380.618557,702.536082 L386.515464,702.536082 Z M8.57731959,702.268041 L8.57731959,707.896907 L2.68041237,707.896907 L2.68041237,702.268041 L8.57731959,702.268041 Z M8.84536082,79.3402062 L8.84536082,84.9690722 L2.68041237,84.9690722 L2.68041237,79.3402062 L8.84536082,79.3402062 Z M386.515464,79.3402062 L386.515464,84.7010309 L380.618557,84.7010309 L380.618557,79.3402062 L386.515464,79.3402062 Z M309.587629,0.268041237 L309.587629,6.16494845 L303.690722,6.16494845 L303.690722,0.268041237 L309.587629,0.268041237 Z" id="Details" fill="#4E505E"></path>
                <path d="M1.68142525,125.71134 L2.33919331,125.71134 C2.89263219,125.71134 3.11659573,125.773543 3.3349997,125.890347 C3.55340367,126.00715 3.72480838,126.178555 3.84161211,126.396959 C3.95841583,126.615363 4.02061856,126.839327 4.02061856,127.392765 L4.02061856,153.782492 C4.02061856,154.335931 3.95841583,154.559895 3.84161211,154.778299 C3.72480838,154.996703 3.55340367,155.168107 3.3349997,155.284911 C3.11659573,155.401715 2.89263219,155.463918 2.33919331,155.463918 L1.68142525,155.463918 C1.12798637,155.463918 0.904022829,155.401715 0.685618858,155.284911 C0.467214887,155.168107 0.295810173,154.996703 0.179006451,154.778299 C0.0622027291,154.559895 1.17329204e-13,154.335931 1.17095402e-13,153.782492 L1.17178977e-13,127.392765 C1.17277226e-13,126.839327 0.0622027291,126.615363 0.179006451,126.396959 C0.295810173,126.178555 0.467214887,126.00715 0.685618858,125.890347 C0.904022829,125.773543 1.12798637,125.71134 1.68142525,125.71134 Z" id="silent" fill="#363941"></path>
                <path d="M2.21750772,182.536082 L2.87527578,182.536082 C3.42871466,182.536082 3.6526782,182.598285 3.87108217,182.715089 C4.08948614,182.831893 4.26089086,183.003297 4.37769458,183.221701 C4.4944983,183.440105 4.55670103,183.664069 4.55670103,184.217508 L4.55670103,239.555688 C4.55670103,240.109127 4.4944983,240.333091 4.37769458,240.551495 C4.26089086,240.769899 4.08948614,240.941303 3.87108217,241.058107 C3.6526782,241.174911 3.42871466,241.237113 2.87527578,241.237113 L2.21750772,241.237113 C1.66406884,241.237113 1.4401053,241.174911 1.22170133,241.058107 C1.00329736,240.941303 0.831892647,240.769899 0.715088925,240.551495 C0.598285203,240.333091 0.536082474,240.109127 0.536082474,239.555688 L0.536082474,184.217508 C0.536082474,183.664069 0.598285203,183.440105 0.715088925,183.221701 C0.831892647,183.003297 1.00329736,182.831893 1.22170133,182.715089 C1.4401053,182.598285 1.66406884,182.536082 2.21750772,182.536082 Z" id="up" fill="#363941"></path>
                <path d="M2.21750772,257.587629 L2.87527578,257.587629 C3.42871466,257.587629 3.6526782,257.649832 3.87108217,257.766635 C4.08948614,257.883439 4.26089086,258.054844 4.37769458,258.273248 C4.4944983,258.491652 4.55670103,258.715615 4.55670103,259.269054 L4.55670103,314.607235 C4.55670103,315.160673 4.4944983,315.384637 4.37769458,315.603041 C4.26089086,315.821445 4.08948614,315.99285 3.87108217,316.109653 C3.6526782,316.226457 3.42871466,316.28866 2.87527578,316.28866 L2.21750772,316.28866 C1.66406884,316.28866 1.4401053,316.226457 1.22170133,316.109653 C1.00329736,315.99285 0.831892647,315.821445 0.715088925,315.603041 C0.598285203,315.384637 0.536082474,315.160673 0.536082474,314.607235 L0.536082474,259.269054 C0.536082474,258.715615 0.598285203,258.491652 0.715088925,258.273248 C0.831892647,258.054844 1.00329736,257.883439 1.22170133,257.766635 C1.4401053,257.649832 1.66406884,257.587629 2.21750772,257.587629 Z" id="down" fill="#363941"></path>
                <path d="M386.856683,202.639175 L387.514451,202.639175 C388.06789,202.639175 388.291853,202.701378 388.510257,202.818182 C388.728661,202.934985 388.900066,203.10639 389.01687,203.324794 C389.133674,203.543198 389.195876,203.767162 389.195876,204.320601 L389.195876,294.772183 C389.195876,295.325622 389.133674,295.549585 389.01687,295.767989 C388.900066,295.986393 388.728661,296.157798 388.510257,296.274602 C388.291853,296.391406 388.06789,296.453608 387.514451,296.453608 L386.856683,296.453608 C386.303244,296.453608 386.079281,296.391406 385.860877,296.274602 C385.642473,296.157798 385.471068,295.986393 385.354264,295.767989 C385.23746,295.549585 385.175258,295.325622 385.175258,294.772183 L385.175258,204.320601 C385.175258,203.767162 385.23746,203.543198 385.354264,203.324794 C385.471068,203.10639 385.642473,202.934985 385.860877,202.818182 C386.079281,202.701378 386.303244,202.639175 386.856683,202.639175 Z" id="power" fill="#363941"></path>
                <circle id="camera" fill="#2D2E35" cx="234" cy="26.8041237" r="7.2371134"></circle>
                <circle id="lens" fill-opacity="0.230391923" fill="#212227" cx="234" cy="26.8041237" r="3.75257732"></circle>
                <rect id="speaker" fill="#2D2E35" x="175.030928" y="23.8556701" width="40.4742268" height="6.43298969" rx="3.21649485"></rect>
            </g>
        </g>
    </g>
</svg>