<svg viewBox="0 0 328 12" xmlns="http://www.w3.org/2000/svg"><g fill="none" fill-rule="evenodd"><path d="m-33-17h375v44h-375z" fill="#fff" opacity="0"/><g transform="translate(-12 -8)"><g transform="translate(315 8)"><path d="m3.7518137.83333333c-1.00827318 0-1.40697456.07699279-1.8185085.29708355-.34743368.18580957-.61711209.45548797-.80292165.80292165-.22009076.41153394-.29708355.81023533-.29708355 1.81850851v4.49630592c0 1.00827318.07699279 1.40697457.29708355 1.81850854.18580956.3474336.45548797.6171121.80292165.8029216.41153394.2200908.81023532.2970836 1.8185085.2970836h15.1629726c1.0082732 0 1.4069746-.0769928 1.8185085-.2970836.3474337-.1858095.6171121-.455488.8029217-.8029216.2200907-.41153397.2970835-.81023536.2970835-1.81850854v-4.49630592c0-1.00827318-.0769928-1.40697457-.2970835-1.81850851-.1858096-.34743368-.455488-.61711208-.8029217-.80292165-.4115339-.22009076-.8102353-.29708355-1.8185085-.29708355z" opacity=".35" stroke="#000"/><g fill="#000" fill-rule="nonzero"><path d="m23.3333 4v4c.8047311-.33877652 1.328038-1.12686672 1.328038-2s-.5233069-1.66122348-1.328038-2" opacity=".4"/><path d="m4.04255685 2.33333333h14.58148625c.5943459 0 .8098701.06188375 1.027154.17808848.217284.11620473.3878097.28673045.5040144.50401441.1162048.21728396.1780885.43280812.1780885 1.02715396v3.91481964c0 .59434584-.0618837.80987-.1780885 1.02715396-.1162047.21728396-.2867304.38780968-.5040144.50401441-.2172839.11620473-.4328081.17808848-1.027154.17808848h-14.58148625c-.59434584 0-.80987001-.06188375-1.02715397-.17808848-.21728395-.11620473-.38780967-.28673045-.50401441-.50401441-.11620473-.21728396-.17808847-.43280812-.17808847-1.02715396v-3.91481964c0-.59434584.06188374-.80987.17808847-1.02715396.11620474-.21728396.28673046-.38780968.50401441-.50401441.21728396-.11620473.43280813-.17808848 1.02715397-.17808848z"/></g></g><g fill="#000" fill-rule="nonzero"><path d="m302.667069 10.6151501c2.224733.0000974 4.364394.8542082 5.976748 2.3858005.121414.1182447.315482.1167531.435062-.0033438l1.160611-1.1703296c.060549-.0609128.094307-.1434227.093804-.2292718-.000502-.085849-.035224-.1679588-.096481-.2281599-4.231913-4.05223039-10.908244-4.05223039-15.140156 0-.061303.0601564-.096085.1422413-.09665.2280904-.000565.0858492.033133.1683842.093638.2293413l1.160946 1.1703296c.119503.1202782.313721.1217709.435062.0033438 1.612559-1.5316929 3.752466-2.3858061 5.977416-2.3858005zm0 3.8075838c1.222346-.0000748 2.401072.4538785 3.307141 1.273653.12255.1163448.315598.1138224.435062-.0056844l1.159272-1.1703296c.06105-.0613872.094924-.1446641.094044-.2311997-.000881-.0865356-.036442-.1691072-.098729-.2292415-2.759162-2.5644085-7.032075-2.5644085-9.791237 0-.062325.0601335-.097885.1427465-.098702.2293101-.000818.0865635.033174.1698326.094352.2311311l1.158938 1.1703296c.119463.1195068.312512.1220292.435062.0056844.90547-.8192329 2.083259-1.2731473 3.304797-1.273653zm2.227852 2.7930753c.062-.0607963.096143-.1444603.09437-.2312387-.001774-.0867785-.039308-.1689798-.10374-.2271962-1.28066-1.0822712-3.156303-1.0822712-4.436963 0-.064477.0581696-.102072.140345-.103909.2271239-.001838.0867789.032246.1704693.094204.231311l2.005635 2.0219952c.058784.059425.138928.0928683.222551.0928683.083624 0 .163768-.0334433.222551-.0928683z"/><path d="m274 15.3333337h1c.552285 0 1 .4477152 1 1v2c0 .5522847-.447715 1-1 1h-1c-.552285 0-1-.4477153-1-1v-2c0-.5522848.447715-1 1-1zm4.666667-2h1c.552284 0 1 .4477152 1 1v4c0 .5522847-.447716 1-1 1h-1c-.552285 0-1-.4477153-1-1v-4c0-.5522848.447715-1 1-1zm4.666666-2.3333334h1c.552285 0 1 .4477153 1 1v6.3333334c0 .5522847-.447715 1-1 1h-1c-.552284 0-1-.4477153-1-1v-6.3333334c0-.5522847.447716-1 1-1zm4.666667-2.3333333h1c.552285 0 1 .44771525 1 1v8.6666667c0 .5522847-.447715 1-1 1h-1c-.552285 0-1-.4477153-1-1v-8.6666667c0-.55228475.447715-1 1-1z"/><path d="m16.284082 14.5863476c-1.9335937 0-3.4130859-1.1352539-3.7207031-2.8637696h1.8823242c.2270508.7910157.9521485 1.2817383 1.8603516 1.2817383 1.5454101 0 2.4316406-1.4135742 2.4536133-3.85986325h-.1245117c-.4980469 1.00341795-1.5014649 1.57470705-2.7392579 1.57470705-2.0141601 0-3.4790039-1.47949221-3.4790039-3.5083008 0-2.16796875 1.6259766-3.71337891 3.9257813-3.71337891 2.5268555 0 4.2260742 1.93359375 4.2260742 5.4272461 0 3.55957031-1.5966797 5.66162111-4.284668 5.66162111zm.065918-5.36132815c1.2231445 0 2.0947266-.85693359 2.0947266-2.03613281 0-1.20117187-.8935547-2.11669922-2.0874024-2.11669922-1.1938476 0-2.0874023.90087891-2.0874023 2.08007813 0 1.22314453.8496094 2.0727539 2.0800781 2.0727539zm7.2366211 3.64746095c-.6884766 0-1.171875-.4980469-1.171875-1.1572266 0-.6665039.4833984-1.1572265 1.171875-1.1572265.6958008 0 1.171875.4907226 1.171875 1.1572265 0 .6591797-.4760742 1.1572266-1.171875 1.1572266zm0-5.3466797c-.6884766 0-1.171875-.49072265-1.171875-1.14990234 0-.66650391.4833984-1.15722656 1.171875-1.15722656.6958008 0 1.171875.49072265 1.171875 1.15722656 0 .65917969-.4760742 1.14990234-1.171875 1.14990234zm8.1741211 6.8041992v-2.0141601h-5.1635742v-1.5747071c1.3696289-2.38769528 2.8710937-4.79736325 4.3066406-6.97998043h2.6660156v6.95800783h1.4282227v1.5966797h-1.4282227v2.0141601zm-3.413086-3.6694336v.1025391h3.4423829v-5.4638672h-.1025391c-1.0839844 1.640625-2.3071289 3.58154297-3.3398438 5.3613281zm10.679004 3.6694336v-8.66455076h-.1245118l-2.6293945 1.84570313v-1.81640625l2.7612305-1.93359375h1.8823242v10.56884763z" transform="translate(0 5)"/></g></g></g></svg>
