<svg height="30" viewBox="0 0 30 30" width="30" xmlns="http://www.w3.org/2000/svg"><path d="m2.00015277 21.2847032 2.99279197-2.0027535c.57747594 1.1319544 1.10270405 2.0897489 2.36260989 2.0897489 1.20765801 0 1.9692235-.5223105 1.9692235-2.5541188v-13.8175798h3.67522187v13.8750137c0 4.2090594-2.2313792 6.1249863-5.48693804 6.1249863-2.94008583 0-4.64669528-1.6836575-5.51306196-3.7156347m13.0001553-.3878585 3.0428507-1.8937016c.8011017 1.4061248 1.8422078 2.4390529 3.6839495 2.4390529 1.5486103 0 2.5359678-.8322201 2.5359678-1.9800294 0-1.3772375-1.0143871-1.8651482-2.7228449-2.6683141l-.934075-.4308042c-2.6962813-1.2334691-4.4847406-2.7830283-4.4847406-6.0541344 0-3.01295751 2.1354946-5.308576 5.4724088-5.308576 2.3758096 0 4.0842674.8896607 5.3120952 3.21383249l-2.9098774 2.00874971c-.6407882-1.23380315-1.3345482-1.72154693-2.4023732-1.72154693-1.0945439 0-1.7886145.74605931-1.7886145 1.72154693 0 1.2050828.6940706 1.6931605 2.2956528 2.4392198l.9342303.4303033c3.176756 1.4635653 4.9652152 2.9555169 4.9652152 6.3124499 0 3.6157494-2.6426881 5.5954448-6.193043 5.5954448-3.4701982 0-5.7125685-1.7789874-6.806957-4.1033262"/></svg>