<svg width="30px" height="30px" viewBox="0 0 30 30" version="1.1" xmlns="http://www.w3.org/2000/svg" xmlns:xlink="http://www.w3.org/1999/xlink">
  <path d="M2.00015277,21.2847032 L4.99294474,19.2819497 C5.57042068,20.4139041 6.09564879,21.3716986 7.35555463,21.3716986 C8.56321264,21.3716986 9.32477813,20.8493881 9.32477813,18.8175798 L9.32477813,5 L13,5 L13,18.8750137 C13,23.0840731 10.7686208,25 7.51306196,25 C4.57297613,25 2.86636668,23.3163425 2,21.2843653 M15.0001553,20.8965068 L18.043006,19.0028052 C18.8441077,20.40893 19.8852138,21.4418581 21.7269555,21.4418581 C23.2755658,21.4418581 24.2629233,20.609638 24.2629233,19.4618287 C24.2629233,18.0845912 23.2485362,17.5966805 21.5400784,16.7935146 L20.6060034,16.3627104 C17.9097221,15.1292413 16.1212628,13.5796821 16.1212628,10.308576 C16.1212628,7.29561849 18.2567574,5 21.5936716,5 C23.9694812,5 25.677939,5.8896607 26.9057668,8.21383249 L23.9958894,10.2225822 C23.3551012,8.98877905 22.6613412,8.50103527 21.5935162,8.50103527 C20.4989723,8.50103527 19.8049017,9.24709458 19.8049017,10.2225822 C19.8049017,11.427665 20.4989723,11.9157427 22.1005545,12.661802 L23.0347848,13.0921053 C26.2115408,14.5556706 28,16.0476222 28,19.4045552 C28,23.0203046 25.3573119,25 21.806957,25 C18.3367588,25 16.0943885,23.2210126 15,20.8966738"></path>
</svg>