<svg height="30" viewBox="0 0 30 30" width="30" xmlns="http://www.w3.org/2000/svg"><path d="m0 0h30v30h-30zm20.2258772 23.4280335-2.3013996 1.3300193c.8313932 1.6340916 2.5305349 2.8808361 5.1605692 2.8808361 2.6898293 0 4.692731-1.3895014 4.692731-3.9258172 0-2.3526353-1.3585481-3.3990441-3.7647088-4.4254668l-.7079758-.3016931c-1.2150395-.5234422-1.7412375-.8655832-1.7412375-1.7107046 0-.6838059.5257197-1.2072483 1.3551994-1.2072483.8132155 0 1.3370217.3411893 1.8225592 1.2072483l2.2052488-1.4085357c-.932806-1.6321882-2.2272535-2.2555604-4.027808-2.2555604-2.5290998 0-4.1473983 1.6083954-4.1473983 3.7211989 0 2.293629 1.3575913 3.3785821 3.4011536 4.2446412l.7079757.3021689c1.2915774.5619867 2.0617402.9041277 2.0617402 1.8701167 0 .8061011-.7495932 1.3895013-1.9230152 1.3895013-1.3968169 0-2.1865926-.7247296-2.7936339-1.7107046zm-10.0039841.2441144-2.30522643 1.3883118c.66779332 1.4059185 1.98089697 2.5731947 4.24833273 2.5731947 2.509487 0 4.2287199-1.32764 4.2287199-4.2446411v-9.6170626h-2.8319029v9.578994c0 1.4080599-.5869501 1.7701867-1.5173642 1.7701867-.9729883 0-1.3776825-.66382-1.8225591-1.4489835z" fill-rule="evenodd"/></svg>