<?xml version="1.0" encoding="utf-8"?>
<!-- Generator: Adobe Illustrator 16.0.4, SVG Export Plug-In . SVG Version: 6.00 Build 0)  -->
<!DOCTYPE svg PUBLIC "-//W3C//DTD SVG 1.1//EN" "http://www.w3.org/Graphics/SVG/1.1/DTD/svg11.dtd">
<svg version="1.1" id="Layer_1" xmlns="http://www.w3.org/2000/svg" xmlns:xlink="http://www.w3.org/1999/xlink" x="0px" y="0px"
	 width="512px" height="357px" viewBox="-206.5 -154.5 512 357" enable-background="new -206.5 -154.5 512 357"
	 xml:space="preserve">
<path d="M-158.902-6.644c-2.392,38.583,32.747,38.184,32.747,38.184c-1.842,7.822-5.133,15.596-5.133,15.596
	s-22.182-1.889-36.736,7.428c-28.361,18.352-31.153,48.15-1.745,46.106c24.922-1.646,42.368-19.032,54.532-40.723
	c0.548,0,7.577-0.098,10.816,0c3.339,0.151,3.339-1.597,3.339-1.597s0.998-2.988,2.74-7.817c1.246-3.49-2.988-3.29-2.988-3.29
	l-7.728,0.058c14.754-33.104,19.439-71.135,20.537-81.255C-81.843-95.814-155.862-55.79-158.902-6.644z M-140.11,65.827
	c-3.639,4.591-13.756,17.65-19.838,20.094c-6.031,2.337-21.532,3.286-9.621-12.164c9.472-12.515,22.381-13.108,28.264-13.157
	C-135.274,60.546-138.864,64.235-140.11,65.827z M-110.252-32.313c-0.299,1.645-7.377,41.272-9.77,47.352
	c-2.144,5.233-6.581,12.86-14.557-1.494c-7.625-13.607-1.494-37.832,10.419-53.235C-108.61-59.777-108.858-40.588-110.252-32.313z"
	/>
<path d="M-49.045-42.979c7.925,0,13.309-7.976,13.459-13.659c0.148-5.683-3.989-9.57-11.913-9.073
	c-7.925,0.499-11.067,6.929-11.067,12.86C-58.566-46.968-53.881-42.979-49.045-42.979z"/>
<path d="M289.297,38.764c-0.346-0.939-0.643-1.543-1.694-4.035c-0.745-1.797-2.993-0.248-4.381,0.599
	c-35.29,20.735-53.583,9.969-56.075,8.674c-0.604-0.302-1.051-0.701-1.051-0.701c26.421-11.663,39.428-42.068,24.426-55.228
	c-25.969-22.778-64.998,27.266-46.307,52.687c1.495,2.045,1.246,2.045,1.246,2.045s-6.576,6.376-21.032,7.725
	c-5.734,0.55-11.069-0.599-15.401-2.146l-0.049-0.346c0,0-2.75-12.812-14.014-16.944c0,0,28.51-11.616,44.758-48.496
	c18.599-42.224-16.044-70.933-40.519-24.827c-1.84,3.439-17.742,44.113-28.11,82.592c-3.889,3.889-9.818,8.421-16.15,8.421
	c-11.113,0-12.661-10.071,0.398-36.283c5.33-10.719,9.921-20.138,9.921-20.138s2.74-4.685,0.049-6.53
	c-4.483-3.091-9.77-5.084-9.77-5.084s-4.936-2.393-9.473,8.224c0,0-3.933-5.033-12.559-5.033c-31.353,0-51.29,27.563-54.529,49.545
	C34.992,38.764,26.07,49.034,16.6,49.034c-11.714,0-7.377-12.714-4.785-18.74c2.592-6.036,17.046-28.22,4.485-35.697
	C2.594-13.527-0.546-14.822-0.546-14.822s5.882-14.954-8.823-15.552c-14.703-0.599-14.505,17.295-7.326,18.541
	c0,0-1.146,3.19-1.896,5.284c-0.647,1.745-12.958,37.437-26.865,50.594c-2.543,2.039-5.284,3.738-8.226,4.678
	c-0.048,0-0.148,0.049-0.2,0.049c0,0,0,0-0.048,0.059c-1.646,0.496-3.339,0.788-5.084,0.847c-9.271,0.049-10.417-3.042-7.328-14.457
	C-63.2,23.811-52.583-4.705-50.439-11.083c2.142-6.331-1.696-6.131-3.091-6.131c-1.397,0-10.567-0.1-12.461,0
	c-1.745,0.098-3.69,1.842-6.131,8.224c-2.443,6.379-6.829,19.738-14.157,41.562c-7.377,21.89,10.718,28.66,22.729,28.66
	c7.976,0,35.291-2.892,53.435-59.911c0,0,6.579-1.745,10.667,4.437c4.086,6.179-11.067,19.438-11.714,36.933
	C-11.761,60.19,6.132,59.84,12.662,59.84c6.131,0,16.45-2.891,26.468-14.105c1.694,8.625,7.229,14.603,17.197,14.603
	c22.532,0,32.501-22.177,37.135-26.616c0,0-14.855,27.269,17.543,26.416c7.277-0.199,12.413-1.796,16.248-4.035
	c-1.786,7.773-3.188,15.153-4.079,21.881c-4.688,34.993,46.7,33.196,47.1-16.848c21.826,4.635,41.073-9.667,41.073-9.667
	c36.585,21.379,73.812-6.576,76.158-8.129C290.197,41.455,289.646,39.713,289.297,38.764z M157.462,12.945
	c0.749-2.541,12.208-34.392,14.403-39.875c9.623-24.523,22.883-29.707,18.745-12.361c-7.374,31.102-27.269,50.044-31.309,54.381
	C155.271,19.376,156.615,15.786,157.462,12.945z M64.753,46.941c-17.399,0,5.578-49.996,29.907-49.996
	C112.3-3.054,74.518,46.941,64.753,46.941z M145.75,87.464c-7.681,5.681-3.84-12.115-1.747-19.441
	c2.146-7.325,4.483-17.046,4.483-17.046s3.689,4.936,8.824,5.885C157.311,56.861,157.91,78.542,145.75,87.464z M235.616-2.057
	c13.356,1.246,2.644,20.984-16.501,35.037C215.679,16.732,223.253-3.205,235.616-2.057z"/>
</svg>
