<svg xmlns="http://www.w3.org/2000/svg" viewBox="0 0 30 30">
    <path d="M 6 4 C 4.895 4 4 4.895 4 6 L 4 24 C 4 25.105 4.895 26 6 26 L 24 26 C 25.105 26 26 25.105 26 24 L 26 6 C 26 4.895 25.105 4 24 4 L 6 4 z M 12 8 C 12.553 8 13 8.447 13 9 L 13 11 L 17 11 L 17 9 C 17 8.447 17.447 8 18 8 C 18.553 8 19 8.447 19 9 L 19 11 L 21 11 C 21.553 11 22 11.447 22 12 C 22 12.553 21.553 13 21 13 L 19 13 L 19 17 L 21 17 C 21.553 17 22 17.447 22 18 C 22 18.553 21.553 19 21 19 L 19 19 L 19 21 C 19 21.553 18.553 22 18 22 C 17.447 22 17 21.553 17 21 L 17 19 L 13 19 L 13 21 C 13 21.553 12.553 22 12 22 C 11.447 22 11 21.553 11 21 L 11 19 L 9 19 C 8.447 19 8 18.553 8 18 C 8 17.447 8.447 17 9 17 L 11 17 L 11 13 L 9 13 C 8.447 13 8 12.553 8 12 C 8 11.447 8.447 11 9 11 L 11 11 L 11 9 C 11 8.447 11.447 8 12 8 z M 13 13 L 13 17 L 17 17 L 17 13 L 13 13 z"></path>
</svg>