<svg xmlns="http://www.w3.org/2000/svg" viewBox="0 0 30 30">
    <path d="M 15 3 C 7.82 3 2 7.925 2 14 C 2 17.368 3.7933281 20.378484 6.6113281 22.396484 C 6.6832805 23.932468 6.4452784 26.053382 4.3261719 27.03125 A 0.5 0.5 0 0 0 4.3222656 27.033203 A 0.5 0.5 0 0 0 4 27.5 A 0.5 0.5 0 0 0 4.5 28 A 0.5 0.5 0 0 0 4.5429688 27.998047 C 6.9769949 27.982445 9.0432734 26.667034 10.46875 25.277344 C 10.92075 24.836344 11.550875 24.619328 12.171875 24.736328 C 13.081875 24.909328 14.028 25 15 25 C 22.18 25 28 20.075 28 14 C 28 7.925 22.18 3 15 3 z M 9 12 C 10.105 12 11 12.895 11 14 C 11 15.105 10.105 16 9 16 C 7.895 16 7 15.105 7 14 C 7 12.895 7.895 12 9 12 z M 15 12 C 16.105 12 17 12.895 17 14 C 17 15.105 16.105 16 15 16 C 13.895 16 13 15.105 13 14 C 13 12.895 13.895 12 15 12 z M 21 12 C 22.105 12 23 12.895 23 14 C 23 15.105 22.105 16 21 16 C 19.895 16 19 15.105 19 14 C 19 12.895 19.895 12 21 12 z"></path>
</svg>