<svg xmlns="http://www.w3.org/2000/svg" viewBox="0 0 30 30">
    <path d="M 21 3 C 18.122 3 15.730438 5.030375 15.148438 7.734375 L 22.265625 14.851562 C 24.969625 14.269562 27 11.878 27 9 C 27 5.686 24.314 3 21 3 z M 14.216797 9.6308594 L 3.21875 23.375 C 2.90075 23.773 2.9319688 24.346031 3.2929688 24.707031 L 5.2929688 26.707031 C 5.4869688 26.901031 5.743 27 6 27 C 6.22 27 6.4400469 26.92825 6.6230469 26.78125 L 20.369141 15.783203 L 14.216797 9.6308594 z M 15 14 C 15.25575 14 15.511531 14.097469 15.707031 14.292969 C 16.098031 14.683969 16.098031 15.316031 15.707031 15.707031 L 13.707031 17.707031 C 13.512031 17.902031 13.256 18 13 18 C 12.744 18 12.487969 17.902031 12.292969 17.707031 C 11.901969 17.316031 11.901969 16.683969 12.292969 16.292969 L 14.292969 14.292969 C 14.488469 14.097469 14.74425 14 15 14 z"></path>
</svg>