<svg xmlns="http://www.w3.org/2000/svg" viewBox="0 0 24 24"><path d="M20 9.352c0-4.852-4.75-8.352-10-8.352-5.281 0-10 3.527-10 8.352 0 1.71.615 3.39 1.705 4.695.047 1.527-.85 3.719-1.66 5.312 2.168-.391 5.252-1.258 6.648-2.115 7.698 1.877 13.307-2.842 13.307-7.892zm-14.5 1.381c-.689 0-1.25-.56-1.25-1.25s.561-1.25 1.25-1.25 1.25.56 1.25 1.25-.561 1.25-1.25 1.25zm4.5 0c-.689 0-1.25-.56-1.25-1.25s.561-1.25 1.25-1.25 1.25.56 1.25 1.25-.561 1.25-1.25 1.25zm4.5 0c-.689 0-1.25-.56-1.25-1.25s.561-1.25 1.25-1.25 1.25.56 1.25 1.25-.561 1.25-1.25 1.25zm7.036 1.441c-.161.488-.361.961-.601 1.416 1.677 1.262 2.257 3.226.464 5.365-.021.745-.049 1.049.138 1.865-.892-.307-.979-.392-1.665-.813-2.127.519-4.265.696-6.089-.855-.562.159-1.145.278-1.74.364 1.513 1.877 4.298 2.897 7.577 2.1.914.561 2.933 1.127 4.352 1.385-.53-1.045-1.117-2.479-1.088-3.479 1.755-2.098 1.543-5.436-1.348-7.348z"/></svg>
