<svg xmlns="http://www.w3.org/2000/svg" viewBox="0 0 30 30">
    <path d="M23,2H7C5.895,2,5,2.895,5,4v22c0,1.105,0.895,2,2,2h16c1.105,0,2-0.895,2-2V4C25,2.895,24.105,2,23,2z M10.75,12.222 v-0.903c-0.188-0.1-0.724-0.792-0.78-1.332C9.823,9.975,9.591,9.828,9.522,9.249C9.486,8.938,9.632,8.763,9.72,8.708 c0,0-0.22-0.501-0.22-1C9.5,6.228,10.233,5,12,5c0.954,0,1.25,0.677,1.25,0.677c0.853,0,1.25,0.935,1.25,2.031 c0,0.547-0.22,1-0.22,1c0.088,0.055,0.234,0.23,0.198,0.541c-0.068,0.579-0.3,0.726-0.447,0.738 c-0.056,0.54-0.592,1.232-0.78,1.332v0.903c0.374,1.217,2.2,0.621,2.75,2.778H8C8.55,12.843,10.376,13.439,10.75,12.222z M21,24H9 c-0.552,0-1-0.448-1-1c0-0.552,0.448-1,1-1h12c0.552,0,1,0.448,1,1C22,23.552,21.552,24,21,24z M21,20H9c-0.552,0-1-0.448-1-1 c0-0.552,0.448-1,1-1h12c0.552,0,1,0.448,1,1C22,19.552,21.552,20,21,20z M21,15h-2c-0.552,0-1-0.448-1-1c0-0.552,0.448-1,1-1h2 c0.552,0,1,0.448,1,1C22,14.552,21.552,15,21,15z M21,11h-2c-0.552,0-1-0.448-1-1c0-0.552,0.448-1,1-1h2c0.552,0,1,0.448,1,1 C22,10.552,21.552,11,21,11z"></path>
</svg>