<svg viewBox="0 0 50 50" xmlns="http://www.w3.org/2000/svg"><path d="m16.375-.03125c-.042969.0078125-.085937.0195312-.125.03125-.328125.0742188-.597656.304688-.71875.621094s-.074219.667969.125.941406l2.125 3.1875c-3.597656 1.890625-6.179687 5.152344-6.78125 9.03125v.03125.03125.09375.0625c-.003906.050781-.003906.105469 0 .15625v1.40625c-.59375-.347656-1.265625-.5625-2-.5625-2.199219 0-4 1.800781-4 4v12c0 2.199219 1.800781 4 4 4 .734375 0 1.40625-.214844 2-.5625v2.5625c0 1.644531 1.355469 3 3 3h1v6c0 2.199219 1.800781 4 4 4s4-1.800781 4-4v-6h4v6c0 2.199219 1.800781 4 4 4s4-1.800781 4-4v-6h1c1.644531 0 3-1.355469 3-3v-2.5625c.59375.347656 1.265625.5625 2 .5625 2.199219 0 4-1.800781 4-4v-12c0-2.199219-1.800781-4-4-4-.734375 0-1.40625.214844-2 .5625v-1.375c.011719-.09375.011719-.1875 0-.28125 0-.011719 0-.019531 0-.03125s0-.019531 0-.03125c-.582031-3.90625-3.164062-7.195312-6.78125-9.09375l2.125-3.1875c.246094-.335937.253906-.789062.023438-1.136719-.226563-.347656-.648438-.519531-1.054688-.425781-.257812.0585938-.484375.214844-.625.4375l-2.34375 3.46875c-1.648437-.59375-3.460937-.90625-5.34375-.90625-1.882812 0-3.695312.3125-5.34375.90625l-2.34375-3.46875c-.199219-.320312-.5625-.5-.9375-.46875zm8.625 5.03125c1.878906 0 3.640625.367188 5.1875 1.03125.03125.011719.0625.023438.09375.03125 3.128906 1.371094 5.40625 3.9375 6.28125 6.9375h-23.125c.863281-2.957031 3.09375-5.492187 6.15625-6.875.066406-.023437.128906-.054687.1875-.09375 1.554688-.671875 3.328125-1.03125 5.21875-1.03125zm-5.5 3c-.832031 0-1.5.671875-1.5 1.5 0 .832031.667969 1.5 1.5 1.5.828125 0 1.5-.667969 1.5-1.5 0-.828125-.671875-1.5-1.5-1.5zm11 0c-.828125 0-1.5.671875-1.5 1.5 0 .832031.671875 1.5 1.5 1.5.832031 0 1.5-.667969 1.5-1.5 0-.828125-.667969-1.5-1.5-1.5zm-17.5 7h24v22c0 .5625-.4375 1-1 1h-7.8125c-.132812-.027344-.273437-.027344-.40625 0h-11.59375c-.132812-.027344-.273437-.027344-.40625 0h-1.78125c-.5625 0-1-.4375-1-1zm-4 2c1.117188 0 2 .882813 2 2v12c0 1.117188-.882812 2-2 2-1.117187 0-2-.882812-2-2v-12c0-1.117187.882813-2 2-2zm32 0c1.117188 0 2 .882813 2 2v12c0 1.117188-.882812 2-2 2-1.117187 0-2-.882812-2-2v-12c0-1.117187.882813-2 2-2zm-24 23h4v6c0 1.117188-.882812 2-2 2-1.117187 0-2-.882812-2-2zm12 0h4v6c0 1.117188-.882812 2-2 2-1.117187 0-2-.882812-2-2z"/></svg>