<svg height="30" viewBox="0 0 30 30" width="30" xmlns="http://www.w3.org/2000/svg" xmlns:xlink="http://www.w3.org/1999/xlink"><defs><linearGradient id="a"><stop offset="0" stop-color="#006bf6"/><stop offset="1" stop-color="#10e951"/></linearGradient><linearGradient id="b" x1="0%" x2="100%" xlink:href="#a" y1="0%" y2="100%"/><path id="c" d="m10.4869021 25.693783-9.46456773-5.4711584c-.63048244-.3593656-1.01903556-1.0340929-1.01903556-1.7601582v-10.94231677c0-.72606526.38855312-1.40079257 1.01903556-1.7601582l9.46456773-5.4711584c.6304824-.35936563 1.4075886-.35936563 2.0307399 0l9.4645677 5.4711584c.6304824.35936563 1.0190355 1.03409294 1.0190355 1.7601582v10.93498277c0 .7260653-.3885531 1.4007926-1.0190355 1.7601582l-9.4645677 5.4711584c-.30791.1833498-.6598072.2786917-1.0117044.2786917s-.7037943-.0880079-1.0190355-.2713577zm-9.19331366-19.45708206.27858526.47670951c-.28591645.16868183-.46919623.47670952-.46919623.80673918v10.93498277c0 .3300297.17594859.6453914.46919623.8067392l9.4645677 5.4711584c.2859164.1686818.6451448.1686818.9310613 0l9.4645676-5.4711584c.2859165-.1686818.4691963-.4767095.4691963-.8067392v-10.93498277c0-.33002966-.1759486-.64539134-.4691963-.80673918l-9.4645676-5.4711584c-.2859165-.16868182-.6451449-.16868182-.9310613 0l-9.47189889 5.4711584z"/><filter id="d" height="107.7%" width="108.7%" x="-4.3%" y="-3.9%"><feGaussianBlur in="SourceAlpha" result="shadowBlurInner1" stdDeviation="1"/><feOffset dx="0" dy="0" in="shadowBlurInner1" result="shadowOffsetInner1"/><feComposite in="shadowOffsetInner1" in2="SourceAlpha" k2="-1" k3="1" operator="arithmetic" result="shadowInnerInner1"/><feColorMatrix in="shadowInnerInner1" type="matrix" values="0 0 0 0 0   0 0 0 0 0   0 0 0 0 0  0 0 0 0.35 0"/></filter><linearGradient id="e" x1="-28.198122%" x2="126.298472%" xlink:href="#a" y1="-28.333148%" y2="128.763118%"/><path id="f" d="m11.5059376 21.1833776c-.2272669 0-.461865-.0586719-.6671384-.1760158l-5.93826475-3.4249745c-.4105467-.2346877-.66713839-.6820613-.66713839-1.1587708v-6.85728297c0-.47670951.25659169-.91674906.66713839-1.15877081l5.93826475-3.42497449c.4105467-.23468776.9237301-.23468776 1.3342768 0l5.9382648 3.42497449c.4105467.23468776.6671384.6820613.6671384 1.15877081v6.85728297c0 .4767095-.2565917.9167491-.6671384 1.1587708l-5.9382648 3.4249745c-.2052733.1173439-.4398715.1760158-.6671384.1760158zm0-1.2467062c-.1926649 0-.3915448-.0497389-.5655648-.1492169l-5.03414805-2.903513c-.34803987-.1989559-.56556478-.5782156-.56556478-.9823448v-5.8132433c0-.40412924.21752491-.77717159.56556478-.98234489l5.03414805-2.90351296c.3480399-.19895592.7830897-.19895592 1.1311296 0l5.0341481 2.90351296c.3480399.19895592.5655648.57821565.5655648.98234489v5.8132433c0 .4041292-.2175249.7771715-.5655648.9823448l-5.0341481 2.903513c-.1740199.099478-.3728999.1492169-.5655648.1492169z"/><filter id="g" height="112.2%" width="113.8%" x="-6.9%" y="-6.1%"><feGaussianBlur in="SourceAlpha" result="shadowBlurInner1" stdDeviation="1"/><feOffset dx="0" dy="0" in="shadowBlurInner1" result="shadowOffsetInner1"/><feComposite in="shadowOffsetInner1" in2="SourceAlpha" k2="-1" k3="1" operator="arithmetic" result="shadowInnerInner1"/><feColorMatrix in="shadowInnerInner1" type="matrix" values="0 0 0 0 0   0 0 0 0 0   0 0 0 0 0  0 0 0 0.35 0"/></filter><linearGradient id="h" x1="-207.076145%" x2="299.839524%" xlink:href="#a" y1="-148.09635%" y2="247.375718%"/><path id="i" d="m9.88574439 16.3429426c-.09530548 0-.19061097-.022002-.27125407-.0733399-.26392288-.1540139-.35189717-.4913775-.19794216-.7480673l3.23305524-5.59583624c.153955-.26402373.4911898-.35203164.7477815-.19801779.2639229.15401384.3518972.49137753.1979422.74806723l-3.2330553 5.5885023c-.1026367.1760158-.2859164.2786917-.47652741.2786917z"/><filter id="j" height="129.9%" width="146.2%" x="-23.1%" y="-14.9%"><feGaussianBlur in="SourceAlpha" result="shadowBlurInner1" stdDeviation="1"/><feOffset dx="0" dy="0" in="shadowBlurInner1" result="shadowOffsetInner1"/><feComposite in="shadowOffsetInner1" in2="SourceAlpha" k2="-1" k3="1" operator="arithmetic" result="shadowInnerInner1"/><feColorMatrix in="shadowInnerInner1" type="matrix" values="0 0 0 0 0   0 0 0 0 0   0 0 0 0 0  0 0 0 0.35 0"/></filter></defs><g fill="none" fill-rule="evenodd" transform="translate(3 2)"><path d="m.64844362 6.6694065 10.74019498 6.2045576 10.7768509-6.2045576v12.5411272l-10.7548574 6.2265596-10.90148111-6.3072336z" fill="#000" fill-opacity=".02"/><use fill="url(#b)" fill-rule="evenodd" xlink:href="#c"/><use fill="#000" filter="url(#d)" xlink:href="#c"/><use fill="url(#e)" fill-rule="evenodd" xlink:href="#f"/><use fill="#000" filter="url(#g)" xlink:href="#f"/><use fill="url(#h)" fill-rule="evenodd" xlink:href="#i"/><use fill="#000" filter="url(#j)" xlink:href="#i"/></g></svg>