<svg width="30px" height="30px" viewBox="0 0 30 30" version="1.1" xmlns="http://www.w3.org/2000/svg" xmlns:xlink="http://www.w3.org/1999/xlink">
<g transform="translate(2.000000, 8.000000)">
    <path d="M12.6868687,14 L8.50505051,14 L6.44444444,10.125535 L3.6969697,10.125535 L3.6969697,14 L0,14 L0,1.42108547e-14 L6.36363636,1.42108547e-14 C10.1212121,1.42108547e-14 12.2626263,1.79743224 12.2626263,4.91298146 C12.2626263,7.0299572 11.3737374,8.58773181 9.73737374,9.42653352 L12.6868687,14 Z M3.6969697,2.91583452 L3.6969697,7.20970043 L6.38383838,7.20970043 C7.87878788,7.20970043 8.74747475,6.45078459 8.74747475,5.03281027 C8.74747475,3.65477889 7.87878788,2.91583452 6.38383838,2.91583452 L3.6969697,2.91583452 Z M14.6262626,0 L25.7979798,0 L25.7979798,2.91583452 L18.3232323,2.91583452 L18.3232323,5.532097 L25.0707071,5.532097 L25.0707071,8.42796006 L18.3232323,8.44793153 L18.3232323,11.0841655 L26,11.0841655 L26,14 L14.6262626,14 L14.6262626,0 Z"></path>
</g>
</svg>