<?xml version="1.0" encoding="UTF-8"?>
<svg viewBox="0 0 30 25" version="1.1" xmlns="http://www.w3.org/2000/svg" xmlns:xlink="http://www.w3.org/1999/xlink">
  <path d="M30,2.88565824 C28.8958117,3.376024 27.7097035,3.70601131 26.4647514,3.85485174 C27.7362409,3.09334256 28.7112034,1.88761971 29.1704165,0.449982693 C27.9820007,1.15495558 26.6643591,1.66724357 25.2613361,1.94415599 C24.138687,0.747663551 22.5395177,0 20.7695858,0 C17.3704858,0 14.6152071,2.75643244 14.6152071,6.15437868 C14.6152071,6.63666782 14.6705896,7.10741895 14.7744318,7.55624784 C9.65962848,7.30010384 5.12518749,4.84942887 2.08838122,1.12495673 C1.55994,2.03415253 1.25649013,3.09103496 1.25649013,4.2206069 C1.25649013,6.35514019 2.34221761,8.23929849 3.99330795,9.34233299 C2.9848852,9.31002654 2.03530633,9.03311411 1.20572286,8.5727472 L1.20572286,8.65005192 C1.20572286,11.6326295 3.32641052,14.1202261 6.14284066,14.6844352 C5.62709127,14.825199 5.08249683,14.9001961 4.52059536,14.9001961 C4.12484135,14.9001961 3.73831776,14.8609669 3.36333218,14.790585 C4.14676359,17.2354909 6.41975309,19.0158071 9.11272643,19.0654206 C7.00703819,20.7165109 4.3532941,21.7007038 1.46878966,21.7007038 C0.972654898,21.7007038 0.482289143,21.6718588 -2.22044605e-16,21.6141687 C2.724126,23.3598708 5.95823238,24.3786777 9.43463713,24.3786777 C20.7557402,24.3786777 26.9447329,15.0005769 26.9447329,6.86742818 C26.9447329,6.60089997 26.9389639,6.33552556 26.9274259,6.07130495 C28.1308411,5.20249221 29.1750317,4.11907234 30,2.88565824 Z"></path>
</svg>
