<?xml version="1.0" encoding="UTF-8"?>
<svg viewBox="0 0 30 30" version="1.1" xmlns="http://www.w3.org/2000/svg" xmlns:xlink="http://www.w3.org/1999/xlink">
  <path d="M27.2727273,0 L2.72727273,0 C1.22045455,0 0,1.22045455 0,2.72727273 L0,27.2727273 C0,28.7795455 1.22045455,30 2.72727273,30 L27.2727273,30 C28.7795455,30 30,28.7795455 30,27.2727273 L30,2.72727273 C30,1.22045455 28.7795455,0 27.2727273,0 Z M9.48272727,24.5454545 L5.46,24.5454545 L5.46,11.6018182 L9.48272727,11.6018182 L9.48272727,24.5454545 Z M7.43045455,9.75136364 C6.13363636,9.75136364 5.085,8.7 5.085,7.40590909 C5.085,6.11181818 6.135,5.06181818 7.43045455,5.06181818 C8.72318182,5.06181818 9.77454545,6.11318182 9.77454545,7.40590909 C9.77454545,8.7 8.72318182,9.75136364 7.43045455,9.75136364 Z M24.5509091,24.5454545 L20.5309091,24.5454545 L20.5309091,18.2509091 C20.5309091,16.7495455 20.5036364,14.8186364 18.4404545,14.8186364 C16.3472727,14.8186364 16.0254545,16.4536364 16.0254545,18.1418182 L16.0254545,24.5454545 L12.0054545,24.5454545 L12.0054545,11.6018182 L15.8645455,11.6018182 L15.8645455,13.3704545 L15.9190909,13.3704545 C16.4563636,12.3531818 17.7681818,11.28 19.725,11.28 C23.7981818,11.28 24.5509091,13.9609091 24.5509091,17.4463636 L24.5509091,24.5454545 Z"></path>
</svg>
