<svg viewBox="0 0 30 25" xmlns="http://www.w3.org/2000/svg"><path d="m30 2.88565824c-1.1041883.49036576-2.2902965.82035307-3.5352486.9691935 1.2714895-.76150918 2.246452-1.96723203 2.7056651-3.40486905-1.1884158.70497289-2.5060574 1.21726088-3.9090804 1.4941733-1.1226491-1.19649244-2.7218184-1.94415599-4.4917503-1.94415599-3.3991 0-6.1543787 2.75643244-6.1543787 6.15437868 0 .48228914.0553825.95304027.1592247 1.40186916-5.11480332-.256144-9.64924431-2.70681897-12.68605058-6.43129111-.52844122.9091958-.83189109 1.96607823-.83189109 3.09565017 0 2.13453329 1.08572748 4.01869159 2.73681782 5.12172609-1.00842275-.03230645-1.95800162-.30921888-2.78758509-.76958579v.07730472c0 2.98257758 2.12068766 5.47017418 4.9371178 6.03438328-.51574939.1407638-1.06034383.2157609-1.6222453.2157609-.39575401 0-.7822776-.0392292-1.15726318-.1096111.78343141 2.4449059 3.05642091 4.2252221 5.74939425 4.2748356-2.10568824 1.6510903-4.75943233 2.6352832-7.64393677 2.6352832-.49613476 0-.98650052-.028845-1.46878966-.0865351 2.724126 1.7457021 5.95823238 2.764509 9.43463713 2.764509 11.32110307 0 17.51009577-9.3781008 17.51009577-17.51124952 0-.26652821-.005769-.53190262-.017307-.79612323 1.2034152-.86881274 2.2476058-1.95223261 3.0725741-3.18564671z"/></svg>