<svg viewBox="0 0 24 24" xmlns="http://www.w3.org/2000/svg"><path d="m12 1c-6.338 0-12 4.226-12 10.007 0 2.05.739 4.063 2.047 5.625.055 1.83-1.023 4.456-1.993 6.368 2.602-.47 6.301-1.508 7.978-2.536 9.236 2.247 15.968-3.405 15.968-9.457 0-5.812-5.701-10.007-12-10.007zm-5 11.5c-.829 0-1.5-.671-1.5-1.5s.671-1.5 1.5-1.5 1.5.671 1.5 1.5-.671 1.5-1.5 1.5zm5 0c-.829 0-1.5-.671-1.5-1.5s.671-1.5 1.5-1.5 1.5.671 1.5 1.5-.671 1.5-1.5 1.5zm5 0c-.828 0-1.5-.671-1.5-1.5s.672-1.5 1.5-1.5c.829 0 1.5.671 1.5 1.5s-.671 1.5-1.5 1.5z"/></svg>