<svg xmlns="http://www.w3.org/2000/svg" viewBox="0 0 30 30">
    <path d="M 13 1 C 9.691 1 7 3.691 7 7 C 7 8.771 7.776 10.360937 9 11.460938 L 9 7 C 9 4.794 10.794 3 13 3 C 15.206 3 17 4.794 17 7 L 17 11.460938 C 18.224 10.361937 19 8.772 19 7 C 19 3.691 16.309 1 13 1 z M 12.875 5.0039062 C 11.828295 5.0684648 11 5.936875 11 7 L 11 22 C 8.448 20.701 7.4050313 20 5.2070312 20 C 4.2070312 20 3 20.443266 3 21.572266 L 3 22 L 8 25 L 11.357422 27.685547 C 12.421422 28.536547 13.742469 29 15.105469 29 L 22 29 C 24.209 29 26 27.209 26 25 L 26 23 L 26 17.5 C 26 16.709 25.382797 16.027953 24.591797 16.001953 C 24.171797 15.987953 23.861813 16.070359 23.632812 16.193359 C 23.274812 16.385359 22.830234 16.222906 22.615234 15.878906 C 22.330234 15.421906 21.84 15 21 15 C 20.5 15 20.114172 15.141312 19.826172 15.320312 C 19.470172 15.542312 19.021406 15.384578 18.816406 15.017578 C 18.533406 14.508578 18 14 17 14 C 16.379 14 15.932094 14.204219 15.621094 14.449219 C 15.369094 14.647219 15 14.449906 15 14.128906 L 15 7.1074219 C 15 6.1114219 14.318937 5.1873438 13.335938 5.0273438 C 13.179312 5.0019688 13.024529 4.9946836 12.875 5.0039062 z"></path>
</svg>