<svg height="30" viewBox="0 0 30 30" width="30" xmlns="http://www.w3.org/2000/svg"><path d="m0 0h30v30h-30zm18.9003584 15.4947917h-.0367887v-1.4947917h-9.78579192v1.4947917h4.08354472v12.5052083h1.6554912v-12.5052083zm1.0996416 10.7112385v1.0552763c.3148426.1758794.7241379.3517588 1.2278861.5276382.5667166.1407035 1.0389805.2110553 1.4482758.2110553 1.1964018 0 2.1094453-.3165829 2.7391305-.9849246.6611694-.6683417.9760119-1.5125628.9760119-2.5326633 0-.7386935-.1889055-1.3718593-.5667166-1.9346734s-1.1334333-1.1959799-2.2668666-1.8994975c-1.101949-.7035176-1.8260869-1.2311558-2.1409295-1.6532663-.3463268-.4221106-.5037481-.9497488-.5037481-1.6532664 0-.7035175.251874-1.3015075.7241379-1.7587939.4722639-.4572865 1.1334333-.7035176 1.952024-.7035176.7871064 0 1.5427286.1758794 2.2668666.5276382v-.9849246c-.724138-.2814071-1.4482759-.4221106-2.1724138-.4221106-1.1019491 0-1.9835083.3165829-2.6446777.9849246s-1.0074962 1.477387-1.0074962 2.4271357c0 .7035176.1889055 1.3366834.5037481 1.8643216s1.101949 1.1959799 2.3298351 2.0050251c1.101949.7035176 1.8260869 1.2663317 2.1409295 1.6884422.3463268.4221106.5037481.9497488.5037481 1.6532664 0 .7738693-.2203898 1.4070352-.7241379 1.8291457-.4722639.4572864-1.1964018.6683417-2.1409295.6683417-.9130435 0-1.7631185-.281407-2.6446777-.9145728z" fill-rule="evenodd"/></svg>