<svg xmlns="http://www.w3.org/2000/svg" viewBox="0 0 30 30">
    <path d="M15,3C8.373,3,3,8.373,3,15c0,6.627,5.373,12,12,12s12-5.373,12-12C27,8.373,21.627,3,15,3z M15,6c1.105,0,2,0.895,2,2 c0,1.105-0.895,2-2,2s-2-0.895-2-2C13,6.895,13.895,6,15,6z M22,14h-3c-0.552,0-1,0.448-1,1v7.967C18,23.537,17.537,24,16.967,24 c-0.544,0-0.995-0.422-1.031-0.964l-0.438-4.57C15.48,18.204,15.263,18,15,18s-0.48,0.204-0.498,0.465l-0.438,4.57 C14.028,23.578,13.577,24,13.033,24C12.463,24,12,23.537,12,22.967V15c0-0.552-0.448-1-1-1H8c-0.553,0-1-0.448-1-1s0.447-1,1-1h14 c0.553,0,1,0.448,1,1S22.553,14,22,14z"></path>
</svg>