<svg viewBox="0 0 30 30" xmlns="http://www.w3.org/2000/svg"><g fill="none" fill-rule="evenodd" transform="translate(2)"><path d="m13.275 0 13.2575 7.5v15l-13.2575 7.5-13.2575-7.5v-15z" fill="#fff"/><g fill-rule="nonzero"><path d="m24.165 21.9825-10.4525 5.9125v-4.605l6.5125-3.5825zm.715-.6475v-12.365l-3.825 2.2075v7.9475zm-22.5375.6475 10.4525 5.9125v-4.605l-6.5125-3.5825zm-.715-.6475v-12.365l3.825 2.2075v7.9475zm.4475-13.165 10.72-6.065v4.4525l-6.8675 3.7775-.0525.03zm22.3575 0-10.72-6.065v4.4525l6.8675 3.7775.0525.03z" fill="#8ed6fb"/><path d="m12.795 22.2425-6.425-3.5325v-7l6.425 3.71zm.9175 0 6.425-3.5325v-7l-6.425 3.71zm-6.9075-11.3425 6.45-3.5475 6.45 3.5475-6.45 3.725z" fill="#1c78c0"/></g></g></svg>
