<?xml version="1.0" encoding="utf-8"?>
<!-- Generator: Adobe Illustrator 16.0.4, SVG Export Plug-In . SVG Version: 6.00 Build 0)  -->
<!DOCTYPE svg PUBLIC "-//W3C//DTD SVG 1.1//EN" "http://www.w3.org/Graphics/SVG/1.1/DTD/svg11.dtd">
<svg version="1.1" id="Layer_1" xmlns="http://www.w3.org/2000/svg" xmlns:xlink="http://www.w3.org/1999/xlink" x="0px" y="0px"
	 width="1522px" height="666px" viewBox="48.5 77 1522 666" enable-background="new 48.5 77 1522 666" xml:space="preserve">
<g>
	<path d="M1395.26,82.874c54.474,54.229,108.951,108.467,163.64,162.911c-4.404,4.372-8.716,8.624-12.994,12.904
		c-12.179,12.168-24.312,24.371-36.556,36.469c-0.938,0.934-2.578,1.639-3.896,1.641c-47.289,0.082-94.578,0.066-141.869,0.059
		c-0.812,0-1.621-0.068-2.369-0.102c16.89-16.846,33.711-33.627,50.705-50.583c-30.418-30.277-60.363-60.081-90.184-89.756
		C1346.659,131.485,1371.11,107.031,1395.26,82.874z"/>
	<path d="M1171.786,406.421c-0.354,15.572-2.976,30.547-10.351,44.416c-9.819,18.465-25.293,30.098-44.877,36.557
		c-17.192,5.677-34.791,6.716-52.668,4.188c-12.725-1.797-24.778-5.506-35.807-12.225c-17.219-10.488-27.781-25.695-31.699-45.423
		c-3.871-19.471-2.522-38.645,4.812-57.122c8.5-21.416,24.321-35.597,45.764-43.236c26.248-9.359,52.754-9.764,78.775,0.789
		c25.375,10.286,40.348,29.297,44.578,56.465C1171.116,395.979,1171.312,401.222,1171.786,406.421z M1128.235,406.351
		c-0.146-1.729-0.285-4.34-0.595-6.932c-1.301-10.907-5.063-20.797-12.834-28.765c-18.612-19.094-51.135-15.975-66.639,6.438
		c-9.492,13.722-11.844,29.148-9.58,45.365c2.885,20.666,17.463,36.881,39.353,38.734c14.69,1.248,27.086-3.552,36.774-14.656
		C1124.5,435.322,1127.891,421.779,1128.235,406.351z"/>
	<path d="M441.035,490.763c1.717-27.102,3.424-54.071,5.156-81.373c-3.674,1.763-6.895,3.736-10.389,4.9
		c-9.816,3.27-19.832,5.959-29.6,9.359c-6.322,2.2-12.566,4.85-18.453,8.024c-6.006,3.24-10.163,8.365-10.837,15.531
		c-0.896,9.514,3.788,16.199,13.16,18.859c10.294,2.918,20.535,1.903,30.706-0.729c2.667-0.688,5.271-1.609,8.39-2.572
		c-1.205,4.229-2.289,8.062-3.393,11.894c-1.473,5.094-2.896,10.201-4.492,15.254c-0.269,0.836-1.214,1.922-1.998,2.063
		c-18.147,3.322-36.34,4.582-54.354-0.584c-23.958-6.873-33.941-26.338-31.875-47.815c1.583-16.455,11.133-27.16,25.008-34.713
		c11.497-6.254,24.048-9.521,36.617-12.748c11.485-2.947,22.995-5.846,34.351-9.246c3.938-1.182,7.682-3.461,11.101-5.836
		c9.354-6.494,7.826-20.701-4.154-25.379c-8.148-3.184-16.637-3.328-25.182-2.816c-19.018,1.141-37.138,6.148-54.834,12.926
		c-0.541,0.209-1.106,0.346-2.046,0.633c0.583-3.787,1.113-7.321,1.677-10.854c0.958-5.984,2.01-11.959,2.871-17.955
		c0.255-1.776,0.925-2.558,2.729-2.973c18.662-4.291,37.444-7.621,56.631-8.556c13.286-0.647,26.47-0.421,39.463,2.671
		c8.962,2.132,17.301,5.626,24.049,12.167c7.391,7.16,10.812,16.074,10.576,26.192c-0.304,13.062-1.046,26.115-1.73,39.166
		c-0.495,9.516-1.396,19.012-1.772,28.525c-0.709,17.95-1.188,35.909-1.71,53.866c-0.045,1.505-0.291,2.306-2.079,2.298
		c-14.185-0.062-28.369-0.033-42.553-0.043C441.662,490.902,441.258,490.796,441.035,490.763z"/>
	<path d="M575.774,402.863c8.28,0.776,16.163,0.762,23.84-1.72c8.355-2.7,15.131-7.253,17.409-16.312
		c1.812-7.211,1.378-14.158-4.593-19.588c-3.147-2.867-7.105-4.412-11.271-4.619c-12.185-0.609-24.38-0.91-36.823-1.34
		c-0.325,4.912-0.67,9.18-0.877,13.451c-0.632,13.057-1.332,26.108-1.776,39.172c-0.634,18.543-1.084,37.094-1.572,55.641
		c-0.181,6.748-0.266,13.498-0.359,20.246c-0.017,1.193-0.028,2.127-1.679,2.123c-14.522-0.047-29.042-0.039-43.563-0.057
		c-0.233,0-0.467-0.144-1.036-0.326c5.992-52.961,7.286-106.199,7.688-159.832c1.146,0,2.126,0,3.103,0
		c28.367,0.024,56.738-0.119,85.104,0.143c12.831,0.119,25.387,2.207,36.582,9.136c10.521,6.511,15.938,16.142,16.75,28.426
		c0.92,13.957-2.417,26.425-12.939,36.282c-6.379,5.979-14.023,9.84-22.146,12.852c-1.252,0.461-2.494,0.938-4.361,1.645
		c10.638,23.867,21.202,47.566,31.882,71.535c-0.972,0.074-1.682,0.177-2.394,0.177c-14.858,0.016-29.717,0.008-44.577,0.021
		c-1.385,0-2.468,0.062-3.006-1.797c-8.248-28.467-18.688-56.185-28.938-83.959C576.101,403.855,576.004,403.544,575.774,402.863z"
		/>
	<path d="M1250.696,402.845c9.26,0.894,18.014,0.648,26.491-2.621c11.479-4.43,17.072-13.899,15.166-25.938
		c-1.125-7.111-6.659-12.244-15.077-13.486c-4.486-0.664-9.054-0.941-13.595-1.031c-8.01-0.158-16.028-0.045-24.373-0.045
		c-0.188,1.947-0.457,3.834-0.541,5.729c-0.938,20.812-1.93,41.621-2.729,62.436c-0.502,13.064-0.721,26.142-1.027,39.211
		c-0.158,6.832-0.231,13.666-0.342,20.498c-0.02,1.205,0.098,2.33-1.762,2.324c-14.521-0.059-29.045-0.045-43.566-0.061
		c-0.232-0.004-0.463-0.158-0.961-0.341c6.002-52.975,7.297-106.223,7.697-159.658c0.934-0.061,1.668-0.15,2.397-0.148
		c28.707,0.016,57.416-0.144,86.119,0.146c13.004,0.129,25.73,2.315,36.961,9.562c9.965,6.428,15.14,15.775,16.021,27.549
		c0.947,12.68-1.596,24.348-10.295,34.062c-6.695,7.475-15.34,11.979-24.595,15.453c-1.254,0.469-2.52,0.918-4.061,1.477
		c9.268,24.404,21.115,47.609,31.477,71.795c-1.145,0.062-1.946,0.137-2.752,0.14c-14.774,0.01-29.553-0.015-44.329,0.034
		c-1.644,0.009-2.507-0.311-3.029-2.118c-8.236-28.304-18.58-55.88-28.818-83.49C1251.03,403.939,1250.92,403.546,1250.696,402.845z
		"/>
	<path d="M733.92,393.721c23.208,0,46.039,0,69.271,0c-0.679,10.094-1.363,20.315-2.062,30.772c-23.072,0-45.907,0-69.123,0
		c-0.688,11.529-1.365,22.84-2.062,34.5c27.675,0.35,55.115-0.017,82.921-1.676c-0.638,10.896-1.258,21.534-1.892,32.377
		c-43.229,0-86.316,0-129.793,0c5.604-53.104,7.899-106.298,8.163-159.792c43.108,0,86.113,0,129.49,0
		c-0.492,10.593-0.981,21.138-1.459,31.421c-27.21-0.438-54.022-0.863-81.41-1.306C735.266,371.503,734.594,382.593,733.92,393.721z
		"/>
	<path d="M70.813,329.604c5.994,0,11.474,0,16.953,0c9.205,0.001,18.408,0.065,27.61-0.047c2.028-0.024,2.935,0.558,3.546,2.536
		c11.441,37.05,22.956,74.074,34.457,111.107c0.391,1.256,0.793,2.508,1.335,4.217c2.672-6.898,5.191-13.391,7.703-19.887
		c12.324-31.861,24.648-63.724,36.959-95.59c0.498-1.287,0.817-2.384,2.678-2.375c14.945,0.082,29.892,0.053,44.837,0.062
		c0.329,0.002,0.66,0.082,1.311,0.168c-2.306,4.992-4.609,9.83-6.788,14.721c-19.384,43.525-38.755,87.056-58.106,130.597
		c-2.084,4.688-3.958,9.475-6.089,14.145c-0.34,0.748-1.524,1.578-2.322,1.584c-15.283,0.092-30.565,0.033-45.848,0.119
		c-1.866,0.01-2.166-1.024-2.614-2.352c-7.194-21.188-14.251-42.427-21.663-63.533c-10.175-28.978-20.626-57.853-30.952-86.771
		C72.834,335.542,71.903,332.763,70.813,329.604z"/>
	<path d="M898.6,400.306c2.9,0,5.5,0.037,8.103-0.006c7.438-0.119,14.42-1.631,19.994-7.002c6.237-6.016,8.02-17.411,4.024-25.104
		c-2.141-4.117-5.68-6.75-10.067-7.303c-6.15-0.771-12.408-0.904-18.619-0.937c-4.183-0.021-8.369,0.601-12.678,0.94
		c-2.73,42.945-4.173,85.8-4.22,128.854c-14.678,0-29.067,0-43.789,0c3.851-53.234,6.078-106.427,6.8-159.86
		c0.793-0.066,1.521-0.179,2.25-0.179c28.538,0.017,57.073-0.149,85.606,0.153c12.984,0.138,24.594,4.257,32.812,15.077
		c6.586,8.683,8.977,18.799,8.954,29.472c-0.034,15.437-4.903,29.008-16.653,39.518c-9.379,8.39-20.611,12.783-33.035,13.617
		c-7.021,0.471-14.119-0.149-21.172-0.424c-0.724-0.025-1.857-0.938-2.041-1.635C902.709,417.183,900.7,408.845,898.6,400.306z"/>
	<path d="M1359.646,329.839c49.97,0,99.578,0,149.402,0c-0.424,10.562-0.84,20.97-1.262,31.531
		c-17.086-0.361-33.973-0.718-51.049-1.08c-3.111,43.273-4.799,86.223-5.623,129.41c-16.062,0-31.955,0-48.166,0
		c4.289-43.017,6.576-85.986,6.938-129.441c-17.164,0.423-34.062,0.837-51.307,1.263
		C1358.938,350.93,1359.288,340.509,1359.646,329.839z"/>
	<path d="M260.052,490.916c5.172-53.807,7.146-107.35,7.459-161.129c16.116,0,31.921,0,47.85,0
		c-0.502,6.641-1.027,13.09-1.474,19.543c-0.646,9.418-1.453,18.834-1.811,28.264c-0.874,23.084-1.626,46.172-2.235,69.265
		c-0.362,13.743-0.415,27.493-0.476,41.241c-0.012,2.195-0.549,2.879-2.82,2.863c-14.515-0.102-29.033-0.049-43.549-0.047
		C262.172,490.916,261.345,490.916,260.052,490.916z"/>
	<path d="M268.995,272.483c16.229,0,31.745,0,47.442,0c0.054,0.806,0.164,1.536,0.139,2.261c-0.339,9.018-0.707,18.03-1.045,27.047
		c-0.048,1.276-0.4,2.063-1.896,2.058c-14.774-0.05-29.548-0.065-44.323-0.099c-0.155,0-0.311-0.11-0.319-0.113
		C268.995,293.264,268.995,282.958,268.995,272.483z"/>
</g>
</svg>
