<?xml version="1.0" encoding="utf-8"?>


<!-- The icon can be used freely in both personal and commercial projects with no attribution required, but always appreciated. 
You may NOT sub-license, resell, rent, redistribute or otherwise transfer the icon without express written permission from iconmonstr.com -->


<!DOCTYPE svg PUBLIC "-//W3C//DTD SVG 1.1//EN" "http://www.w3.org/Graphics/SVG/1.1/DTD/svg11.dtd">

<svg version="1.1" xmlns="http://www.w3.org/2000/svg" xmlns:xlink="http://www.w3.org/1999/xlink" x="0px" y="0px"

	 width="512px" height="512px" viewBox="0 0 512 512" enable-background="new 0 0 512 512" xml:space="preserve">

<path id="skype-icon" d="M445.115,289.693c1.918-10.9,2.977-22.094,2.977-33.544c0-106.172-86.072-192.241-192.245-192.241

	c-12.098,0-23.919,1.169-35.398,3.308c-16.979-10.338-36.917-16.292-58.252-16.292C100.229,50.924,50,101.152,50,163.12

	c0,21.597,6.116,41.756,16.686,58.872c-1.99,11.094-3.084,22.491-3.084,34.157c0,106.177,86.069,192.249,192.245,192.249

	c12.322,0,24.354-1.207,36.027-3.422c16.913,10.217,36.73,16.1,57.931,16.1c61.964,0,112.195-50.232,112.195-112.199

	C462,327.148,455.805,306.875,445.115,289.693z M262.622,390.668c-54.751,0-109.781-24.822-109.502-67.557

	c0.085-12.891,9.714-24.725,22.519-24.725c32.232,0,31.938,47.906,83.268,47.906c36.023,0,48.311-19.648,48.311-33.336

	c0-49.453-155.657-19.135-155.657-112.151c0-50.335,41.355-85.062,106.354-81.243c61.995,3.642,98.314,30.908,101.837,56.379

	c1.735,16.632-9.334,29.574-28.541,29.574c-28.038,0-30.908-37.384-79.184-37.384c-21.784,0-40.181,9.052-40.181,28.7

	c0,41.062,154.738,17.22,154.738,107.588C366.583,356.521,324.879,390.668,262.622,390.668z"/>

</svg>

